<svg width="155" height="40" viewBox="0 0 155 40" fill="none" xmlns="http://www.w3.org/2000/svg">
<path fill-rule="evenodd" clip-rule="evenodd" d="M23.0021 35.2452C13.4787 35.2289 5.77116 27.5222 5.75484 18C5.77116 8.47371 13.4787 0.771083 23.0021 0.754764C32.5294 0.771083 40.2329 8.47779 40.2492 18C40.2329 27.5222 32.5294 35.2248 23.0021 35.2452ZM23.0021 0C13.0585 0 5 8.05758 5 18C5 27.9424 13.0585 35.9959 23.0021 36C32.9456 36 41 27.9424 41 18C41.0041 8.05758 32.9456 0 23.0021 0Z" fill="#074276"/>
<path fill-rule="evenodd" clip-rule="evenodd" d="M10.9206 13.1729C15.4032 10.2274 20.3622 8.50589 28.7672 9.96259C29.2315 9.69373 29.4836 9.44091 29.6037 8.88713C27.5065 8.12868 25.2331 7.86382 22.2874 7.91198C19.6417 7.98823 14.8829 8.9714 12.3414 10.4763L13.1179 9.50512C14.8949 8.46577 19.5257 7.07327 22.9958 7.00104C25.4452 6.9569 26.718 7.09334 29.6237 7.87988C29.3716 7.37826 28.7632 7.12946 27.8867 6.73217C25.069 5.46408 19.8058 5.34771 15.4953 7.24984C16.0436 6.89269 16.5759 6.5556 17.2723 6.23457C18.6932 5.58447 21.0185 4.95444 23.9283 5.00259C26.2497 5.03871 29.0074 5.85334 30.7004 7.53476C30.9805 7.86784 31.1446 8.22098 31.2167 8.50188C32.5575 9.18007 33.3299 9.81412 33.7702 10.5685C33.9463 10.9458 34.0263 11.3752 33.9423 11.8447C34.4986 12.1818 34.7628 12.4546 35.0389 12.8318C35.239 13.1368 35.3831 13.4819 35.4191 13.803C35.4792 14.2243 35.5232 14.6939 35.0829 15.2476C35.5432 15.4724 35.9034 16.1064 35.9595 16.3873C36.1716 17.3986 35.5232 18.3858 34.6667 19.1482C33.6821 20.015 31.5128 21.0423 29.7438 21.4958C26.2297 22.3827 23.1279 22.7599 20.6583 23.2133C21.759 23.4782 23.268 23.8353 25.7254 23.8353C30.9645 23.8353 35.5992 21.3513 35.5992 21.3513C35.5992 21.3513 35.4952 21.6804 35.3911 21.9613C32.0652 23.9798 26.762 24.8306 24.5047 24.7302C22.2073 24.6219 20.2741 24.2808 18.385 23.6989C17.8046 23.8514 17.2323 24.032 16.684 24.2808C19.5617 25.593 21.735 25.89 24.1965 26.0665C26.702 26.2511 30.8564 25.6492 34.3665 24.3731C34.2064 24.5296 34.1224 24.7864 33.9583 24.9349C32.1652 25.8779 28.367 26.829 26.4578 26.9093C24.5607 26.9855 22.2434 26.9173 20.2341 26.5361C18.4931 26.199 17.0842 25.6492 15.6073 24.9991C15.3352 25.1957 15.2031 25.4566 15.1551 25.7375C20.9265 28.7632 26.3378 28.8274 32.4894 26.9133L31.9251 27.455C25.1531 30.2039 19.8579 29.1364 15.7594 27.1581C15.6274 27.0979 15.4633 27.0337 15.3432 26.9574C15.7194 27.6195 18.8533 29.9109 22.3474 30.1999C24.7608 30.4005 27.7066 29.9832 29.4516 29.2849L28.431 29.8186C27.5825 30.232 25.3452 31.179 22.2033 30.9704C18.0288 30.6895 15.6754 28.8395 14.6228 27.8684C14.1345 27.4149 13.9023 26.8892 13.7543 26.2431C12.8097 25.7455 12.2133 25.2359 11.7251 24.4654C11.4329 24.0119 11.4929 23.5103 11.565 23.0849C11.585 22.9525 11.625 22.8281 11.673 22.7037C11.2168 22.3746 10.7605 22.0215 10.5644 21.6643C10.1521 20.9179 10.4083 20.2759 10.6924 19.7783C10.4403 19.5014 10.2162 19.2124 10.1121 18.9275C10 18.5784 9.98403 18.2574 10.012 17.8922C10.0921 17.2621 10.4243 16.6883 10.8565 16.1907C11.7731 15.1353 13.2019 14.3166 15.6674 13.498C18.0688 12.6994 19.0414 12.583 20.8545 12.1577C22.9718 11.6641 25.5053 11.5076 27.6305 10.7652C21.719 9.72182 15.5793 10.6689 10.5724 14.124L10.9206 13.1729ZM31.0566 9.51716C30.9845 9.8101 30.6683 10.1472 30.4522 10.3759C31.0966 10.5445 31.745 10.7812 32.3693 11.018C32.2933 10.4441 31.6249 9.89036 31.0566 9.51716ZM12.8457 21.3553C12.4695 21.1427 12.2053 20.9942 11.8852 20.7735C11.713 21.1467 12.0372 21.56 12.3814 21.7607C12.5255 21.6122 12.6976 21.4918 12.8457 21.3553ZM32.7696 13.6104C33.1938 13.819 33.5781 13.9755 33.9503 14.2404C34.2184 13.7307 34.0543 13.3937 33.494 12.9241C33.2859 13.181 33.0337 13.4017 32.7696 13.6104ZM31.5088 14.3889C30.6443 14.7902 29.4036 15.2035 27.6345 15.6529C26.1857 16.0181 22.6396 16.5238 18.8333 17.3544C17.6245 17.6153 14.3626 18.3898 12.7577 19.7582C13.2059 20.1194 13.4821 20.2076 13.9784 20.4845C14.6468 20.0592 15.5393 19.6539 16.8841 19.2967C19.2215 18.6707 20.9625 18.3978 23.0638 18.0647C25.1531 17.7397 29.0714 16.917 31.2447 16.1345C31.9531 15.8777 32.6095 15.5486 33.1018 15.1674C32.9497 15.0029 31.5529 14.3247 31.5088 14.3889ZM15.059 23.5023C15.3792 23.3096 15.7674 23.121 16.2117 22.9445C15.6033 22.6917 14.979 22.4148 14.3466 22.1218C14.0624 22.2984 13.8063 22.491 13.6022 22.6836C14.0825 22.9685 14.5667 23.2454 15.059 23.5023ZM13.0538 23.7029C13.0458 24.0922 13.282 24.4413 13.8023 24.8707C13.8663 24.658 13.9624 24.5015 14.1145 24.3008C13.7543 24.1162 13.398 23.9156 13.0538 23.7029ZM16.0036 16.4636C20.2821 15.2075 24.7728 14.8183 29.3195 13.6063C27.5425 13.1248 26.5699 12.9201 24.6928 13.1408C21.9631 13.4619 18.9653 14.0598 16.3958 14.8223C15.3912 15.1273 10.0881 16.6281 11.617 18.7349C11.617 18.763 12.5255 17.4869 16.0036 16.4636ZM32.0492 12.0734C31.3527 11.7604 30.4802 11.4514 29.5557 11.2026C29.1434 11.5317 28.6591 11.8246 27.9707 12.0935C29.1274 12.2981 29.9919 12.6192 30.9605 12.9001C31.1366 12.9884 31.9251 12.246 32.0492 12.0734ZM34.1584 16.2027C34.0263 16.3151 33.8862 16.4234 33.7261 16.5438C32.7576 17.2942 31.2287 17.8922 29.1074 18.458C24.7048 19.6458 21.5068 19.8224 17.8727 20.7133C17.1683 20.8818 16.4238 21.1266 15.7394 21.4035C16.4238 21.7446 17.1563 22.0656 17.9047 22.3506C19.3776 21.9292 20.09 21.7326 22.2273 21.3714C23.0398 21.2309 25.5533 20.7935 27.3664 20.4083C30.6363 19.706 35.4352 18.1931 34.1584 16.2027Z" fill="#074276"/>
<path d="M66.8776 17.8082C66.8776 11.8427 62.7154 7 57.5836 7C55.0091 7 52.6842 8.21918 51 10.1869L53.3646 13.8501C54.357 12.4211 55.8824 11.4968 57.5892 11.4968C58.8311 11.4968 59.9765 11.9845 60.8895 12.801C61.7231 13.5439 61.9329 14.5646 61.9783 15.7384H55.1055V19.9346H62.1087C62.1427 20.7228 61.9329 21.443 61.4566 22.0498C60.4642 23.3143 59.177 24.1082 57.5892 24.1082C56.0071 24.2556 54.8617 23.6432 52.7636 21.976L51.0624 25.4861C52.7409 27.4141 55.0488 28.6049 57.5892 28.6049C63.1464 28.5993 66.9457 24.8 66.8776 17.8082ZM76.5573 12.1376H81.2526V7H66.6962V12.1376H71.3914V28.639H76.5573V12.1376ZM92.2819 28.639H97.4478V7H83.844V28.639H88.9589V12.1376H92.2762V28.639H92.2819ZM111.976 12.251H116.983V7H106.697V28.639H111.976V12.251ZM127.536 28.639H132.702V7H119.098V28.639H124.213V12.1376H127.53V28.639H127.536ZM140.266 19.481H141.809C142.898 19.481 143.493 20.0991 143.493 21.9023C143.493 23.7056 142.676 24.3463 141.968 24.403C141.315 24.4597 140.261 24.4257 140.261 24.4257V19.481H140.266ZM140.266 14.9672V11.9221H147.122V7H135.424V28.639H141.951C142.983 28.639 148.37 27.9188 148.37 21.7152C148.37 15.5116 142.818 14.9672 141.349 14.9672H140.266Z" fill="#074276"/>
</svg>
