<svg width="146" height="74" viewBox="0 0 146 74" fill="none" xmlns="http://www.w3.org/2000/svg">
<g clip-path="url(#clip0_4095_25255)">
<mask id="mask0_4095_25255" style="mask-type:alpha" maskUnits="userSpaceOnUse" x="0" y="0" width="147" height="71">
<path d="M0 0.196289H146.591V70.5258H0V0.196289Z" fill="white"/>
</mask>
<g mask="url(#mask0_4095_25255)">
<path fill-rule="evenodd" clip-rule="evenodd" d="M99.3216 59.4962C99.8747 59.4962 100.071 59.6188 100.071 60.2508V63.6758C100.071 64.3004 99.8747 64.4575 99.3216 64.4575H98.9363V59.4962H99.3216ZM139.005 62.81C139.558 62.81 139.728 62.9479 139.728 63.5572V64.8445C139.728 65.4493 139.558 65.5911 139.005 65.5911H138.452V62.81H139.005ZM95.3824 60.2735C95.3824 59.6529 95.5866 59.4962 96.1304 59.4962H96.527V64.4575H96.1304C95.5866 64.4575 95.3824 64.3118 95.3824 63.6872V60.2735ZM48.8643 70.5258H146.591V54.1633H48.8643V70.5258ZM59.4757 56.8184H56.9961V60.9288H55.7216V56.8184H53.2439V67.4724H55.7216V62.81H56.9961V67.4724H59.4757V56.8184ZM80.0174 56.8105H74.072V67.4803H80.0174V65.4572H76.6279V62.9479H79.6607V60.9288H76.6279V58.8296H80.0174V56.8105ZM102.472 60.3467C102.472 58.1704 101.418 57.619 98.9363 57.619V56.8184H96.527V57.619C94.04 57.619 92.9771 58.1704 92.9771 60.3467V63.6758C92.9771 65.8367 94.0853 66.4188 96.527 66.4188V67.4724H98.9363V66.4188C101.378 66.4188 102.472 65.8367 102.472 63.6758V60.3467ZM121.529 56.8105H115.289V58.8296H117.301V67.4803H119.657V58.8296H121.529V56.8105ZM142.202 63.6298C142.202 61.4995 141.302 60.9288 138.87 60.9288H138.452V56.8184H135.974V67.4724H138.452C141.145 67.4724 142.202 67.0588 142.202 64.7259V63.6298ZM42.3274 45.988V62.7754C37.8676 67.5376 31.5212 70.5258 24.473 70.5258C10.9622 70.5258 0 59.5649 0 46.0493C0 32.5411 10.9622 21.5808 24.473 21.5808V39.9811C20.9575 39.9811 17.4401 41.3218 14.7582 44.0035C14.1175 44.6395 13.5565 45.3254 13.0703 46.0493C9.47073 51.3936 10.0297 58.711 14.7582 63.4381C17.4401 66.1125 20.9575 67.461 24.473 67.461C27.9713 67.461 31.4739 66.1317 34.1539 63.4687C34.1671 63.4534 34.1809 63.446 34.1957 63.4347V63.4267L34.2301 63.4001C36.9179 60.7143 36.9179 56.3509 34.2301 53.6731C31.5423 50.9835 27.1913 50.9835 24.5055 53.6731C24.4883 53.6805 24.4809 53.6884 24.473 53.6998V45.988H42.3274ZM39.2834 12.8842C40.7596 19.4011 40.7326 23.4082 40.0919 27.9786C38.9301 36.2078 35.2084 42.4978 33.5968 44.6089C32.4901 43.1758 30.7968 40.2529 29.6675 37.5257C29.6675 37.5257 27.5308 32.3346 26.9664 27.2774C26.4015 22.2168 26.6441 17.0756 28.2901 11.2866C29.7989 6.08463 32.7593 1.41043 33.5702 0.196289C34.0791 1.05809 37.8007 6.36432 39.2834 12.8842ZM33.5702 42.9885C34.3256 41.5822 35.6227 38.4987 35.5081 34.5795C35.3501 30.5798 34.0033 27.649 33.5968 26.9478C33.1333 27.649 31.5729 31.0088 31.5994 34.9358C31.7106 38.9849 32.8434 41.6133 33.5702 42.9885ZM38.8558 23.9483C38.9015 21.4617 38.6629 17.2362 37.4538 12.8269C36.2408 8.41753 33.8886 4.22266 33.5417 3.6781C33.1963 4.22266 31.3342 7.62836 29.6901 12.9608C29.2571 14.5584 28.4771 18.0259 28.3418 21.4044C28.1834 25.5034 28.7365 29.5683 28.9599 30.7177C28.9599 29.3617 28.9864 24.8407 29.822 21.1094C30.659 17.3701 32.25 13.068 33.5417 10.8809C34.9437 13.1831 36.7004 18.1519 37.3145 21.1326C37.9385 24.1128 38.2623 27.9247 38.1289 30.6258C38.5029 29.0588 38.7987 26.4344 38.8558 23.9483ZM140.485 21.4543H146.591V45.992H141.891V30.6026H141.729L139.31 45.992H135.556L133.143 30.6026H132.983V45.992H128.281V21.4543H134.377L137.421 38.6978L140.485 21.4543ZM106.942 34.9472C107.453 34.9472 107.817 34.495 107.817 33.7212V25.7258C107.817 24.9559 107.453 24.5003 106.942 24.5003H105.706V34.9472H106.942ZM101.015 21.4543H108.388C111.676 21.4543 112.197 24.1208 112.197 25.8369V33.2616C112.197 34.9852 111.676 37.6517 108.388 37.6517H105.706V45.992H101.015V21.4543ZM86.7566 21.4543H97.618V45.992H93.2384V24.5003H91.1327V45.992H86.7566V21.4543ZM77.5034 37.3992V42.0155C77.5034 42.6515 77.9654 42.8274 78.2381 42.8274C78.6691 42.8274 78.9703 42.4405 78.9703 42.0155V36.311C78.9703 35.5446 78.8404 34.7021 77.0935 34.7021H75.1861V32.005H77.1604C78.5008 32.005 78.9703 31.6793 78.9703 30.185V25.3042C78.9703 24.8832 78.6691 24.5003 78.2381 24.5003C77.9654 24.5003 77.5034 24.6762 77.5034 25.3042V29.3039H72.8015V25.8369C72.8015 24.1208 73.0096 21.4543 76.2904 21.4543H80.1833C83.468 21.4543 83.6707 24.1208 83.6707 25.8369V29.7674C83.6707 32.4265 81.8889 33.1578 80.479 33.0891V33.3377C83.6304 33.2616 83.6707 35.7897 83.6707 36.6673V41.6054C83.6707 43.3255 83.468 45.992 80.1833 45.992H76.2904C73.0096 45.992 72.8015 43.3255 72.8015 41.6054V37.3992H77.5034ZM65.5796 36.7706L64.7745 24.5003H64.5152L63.7028 36.7706H65.5796ZM60.9559 21.4543H68.3323L70.7814 45.992H66.1883L65.7533 39.4677H63.5409L63.0965 45.992H58.5127L60.9559 21.4543ZM48.8643 21.4543H57.8203V24.5003H53.5569V45.992H48.8643V21.4543ZM122.017 21.4543C125.305 21.4543 125.511 24.1208 125.511 25.8369V41.6054C125.511 43.3255 125.305 45.992 122.017 45.992H118.133C114.85 45.992 114.652 43.3255 114.652 41.6054V25.8369C114.652 24.1208 114.85 21.4543 118.133 21.4543H122.017ZM120.081 42.9579C120.647 42.9579 121.118 42.5211 121.118 41.981L121.117 41.9503V25.5034V25.4308L121.109 25.3542C121.06 24.8753 120.613 24.4924 120.073 24.4924C119.535 24.4924 119.104 24.8753 119.041 25.3542V25.4308V25.5034V41.9503L119.034 41.981C119.034 42.5211 119.503 42.9579 120.081 42.9579Z" fill="#1A7FC3"/>
</g>
<path fill-rule="evenodd" clip-rule="evenodd" d="M140.694 21.896H146.642V46.7777H142.064V31.1725H141.905L139.55 46.7777H135.893L133.543 31.1725H133.387V46.7777H128.807V21.896H134.745L137.71 39.3812L140.694 21.896Z" fill="#1A7FC3"/>
</g>
<defs>
<clipPath id="clip0_4095_25255">
<rect width="146" height="74" fill="white"/>
</clipPath>
</defs>
</svg>
