<svg width="115" height="56" fill="none" xmlns="http://www.w3.org/2000/svg"><path d="M19.616 42.687c0-.028 0-.028 0 0 2.173-2.147 5.679-2.147 7.823-.028a5.414 5.414 0 010 7.701l-.03.029-.028.028c-2.144 2.119-4.955 3.15-7.765 3.15-2.81 0-5.65-1.06-7.794-3.178a10.808 10.808 0 01-1.362-13.771c.376-.573.84-1.117 1.362-1.632 2.144-2.119 4.983-3.178 7.794-3.178V17.235C8.779 17.235 0 25.91 0 36.618 0 47.325 8.78 56 19.616 56c5.65 0 10.75-2.348 14.313-6.127V36.618H19.616v6.07zm3.94-12.94c.927 2.175 2.29 4.494 3.188 5.64 1.303-1.69 4.317-6.7 5.273-13.256.521-3.636.55-6.843-.667-12.053C30.134 4.896 27.12.688 26.715-.03c-.666.974-3.07 4.696-4.288 8.847-1.332 4.61-1.535 8.704-1.072 12.74.464 4.066 2.202 8.189 2.202 8.189zm3.159 4.38c-.58-1.088-1.507-3.207-1.594-6.413-.029-3.12 1.246-5.812 1.623-6.356.318.572 1.42 2.892 1.564 6.098.058 3.064-.985 5.526-1.593 6.67zm-4.23-17.235c.115-2.691.753-5.469 1.1-6.728 1.333-4.266 2.84-6.957 3.13-7.387.29.43 2.173 3.78 3.158 7.3.985 3.522 1.188 6.872 1.13 8.876-.058 1.976-.29 4.066-.58 5.325.116-2.147-.145-5.21-.666-7.587-.522-2.376-1.941-6.356-3.071-8.188-1.044 1.747-2.347 5.182-3.014 8.16-.666 2.977-.695 6.584-.695 7.672-.174-.916-.638-4.18-.493-7.443zm58.963 13.026h2.173c2.665 0 2.81-2.118 2.81-3.464v-5.898c0-1.345-.174-3.464-2.81-3.464h-5.97v19.411h3.797v-6.585zm0-10.421h.492c.406 0 .695.372.695.973v6.328c0 .6-.29.973-.695.973h-.492v-8.274zm-11.272 0h1.188v17.006h3.796v-19.41h-8.78v19.41h3.796V19.497zm21.557 17.006h3.13c2.665 0 2.81-2.118 2.81-3.464V20.556c0-1.345-.174-3.464-2.81-3.464h-3.13c-2.665 0-2.81 2.119-2.81 3.464V33.04c0 1.374.174 3.464 2.81 3.464zm.986-16.376c0-.487.376-.63.608-.63.348 0 .609.315.609.63v13.227c0 .343-.232.63-.609.63-.232 0-.608-.143-.608-.63V20.127zm11.271 4.208h.145l1.941 12.168h3.042l1.941-12.168h.145v12.168H115v-19.41h-4.926l-2.463 13.655-2.462-13.656h-4.926v19.411h3.796V24.335h-.029zm-63.947-4.838h3.419v-2.405h-7.244v19.411h3.796V19.497h.029zm7.591 11.853h1.797l.347 5.153h3.709l-1.97-19.41h-5.969l-1.97 19.41h3.708l.348-5.153zm.782-11.853h.203l.667 9.706h-1.507l.637-9.706zm9.504 17.006h3.158c2.666 0 2.81-2.118 2.81-3.464v-3.922c0-.688-.028-2.692-2.578-2.634v-.2c1.13.056 2.579-.516 2.579-2.635v-3.092c0-1.345-.174-3.464-2.81-3.464H57.92c-2.666 0-2.81 2.119-2.81 3.464v2.749h3.795v-3.178c0-.487.377-.63.609-.63.347 0 .608.315.608.63v3.865c0 1.202-.377 1.431-1.477 1.431H57.05v2.148h1.535c1.42 0 1.507.658 1.507 1.288v4.523c0 .344-.232.63-.608.63-.203 0-.609-.143-.609-.63v-3.664H55.08v3.32c.029 1.375.202 3.465 2.84 3.465zm-13.995 11.08c-.202 0-.434.114-.434.43v2.576c0 .315.203.458.434.458a.43.43 0 00.435-.458v-2.577c0-.286-.232-.43-.435-.43zm65.28 2.061h-.232v1.289h.203c.348 0 .609-.115.609-.63.029-.487-.261-.659-.58-.659zM36.218 42.63V56h78.753V42.63H36.218zm5.621 9.219h-1.275l-.58-1.775-.347.572v1.174H38.45v-5.067h1.188v2.032l.87-2.032h1.332l-1.13 2.233 1.13 2.863zm3.767-1.489c0 1.002-.522 1.603-1.68 1.603-1.16 0-1.681-.572-1.681-1.603v-2.29c0-.802.521-1.432 1.68-1.432 1.16 0 1.652.63 1.652 1.432v2.29h.029zm3.94-1.918h-1.245v-.458c0-.258-.261-.401-.464-.401s-.435.114-.435.372v2.52c0 .372.174.544.435.544.26 0 .464-.144.464-.516v-.658h1.245v.486c0 1.145-.521 1.66-1.68 1.66-1.13 0-1.68-.486-1.68-1.66v-2.233c0-.801.492-1.431 1.68-1.431 1.159 0 1.68.658 1.68 1.431v.344zm5.303 3.407H53.66v-1.775c0-.487.029-1.775.058-2.205l-.754 3.98h-.869l-.753-3.98c.029.344.058 1.518.058 2.205v1.775h-1.188V46.78h1.71l.405 2.062c.087.429.116 1.116.174 1.603.058-.458.116-1.231.174-1.603l.405-2.062h1.71v5.068h.058zm3.94 0h-1.188v-1.174c0-.544.174-1.374.232-1.918l-1.072 3.092h-1.188V46.78h1.188v1.26c0 .573-.145 1.374-.174 1.918l1.043-3.178h1.188v5.068h-.029zm3.94 0h-1.245v-2.147c-.26.057-.464.085-.927.085-.464 0-1.101-.315-1.101-1.202V46.78h1.246v1.69c0 .229.116.343.347.343.174 0 .32-.029.464-.086V46.78h1.246v5.068h-.03zm3.594-4.123H64.67v1.002h1.478v.974H64.67v1.202h1.652v.973h-2.869V46.81h2.869v.916zm3.824.716h-1.246v-.458c0-.258-.26-.401-.463-.401s-.435.114-.435.372v2.52c0 .372.174.544.435.544.26 0 .463-.144.463-.516v-.658h1.246v.486c0 1.145-.521 1.66-1.68 1.66-1.13 0-1.68-.486-1.68-1.66v-2.233c0-.801.492-1.431 1.68-1.431 1.159 0 1.68.658 1.68 1.431v.344zm4.028 3.407H72.87l-.58-1.775-.347.572v1.174h-1.188v-5.067h1.188v2.032l.87-2.032h1.332l-1.13 2.233 1.159 2.863zm3.709 0h-1.188v-1.174c0-.544.174-1.374.231-1.918l-1.072 3.092h-1.188V46.78h1.188v1.26c0 .573-.145 1.374-.174 1.918l1.044-3.178h1.188v5.068h-.03zm3.592-4.123h-1.651v1.002h1.478v.974h-1.478v1.202h1.651v.973h-2.868V46.81h2.868v.916zm5.68.716H85.91v-.458c0-.258-.261-.401-.464-.401s-.435.114-.435.372v2.52c0 .372.174.544.435.544.26 0 .464-.144.464-.516v-.658h1.246v.486c0 1.145-.522 1.66-1.681 1.66-1.13 0-1.68-.486-1.68-1.66v-2.233c0-.801.492-1.431 1.68-1.431 1.159 0 1.68.658 1.68 1.431v.344zm3.911 3.407h-1.188v-1.174c0-.544.174-1.374.232-1.918l-1.072 3.092H87.85V46.78h1.188v1.26c0 .573-.145 1.374-.174 1.918l1.043-3.178h1.188v5.068h-.029zm3.999-3.407H93.82v-.458c0-.258-.261-.401-.464-.401s-.435.114-.435.372v2.52c0 .372.174.544.435.544.26 0 .464-.144.464-.516v-.658h1.246v.486c0 1.145-.522 1.66-1.681 1.66-1.13 0-1.68-.486-1.68-1.66v-2.233c0-.801.492-1.431 1.68-1.431 1.159 0 1.68.658 1.68 1.431v.344zm3.418-.716h-.898v4.123h-1.13v-4.123h-.985v-.973h3.013v.973zm3.362 0h-1.652v1.002h1.478v.974h-1.478v1.202h1.652v.973h-2.869V46.81h2.869v.916zm5.186 4.123h-1.188v-1.775c0-.487.029-1.775.058-2.205l-.753 3.98h-.87l-.753-3.98c.029.344.058 1.518.058 2.205v1.775h-1.188V46.78h1.71l.405 2.062c.087.429.116 1.116.174 1.603.058-.458.116-1.231.174-1.603l.406-2.062h1.709v5.068h.058zm2.492 0h-1.797V46.78h1.246v1.947h.551c.724 0 1.506.315 1.506 1.575 0 1.288-.782 1.546-1.506 1.546zm3.245 0h-1.246V46.78h1.246v5.068z" fill="#007AC2"/></svg>