<svg width="146" height="24" viewBox="0 0 146 24" fill="none" xmlns="http://www.w3.org/2000/svg">
<g clip-path="url(#clip0_3263_23235)">
<path d="M1.93001 4.41528H0V7.58509L4.54121 12.0002L0 16.5285V19.6983H1.93001L7.37947 14.2643V12.0002V9.84924L1.93001 4.41528Z" fill="#3C4051"/>
<path d="M22.2525 19.6983H24.0689V16.5285L19.6413 12.0002L24.0689 7.58509V4.41528H22.2525L16.6895 9.84924V12.0002V14.2643L22.2525 19.6983Z" fill="#3C4051"/>
<path d="M19.7546 1.92453V0H16.5757L12.0345 4.52829L7.4933 0H4.31445L4.42798 1.92453L9.87743 7.35848H12.0345H14.1916L19.7546 1.92453Z" fill="#3C4051"/>
<path d="M4.42798 22.1888L4.31445 24.0001H7.4933L12.0345 19.585L16.5757 24.0001H19.7546V22.1888L14.1916 16.6416H12.0345H9.87743L4.42798 22.1888Z" fill="#3C4051"/>
<path d="M51.7696 5.43401L53.9267 3.28307V1.58496H42.1195L37.4648 6.11326V7.69816V9.39627L42.1195 14.0378H50.0667V16.3019V18.5661H39.7354L37.4648 20.8302V22.5283H49.3855L53.9267 18V16.3019V14.2642L49.7261 9.96231H41.4383V7.69816H41.3248V5.43401H51.7696Z" fill="#3C4051"/>
<path d="M72.8861 1.58496H63.9173L59.376 6.11326V22.5283H63.5767V16.0755H71.4103L73.2267 14.2642V22.5283H77.4274V6.11326L72.8861 1.58496ZM63.6902 12.4529V6.11326V5.43401H73.2267V6.11326V12.4529H63.6902Z" fill="#3C4051"/>
<path d="M100.815 6.11326H100.701L96.1605 1.58496H87.1916L82.6504 6.11326V22.5283H86.851L86.9645 6.11326V5.43401H96.5011V6.11326V12H88.4404L86.851 14.0378V15.9623H92.1869L97.4093 22.5283H100.815V20.3774L96.5011 15.9623L100.815 11.6604V6.11326Z" fill="#3C4051"/>
<path d="M115.233 15.0566H119.548L123.862 10.7548V6.11326L119.32 1.58496H110.352L105.81 6.11326V16.4151V16.9812V18L110.352 22.5283H114.212H120.002L122.272 20.2642V18.5661H114.666H110.125V15.0566H115.233ZM110.011 5.43401H119.548V6.11326V11.0944H111.487L110.011 13.1321V6.11326V5.43401Z" fill="#3C4051"/>
<path d="M136.691 9.16978L136.123 9.84902H135.669V7.9245L130.56 1.47168H127.381V3.73583L134.534 11.8868L127.381 20.1509V22.415H130.56L136.691 14.6037L142.821 22.415H146V20.1509L138.848 11.8868L146 3.73583V1.47168H142.821" fill="#3C4051"/>
</g>
<defs>
<clipPath id="clip0_3263_23235">
<rect width="146" height="24" fill="white"/>
</clipPath>
</defs>
</svg>
