<svg width="169" height="76" viewBox="0 0 169 76" fill="none" xmlns="http://www.w3.org/2000/svg">
<path d="M163.288 46.4468H158.634H154.251H149.488H143.993V50.1473H149.488H154.251V72.0425H158.634V50.1473H163.288H168.792V46.4468H163.288Z" fill="#666362"/>
<path d="M4.38316 68.342V59.9911H21.1837V56.2906H4.38316V50.1473H21.4278V46.4468H4.38316H0.244015H0V72.0425H0.244015H4.38316H21.6808V68.342H4.38316Z" fill="#666362"/>
<path d="M93.1585 68.342V59.9911H109.959V56.2906H93.1585V50.1473H110.203V46.4468H93.1585H89.0194H88.7754V72.0425H89.0194H93.1585H110.456V68.342H93.1585Z" fill="#666362"/>
<path d="M19.1231 9.50917H0.144531V35.1049H4.51865V23.8044H19.1231C19.1231 23.8044 26.6423 24.5282 26.6423 16.6568C26.6423 8.78536 19.1231 9.50917 19.1231 9.50917ZM19.6202 19.7963H4.51865V13.5173H19.6292C19.6292 13.5173 22.2591 13.5173 22.2591 16.6568C22.2591 19.7963 19.6292 19.7963 19.6292 19.7963H19.6202Z" fill="#CF1619"/>
<path d="M76.5474 46.4467H59.1504V72.0424H63.5335V60.7419H76.5474C76.5474 60.7419 84.0666 61.4657 84.0666 53.5943C84.0666 45.7229 76.5474 46.4467 76.5474 46.4467ZM77.0445 56.7338H63.4883V50.4548H77.0445C77.0445 50.4548 79.6744 50.4548 79.6744 53.5943C79.6744 56.7338 77.0445 56.7338 77.0445 56.7338V56.7338Z" fill="#666362"/>
<path d="M61.2199 9.50903H56.8819H56.421L46.1725 30.3638L35.915 9.50903H35.0836H31.1162H30.6914V35.1047H35.0836V17.5705L43.7053 35.1047H43.8409H48.4952H48.6397L56.8819 18.3214V35.1047H61.2741V9.50903H61.2199Z" fill="#CF1619"/>
<path d="M136.222 72.0424H141.021L135.408 60.6152C137.632 60.2171 140.831 58.7514 140.831 53.5943C140.831 45.7229 133.312 46.4467 133.312 46.4467H115.399V72.0424H119.81V60.7419H130.655L136.222 72.0424ZM119.81 50.4548H133.854C133.854 50.4548 136.484 50.4548 136.484 53.5943C136.484 56.7338 133.854 56.7338 133.854 56.7338H119.81V50.4548Z" fill="#666362"/>
<path d="M30.5826 46.4285H25.2324L34.541 59.2308L25.2324 72.0423H30.5826L39.8821 59.2399V59.2308L30.5826 46.4285Z" fill="#666362"/>
<path d="M54.7583 46.4285H49.4082L40.1086 59.2308L40.0996 59.2399L49.4082 72.0423H54.7583L45.4498 59.2308L54.7583 46.4285Z" fill="#666362"/>
</svg>
