<svg width="48" height="48" viewBox="0 0 48 48" fill="none" xmlns="http://www.w3.org/2000/svg">
<path d="M40.5 8.25H24.75V4.5C24.75 4.30109 24.671 4.11032 24.5303 3.96967C24.3897 3.82902 24.1989 3.75 24 3.75C23.8011 3.75 23.6103 3.82902 23.4697 3.96967C23.329 4.11032 23.25 4.30109 23.25 4.5V8.25H7.5C6.90346 8.25065 6.33154 8.48791 5.90973 8.90973C5.48791 9.33154 5.25065 9.90346 5.25 10.5V33C5.25065 33.5965 5.48791 34.1685 5.90973 34.5903C6.33154 35.0121 6.90346 35.2493 7.5 35.25H16.4396L11.4144 41.5314C11.3526 41.6083 11.3065 41.6966 11.2789 41.7913C11.2512 41.886 11.2425 41.9852 11.2532 42.0833C11.264 42.1814 11.294 42.2764 11.3415 42.3628C11.389 42.4493 11.4531 42.5255 11.5302 42.5872C11.6072 42.6488 11.6956 42.6946 11.7904 42.722C11.8852 42.7494 11.9844 42.7579 12.0825 42.7469C12.1805 42.7358 12.2754 42.7056 12.3618 42.6578C12.4481 42.6101 12.5242 42.5458 12.5856 42.4686L18.3604 35.25H29.6396L35.4144 42.4686C35.5389 42.6233 35.7196 42.7223 35.917 42.7439C36.1144 42.7655 36.3123 42.708 36.4673 42.584C36.6223 42.4599 36.7218 42.2795 36.744 42.0822C36.7662 41.8848 36.7092 41.6868 36.5856 41.5314L31.5604 35.25H40.5C41.0965 35.2493 41.6685 35.0121 42.0903 34.5903C42.5121 34.1685 42.7493 33.5965 42.75 33V10.5C42.7493 9.90346 42.5121 9.33154 42.0903 8.90973C41.6685 8.48791 41.0965 8.25065 40.5 8.25ZM41.25 33C41.2498 33.1989 41.1707 33.3895 41.0301 33.5301C40.8895 33.6707 40.6989 33.7498 40.5 33.75H7.5C7.30115 33.7498 7.1105 33.6707 6.96989 33.5301C6.82928 33.3895 6.7502 33.1989 6.75 33V10.5C6.7502 10.3011 6.82928 10.1105 6.96989 9.96989C7.1105 9.82928 7.30115 9.7502 7.5 9.75H40.5C40.6989 9.7502 40.8895 9.82928 41.0301 9.96989C41.1707 10.1105 41.2498 10.3011 41.25 10.5V33ZM18.75 22.5V27C18.75 27.1989 18.671 27.3897 18.5303 27.5303C18.3897 27.671 18.1989 27.75 18 27.75C17.8011 27.75 17.6103 27.671 17.4697 27.5303C17.329 27.3897 17.25 27.1989 17.25 27V22.5C17.25 22.3011 17.329 22.1103 17.4697 21.9697C17.6103 21.829 17.8011 21.75 18 21.75C18.1989 21.75 18.3897 21.829 18.5303 21.9697C18.671 22.1103 18.75 22.3011 18.75 22.5ZM24.75 19.5V27C24.75 27.1989 24.671 27.3897 24.5303 27.5303C24.3897 27.671 24.1989 27.75 24 27.75C23.8011 27.75 23.6103 27.671 23.4697 27.5303C23.329 27.3897 23.25 27.1989 23.25 27V19.5C23.25 19.3011 23.329 19.1103 23.4697 18.9697C23.6103 18.829 23.8011 18.75 24 18.75C24.1989 18.75 24.3897 18.829 24.5303 18.9697C24.671 19.1103 24.75 19.3011 24.75 19.5ZM30.75 16.5V27C30.75 27.1989 30.671 27.3897 30.5303 27.5303C30.3897 27.671 30.1989 27.75 30 27.75C29.8011 27.75 29.6103 27.671 29.4697 27.5303C29.329 27.3897 29.25 27.1989 29.25 27V16.5C29.25 16.3011 29.329 16.1103 29.4697 15.9697C29.6103 15.829 29.8011 15.75 30 15.75C30.1989 15.75 30.3897 15.829 30.5303 15.9697C30.671 16.1103 30.75 16.3011 30.75 16.5Z" fill="black"/>
</svg>
