<svg width="48" height="48" viewBox="0 0 48 48" fill="none" xmlns="http://www.w3.org/2000/svg">
<path d="M42.2372 11.2885L24.2372 5.28845C24.0832 5.23718 23.9168 5.23718 23.7628 5.28845L5.76279 11.2885C5.75207 11.292 5.74251 11.2975 5.73203 11.3015C5.716 11.3077 5.70049 11.3143 5.68496 11.3215C5.65822 11.334 5.63224 11.3481 5.60715 11.3637C5.59456 11.3715 5.5817 11.3787 5.56957 11.3872C5.53794 11.4095 5.50808 11.4341 5.48026 11.4609C5.47646 11.4646 5.47206 11.4676 5.46836 11.4713C5.43759 11.5025 5.40963 11.5364 5.38481 11.5725C5.37717 11.5835 5.37099 11.5954 5.36394 11.6068C5.34761 11.6329 5.3329 11.66 5.3199 11.6879C5.31313 11.7026 5.30713 11.7175 5.30132 11.7326C5.29054 11.761 5.28153 11.7901 5.27432 11.8196C5.2707 11.8341 5.26658 11.8482 5.26383 11.863C5.25501 11.9081 5.25038 11.954 5.25 12V27C5.25 27.1989 5.32902 27.3897 5.46967 27.5303C5.61032 27.671 5.80109 27.75 6 27.75C6.19891 27.75 6.38968 27.671 6.53033 27.5303C6.67098 27.3897 6.75 27.1989 6.75 27V13.0406L14.9766 15.7828C13.9621 17.145 13.2693 18.7193 12.9503 20.3875C12.6312 22.0557 12.6941 23.7745 13.1342 25.4149C13.5744 27.0553 14.3804 28.5748 15.4917 29.8592C16.6031 31.1436 17.9909 32.1595 19.551 32.8309C15.4301 33.9272 11.8628 36.514 9.54026 40.0902C9.4863 40.1727 9.44913 40.265 9.43088 40.3619C9.41264 40.4588 9.41367 40.5583 9.43392 40.6548C9.45417 40.7513 9.49324 40.8428 9.5489 40.9242C9.60456 41.0055 9.67571 41.0751 9.75829 41.129C9.84087 41.1828 9.93325 41.2198 10.0302 41.2379C10.1271 41.2561 10.2266 41.2549 10.323 41.2345C10.4195 41.2141 10.511 41.1749 10.5922 41.1191C10.6735 41.0633 10.743 40.9921 10.7967 40.9094C12.2276 38.7113 14.1846 36.9053 16.4903 35.655C18.7959 34.4048 21.3772 33.75 24 33.75C26.6227 33.75 29.204 34.4048 31.5097 35.655C33.8153 36.9053 35.7723 38.7113 37.2032 40.9094C37.2569 40.9921 37.3264 41.0633 37.4077 41.1191C37.489 41.1749 37.5804 41.2141 37.6769 41.2345C37.7733 41.2549 37.8729 41.2561 37.9698 41.2379C38.0667 41.2198 38.159 41.1828 38.2416 41.129C38.3242 41.0751 38.3954 41.0055 38.451 40.9242C38.5067 40.8428 38.5457 40.7513 38.566 40.6548C38.5863 40.5583 38.5873 40.4588 38.569 40.3619C38.5508 40.265 38.5136 40.1727 38.4597 40.0902C36.1371 36.514 32.5698 33.9272 28.449 32.8309C30.0091 32.1595 31.3969 31.1436 32.5083 29.8592C33.6196 28.5748 34.4256 27.0553 34.8658 25.4149C35.3059 23.7745 35.3688 22.0557 35.0497 20.3875C34.7307 18.7193 34.0379 17.145 33.0234 15.7828L42.2372 12.7115C42.3865 12.6618 42.5164 12.5662 42.6084 12.4385C42.7005 12.3108 42.75 12.1574 42.75 12C42.75 11.8426 42.7005 11.6892 42.6084 11.5615C42.5164 11.4338 42.3865 11.3382 42.2372 11.2885H42.2372ZM33.75 22.5C33.7501 24.0645 33.3736 25.6061 32.6525 26.9945C31.9313 28.3829 30.8867 29.5773 29.6067 30.477C28.3268 31.3767 26.8491 31.9551 25.2985 32.1635C23.7479 32.3719 22.17 32.204 20.6979 31.6742C19.2259 31.1443 17.9029 30.268 16.8409 29.1192C15.7788 27.9704 15.0087 26.5829 14.5958 25.0739C14.1828 23.5649 14.1391 21.9786 14.4682 20.4491C14.7974 18.9196 15.4897 17.4918 16.4869 16.2862L23.7628 18.7115C23.9168 18.7628 24.0832 18.7628 24.2372 18.7115L31.5131 16.2862C32.961 18.033 33.7523 20.2312 33.75 22.5ZM31.5012 14.709L31.4988 14.7098L24 17.2094L8.37167 12L24 6.79065L39.6283 12L31.5012 14.709Z" fill="black"/>
</svg>
