<svg width="54" height="54" viewBox="0 0 54 54" fill="none" xmlns="http://www.w3.org/2000/svg">
<path d="M47.7226 39.9279C49.0353 37.5937 49.7425 34.9679 49.7795 32.2901C49.8166 29.6124 49.1823 26.968 47.9345 24.5984C46.6868 22.2288 44.8654 20.2095 42.6366 18.7248C40.4078 17.2401 37.8427 16.3374 35.1753 16.099C34.3735 14.0514 33.1589 12.1907 31.6072 10.6326C30.0555 9.07448 28.1999 7.85228 26.1556 7.042C24.1114 6.23173 21.9223 5.85071 19.7245 5.92264C17.5267 5.99458 15.3672 6.51792 13.3803 7.46014C11.3934 8.40235 9.62163 9.74328 8.17514 11.3995C6.72865 13.0558 5.63839 14.9919 4.97216 17.0875C4.30594 19.1832 4.078 21.3934 4.30253 23.5809C4.52706 25.7684 5.19924 27.8863 6.27728 29.8029L4.87714 34.7037C4.77373 35.0654 4.76893 35.4482 4.86324 35.8123C4.95756 36.1765 5.14756 36.5088 5.41354 36.7748C5.67952 37.0409 6.01181 37.2309 6.37597 37.3253C6.74013 37.4197 7.1229 37.4149 7.48461 37.3116L12.3856 35.9113C14.3639 37.0245 16.5565 37.704 18.8177 37.9045C19.6543 40.0406 20.9393 41.9723 22.5862 43.5694C24.233 45.1665 26.2032 46.3917 28.3639 47.1625C30.5246 47.9332 32.8255 48.2315 35.1113 48.0372C37.3971 47.8429 39.6146 47.1606 41.6142 46.0362L46.5153 47.4366C46.8769 47.54 47.2597 47.5447 47.6239 47.4504C47.988 47.356 48.3203 47.166 48.5863 46.9C48.8523 46.634 49.0423 46.3017 49.1366 45.9375C49.2309 45.5734 49.2261 45.1906 49.1227 44.8289L47.7226 39.9279ZM12.4983 34.1578C12.4199 34.1578 12.3419 34.1687 12.2665 34.1903L7.02111 35.689C6.94877 35.7097 6.87221 35.7106 6.79937 35.6917C6.72653 35.6729 6.66006 35.6349 6.60686 35.5817C6.55365 35.5284 6.51565 35.462 6.49678 35.3891C6.47791 35.3163 6.47886 35.2397 6.49954 35.1674L7.99814 29.922C8.02973 29.8114 8.03841 29.6956 8.02364 29.5816C8.00886 29.4676 7.97096 29.3578 7.91224 29.259C6.13036 26.2548 5.50644 22.7034 6.15766 19.2717C6.80887 15.84 8.69041 12.7641 11.449 10.6215C14.2076 8.47891 17.6534 7.41702 21.1395 7.63523C24.6256 7.85343 27.9121 9.33673 30.382 11.8066C32.8519 14.2765 34.3352 17.563 34.5534 21.0491C34.7716 24.5352 33.7097 27.981 31.5671 30.7396C29.4245 33.4982 26.3486 35.3797 22.9169 36.031C19.4852 36.6822 15.9339 36.0583 12.9296 34.2764C12.7991 34.1988 12.6501 34.1578 12.4983 34.1578ZM47.393 45.7066C47.3402 45.7605 47.2738 45.799 47.2008 45.8179C47.1278 45.8368 47.051 45.8354 46.9787 45.814L41.7333 44.3154C41.6227 44.2838 41.5069 44.2751 41.3929 44.2899C41.2788 44.3047 41.169 44.3427 41.0702 44.4015C39.3334 45.431 37.3989 46.0824 35.3932 46.3132C33.3874 46.5441 31.3555 46.3491 29.4303 45.7411C27.505 45.1331 25.7297 44.1257 24.2203 42.7847C22.7109 41.4438 21.5015 39.7994 20.671 37.9592C23.087 37.8963 25.4575 37.2879 27.6052 36.1794C29.7528 35.0709 31.622 33.491 33.0727 31.558C34.5235 29.625 35.5183 27.389 35.9826 25.0171C36.447 22.6453 36.369 20.1992 35.7543 17.8618C38.0929 18.1923 40.3138 19.0951 42.2197 20.4899C44.1257 21.8848 45.6578 23.7286 46.6801 25.8578C47.7023 27.9869 48.1831 30.3355 48.0798 32.6951C47.9765 35.0547 47.2923 37.3522 46.0878 39.3839C46.029 39.4827 45.991 39.5925 45.9762 39.7065C45.9614 39.8205 45.9701 39.9363 46.0017 40.0469L47.5003 45.2926C47.5219 45.3648 47.5233 45.4416 47.5043 45.5146C47.4854 45.5876 47.4469 45.654 47.393 45.7066Z" fill="#0E2C40"/>
</svg>
