<svg width="50" height="47" viewBox="0 0 50 47" fill="none" xmlns="http://www.w3.org/2000/svg">
<path d="M45.3125 3.90625C45.3125 4.3375 44.9625 4.6875 44.5312 4.6875C44.1 4.6875 43.75 4.3375 43.75 3.90625C43.75 3.475 44.1 3.125 44.5312 3.125C44.9625 3.125 45.3125 3.475 45.3125 3.90625ZM41.4062 3.125C40.975 3.125 40.625 3.475 40.625 3.90625C40.625 4.3375 40.975 4.6875 41.4062 4.6875C41.8375 4.6875 42.1875 4.3375 42.1875 3.90625C42.1875 3.475 41.8375 3.125 41.4062 3.125ZM38.2812 3.125C37.85 3.125 37.5 3.475 37.5 3.90625C37.5 4.3375 37.85 4.6875 38.2812 4.6875C38.7125 4.6875 39.0625 4.3375 39.0625 3.90625C39.0625 3.475 38.7125 3.125 38.2812 3.125ZM48.4375 45.875H1.5625C1.25156 45.875 1 45.6234 1 45.3125V1.5625C1 1.25156 1.25156 1 1.5625 1H48.4375C48.7484 1 49 1.25156 49 1.5625V45.3125C49 45.6234 48.7484 45.875 48.4375 45.875ZM2.125 44.75H47.875V6.8125H2.125V44.75ZM2.125 5.6875H47.875V2.125H2.125V5.6875ZM21.0937 36.1594L20.0594 35.7172L29.4344 13.8422L30.4687 14.2844L21.0937 36.1594ZM33.475 31.6484L32.6781 30.8516L38.5312 25L32.6781 19.1469L33.475 18.3516L39.725 24.6016C39.9453 24.8219 39.9453 25.1781 39.725 25.3969L33.475 31.6484ZM17.0547 31.6484L10.8047 25.3984C10.5844 25.1781 10.5844 24.8219 10.8047 24.6031L17.0547 18.3531L17.85 19.1484L11.9969 25L17.8484 30.8516L17.0547 31.6484Z" fill="black" stroke="black" stroke-width="0.5"/>
</svg>
