<svg width="46" height="43" viewBox="0 0 46 43" fill="none" xmlns="http://www.w3.org/2000/svg">
<path d="M41.6198 3.66406C41.6198 4.05937 41.299 4.38021 40.9036 4.38021C40.5083 4.38021 40.1875 4.05937 40.1875 3.66406C40.1875 3.26875 40.5083 2.94792 40.9036 2.94792C41.299 2.94792 41.6198 3.26875 41.6198 3.66406ZM38.0391 2.94792C37.6437 2.94792 37.3229 3.26875 37.3229 3.66406C37.3229 4.05937 37.6437 4.38021 38.0391 4.38021C38.4344 4.38021 38.7552 4.05937 38.7552 3.66406C38.7552 3.26875 38.4344 2.94792 38.0391 2.94792ZM35.1745 2.94792C34.7792 2.94792 34.4583 3.26875 34.4583 3.66406C34.4583 4.05937 34.7792 4.38021 35.1745 4.38021C35.5698 4.38021 35.8906 4.05937 35.8906 3.66406C35.8906 3.26875 35.5698 2.94792 35.1745 2.94792ZM44.4844 42.1354H1.51562C1.2306 42.1354 1 41.9048 1 41.6198V1.51562C1 1.2306 1.2306 1 1.51562 1H44.4844C44.7694 1 45 1.2306 45 1.51562V41.6198C45 41.9048 44.7694 42.1354 44.4844 42.1354ZM2.03125 41.1042H43.9688V6.32812H2.03125V41.1042ZM2.03125 5.29688H43.9688V2.03125H2.03125V5.29688ZM19.4193 33.2294L18.4711 32.8241L27.0648 12.772L28.013 13.1773L19.4193 33.2294ZM30.7687 29.0944L30.0383 28.3639L35.4036 23L30.0383 17.6346L30.7687 16.9056L36.4979 22.6348C36.6999 22.8367 36.6999 23.1633 36.4979 23.3638L30.7687 29.0944ZM15.7168 29.0944L9.98763 23.3652C9.78568 23.1633 9.78568 22.8367 9.98763 22.6362L15.7168 16.907L16.4458 17.6361L11.0805 23L16.4444 28.3639L15.7168 29.0944Z" fill="black" stroke="black" stroke-width="0.5"/>
</svg>
