<svg width="46" height="46" viewBox="0 0 46 46" fill="none" xmlns="http://www.w3.org/2000/svg">
<path d="M44.4844 45H1.51562C1.2306 45 1 44.7694 1 44.4844V1.51562C1 1.2306 1.2306 1 1.51562 1H44.4844C44.7694 1 45 1.2306 45 1.51562V44.4844C45 44.7694 44.7694 45 44.4844 45ZM2.03125 43.9688H43.9688V17.7865H2.03125V43.9688ZM19.2187 16.7552H43.9688V2.03125H19.2187V16.7552ZM2.03125 16.7552H18.1875V2.03125H2.03125V16.7552ZM12.974 39.2708C8.7401 39.2708 5.29688 35.8262 5.29688 31.5938H6.32812C6.32812 35.259 9.31016 38.2396 12.974 38.2396C16.6378 38.2396 19.6198 35.259 19.6198 31.5938C19.6198 27.9285 16.6392 24.9479 12.974 24.9479V23.9167C17.2078 23.9167 20.651 27.3613 20.651 31.5938C20.651 35.8262 17.2078 39.2708 12.974 39.2708ZM39.2708 38.7552H38.2396V23H39.2723L39.2708 38.7552ZM33.5417 38.7552H32.5104V27.2969H33.5431L33.5417 38.7552ZM27.8125 38.7552H26.7812V34.4583H27.8139L27.8125 38.7552Z" fill="black" stroke="black" stroke-width="0.5"/>
</svg>
