<svg width="50" height="50" viewBox="0 0 50 50" fill="none" xmlns="http://www.w3.org/2000/svg">
<path d="M48.4375 49H1.5625C1.25156 49 1 48.7484 1 48.4375V1.5625C1 1.25156 1.25156 1 1.5625 1H48.4375C48.7484 1 49 1.25156 49 1.5625V48.4375C49 48.7484 48.7484 49 48.4375 49ZM2.125 47.875H47.875V19.3125H2.125V47.875ZM20.875 18.1875H47.875V2.125H20.875V18.1875ZM2.125 18.1875H19.75V2.125H2.125V18.1875ZM14.0625 42.75C9.44375 42.75 5.6875 38.9922 5.6875 34.375H6.8125C6.8125 38.3734 10.0656 41.625 14.0625 41.625C18.0594 41.625 21.3125 38.3734 21.3125 34.375C21.3125 30.3766 18.0609 27.125 14.0625 27.125V26C18.6812 26 22.4375 29.7578 22.4375 34.375C22.4375 38.9922 18.6812 42.75 14.0625 42.75ZM42.75 42.1875H41.625V25H42.7516L42.75 42.1875ZM36.5 42.1875H35.375V29.6875H36.5016L36.5 42.1875ZM30.25 42.1875H29.125V37.5H30.2516L30.25 42.1875Z" fill="black" stroke="black" stroke-width="0.5"/>
</svg>
