<svg width="54" height="54" viewBox="0 0 54 54" fill="none" xmlns="http://www.w3.org/2000/svg">
<path d="M52.2657 23.0079L47.0782 13.0736C46.7688 12.4875 46.2428 12.0453 45.6123 11.8413C44.9818 11.6372 44.2965 11.6874 43.7024 11.9811L38.6135 14.5254H34.7761L27.6499 11.301C27.0994 11.0523 26.4782 11.0083 25.8981 11.1771L15.3137 14.2627L10.298 11.755C9.7039 11.4614 9.01866 11.4113 8.38815 11.6153C7.75764 11.8193 7.23166 12.2614 6.92218 12.8474L1.73465 22.7819C1.57909 23.0799 1.48444 23.4059 1.45621 23.7408C1.42798 24.0758 1.46674 24.413 1.57023 24.7328C1.67372 25.0526 1.83987 25.3486 2.05897 25.6035C2.27808 25.8584 2.54576 26.0671 2.84639 26.2175L7.9848 28.7867L19.448 37.7504C19.727 37.9693 20.0492 38.1266 20.3933 38.2122L32.6186 41.2685C32.8175 41.3181 33.0218 41.3431 33.2267 41.3431C33.8996 41.3433 34.5452 41.0772 35.0224 40.6027L42.7842 32.8408C42.7999 32.8253 42.8147 32.8091 42.8291 32.7924L46.0931 28.974L51.154 26.4436C51.4546 26.2932 51.7223 26.0845 51.9414 25.8296C52.1605 25.5747 52.3266 25.2786 52.4301 24.9588C52.5336 24.639 52.5724 24.3018 52.5442 23.9668C52.5159 23.6319 52.4213 23.3059 52.2657 23.0079L52.2657 23.0079ZM42.0532 31.103L33.4027 24.8118C33.2567 24.7057 33.0806 24.6491 32.9002 24.6504C32.7198 24.6518 32.5445 24.7109 32.4001 24.8191L29.7001 26.8441C28.6759 27.6062 27.4332 28.0178 26.1564 28.0178C24.8797 28.0178 23.637 27.6062 22.6127 26.8441L21.4693 25.9866C21.3726 25.9141 21.2926 25.8216 21.2347 25.7155C21.1769 25.6093 21.1425 25.492 21.1339 25.3715C21.1253 25.2509 21.1428 25.1299 21.185 25.0166C21.2273 24.9034 21.2934 24.8006 21.3788 24.7151L29.6338 16.4601C29.7924 16.3024 30.0067 16.2136 30.2304 16.2129H34.5916L34.5935 16.2131L34.5964 16.2129H38.3014L44.5509 28.181L42.0532 31.103ZM3.17578 24.2133C3.14091 24.1067 3.12779 23.9943 3.1372 23.8826C3.14662 23.7708 3.17837 23.6622 3.23057 23.563L8.41811 13.6284C8.49019 13.4917 8.59829 13.3773 8.7307 13.2976C8.86312 13.2178 9.01481 13.1759 9.16937 13.1761C9.29916 13.176 9.42719 13.2062 9.54325 13.2643L14.0424 15.5138L8.07348 26.9443L3.60115 24.7082C3.50073 24.6584 3.41133 24.5889 3.33826 24.5039C3.26519 24.4189 3.20994 24.32 3.17578 24.2133ZM33.8293 39.4094C33.726 39.5122 33.598 39.5866 33.4576 39.6255C33.3172 39.6644 33.1692 39.6664 33.0278 39.6313L20.8025 36.575C20.6878 36.5465 20.5804 36.494 20.4875 36.4211L9.51071 27.8378L15.7474 15.8941L26.3703 12.7972C26.5636 12.7408 26.7707 12.7554 26.9542 12.8384L30.6824 14.5254H30.2304C29.8979 14.5245 29.5685 14.5896 29.2613 14.7168C28.9541 14.8441 28.6752 15.031 28.4407 15.2668L20.1857 23.5218C19.9292 23.7782 19.7309 24.0867 19.604 24.4265C19.4772 24.7662 19.4248 25.1293 19.4505 25.491C19.4762 25.8528 19.5793 26.2048 19.7529 26.5232C19.9265 26.8416 20.1665 27.1191 20.4566 27.3367L21.6001 28.1942C22.9171 29.174 24.5149 29.7032 26.1564 29.7032C27.798 29.7032 29.3958 29.174 30.7128 28.1942L32.9141 26.5431L40.8929 32.3457L33.8293 39.4094ZM50.8246 24.4394C50.7904 24.5461 50.7352 24.6449 50.6621 24.73C50.589 24.815 50.4996 24.8844 50.3992 24.9343L45.9269 27.1704L39.958 15.7398L44.4571 13.4904C44.6551 13.3924 44.8836 13.3757 45.0937 13.4437C45.3039 13.5117 45.4792 13.6592 45.5823 13.8546L50.7698 23.7889C50.822 23.8882 50.8537 23.9969 50.8632 24.1086C50.8726 24.2203 50.8595 24.3328 50.8246 24.4394V24.4394ZM24.4438 45.1049C24.417 45.2125 24.3693 45.3137 24.3034 45.4028C24.2374 45.4919 24.1546 45.5671 24.0596 45.6242C23.9645 45.6812 23.8592 45.7189 23.7495 45.7352C23.6399 45.7515 23.5281 45.746 23.4206 45.719L17.063 44.1298C16.6762 44.0325 16.3176 43.8457 16.0162 43.5843L11.2592 39.4492C11.1752 39.3766 11.1065 39.2882 11.0568 39.1889C11.0071 39.0897 10.9774 38.9817 10.9695 38.871C10.9617 38.7603 10.9757 38.6491 11.0108 38.5439C11.046 38.4386 11.1016 38.3413 11.1744 38.2576C11.2472 38.1738 11.3358 38.1053 11.4351 38.0558C11.5345 38.0064 11.6426 37.977 11.7533 37.9694C11.864 37.9618 11.9751 37.9761 12.0803 38.0115C12.1855 38.0469 12.2826 38.1027 12.3662 38.1757L17.1234 42.3109C17.224 42.398 17.3437 42.4603 17.4728 42.4928L23.8297 44.0818C24.0468 44.1361 24.2335 44.2744 24.3486 44.4662C24.4638 44.6581 24.498 44.8878 24.4438 45.1049Z" fill="#0E2C40"/>
</svg>
