<svg
        width="54"
        height="54"
        viewBox="0 0 54 54"
        fill="none"
        xmlns="http://www.w3.org/2000/svg"
>
    <path
            d="M23.4425 33.5347C25.9006 32.4196 27.9027 30.4962 29.1154 28.0847C30.3282 25.6733 30.6785 22.9192 30.108 20.2809C29.5376 17.6427 28.0808 15.2793 25.9801 13.5843C23.8794 11.8893 21.2616 10.9649 18.5623 10.9648C15.8631 10.9648 13.2453 11.8892 11.1446 13.5842C9.04389 15.2792 7.58706 17.6425 7.01657 20.2808C6.44608 22.9191 6.79635 25.6731 8.00907 28.0846C9.2218 30.4961 11.2238 32.4195 13.6819 33.5347C9.23057 34.6942 5.33403 37.3934 2.68392 41.1531C2.61993 41.2437 2.57442 41.346 2.55 41.4542C2.52558 41.5624 2.52273 41.6744 2.54162 41.7837C2.56051 41.8929 2.60076 41.9974 2.66007 42.0912C2.71938 42.1849 2.79659 42.266 2.88728 42.3298C2.97797 42.3937 3.08036 42.439 3.18859 42.4633C3.29682 42.4875 3.40877 42.4902 3.51803 42.4711C3.62729 42.4521 3.73172 42.4117 3.82535 42.3522C3.91898 42.2927 3.99996 42.2154 4.06367 42.1246C5.6989 39.7985 7.86982 37.8999 10.3931 36.5893C12.9165 35.2786 15.7181 34.5944 18.5615 34.5943C21.4049 34.5942 24.2066 35.2782 26.73 36.5887C29.2534 37.8992 31.4245 39.7975 33.0599 42.1236C33.189 42.3059 33.3851 42.4296 33.6053 42.4675C33.8254 42.5054 34.0517 42.4545 34.2343 42.3258C34.417 42.1972 34.5412 42.0014 34.5797 41.7813C34.6181 41.5612 34.5678 41.3349 34.4396 41.1519C31.7895 37.3928 27.8934 34.6941 23.4425 33.5347ZM8.43722 22.7818C8.43722 20.7793 9.03104 18.8217 10.1436 17.1566C11.2561 15.4916 12.8375 14.1939 14.6876 13.4275C16.5377 12.6612 18.5735 12.4607 20.5375 12.8513C22.5016 13.242 24.3057 14.2063 25.7217 15.6223C27.1377 17.0383 28.102 18.8424 28.4927 20.8065C28.8834 22.7706 28.6828 24.8064 27.9165 26.6565C27.1502 28.5066 25.8524 30.0879 24.1874 31.2004C22.5223 32.313 20.5648 32.9068 18.5622 32.9068C15.8778 32.9038 13.3043 31.836 11.4061 29.9379C9.50797 28.0398 8.44026 25.4662 8.43722 22.7818ZM51.4316 42.3276C51.341 42.3914 51.2387 42.4368 51.1306 42.4611C51.0225 42.4854 50.9107 42.4881 50.8015 42.4692C50.6923 42.4502 50.5879 42.4099 50.4943 42.3506C50.4007 42.2913 50.3197 42.2142 50.2559 42.1236C48.6186 39.7996 46.4472 37.9028 43.9244 36.5926C41.4015 35.2823 38.601 34.597 35.7582 34.5943C35.5344 34.5943 35.3198 34.5054 35.1615 34.3472C35.0033 34.1889 34.9144 33.9743 34.9144 33.7505C34.9144 33.5268 35.0033 33.3122 35.1615 33.1539C35.3198 32.9957 35.5344 32.9068 35.7582 32.9068C37.2041 32.9053 38.6329 32.5942 39.9485 31.9943C41.2641 31.3944 42.436 30.5197 43.3852 29.429C44.3345 28.3384 45.0392 27.057 45.4518 25.6712C45.8644 24.2854 45.9755 22.8273 45.7774 21.3951C45.5794 19.9628 45.0769 18.5895 44.3037 17.3677C43.5305 16.1458 42.5046 15.1038 41.295 14.3116C40.0854 13.5194 38.7202 12.9955 37.2912 12.7751C35.8621 12.5547 34.4025 12.6429 33.0104 13.0339C32.9037 13.0642 32.792 13.0732 32.6817 13.0602C32.5715 13.0473 32.4649 13.0128 32.368 12.9586C32.2712 12.9045 32.1859 12.8317 32.1172 12.7445C32.0485 12.6574 31.9977 12.5575 31.9676 12.4507C31.9376 12.3438 31.9289 12.2321 31.9421 12.1219C31.9553 12.0117 31.9901 11.9052 32.0445 11.8085C32.099 11.7117 32.1719 11.6267 32.2593 11.5582C32.3466 11.4898 32.4466 11.4392 32.5535 11.4094C35.4202 10.6012 38.4863 10.9057 41.1379 12.2621C43.7896 13.6184 45.8309 15.9265 46.8532 18.7239C47.8754 21.5214 47.8031 24.6018 46.6507 27.3482C45.4982 30.0946 43.3508 32.3043 40.6385 33.5347C45.0893 34.6941 48.9855 37.3928 51.6356 41.1519C51.7645 41.3349 51.8154 41.5615 51.7771 41.782C51.7388 42.0025 51.6146 42.1988 51.4316 42.3276Z"
            fill="currentColor"
    />
</svg>