<svg width="54" height="54" viewBox="0 0 54 54" fill="none" xmlns="http://www.w3.org/2000/svg">
<path d="M36.2812 48.9377C36.2812 49.1615 36.1923 49.3761 36.0341 49.5343C35.8758 49.6925 35.6612 49.7814 35.4375 49.7814H18.5625C18.3387 49.7814 18.1241 49.6925 17.9658 49.5343C17.8076 49.3761 17.7187 49.1615 17.7187 48.9377C17.7187 48.7139 17.8076 48.4993 17.9658 48.3411C18.1241 48.1828 18.3387 48.0939 18.5625 48.0939H35.4375C35.6612 48.094 35.8758 48.1828 36.0341 48.3411C36.1923 48.4993 36.2812 48.7139 36.2812 48.9377ZM44.7187 21.9377C44.7256 24.6231 44.1189 27.2745 42.9448 29.6896C41.7708 32.1048 40.0605 34.2198 37.9445 35.8732C37.43 36.269 37.0127 36.7771 36.7244 37.3588C36.4362 37.9404 36.2846 38.5803 36.2812 39.2294V40.5002C36.2805 41.1713 36.0135 41.8147 35.539 42.2892C35.0645 42.7638 34.4211 43.0307 33.75 43.0314H20.25C19.5789 43.0307 18.9355 42.7638 18.4609 42.2892C17.9864 41.8147 17.7195 41.1713 17.7187 40.5002V39.228C17.7184 38.584 17.5707 37.9487 17.2868 37.3707C17.003 36.7927 16.5905 36.2873 16.0812 35.8933C13.9714 34.2505 12.2629 32.1494 11.0849 29.7489C9.90683 27.3485 9.29017 24.7115 9.28152 22.0376C9.22848 12.4408 16.9855 4.44965 26.5731 4.22388C28.9352 4.16701 31.2849 4.58314 33.4838 5.44777C35.6827 6.31241 37.6864 7.6081 39.3772 9.25861C41.0679 10.9091 42.4114 12.8811 43.3288 15.0585C44.2461 17.236 44.7187 19.5749 44.7187 21.9377ZM43.0312 21.9377C43.0312 19.7999 42.6036 17.6836 41.7736 15.7135C40.9436 13.7433 39.7279 11.9591 38.1981 10.4658C36.6683 8.97246 34.8552 7.80019 32.8657 7.01797C30.8761 6.23575 28.7501 5.85936 26.6129 5.91097C17.9388 6.11511 10.921 13.3453 10.969 22.0281C10.9769 24.4476 11.5349 26.8336 12.6009 29.0056C13.6669 31.1775 15.2128 33.0787 17.1218 34.5651C17.8333 35.1164 18.4091 35.8232 18.8051 36.6315C19.2011 37.4397 19.4067 38.3279 19.4062 39.228V40.5002C19.4064 40.7239 19.4954 40.9384 19.6536 41.0965C19.8118 41.2547 20.0263 41.3437 20.25 41.3439H26.1562V30.7247L19.6533 24.2217C19.4955 24.0634 19.4069 23.8489 19.4071 23.6254C19.4073 23.4018 19.4962 23.1875 19.6543 23.0294C19.8124 22.8713 20.0267 22.7825 20.2503 22.7823C20.4738 22.7822 20.6883 22.8708 20.8466 23.0286L27 29.1819L33.1533 23.0286C33.3116 22.8708 33.5261 22.7822 33.7496 22.7823C33.9732 22.7825 34.1875 22.8713 34.3456 23.0294C34.5037 23.1875 34.5926 23.4018 34.5928 23.6254C34.593 23.8489 34.5045 24.0634 34.3466 24.2217L27.8437 30.7247V41.3439H33.75C33.9737 41.3437 34.1881 41.2547 34.3463 41.0965C34.5045 40.9384 34.5935 40.7239 34.5937 40.5002V39.2294C34.5964 38.3247 34.8056 37.4325 35.2055 36.6209C35.6055 35.8093 36.1855 35.0998 36.9014 34.5466C38.816 33.0506 40.3636 31.137 41.426 28.9518C42.4884 26.7665 43.0374 24.3675 43.0312 21.9377Z" fill="#0E2C40"/>
</svg>
