<svg width="52" height="52" viewBox="0 0 52 52" fill="none" xmlns="http://www.w3.org/2000/svg">
<g clip-path="url(#clip0_3180_24577)">
<path d="M45.5625 9.28125H8.4375C7.7664 9.282 7.123 9.54893 6.64846 10.0235C6.17393 10.498 5.907 11.1414 5.90625 11.8125V42.1877C5.90625 42.5201 5.97172 42.8493 6.09893 43.1563C6.22614 43.4634 6.41259 43.7425 6.64764 43.9775C6.8827 44.2125 7.16174 44.399 7.46885 44.5261C7.77595 44.6533 8.1051 44.7188 8.4375 44.7188L11.2619 44.7184C11.4215 44.7184 11.5778 44.6732 11.7127 44.5879C11.8476 44.5026 11.9556 44.3809 12.0241 44.2367C12.9143 42.3612 14.3183 40.7767 16.0731 39.6672C17.8279 38.5577 19.8614 37.9688 21.9375 37.9688C24.0136 37.9688 26.0471 38.5577 27.8019 39.6672C29.5567 40.7767 30.9607 42.3612 31.8509 44.2367C31.9194 44.3809 32.0274 44.5026 32.1623 44.5879C32.2972 44.6732 32.4535 44.7184 32.6131 44.7184L45.5625 44.7188C46.2336 44.718 46.877 44.4511 47.3515 43.9765C47.8261 43.502 48.093 42.8586 48.0938 42.1875V11.8125C48.093 11.1414 47.8261 10.498 47.3515 10.0235C46.877 9.54893 46.2336 9.282 45.5625 9.28125ZM46.4062 42.1875C46.406 42.4112 46.317 42.6257 46.1589 42.7839C46.0007 42.942 45.7862 43.031 45.5625 43.0312L33.1335 43.0309C31.5821 40.1161 28.9596 37.9174 25.8187 36.8986C27.2483 36.0485 28.3593 34.7525 28.9809 33.2097C29.6026 31.667 29.7005 29.9628 29.2597 28.359C28.8189 26.7552 27.8637 25.3405 26.5409 24.3322C25.2181 23.324 23.6008 22.7779 21.9375 22.7779C20.2742 22.7779 18.6569 23.324 17.3341 24.3322C16.0113 25.3405 15.0561 26.7552 14.6153 28.359C14.1745 29.9628 14.2724 31.667 14.8941 33.2097C15.5157 34.7525 16.6267 36.0485 18.0563 36.8986C14.9154 37.9175 12.2928 40.1161 10.7415 43.031L8.4375 43.0312C8.21376 43.0312 7.99919 42.9424 7.84097 42.7842C7.68274 42.626 7.59382 42.4114 7.59375 42.1877V11.8125C7.59399 11.5888 7.68296 11.3743 7.84114 11.2161C7.99932 11.058 8.2138 10.969 8.4375 10.9688H45.5625C45.7862 10.969 46.0007 11.058 46.1589 11.2161C46.317 11.3743 46.406 11.5888 46.4062 11.8125V42.1875ZM21.9375 36.2812C20.7694 36.2812 19.6274 35.9349 18.6562 35.2859C17.6849 34.6369 16.9279 33.7144 16.4808 32.6352C16.0338 31.556 15.9168 30.3684 16.1447 29.2227C16.3726 28.077 16.9351 27.0247 17.7612 26.1987C18.5872 25.3726 19.6395 24.8101 20.7852 24.5822C21.9309 24.3543 23.1185 24.4713 24.1977 24.9183C25.2769 25.3654 26.1994 26.1224 26.8484 27.0937C27.4974 28.0649 27.8438 29.2069 27.8438 30.375C27.842 31.9409 27.2192 33.4422 26.1119 34.5494C25.0047 35.6567 23.5034 36.2795 21.9375 36.2812ZM41.3438 16.875V37.125C41.3437 37.3488 41.2548 37.5634 41.0966 37.7216C40.9384 37.8798 40.7238 37.9687 40.5 37.9688H37.125C36.9012 37.9688 36.6866 37.8799 36.5284 37.7216C36.3701 37.5634 36.2812 37.3488 36.2812 37.125C36.2812 36.9012 36.3701 36.6866 36.5284 36.5284C36.6866 36.3701 36.9012 36.2812 37.125 36.2812H39.6562V17.7188H14.3438V20.25C14.3438 20.4738 14.2549 20.6884 14.0966 20.8466C13.9384 21.0049 13.7238 21.0938 13.5 21.0938C13.2762 21.0938 13.0616 21.0049 12.9034 20.8466C12.7451 20.6884 12.6562 20.4738 12.6562 20.25V16.875C12.6563 16.6512 12.7452 16.4366 12.9034 16.2784C13.0616 16.1202 13.2762 16.0313 13.5 16.0312H40.5C40.7238 16.0313 40.9384 16.1202 41.0966 16.2784C41.2548 16.4366 41.3437 16.6512 41.3438 16.875Z" fill="black"/>
</g>
<defs>
<clipPath id="clip0_3180_24577">
<rect width="52" height="52" fill="white"/>
</clipPath>
</defs>
</svg>
