<svg width="54" height="54" viewBox="0 0 54 54" fill="none" xmlns="http://www.w3.org/2000/svg">
<path d="M41.3438 45.5615C41.3437 45.7853 41.2548 45.9999 41.0966 46.1581C40.9384 46.3164 40.7238 46.4053 40.5 46.4053H8.4375C7.7664 46.4046 7.12299 46.1376 6.64845 45.6631C6.1739 45.1885 5.90698 44.5451 5.90625 43.874V18.5615C5.90625 18.3378 5.99515 18.1231 6.15338 17.9649C6.31161 17.8067 6.52622 17.7178 6.75 17.7178C6.97378 17.7178 7.18839 17.8067 7.34662 17.9649C7.50486 18.1231 7.59375 18.3378 7.59375 18.5615V43.874C7.59397 44.0977 7.68294 44.3122 7.84113 44.4704C7.99931 44.6286 8.21379 44.7176 8.4375 44.7178H40.5C40.7238 44.7178 40.9384 44.8067 41.0966 44.9649C41.2548 45.1232 41.3437 45.3378 41.3438 45.5615ZM47.9518 22.4043C47.9654 22.3839 47.9747 22.3619 47.9864 22.3407C48.0021 22.3143 48.0164 22.2871 48.0292 22.2592C48.0396 22.2312 48.0485 22.2027 48.0557 22.1737C48.0629 22.1496 48.0721 22.1267 48.0771 22.1017C48.0988 21.9927 48.0988 21.8804 48.0771 21.7713C48.0721 21.7464 48.0629 21.7234 48.0558 21.6993C48.0485 21.6704 48.0396 21.6418 48.0292 21.6138C48.0165 21.5859 48.0021 21.5587 47.9863 21.5324C47.9747 21.5112 47.9654 21.4891 47.9518 21.4687C47.9209 21.4222 47.8855 21.3789 47.846 21.3395L37.7216 11.215C37.5633 11.0571 37.3488 10.9686 37.1253 10.9688C36.9017 10.9689 36.6874 11.0578 36.5293 11.2159C36.3713 11.3739 36.2824 11.5883 36.2822 11.8118C36.2821 12.0353 36.3706 12.2498 36.5284 12.4081L45.2129 21.0928H35.4375C30.7596 21.0896 26.2135 22.6424 22.515 25.5066C18.8165 28.3708 16.1756 32.3838 15.0083 36.9137C14.9802 37.0212 14.9736 37.1331 14.9889 37.2431C15.0042 37.3532 15.041 37.4591 15.0973 37.5548C15.1537 37.6506 15.2283 37.7342 15.317 37.8011C15.4058 37.8679 15.5068 37.9165 15.6144 37.9442C15.7219 37.9719 15.8339 37.9781 15.9439 37.9624C16.0538 37.9467 16.1596 37.9095 16.2551 37.8528C16.3507 37.7961 16.4341 37.7212 16.5006 37.6322C16.5671 37.5432 16.6153 37.442 16.6426 37.3344C17.7167 33.167 20.1463 29.4752 23.549 26.8404C26.9516 24.2055 31.134 22.7772 35.4375 22.7803H45.2129L36.5284 31.465C36.4499 31.5433 36.3876 31.6363 36.345 31.7387C36.3025 31.8411 36.2805 31.9509 36.2805 32.0618C36.2804 32.1727 36.3022 32.2825 36.3446 32.385C36.387 32.4874 36.4491 32.5806 36.5276 32.659C36.606 32.7374 36.6991 32.7996 36.8016 32.842C36.904 32.8844 37.0138 32.9062 37.1247 32.9061C37.2356 32.906 37.3454 32.884 37.4478 32.8415C37.5502 32.7989 37.6433 32.7366 37.7216 32.6581L47.846 22.5336C47.8855 22.4941 47.9209 22.4508 47.9518 22.4043Z" fill="#0E2C40"/>
</svg>
