<svg width="54" height="54" viewBox="0 0 54 54" fill="none" xmlns="http://www.w3.org/2000/svg">
<path d="M43.875 9.28125H10.125C9.4539 9.282 8.8105 9.54893 8.33596 10.0235C7.86143 10.498 7.5945 11.1414 7.59375 11.8125V24.1875C7.59375 42.4767 23.1067 48.5464 26.2164 49.5775C26.7246 49.7499 27.2754 49.7499 27.7836 49.5775C30.8933 48.5464 46.4062 42.4767 46.4062 24.1875V11.8125C46.4055 11.1414 46.1386 10.498 45.664 10.0235C45.1895 9.54893 44.5461 9.282 43.875 9.28125ZM44.7188 24.1875C44.7188 41.3172 30.1692 47.0087 27.2525 47.9757C27.0893 48.0344 26.9107 48.0344 26.7474 47.9757C23.8308 47.0087 9.28125 41.3172 9.28125 24.1875V11.8125C9.28149 11.5888 9.37046 11.3743 9.52864 11.2161C9.68682 11.058 9.9013 10.969 10.125 10.9687H43.875C44.0987 10.969 44.3132 11.058 44.4714 11.2161C44.6295 11.3743 44.7185 11.5888 44.7188 11.8125V24.1875ZM36.8916 21.3549C36.9681 21.4351 37.0281 21.5295 37.0681 21.6329C37.1081 21.7362 37.1274 21.8464 37.1248 21.9572C37.1222 22.0679 37.0979 22.1771 37.0531 22.2785C37.0083 22.3798 36.944 22.4714 36.8638 22.5479L24.4887 34.3604C24.3318 34.5102 24.1231 34.5937 23.9062 34.5937C23.6892 34.5937 23.4806 34.5102 23.3236 34.3604L17.1362 28.4541C16.9753 28.2994 16.8823 28.0872 16.8776 27.864C16.8728 27.6409 16.9566 27.4249 17.1108 27.2635C17.2649 27.102 17.4767 27.0082 17.6998 27.0025C17.923 26.9969 18.1392 27.0799 18.3013 27.2334L23.9062 32.5836L35.6987 21.3271C35.7788 21.2506 35.8733 21.1907 35.9766 21.1507C36.0799 21.1106 36.1901 21.0914 36.3009 21.094C36.4117 21.0966 36.5209 21.1209 36.6222 21.1657C36.7236 21.2105 36.8151 21.2748 36.8916 21.3549Z" fill="#0E2C40"/>
</svg>
