<svg width="54" height="54" viewBox="0 0 54 54" fill="none" xmlns="http://www.w3.org/2000/svg">
<path d="M47.5169 12.6995L27.2669 5.94951C27.0936 5.89183 26.9064 5.89183 26.7331 5.94951L6.48313 12.6995C6.47108 12.7035 6.46032 12.7097 6.44853 12.7142C6.4305 12.7211 6.41305 12.7286 6.39558 12.7366C6.3655 12.7508 6.33627 12.7666 6.30804 12.7842C6.29388 12.793 6.27941 12.8011 6.26576 12.8106C6.23018 12.8356 6.19659 12.8634 6.16529 12.8936C6.16101 12.8977 6.15607 12.901 6.1519 12.9052C6.11729 12.9404 6.08584 12.9785 6.05791 13.0191C6.04931 13.0315 6.04236 13.0448 6.03443 13.0576C6.01606 13.087 5.99951 13.1175 5.98489 13.1489C5.97727 13.1654 5.97052 13.1822 5.96398 13.1992C5.95186 13.2312 5.94172 13.2639 5.93361 13.2971C5.92954 13.3134 5.9249 13.3292 5.92181 13.3459C5.91189 13.3967 5.90668 13.4483 5.90625 13.5V30.375C5.90625 30.5988 5.99514 30.8134 6.15338 30.9716C6.31161 31.1299 6.52622 31.2188 6.75 31.2188C6.97378 31.2188 7.18839 31.1299 7.34662 30.9716C7.50485 30.8134 7.59375 30.5988 7.59375 30.375V14.6707L16.8487 17.7557C15.7074 19.2881 14.928 21.0592 14.569 22.9359C14.2101 24.8126 14.2808 26.7463 14.776 28.5918C15.2712 30.4373 16.1779 32.1466 17.4282 33.5916C18.6784 35.0365 20.2397 36.1795 21.9949 36.9348C17.3589 38.1681 13.3457 41.0783 10.7328 45.1015C10.6721 45.1943 10.6303 45.2982 10.6097 45.4072C10.5892 45.5161 10.5904 45.6281 10.6132 45.7366C10.6359 45.8452 10.6799 45.9482 10.7425 46.0397C10.8051 46.1312 10.8852 46.2095 10.9781 46.2701C11.071 46.3307 11.1749 46.3723 11.2839 46.3927C11.3929 46.4131 11.5049 46.4117 11.6134 46.3888C11.7219 46.3659 11.8248 46.3218 11.9163 46.259C12.0077 46.1963 12.0859 46.1161 12.1463 46.0231C13.7561 43.5503 15.9577 41.5184 18.5515 40.1119C21.1454 38.7054 24.0493 37.9688 27 37.9688C29.9506 37.9688 32.8545 38.7054 35.4484 40.1119C38.0422 41.5184 40.2439 43.5503 41.8536 46.0231C41.914 46.1161 41.9922 46.1963 42.0836 46.259C42.1751 46.3218 42.278 46.3659 42.3865 46.3888C42.495 46.4117 42.607 46.4131 42.716 46.3927C42.825 46.3723 42.9289 46.3307 43.0218 46.2701C43.1147 46.2095 43.1948 46.1312 43.2574 46.0397C43.32 45.9482 43.364 45.8452 43.3867 45.7366C43.4095 45.6281 43.4107 45.5161 43.3902 45.4072C43.3696 45.2982 43.3278 45.1943 43.2671 45.1015C40.6542 41.0783 36.6411 38.1681 32.0051 36.9348C33.7603 36.1795 35.3216 35.0365 36.5718 33.5916C37.8221 32.1466 38.7288 30.4373 39.224 28.5918C39.7192 26.7463 39.7899 24.8126 39.431 22.9359C39.072 21.0592 38.2926 19.2881 37.1513 17.7557L47.5169 14.3005C47.6848 14.2445 47.831 14.137 47.9345 13.9934C48.038 13.8497 48.0937 13.6771 48.0937 13.5C48.0937 13.3229 48.038 13.1503 47.9345 13.0066C47.831 12.863 47.6848 12.7555 47.5169 12.6995H47.5169ZM37.9687 25.3125C37.9688 27.0726 37.5453 28.8068 36.734 30.3688C35.9228 31.9307 34.7475 33.2745 33.3076 34.2866C31.8676 35.2988 30.2052 35.9495 28.4608 36.1839C26.7164 36.4183 24.9412 36.2295 23.2852 35.6334C21.6291 35.0373 20.1408 34.0515 18.946 32.7591C17.7511 31.4667 16.8848 29.9058 16.4203 28.2081C15.9557 26.5105 15.9064 24.726 16.2767 23.0053C16.647 21.2846 17.4259 19.6783 18.5477 18.322L26.7331 21.0505C26.9064 21.1082 27.0936 21.1082 27.2669 21.0505L35.4523 18.322C37.0811 20.2872 37.9713 22.7601 37.9687 25.3125ZM35.4389 16.5476L35.4362 16.5485L27 19.3605L9.41813 13.5L27 7.63948L44.5819 13.5L35.4389 16.5476Z" fill="black"/>
</svg>
