<svg width="48" height="48" viewBox="0 0 48 48" fill="none" xmlns="http://www.w3.org/2000/svg">
<g clip-path="url(#clip0_3951_6745)">
<g clip-path="url(#clip1_3951_6745)">
<path d="M42.78 7.9502H7.13996C6.49571 7.95092 5.87804 8.20716 5.42249 8.66272C4.96693 9.11828 4.71068 9.73594 4.70996 10.3802V39.5404C4.70996 39.8595 4.77281 40.1755 4.89493 40.4703C5.01705 40.7651 5.19605 41.033 5.4217 41.2586C5.64735 41.4842 5.91523 41.6632 6.21005 41.7853C6.50487 41.9074 6.82086 41.9702 7.13996 41.9702L9.85136 41.9699C10.0046 41.9699 10.1546 41.9264 10.2841 41.8446C10.4137 41.7627 10.5173 41.6458 10.5831 41.5075C11.4377 39.7069 12.7856 38.1858 14.4702 37.1207C16.1547 36.0556 18.1069 35.4902 20.1 35.4902C22.093 35.4902 24.0452 36.0556 25.7298 37.1207C27.4143 38.1858 28.7622 39.7069 29.6169 41.5075C29.6826 41.6458 29.7863 41.7627 29.9158 41.8446C30.0453 41.9264 30.1953 41.9699 30.3486 41.9699L42.78 41.9702C43.4242 41.9695 44.0419 41.7132 44.4974 41.2577C44.953 40.8021 45.2092 40.1845 45.21 39.5402V10.3802C45.2092 9.73594 44.953 9.11828 44.4974 8.66272C44.0419 8.20716 43.4242 7.95092 42.78 7.9502V7.9502ZM43.59 39.5402C43.5897 39.755 43.5043 39.9608 43.3525 40.1127C43.2006 40.2646 42.9947 40.35 42.78 40.3502L30.8481 40.3499C29.3588 37.5516 26.8412 35.4409 23.8259 34.4628C25.1984 33.6467 26.2649 32.4026 26.8617 30.9215C27.4584 29.4405 27.5525 27.8045 27.1293 26.2649C26.7061 24.7252 25.7891 23.3671 24.5192 22.3991C23.2493 21.4312 21.6967 20.9069 20.1 20.9069C18.5032 20.9069 16.9506 21.4312 15.6807 22.3991C14.4108 23.3671 13.4938 24.7252 13.0707 26.2649C12.6475 27.8045 12.7415 29.4405 13.3383 30.9215C13.935 32.4026 15.0016 33.6467 16.374 34.4628C13.3587 35.441 10.8411 37.5517 9.35184 40.35L7.13996 40.3502C6.92517 40.3502 6.71919 40.2649 6.56729 40.113C6.41539 39.9612 6.33003 39.7552 6.32996 39.5404V10.3802C6.33019 10.1654 6.4156 9.95955 6.56746 9.80769C6.71931 9.65584 6.92521 9.57042 7.13996 9.5702H42.78C42.9947 9.57042 43.2006 9.65584 43.3525 9.80769C43.5043 9.95955 43.5897 10.1654 43.59 10.3802V39.5402ZM20.1 33.8702C18.9785 33.8702 17.8823 33.5377 16.9499 32.9146C16.0175 32.2916 15.2907 31.4061 14.8616 30.37C14.4324 29.334 14.3201 28.1939 14.5389 27.094C14.7577 25.9942 15.2977 24.9839 16.0907 24.1909C16.8836 23.3979 17.8939 22.8579 18.9938 22.6391C20.0937 22.4204 21.2337 22.5326 22.2698 22.9618C23.3058 23.3909 24.1914 24.1177 24.8144 25.0501C25.4374 25.9825 25.77 27.0788 25.77 28.2002C25.7683 29.7035 25.1704 31.1447 24.1074 32.2076C23.0444 33.2706 21.6032 33.8685 20.1 33.8702V33.8702ZM38.73 15.2402V34.6802C38.73 34.895 38.6446 35.101 38.4927 35.2529C38.3408 35.4048 38.1348 35.4902 37.92 35.4902H34.68C34.4651 35.4902 34.2591 35.4049 34.1072 35.253C33.9553 35.101 33.87 34.895 33.87 34.6802C33.87 34.4654 33.9553 34.2593 34.1072 34.1074C34.2591 33.9555 34.4651 33.8702 34.68 33.8702H37.11V16.0502H12.81V18.4802C12.81 18.695 12.7246 18.901 12.5727 19.053C12.4208 19.2049 12.2148 19.2902 12 19.2902C11.7851 19.2902 11.5791 19.2049 11.4272 19.053C11.2753 18.901 11.19 18.695 11.19 18.4802V15.2402C11.19 15.0254 11.2753 14.8194 11.4272 14.6675C11.5791 14.5155 11.7851 14.4302 12 14.4302H37.92C38.1348 14.4302 38.3408 14.5155 38.4927 14.6675C38.6446 14.8194 38.73 15.0254 38.73 15.2402V15.2402Z" fill="#0968C0"/>
</g>
</g>
<defs>
<clipPath id="clip0_3951_6745">
<rect width="48" height="48" fill="white"/>
</clipPath>
<clipPath id="clip1_3951_6745">
<rect width="49.92" height="49.92" fill="white" transform="translate(-0.959961 -0.959961)"/>
</clipPath>
</defs>
</svg>
