<svg width="52" height="52" viewBox="0 0 52 52" fill="none" xmlns="http://www.w3.org/2000/svg">
<g clip-path="url(#clip0_3876_5826)">
<path d="M45.564 14.3438H36.2811V11.8125C36.2798 10.694 35.8349 9.62167 35.044 8.83077C34.2531 8.03987 33.1808 7.59499 32.0623 7.59375H21.9373C20.8188 7.59499 19.7465 8.03987 18.9556 8.83077C18.1647 9.62167 17.7198 10.694 17.7186 11.8125V14.3438H8.43896C7.76786 14.3445 7.12445 14.6114 6.64991 15.0859C6.17537 15.5605 5.90845 16.2039 5.90771 16.875V43.875C5.90845 44.5461 6.17537 45.1895 6.64991 45.6641C7.12445 46.1386 7.76786 46.4055 8.43896 46.4062H45.564C46.2351 46.4055 46.8785 46.1386 47.353 45.6641C47.8276 45.1895 48.0945 44.5461 48.0952 43.875V16.875C48.0945 16.2039 47.8276 15.5605 47.353 15.0859C46.8785 14.6114 46.2351 14.3445 45.564 14.3438ZM19.4061 11.8125C19.4068 11.1414 19.6737 10.498 20.1483 10.0235C20.6228 9.54893 21.2662 9.282 21.9373 9.28125H32.0623C32.7334 9.282 33.3768 9.54893 33.8514 10.0235C34.3259 10.498 34.5928 11.1414 34.5936 11.8125V14.3438H19.4061V11.8125ZM8.43896 16.0312H45.564C45.7877 16.0315 46.0021 16.1205 46.1603 16.2786C46.3185 16.4368 46.4075 16.6513 46.4077 16.875V26.1474C40.4801 29.4736 33.7969 31.2199 26.9998 31.2188C20.204 31.2199 13.522 29.4742 7.59521 26.1492V16.875C7.59545 16.6513 7.68442 16.4368 7.84261 16.2786C8.00079 16.1205 8.21526 16.0315 8.43896 16.0312ZM45.564 44.7188H8.43896C8.21526 44.7185 8.00079 44.6295 7.84261 44.4714C7.68442 44.3132 7.59545 44.0987 7.59521 43.875V28.0766C13.571 31.2495 20.2339 32.9079 26.9998 32.9062C33.767 32.9079 40.4311 31.2489 46.4077 28.0749V43.875C46.4075 44.0987 46.3185 44.3132 46.1603 44.4714C46.0021 44.6295 45.7877 44.7185 45.564 44.7188ZM23.6248 25.3125C23.6248 25.0887 23.7137 24.8741 23.872 24.7159C24.0302 24.5577 24.2448 24.4688 24.4686 24.4688H29.5311C29.7548 24.4688 29.9695 24.5576 30.1277 24.7159C30.2859 24.8741 30.3748 25.0887 30.3748 25.3125C30.3748 25.5363 30.2859 25.7509 30.1277 25.9091C29.9695 26.0674 29.7548 26.1562 29.5311 26.1562H24.4686C24.2448 26.1562 24.0302 26.0673 23.872 25.9091C23.7137 25.7509 23.6248 25.5363 23.6248 25.3125Z" fill="#0968C0"/>
</g>
<defs>
<clipPath id="clip0_3876_5826">
<rect width="52" height="52" fill="white"/>
</clipPath>
</defs>
</svg>
