<svg width="306" height="267" viewBox="0 0 306 267" fill="none" xmlns="http://www.w3.org/2000/svg">
<g opacity="0.3" filter="url(#filter0_f)">
<path d="M169.665 205.233L223.674 174.447C225.641 173.301 225.395 171.336 223.1 170.026L192.039 152.094C189.744 150.784 186.302 150.62 184.335 151.767L130.326 182.553C128.359 183.699 128.605 185.664 130.9 186.974L161.961 204.906C164.174 206.216 167.698 206.38 169.665 205.233Z" fill="#1E3F75"/>
</g>
<g opacity="0.3" filter="url(#filter1_f)">
<path d="M266.234 162.386L292.818 147.771C294.571 146.853 294.352 145.28 292.307 144.231L264.63 129.876C262.586 128.827 259.518 128.696 257.766 129.614L231.182 144.229C229.429 145.147 229.648 146.72 231.693 147.769L259.37 162.124C261.341 163.173 264.482 163.304 266.234 162.386Z" fill="#1E3F75"/>
</g>
<g opacity="0.3" filter="url(#filter2_f)">
<path d="M101.665 168.233L155.674 137.447C157.641 136.301 157.395 134.336 155.1 133.026L124.039 115.094C121.744 113.784 118.302 113.62 116.335 114.767L62.326 145.553C60.3591 146.699 60.605 148.664 62.8998 149.974L93.9611 167.906C96.1739 169.216 99.698 169.38 101.665 168.233Z" fill="#1E3F75"/>
</g>
<path d="M50.1146 92.9343C49.6771 93.2319 49.2396 93.5294 48.8021 93.9013C48.6562 88.0249 44.4271 85.6446 39.3229 88.6944C35.1667 91.1491 31.5938 96.4304 30.3542 101.563C29.3333 101.414 28.0938 101.712 26.7813 102.456C23.0625 104.687 20 110.043 20 114.432C20 118.82 23.0625 120.606 26.7813 118.448L50.0417 104.762C52.8125 103.125 55 99.1827 55 95.9097C55 92.6368 52.8854 91.2978 50.1146 92.9343Z" fill="#E9ECFE"/>
<path d="M266.829 79.9343C266.367 80.2319 265.905 80.5294 265.442 80.9013C265.288 75.0249 260.818 72.6446 255.423 75.6944C251.03 78.1491 247.254 83.4304 245.944 88.563C244.865 88.4143 243.555 88.7118 242.167 89.4557C238.237 91.6872 235 97.043 235 101.432C235 105.82 238.237 107.606 242.167 105.448L266.752 91.7616C269.681 90.1251 271.993 86.1827 271.993 82.9097C272.147 79.6368 269.758 78.3722 266.829 79.9343Z" fill="#E9ECFE"/>
<path d="M153.232 252.245C153.08 252.245 152.852 252.169 152.701 252.093C152.093 251.789 151.865 251.106 152.169 250.499C153.384 248.221 155.13 246.247 157.028 245.184C158.243 244.501 159.381 244.197 160.444 244.273C161.963 244.349 163.861 243.21 165.531 241.161C166.442 240.022 167.505 239.111 168.644 238.503C169.858 237.82 170.997 237.516 172.06 237.592C173.578 237.668 175.476 236.529 177.146 234.48C178.057 233.341 179.12 232.43 180.259 231.822C181.474 231.139 182.613 230.836 183.675 230.911C185.194 230.987 187.092 229.849 188.762 227.799C189.673 226.66 190.736 225.749 191.875 225.142C193.621 224.155 195.367 223.927 196.734 224.534C197.341 224.762 197.645 225.521 197.341 226.129C197.113 226.736 196.354 227.04 195.747 226.736C195.063 226.432 194.076 226.584 193.014 227.191C192.178 227.647 191.343 228.406 190.584 229.317C188.382 231.898 185.801 233.341 183.524 233.265C182.916 233.265 182.157 233.417 181.398 233.872C180.563 234.328 179.728 235.087 178.968 235.998C176.767 238.579 174.186 240.022 171.908 239.946C171.301 239.946 170.541 240.098 169.782 240.553C168.947 241.009 168.112 241.768 167.353 242.679C165.151 245.26 162.57 246.703 160.292 246.627C159.685 246.627 158.926 246.779 158.167 247.234C156.648 248.069 155.206 249.663 154.219 251.637C154.067 251.941 153.687 252.245 153.232 252.245Z" fill="#E9ECFE"/>
<path d="M17.6411 150.134C17.6411 151.576 16.6541 153.399 15.3635 154.082C14.0729 154.841 13.0859 154.234 13.0859 152.791C13.0859 151.349 14.0729 149.527 15.3635 148.843C16.6541 148.084 17.6411 148.692 17.6411 150.134Z" fill="#E9ECFE"/>
<path d="M25.0825 145.881C25.0825 147.324 24.0955 149.146 22.8049 149.829C21.5143 150.588 20.5273 149.981 20.5273 148.538C20.5273 147.096 21.5143 145.274 22.8049 144.59C24.0196 143.831 25.0825 144.439 25.0825 145.881Z" fill="#E9ECFE"/>
<path d="M32.4458 141.629C32.4458 143.072 31.4588 144.894 30.1682 145.577C28.8776 146.336 27.8906 145.729 27.8906 144.286C27.8906 142.844 28.8776 141.022 30.1682 140.339C31.4588 139.58 32.4458 140.111 32.4458 141.629Z" fill="#E9ECFE"/>
<path d="M39.8872 137.302C39.8872 138.744 38.9002 140.567 37.6096 141.25C36.319 142.009 35.332 141.402 35.332 139.959C35.332 138.517 36.319 136.695 37.6096 136.011C38.8243 135.252 39.8872 135.86 39.8872 137.302Z" fill="#E9ECFE"/>
<path d="M231.808 209.199C231.808 210.642 230.821 212.312 229.606 213.071C228.391 213.754 227.404 213.223 227.404 211.781C227.404 210.338 228.391 208.668 229.606 207.909C230.821 207.225 231.808 207.757 231.808 209.199Z" fill="#E9ECFE"/>
<path d="M237.88 205.627C237.88 207.07 236.893 208.74 235.678 209.499C234.464 210.183 233.477 209.651 233.477 208.209C233.477 206.766 234.464 205.096 235.678 204.337C236.893 203.653 237.88 204.261 237.88 205.627Z" fill="#E9ECFE"/>
<path d="M231.808 202.137C231.808 203.579 230.821 205.249 229.606 206.009C228.391 206.692 227.404 206.16 227.404 204.718C227.404 203.276 228.391 201.605 229.606 200.846C230.821 200.163 231.808 200.694 231.808 202.137Z" fill="#E9ECFE"/>
<path d="M237.88 198.569C237.88 200.011 236.893 201.681 235.678 202.441C234.464 203.124 233.477 202.592 233.477 201.15C233.477 199.708 234.464 198.037 235.678 197.278C236.893 196.595 237.88 197.202 237.88 198.569Z" fill="#E9ECFE"/>
<path opacity="0.5" d="M67.3288 214.18C66.5753 214.63 65.8219 215.229 65.1438 216.054C65.0685 211.856 61.9795 210.132 58.2877 212.306C57.0822 212.981 55.9521 214.03 54.9726 215.154C53.3151 212.231 49.8493 211.556 45.8562 213.88C40.2055 217.103 35.6849 224.973 35.6849 231.42C35.6849 231.944 35.7603 232.469 35.7603 232.919C34.9315 232.694 33.9521 232.844 32.8973 233.518C30.1849 235.093 28 238.84 28 241.913C28 244.987 30.1849 246.261 32.8973 244.687L67.3288 224.899C69.8904 223.399 72 219.802 72 216.803C72 213.88 69.8904 212.681 67.3288 214.18Z" fill="#E9ECFE"/>
<path d="M185.042 136.24L161.355 122.574C159.913 121.739 160.064 120.297 161.735 119.31L184.586 106.1C186.257 105.113 188.762 105.037 190.28 105.872L213.967 119.537C215.409 120.373 215.258 121.815 213.587 122.802L190.736 136.012C188.99 136.999 186.484 137.075 185.042 136.24Z" fill="#7DC3EA"/>
<path d="M187.472 130.697C186.333 130.697 185.194 130.47 184.359 129.938L160.672 116.273C159.609 115.665 159.002 114.754 159.002 113.692C159.002 112.553 159.761 111.414 161.052 110.655L183.903 97.4449C186.029 96.2302 189.066 96.1543 190.888 97.2171L214.575 110.883C215.638 111.49 216.245 112.401 216.245 113.464C216.245 114.603 215.486 115.741 214.195 116.501L191.343 129.71C190.205 130.394 188.838 130.697 187.472 130.697ZM187.851 99.191C186.94 99.191 186.029 99.4188 185.27 99.7984L162.418 113.008C161.811 113.312 161.735 113.616 161.735 113.692C161.735 113.692 161.811 113.843 162.039 113.919L185.725 127.585C186.788 128.192 188.762 128.04 190.053 127.357L212.904 114.147C213.512 113.843 213.588 113.54 213.588 113.464C213.588 113.464 213.512 113.312 213.284 113.236L189.597 99.5706C189.142 99.3429 188.534 99.191 187.851 99.191Z" fill="#BAE0FC"/>
<path d="M214.953 105.114V96.9145H196.657L190.355 93.2704C188.913 92.4353 186.332 92.5112 184.661 93.4982L178.74 96.9145H160.443V105.342C160.367 105.873 160.747 106.48 161.43 106.86L185.117 120.525C186.559 121.36 189.141 121.285 190.811 120.298L213.662 107.088C214.498 106.556 214.953 105.797 214.953 105.114Z" fill="#396CAA"/>
<path d="M187.698 92.7393C186.635 92.7393 185.496 93.0429 184.661 93.4984L178.74 96.9148H160.443V105.342C160.367 105.873 160.747 106.481 161.43 106.86L185.117 120.526C185.8 120.905 186.787 121.133 187.774 121.057V92.7393H187.698Z" fill="url(#paint0_radial)"/>
<path d="M162.493 96.915H160.443V105.342C160.367 105.873 160.747 106.481 161.43 106.86L162.493 107.468V96.915Z" fill="#D4ECFF"/>
<path d="M185.422 120.676C186.637 121.208 188.459 121.208 189.977 120.6V111.11H185.422V120.676Z" fill="#5793CE"/>
<path d="M185.042 112.173L161.355 98.5078C159.913 97.6727 160.064 96.2302 161.735 95.2432L184.586 82.0333C186.257 81.0464 188.762 80.9705 190.28 81.8056L213.967 95.471C215.409 96.3061 215.258 97.7486 213.587 98.7355L190.736 111.945C188.99 112.856 186.484 113.008 185.042 112.173Z" fill="url(#paint1_linear)"/>
<path d="M213.512 97.1412L190.736 110.351C189.066 111.338 186.56 111.414 185.042 110.579L161.355 96.9135C161.052 96.7616 160.824 96.5339 160.596 96.3061C160.065 97.1412 160.292 97.9764 161.355 98.5837L185.042 112.249C186.485 113.084 189.066 113.008 190.736 112.021L213.588 98.8115C214.878 98.0523 215.258 96.9894 214.726 96.1543C214.423 96.458 214.043 96.8376 213.512 97.1412Z" fill="#BAE0FC"/>
<path d="M206.224 107.311C206.224 107.918 205.768 108.677 205.237 108.981C204.706 109.285 204.25 109.057 204.25 108.45C204.25 107.842 204.706 107.083 205.237 106.779C205.768 106.476 206.224 106.704 206.224 107.311Z" fill="#D4ECFF"/>
<path d="M209.261 105.491C209.261 106.098 208.805 106.857 208.274 107.161C207.743 107.464 207.287 107.237 207.287 106.629C207.287 106.022 207.743 105.263 208.274 104.959C208.881 104.655 209.261 104.883 209.261 105.491Z" fill="#D4ECFF"/>
<path d="M212.372 103.744C212.372 104.352 211.917 105.111 211.385 105.415C210.854 105.718 210.398 105.491 210.398 104.883C210.398 104.276 210.854 103.517 211.385 103.213C211.917 102.909 212.372 103.137 212.372 103.744Z" fill="#D4ECFF"/>
<path d="M186.409 103.67L175.324 97.2929C174.641 96.9134 174.717 96.2301 175.552 95.7746L186.257 89.6251C187.016 89.1696 188.231 89.0937 188.914 89.5492L199.998 95.9264C200.681 96.306 200.606 96.9893 199.77 97.4448L189.066 103.594C188.307 104.05 187.092 104.05 186.409 103.67Z" fill="#5793CE"/>
<path d="M187.472 98.356L185.953 97.445C185.878 97.3691 185.878 97.2932 185.953 97.2172L187.396 96.3821C187.472 96.3062 187.7 96.3062 187.775 96.3821L189.294 97.2932C189.37 97.3691 189.37 97.445 189.294 97.5209L187.851 98.356C187.775 98.356 187.624 98.356 187.472 98.356Z" fill="#D4ECFF"/>
<path d="M175.324 97.294C175.4 97.294 175.476 97.2181 175.552 97.2181L186.256 91.0686C187.015 90.6131 188.23 90.5372 188.913 90.9927L199.922 97.3699C200.529 96.9144 200.605 96.3071 199.922 95.9275L188.838 89.5503C188.154 89.1707 186.94 89.1707 186.18 89.6262L175.476 95.7756C174.793 96.2311 174.717 96.9144 175.324 97.294Z" fill="#396CAA"/>
<path d="M260.47 158.466C259.331 158.466 258.192 158.238 257.357 157.707L233.67 144.041C232.607 143.434 232 142.523 232 141.46C232 140.321 232.759 139.183 234.05 138.423L256.901 125.213C259.027 123.999 262.064 123.923 263.886 124.986L287.573 138.651C288.636 139.258 289.243 140.17 289.243 141.232C289.243 142.371 288.484 143.51 287.193 144.269L264.342 157.479C263.203 158.162 261.836 158.466 260.47 158.466ZM258.648 155.353C259.71 155.961 261.684 155.809 262.975 155.126L285.827 141.916C286.434 141.612 286.51 141.308 286.51 141.232C286.51 141.232 286.434 141.081 286.206 141.005L262.519 127.339C261.457 126.732 259.483 126.884 258.192 127.567L235.34 140.777C234.733 141.081 234.657 141.384 234.657 141.46C234.657 141.46 234.733 141.612 234.961 141.688L258.648 155.353Z" fill="#E9ECFE"/>
<path d="M287.875 132.882V124.683H269.578L263.277 121.039C261.835 120.204 259.253 120.28 257.583 121.267L251.662 124.683H233.365V133.11C233.289 133.642 233.669 134.249 234.352 134.628L258.039 148.294C259.481 149.129 262.062 149.053 263.733 148.066L286.584 134.856C287.495 134.325 287.951 133.566 287.875 132.882Z" fill="#5172A7"/>
<path d="M260.62 120.508C259.557 120.508 258.418 120.811 257.583 121.267L251.662 124.683H233.365V133.11C233.289 133.642 233.669 134.249 234.352 134.629L258.039 148.294C258.722 148.674 259.709 148.902 260.696 148.826V120.508H260.62Z" fill="#5172A7"/>
<path d="M235.415 124.684H233.365V133.111C233.289 133.642 233.669 134.249 234.352 134.629L235.415 135.236V124.684Z" fill="#D4ECFF"/>
<path d="M258.344 148.446C259.558 148.978 261.381 148.978 262.899 148.37V138.805H258.344V148.446Z" fill="#BAE0FC"/>
<path d="M257.964 139.942L234.277 126.276C232.835 125.441 232.986 123.999 234.657 123.012L257.508 109.802C259.178 108.815 261.684 108.739 263.202 109.574L286.889 123.24C288.331 124.075 288.179 125.517 286.509 126.504L263.658 139.714C261.987 140.625 259.482 140.777 257.964 139.942Z" fill="#E9ECFE"/>
<path d="M286.51 124.91L263.658 138.12C261.988 139.107 259.482 139.183 257.964 138.347L234.277 124.682C233.974 124.53 233.746 124.302 233.518 124.075C232.987 124.91 233.214 125.745 234.277 126.352L257.964 140.018C259.406 140.853 261.988 140.777 263.658 139.79L286.51 126.58C287.8 125.821 288.18 124.758 287.648 123.923C287.421 124.227 287.041 124.606 286.51 124.91Z" fill="#BAE0FC"/>
<path d="M279.222 135.079C279.222 135.687 278.766 136.446 278.235 136.75C277.704 137.053 277.248 136.826 277.248 136.218C277.248 135.611 277.704 134.852 278.235 134.548C278.766 134.244 279.222 134.472 279.222 135.079Z" fill="#D4ECFF"/>
<path d="M282.259 133.259C282.259 133.866 281.804 134.626 281.272 134.929C280.741 135.233 280.285 135.005 280.285 134.398C280.285 133.791 280.741 133.031 281.272 132.728C281.804 132.424 282.259 132.652 282.259 133.259Z" fill="#D4ECFF"/>
<path d="M285.37 131.513C285.37 132.12 284.915 132.88 284.383 133.183C283.852 133.487 283.396 133.259 283.396 132.652C283.396 132.044 283.852 131.285 284.383 130.982C284.915 130.678 285.37 130.906 285.37 131.513Z" fill="#D4ECFF"/>
<path d="M259.405 131.439L248.321 125.062C247.637 124.682 247.713 123.999 248.548 123.543L259.253 117.394C260.012 116.938 261.227 116.862 261.91 117.318L272.994 123.695C273.678 124.075 273.602 124.758 272.767 125.213L262.062 131.363C261.227 131.818 260.088 131.818 259.405 131.439Z" fill="#5172A7"/>
<path d="M260.468 126.125L258.95 125.214C258.874 125.138 258.874 125.062 258.95 124.986L260.392 124.151C260.468 124.075 260.696 124.075 260.772 124.151L262.29 125.062C262.366 125.138 262.366 125.214 262.29 125.289L260.847 126.125C260.696 126.125 260.544 126.125 260.468 126.125Z" fill="#D4ECFF"/>
<g opacity="0.3" filter="url(#filter3_f)">
<path d="M48.2341 204.386L74.8184 189.771C76.5711 188.853 76.352 187.28 74.3072 186.231L46.6303 171.876C44.5856 170.827 41.5185 170.696 39.7659 171.614L13.1816 186.229C11.4289 187.147 11.648 188.72 13.6928 189.769L41.3697 204.124C43.3414 205.173 46.4815 205.304 48.2341 204.386Z" fill="#1E3F75"/>
</g>
<g opacity="0.3" filter="url(#filter4_f)">
<path d="M119.234 254.386L145.818 239.771C147.571 238.853 147.352 237.28 145.307 236.231L117.63 221.876C115.586 220.827 112.518 220.696 110.766 221.614L84.1816 236.229C82.4289 237.147 82.648 238.72 84.6928 239.769L112.37 254.124C114.341 255.173 117.482 255.304 119.234 254.386Z" fill="#1E3F75"/>
</g>
<path d="M42.4696 200.466C41.3308 200.466 40.1921 200.238 39.357 199.707L15.6702 186.041C14.6074 185.434 14 184.523 14 183.46C14 182.321 14.7592 181.183 16.0498 180.423L38.9015 167.213C41.0272 165.999 44.0639 165.923 45.886 166.986L69.5727 180.651C70.6356 181.258 71.2429 182.17 71.2429 183.232C71.2429 184.371 70.4838 185.51 69.1931 186.269L46.3415 199.479C45.2027 200.162 43.8362 200.466 42.4696 200.466ZM40.6476 197.353C41.7104 197.961 43.6844 197.809 44.975 197.126L67.8266 183.916C68.4339 183.612 68.5099 183.308 68.5099 183.232C68.5099 183.232 68.4339 183.081 68.2062 183.005L44.5195 169.339C43.4566 168.732 41.4827 168.884 40.1921 169.567L17.3404 182.777C16.7331 183.081 16.6572 183.384 16.6572 183.46C16.6572 183.46 16.7331 183.612 16.9608 183.688L40.6476 197.353Z" fill="#E9ECFE"/>
<path d="M69.8749 174.882V166.683H51.5784L45.2771 163.039C43.8347 162.204 41.2534 162.28 39.5832 163.267L33.6615 166.683H15.365V175.11C15.2891 175.642 15.6687 176.249 16.352 176.628L40.0387 190.294C41.4812 191.129 44.0624 191.053 45.7327 190.066L68.5843 176.856C69.4953 176.325 69.9508 175.566 69.8749 174.882Z" fill="#5172A7"/>
<path d="M42.62 162.508C41.5571 162.508 40.4183 162.811 39.5832 163.267L33.6615 166.683H15.365V175.11C15.2891 175.642 15.6687 176.249 16.352 176.629L40.0387 190.294C40.722 190.674 41.709 190.902 42.6959 190.826V162.508H42.62Z" fill="#5172A7"/>
<path d="M17.4148 166.684H15.365V175.111C15.2891 175.642 15.6687 176.249 16.352 176.629L17.4148 177.236V166.684Z" fill="#D4ECFF"/>
<path d="M40.3438 190.446C41.5585 190.978 43.3805 190.978 44.8989 190.37V180.805H40.3438V190.446Z" fill="#BAE0FC"/>
<path d="M39.9637 181.942L16.277 168.276C14.8345 167.441 14.9863 165.999 16.6566 165.012L39.5082 151.802C41.1784 150.815 43.6837 150.739 45.2021 151.574L68.8889 165.24C70.3313 166.075 70.1795 167.517 68.5093 168.504L45.6576 181.714C43.9874 182.625 41.4821 182.777 39.9637 181.942Z" fill="#E9ECFE"/>
<path d="M68.5095 166.91L45.6579 180.12C43.9877 181.107 41.4823 181.183 39.964 180.347L16.2772 166.682C15.9735 166.53 15.7458 166.302 15.518 166.075C14.9866 166.91 15.2143 167.745 16.2772 168.352L39.964 182.018C41.4064 182.853 43.9877 182.777 45.6579 181.79L68.5095 168.58C69.8001 167.821 70.1797 166.758 69.6483 165.923C69.4205 166.227 69.0409 166.606 68.5095 166.91Z" fill="#BAE0FC"/>
<path d="M61.2219 177.079C61.2219 177.687 60.7664 178.446 60.235 178.75C59.7036 179.053 59.248 178.826 59.248 178.218C59.248 177.611 59.7036 176.852 60.235 176.548C60.7664 176.244 61.2219 176.472 61.2219 177.079Z" fill="#D4ECFF"/>
<path d="M64.2591 175.259C64.2591 175.866 63.8035 176.626 63.2721 176.929C62.7407 177.233 62.2852 177.005 62.2852 176.398C62.2852 175.791 62.7407 175.031 63.2721 174.728C63.8035 174.424 64.2591 174.652 64.2591 175.259Z" fill="#D4ECFF"/>
<path d="M67.3704 173.513C67.3704 174.12 66.9149 174.88 66.3834 175.183C65.852 175.487 65.3965 175.259 65.3965 174.652C65.3965 174.044 65.852 173.285 66.3834 172.982C66.9149 172.678 67.3704 172.906 67.3704 173.513Z" fill="#D4ECFF"/>
<path d="M41.4048 173.439L30.3206 167.062C29.6373 166.682 29.7132 165.999 30.5483 165.543L41.2529 159.394C42.0121 158.938 43.2268 158.862 43.9101 159.318L54.9943 165.695C55.6775 166.075 55.6016 166.758 54.7665 167.213L44.0619 173.363C43.2268 173.818 42.088 173.818 41.4048 173.439Z" fill="#5172A7"/>
<path d="M42.4679 168.125L40.9495 167.214C40.8736 167.138 40.8736 167.062 40.9495 166.986L42.392 166.151C42.4679 166.075 42.6957 166.075 42.7716 166.151L44.29 167.062C44.3659 167.138 44.3659 167.214 44.29 167.289L42.8475 168.125C42.6957 168.125 42.5438 168.125 42.4679 168.125Z" fill="#D4ECFF"/>
<path d="M113.47 250.466C112.331 250.466 111.192 250.238 110.357 249.707L86.6702 236.041C85.6074 235.434 85 234.523 85 233.46C85 232.321 85.7592 231.183 87.0498 230.423L109.901 217.213C112.027 215.999 115.064 215.923 116.886 216.986L140.573 230.651C141.636 231.258 142.243 232.17 142.243 233.232C142.243 234.371 141.484 235.51 140.193 236.269L117.342 249.479C116.203 250.162 114.836 250.466 113.47 250.466ZM111.648 247.353C112.71 247.961 114.684 247.809 115.975 247.126L138.827 233.916C139.434 233.612 139.51 233.308 139.51 233.232C139.51 233.232 139.434 233.081 139.206 233.005L115.519 219.339C114.457 218.732 112.483 218.884 111.192 219.567L88.3404 232.777C87.7331 233.081 87.6572 233.384 87.6572 233.46C87.6572 233.46 87.7331 233.612 87.9608 233.688L111.648 247.353Z" fill="#E9ECFE"/>
<path d="M140.875 224.882V216.683H122.578L116.277 213.039C114.835 212.204 112.253 212.28 110.583 213.267L104.662 216.683H86.365V225.11C86.2891 225.642 86.6687 226.249 87.352 226.628L111.039 240.294C112.481 241.129 115.062 241.053 116.733 240.066L139.584 226.856C140.495 226.325 140.951 225.566 140.875 224.882Z" fill="#5172A7"/>
<path d="M113.62 212.508C112.557 212.508 111.418 212.811 110.583 213.267L104.662 216.683H86.365V225.11C86.2891 225.642 86.6687 226.249 87.352 226.629L111.039 240.294C111.722 240.674 112.709 240.902 113.696 240.826V212.508H113.62Z" fill="#5172A7"/>
<path d="M88.4148 216.684H86.365V225.111C86.2891 225.642 86.6687 226.249 87.352 226.629L88.4148 227.236V216.684Z" fill="#D4ECFF"/>
<path d="M111.344 240.446C112.558 240.978 114.381 240.978 115.899 240.37V230.805H111.344V240.446Z" fill="#BAE0FC"/>
<path d="M110.964 231.942L87.277 218.276C85.8345 217.441 85.9863 215.999 87.6566 215.012L110.508 201.802C112.178 200.815 114.684 200.739 116.202 201.574L139.889 215.24C141.331 216.075 141.179 217.517 139.509 218.504L116.658 231.714C114.987 232.625 112.482 232.777 110.964 231.942Z" fill="#E9ECFE"/>
<path d="M139.51 216.91L116.658 230.12C114.988 231.107 112.482 231.183 110.964 230.347L87.2772 216.682C86.9735 216.53 86.7458 216.302 86.518 216.075C85.9866 216.91 86.2143 217.745 87.2772 218.352L110.964 232.018C112.406 232.853 114.988 232.777 116.658 231.79L139.51 218.58C140.8 217.821 141.18 216.758 140.648 215.923C140.421 216.227 140.041 216.606 139.51 216.91Z" fill="#BAE0FC"/>
<path d="M132.222 227.079C132.222 227.687 131.766 228.446 131.235 228.75C130.704 229.053 130.248 228.826 130.248 228.218C130.248 227.611 130.704 226.852 131.235 226.548C131.766 226.244 132.222 226.472 132.222 227.079Z" fill="#D4ECFF"/>
<path d="M135.259 225.259C135.259 225.866 134.804 226.626 134.272 226.929C133.741 227.233 133.285 227.005 133.285 226.398C133.285 225.791 133.741 225.031 134.272 224.728C134.804 224.424 135.259 224.652 135.259 225.259Z" fill="#D4ECFF"/>
<path d="M138.37 223.513C138.37 224.12 137.915 224.88 137.383 225.183C136.852 225.487 136.396 225.259 136.396 224.652C136.396 224.044 136.852 223.285 137.383 222.982C137.915 222.678 138.37 222.906 138.37 223.513Z" fill="#D4ECFF"/>
<path d="M112.405 223.439L101.321 217.062C100.637 216.682 100.713 215.999 101.548 215.543L112.253 209.394C113.012 208.938 114.227 208.862 114.91 209.318L125.994 215.695C126.678 216.075 126.602 216.758 125.767 217.213L115.062 223.363C114.227 223.818 113.088 223.818 112.405 223.439Z" fill="#5172A7"/>
<path d="M113.468 218.125L111.95 217.214C111.874 217.138 111.874 217.062 111.95 216.986L113.392 216.151C113.468 216.075 113.696 216.075 113.772 216.151L115.29 217.062C115.366 217.138 115.366 217.214 115.29 217.289L113.847 218.125C113.696 218.125 113.544 218.125 113.468 218.125Z" fill="#D4ECFF"/>
<path d="M61.0063 139.611V31.0452L104.13 19.7725L112.074 15.1575C113.89 14.0983 117.067 14.2497 119.185 15.4601L126.6 19.7725H149.599L142.79 124.555C142.866 125.236 142.412 125.993 141.579 126.447L98.5314 158.903C96.7157 159.962 93.5382 159.811 91.4198 158.6L62.7464 142.032C61.5359 141.351 60.9307 140.443 61.0063 139.611Z" fill="url(#paint2_radial)"/>
<path d="M115.4 14.4771C116.762 14.4771 118.124 14.8553 119.183 15.4606L126.597 19.7729H149.596V128.641C149.672 129.322 149.218 130.079 148.386 130.533L98.5289 158.979C97.621 159.509 96.4862 159.736 95.2 159.66L94.7461 50.1108L115.4 14.4771Z" fill="#BFC5ED"/>
<path d="M98.1507 159.13C96.562 159.811 94.2923 159.735 92.4766 159.054V48.8242H98.1507V159.13Z" fill="#FAFDFF"/>
<path d="M98.6051 50.1113L148.462 21.6649C150.278 20.6057 150.051 18.79 147.933 17.5795L119.259 1.01093C117.141 -0.199561 113.963 -0.35087 112.148 0.708306L62.2905 29.1548C60.4748 30.2139 60.7018 32.0297 62.8201 33.2402L91.4935 49.8087C93.5362 51.0192 96.7894 51.1705 98.6051 50.1113Z" fill="#E9ECFE"/>
<path d="M62.7463 31.1961L91.4197 47.7646C93.538 48.9751 96.7156 49.1264 98.5313 48.0673L148.388 19.6208C148.767 19.3938 149.069 19.0912 149.296 18.7886C149.901 19.7721 149.674 20.9069 148.388 21.5878L98.607 50.11C96.7912 51.1691 93.6137 51.0178 91.4953 49.8073L62.8219 33.2388C61.1575 32.3309 60.7036 30.9691 61.3845 29.9099C61.6114 30.4395 62.141 30.8178 62.7463 31.1961Z" fill="#FAFDFF"/>
<path d="M97.1688 38.6092L130.382 19.3927C131.214 18.8631 131.138 18.0309 130.155 17.5013L116.688 9.78445C115.704 9.17921 114.191 9.17921 113.359 9.63314L80.1464 28.8496C79.3141 29.3792 79.3898 30.2114 80.3733 30.741L93.84 38.4579C94.8235 38.9875 96.3366 39.0631 97.1688 38.6092Z" fill="#5172A7"/>
<path d="M115.099 20.2262L116.99 19.0914C117.141 19.0157 117.066 18.9401 116.99 18.7888L115.099 17.7296C114.947 17.6539 114.72 17.6539 114.645 17.7296L112.753 18.8644C112.602 18.9401 112.678 19.0157 112.753 19.167L114.645 20.2262C114.796 20.2262 114.947 20.3019 115.099 20.2262Z" fill="#D4ECFF"/>
<path d="M108.667 23.9313L110.558 22.7965C110.71 22.7208 110.634 22.6452 110.558 22.4938L108.667 21.4347C108.516 21.359 108.289 21.359 108.213 21.4347L106.322 22.5695C106.17 22.6452 106.246 22.7208 106.322 22.8721L108.213 23.9313C108.364 23.9313 108.516 23.9313 108.667 23.9313Z" fill="#D4ECFF"/>
<path d="M102.237 27.5636L104.129 26.4288C104.28 26.3531 104.204 26.2775 104.129 26.1262L102.237 25.067C102.086 24.9913 101.859 24.9913 101.783 25.067L99.892 26.2018C99.7407 26.2775 99.8164 26.3531 99.892 26.5045L101.783 27.5636C101.935 27.6393 102.162 27.6393 102.237 27.5636Z" fill="#D4ECFF"/>
<path d="M95.8057 31.275L97.6971 30.1402C97.8484 30.0646 97.7728 29.9889 97.6971 29.8376L95.8057 28.7784C95.6544 28.7028 95.4274 28.7028 95.3518 28.7784L93.4604 29.9133C93.3091 29.9889 93.3848 30.0646 93.4604 30.2159L95.3518 31.275C95.5031 31.3507 95.7301 31.3507 95.8057 31.275Z" fill="#D4ECFF"/>
<path d="M85.899 71.5969L66.9851 60.7782C65.926 60.1729 65.0938 58.5085 65.0938 57.071V50.3377C65.0938 48.9002 65.926 48.295 66.9851 48.9002L85.899 59.719C86.9582 60.3242 87.7904 61.9886 87.7904 63.4261V70.1594C87.7904 71.5969 86.9582 72.2021 85.899 71.5969Z" fill="#5172A7"/>
<path d="M80.2233 64.2566L78.4832 63.2731C78.2563 63.1218 78.0293 62.7435 78.0293 62.4409V60.6252C78.0293 60.3225 78.1806 60.1712 78.4832 60.3225L80.2233 61.3061C80.4503 61.4574 80.6772 61.8356 80.6772 62.1383V63.954C80.6016 64.2566 80.4503 64.4079 80.2233 64.2566Z" fill="#A6D7FF"/>
<path d="M74.3991 60.929L72.659 59.9455C72.432 59.7942 72.2051 59.4159 72.2051 59.1133V57.2975C72.2051 56.9949 72.3564 56.8436 72.659 56.9949L74.3991 57.9784C74.626 58.1297 74.853 58.508 74.853 58.8106V60.6264C74.7774 60.929 74.626 61.0803 74.3991 60.929Z" fill="#BAE0FC"/>
<path d="M85.899 120.398L66.9851 109.579C65.926 108.974 65.0938 107.309 65.0938 105.872V99.1385C65.0938 97.701 65.926 97.0958 66.9851 97.701L85.899 108.52C86.9582 109.125 87.7904 110.789 87.7904 112.227V118.96C87.7904 120.398 86.9582 121.003 85.899 120.398Z" fill="#5172A7"/>
<path d="M80.2233 113.056L78.4832 112.073C78.2563 111.922 78.0293 111.543 78.0293 111.241V109.425C78.0293 109.122 78.1806 108.971 78.4832 109.122L80.2233 110.106C80.4503 110.257 80.6772 110.635 80.6772 110.938V112.754C80.6016 113.056 80.4503 113.208 80.2233 113.056Z" fill="#A6D7FF"/>
<path d="M74.3991 109.729L72.659 108.745C72.432 108.594 72.2051 108.216 72.2051 107.913V106.097C72.2051 105.795 72.3564 105.643 72.659 105.795L74.3991 106.778C74.626 106.93 74.853 107.308 74.853 107.61V109.426C74.7774 109.729 74.626 109.88 74.3991 109.729Z" fill="#BAE0FC"/>
<path d="M85.8951 144.832L66.9812 134.014C65.9221 133.408 65.0898 131.744 65.0898 130.306V123.573C65.0898 122.136 65.9221 121.53 66.9812 122.136L85.8951 132.954C86.9543 133.56 87.7865 135.224 87.7865 136.661V143.395C87.7865 144.757 86.9543 145.437 85.8951 144.832Z" fill="#5172A7"/>
<path d="M80.2213 137.493L78.4813 136.509C78.2543 136.358 78.0273 135.98 78.0273 135.677V133.861C78.0273 133.559 78.1787 133.408 78.4813 133.559L80.2213 134.542C80.4483 134.694 80.6753 135.072 80.6753 135.375V137.19C80.5996 137.493 80.4483 137.569 80.2213 137.493Z" fill="#A6D7FF"/>
<path d="M74.3971 134.165L72.6571 133.182C72.4301 133.03 72.2031 132.652 72.2031 132.35V130.534C72.2031 130.231 72.3544 130.08 72.6571 130.231L74.3971 131.215C74.6241 131.366 74.8511 131.744 74.8511 132.047V133.863C74.7754 134.09 74.6241 134.241 74.3971 134.165Z" fill="#BAE0FC"/>
<path d="M85.8951 96.0344L66.9812 85.2157C65.9221 84.6104 65.0898 82.946 65.0898 81.5085V74.7752C65.0898 73.3378 65.9221 72.7325 66.9812 73.3377L85.8951 84.1565C86.9543 84.7617 87.7865 86.4261 87.7865 87.8636V94.5969C87.7865 95.9587 86.9543 96.6396 85.8951 96.0344Z" fill="#5172A7"/>
<path d="M80.2213 88.6932L78.4813 87.7096C78.2543 87.5583 78.0273 87.18 78.0273 86.8774V85.0617C78.0273 84.7591 78.1787 84.6078 78.4813 84.7591L80.2213 85.7426C80.4483 85.8939 80.6753 86.2722 80.6753 86.5748V88.3905C80.5996 88.6932 80.4483 88.8445 80.2213 88.6932Z" fill="#A6D7FF"/>
<path d="M74.3971 85.3655L72.6571 84.382C72.4301 84.2307 72.2031 83.8524 72.2031 83.5498V81.7341C72.2031 81.4314 72.3544 81.2801 72.6571 81.4314L74.3971 82.415C74.6241 82.5663 74.8511 82.9445 74.8511 83.2472V85.0629C74.7754 85.3655 74.6241 85.4412 74.3971 85.3655Z" fill="#BAE0FC"/>
<path d="M103.449 61.7635L144.53 38.0833C145.059 37.7807 145.438 37.0241 145.438 36.3432V30.0638C145.438 29.3829 145.059 29.0803 144.53 29.3829L103.449 53.1388C102.919 53.4414 102.541 54.1979 102.541 54.8788V61.1582C102.541 61.7635 102.995 62.0661 103.449 61.7635Z" fill="#5172A7"/>
<path d="M135.981 39.8959L142.109 36.3401C142.563 36.0375 142.941 35.3566 142.941 34.6757C142.941 34.0704 142.563 33.7678 142.109 33.9948L135.981 37.5506C135.527 37.8532 135.149 38.5341 135.149 39.215C135.073 39.8203 135.527 40.1229 135.981 39.8959Z" fill="#D4ECFF"/>
<path d="M130.76 41.7148C130.76 42.32 131.214 42.6226 131.743 42.32C132.273 42.0174 132.727 41.1852 132.727 40.5799C132.727 39.9747 132.273 39.6721 131.743 39.9747C131.214 40.2773 130.76 41.1095 130.76 41.7148Z" fill="#5172A7"/>
<path d="M127.205 43.7572C127.205 44.3625 127.659 44.6651 128.189 44.3625C128.718 44.0599 129.172 43.2276 129.172 42.6224C129.172 42.0172 128.718 41.7145 128.189 42.0172C127.659 42.3198 127.205 43.152 127.205 43.7572Z" fill="#5172A7"/>
<path d="M123.648 45.7997C123.648 46.405 124.102 46.7076 124.632 46.405C125.162 46.1023 125.615 45.2701 125.615 44.6649C125.615 44.0596 125.162 43.757 124.632 44.0596C124.102 44.4379 123.648 45.1945 123.648 45.7997Z" fill="#D4ECFF"/>
<path d="M120.092 47.8393C120.092 48.4445 120.546 48.7471 121.075 48.4445C121.605 48.1419 122.059 47.3097 122.059 46.7044C122.059 46.0992 121.605 45.7966 121.075 46.0992C120.546 46.4775 120.092 47.234 120.092 47.8393Z" fill="#5172A7"/>
<path d="M105.19 58.2829L107.232 57.0724C107.535 56.9211 107.762 56.3915 107.762 56.0132V53.8949C107.762 53.5166 107.535 53.2896 107.232 53.441L105.19 54.6514C104.887 54.8027 104.66 55.3323 104.66 55.7106V57.9046C104.66 58.2829 104.887 58.5099 105.19 58.2829Z" fill="#89C0ED"/>
<path d="M103.449 76.4417L144.53 52.7616C145.059 52.4589 145.438 51.7024 145.438 51.0215V44.8177C145.438 44.1368 145.059 43.8342 144.53 44.1368L103.449 67.817C102.919 68.1196 102.541 68.8762 102.541 69.5571V75.8365C102.541 76.4417 102.995 76.7444 103.449 76.4417Z" fill="#5172A7"/>
<path d="M135.979 54.5024L142.107 50.9466C142.561 50.6439 142.939 49.963 142.939 49.2821C142.939 48.6769 142.561 48.3743 142.107 48.6012L135.979 52.157C135.525 52.4597 135.147 53.1406 135.147 53.8215C135.071 54.5024 135.525 54.805 135.979 54.5024Z" fill="#D4ECFF"/>
<path d="M130.758 56.393C130.758 56.9982 131.212 57.3008 131.741 56.9982C132.271 56.6956 132.725 55.8634 132.725 55.2581C132.725 54.6529 132.271 54.3503 131.741 54.6529C131.212 54.9555 130.758 55.7121 130.758 56.393Z" fill="#BAE0FC"/>
<path d="M127.203 58.4355C127.203 59.0407 127.657 59.3433 128.187 59.0407C128.716 58.7381 129.17 57.9059 129.17 57.3006C129.17 56.6954 128.716 56.3928 128.187 56.6954C127.657 56.998 127.203 57.7546 127.203 58.4355Z" fill="#5172A7"/>
<path d="M123.648 60.4779C123.648 61.0832 124.102 61.3858 124.632 61.0832C125.162 60.7806 125.615 59.9483 125.615 59.3431C125.615 58.7379 125.162 58.4352 124.632 58.7379C124.102 59.0405 123.648 59.797 123.648 60.4779Z" fill="#D4ECFF"/>
<path d="M120.09 62.5209C120.09 63.1261 120.544 63.4288 121.073 63.1261C121.603 62.8235 122.057 61.9913 122.057 61.3861C122.057 60.7808 121.603 60.4782 121.073 60.7808C120.544 61.0835 120.09 61.84 120.09 62.5209Z" fill="#5172A7"/>
<path d="M105.188 72.9645L107.231 71.754C107.533 71.6027 107.76 71.0731 107.76 70.6948V68.5008C107.76 68.1226 107.533 67.8956 107.231 68.0469L105.188 69.2574C104.885 69.4087 104.658 69.9383 104.658 70.3166V72.5106C104.658 72.9645 104.885 73.1158 105.188 72.9645Z" fill="#89C0ED"/>
<path d="M103.449 91.1155L144.53 67.4354C145.059 67.1327 145.438 66.3762 145.438 65.6953V59.4159C145.438 58.735 145.059 58.4324 144.53 58.735L103.449 82.4151C102.919 82.7178 102.541 83.4743 102.541 84.1552V90.4346C102.541 91.0399 102.995 91.3425 103.449 91.1155Z" fill="#5172A7"/>
<path d="M135.979 69.1757L142.107 65.6199C142.561 65.3173 142.939 64.5607 142.939 63.9555C142.939 63.3502 142.561 63.0476 142.107 63.2746L135.979 66.8304C135.525 67.133 135.147 67.8896 135.147 68.4948C135.071 69.1757 135.525 69.4783 135.979 69.1757Z" fill="#D4ECFF"/>
<path d="M130.758 70.9911C130.758 71.5964 131.212 71.899 131.741 71.5964C132.271 71.2937 132.725 70.4615 132.725 69.8563C132.725 69.251 132.271 68.9484 131.741 69.251C131.212 69.6293 130.758 70.3859 130.758 70.9911Z" fill="#BAE0FC"/>
<path d="M127.203 73.0336C127.203 73.6388 127.657 73.9415 128.187 73.6388C128.716 73.3362 129.17 72.504 129.17 71.8988C129.17 71.2935 128.716 70.9909 128.187 71.2935C127.657 71.6718 127.203 72.4284 127.203 73.0336Z" fill="#5172A7"/>
<path d="M123.648 75.0761C123.648 75.6813 124.102 75.984 124.632 75.6813C125.162 75.3787 125.615 74.5465 125.615 73.9413C125.615 73.336 125.162 73.0334 124.632 73.336C124.102 73.7143 123.648 74.4708 123.648 75.0761Z" fill="#D4ECFF"/>
<path d="M120.092 77.1942C120.092 77.7995 120.546 78.1021 121.075 77.7995C121.605 77.4969 122.059 76.6647 122.059 76.0594C122.059 75.4542 121.605 75.1515 121.075 75.4542C120.546 75.7568 120.092 76.5133 120.092 77.1942Z" fill="#5172A7"/>
<path d="M105.188 87.6349L107.231 86.4244C107.533 86.2731 107.76 85.7435 107.76 85.3653V83.1712C107.76 82.793 107.533 82.566 107.231 82.7173L105.188 83.9278C104.885 84.0791 104.658 84.6087 104.658 84.987V87.181C104.658 87.6349 104.885 87.7862 105.188 87.6349Z" fill="#89C0ED"/>
<path d="M103.449 105.72L144.53 82.0399C145.059 81.7372 145.438 80.9807 145.438 80.2998V74.0204C145.438 73.3395 145.059 73.0369 144.53 73.3395L103.449 97.0196C102.919 97.3223 102.541 98.0788 102.541 98.7597V105.039C102.541 105.72 102.995 106.023 103.449 105.72Z" fill="#5172A7"/>
<path d="M135.981 83.7802L142.109 80.2244C142.563 79.9218 142.941 79.1652 142.941 78.56C142.941 77.9547 142.563 77.6521 142.109 77.8791L135.981 81.4349C135.527 81.7375 135.149 82.4184 135.149 83.0993C135.073 83.7802 135.527 84.0828 135.981 83.7802Z" fill="#D4ECFF"/>
<path d="M130.76 85.6708C130.76 86.2761 131.214 86.5787 131.743 86.2761C132.273 85.9734 132.727 85.1412 132.727 84.536C132.727 83.9307 132.273 83.6281 131.743 83.9307C131.214 84.2334 130.76 85.0656 130.76 85.6708Z" fill="#5172A7"/>
<path d="M127.205 87.7133C127.205 88.3185 127.659 88.6212 128.189 88.3185C128.718 88.0159 129.172 87.1837 129.172 86.5785C129.172 85.9732 128.718 85.6706 128.189 85.9732C127.659 86.2758 127.205 87.108 127.205 87.7133Z" fill="#5172A7"/>
<path d="M123.648 89.7558C123.648 90.361 124.102 90.6636 124.632 90.361C125.162 90.0584 125.615 89.2262 125.615 88.6209C125.615 88.0157 125.162 87.7131 124.632 88.0157C124.102 88.3183 123.648 89.1505 123.648 89.7558Z" fill="#D4ECFF"/>
<path d="M120.092 91.7953C120.092 92.4006 120.546 92.7032 121.075 92.4006C121.605 92.0979 122.059 91.2657 122.059 90.6605C122.059 90.0552 121.605 89.7526 121.075 90.0552C120.546 90.3579 120.092 91.1901 120.092 91.7953Z" fill="#5172A7"/>
<path d="M105.19 102.239L107.232 101.029C107.535 100.878 107.762 100.348 107.762 99.9698V97.7757C107.762 97.3975 107.535 97.1705 107.232 97.3218L105.19 98.5323C104.887 98.6836 104.66 99.2132 104.66 99.5915V101.785C104.66 102.239 104.887 102.466 105.19 102.239Z" fill="#D4ECFF"/>
<path d="M103.449 120.395L144.53 96.7151C145.059 96.4125 145.438 95.656 145.438 94.9751V88.6957C145.438 88.0148 145.059 87.7121 144.53 88.0148L103.449 111.695C102.919 111.998 102.541 112.754 102.541 113.435V119.714C102.541 120.395 102.995 120.698 103.449 120.395Z" fill="#5172A7"/>
<path d="M135.981 98.455L142.109 94.8992C142.563 94.5966 142.941 93.84 142.941 93.2348C142.941 92.6295 142.563 92.3269 142.109 92.5539L135.981 96.1097C135.527 96.4123 135.149 97.0932 135.149 97.7741C135.073 98.455 135.527 98.7576 135.981 98.455Z" fill="#D4ECFF"/>
<path d="M130.76 100.349C130.76 100.954 131.214 101.256 131.743 100.954C132.273 100.651 132.727 99.8189 132.727 99.2137C132.727 98.6085 132.273 98.3058 131.743 98.6085C131.214 98.9111 130.76 99.6676 130.76 100.349Z" fill="#5172A7"/>
<path d="M127.205 102.388C127.205 102.993 127.659 103.296 128.189 102.993C128.718 102.691 129.172 101.859 129.172 101.253C129.172 100.648 128.718 100.345 128.189 100.648C127.659 100.951 127.205 101.707 127.205 102.388Z" fill="#BAE0FC"/>
<path d="M123.648 104.431C123.648 105.036 124.102 105.338 124.632 105.036C125.162 104.733 125.615 103.901 125.615 103.296C125.615 102.69 125.162 102.388 124.632 102.69C124.102 102.993 123.648 103.75 123.648 104.431Z" fill="#D4ECFF"/>
<path d="M120.092 106.473C120.092 107.078 120.546 107.381 121.075 107.078C121.605 106.776 122.059 105.943 122.059 105.338C122.059 104.733 121.605 104.43 121.075 104.733C120.546 105.036 120.092 105.792 120.092 106.473Z" fill="#BAE0FC"/>
<path d="M105.19 116.914L107.232 115.704C107.535 115.552 107.762 115.023 107.762 114.645V112.451C107.762 112.072 107.535 111.845 107.232 111.997L105.19 113.207C104.887 113.358 104.66 113.888 104.66 114.266V116.46C104.66 116.914 104.887 117.066 105.19 116.914Z" fill="#89C0ED"/>
<path d="M103.447 135.002L144.528 111.322C145.057 111.019 145.436 110.262 145.436 109.582V103.302C145.436 102.621 145.057 102.319 144.528 102.621L103.447 126.301C102.917 126.604 102.539 127.361 102.539 128.041V134.321C102.539 135.002 102.993 135.304 103.447 135.002Z" fill="#5172A7"/>
<path d="M135.979 113.134L142.107 109.578C142.561 109.276 142.939 108.519 142.939 107.914C142.939 107.309 142.561 107.006 142.107 107.233L135.979 110.789C135.525 111.091 135.147 111.772 135.147 112.453C135.071 113.059 135.525 113.361 135.979 113.134Z" fill="#D4ECFF"/>
<path d="M130.758 114.953C130.758 115.558 131.212 115.86 131.741 115.558C132.271 115.255 132.725 114.423 132.725 113.818C132.725 113.212 132.271 112.91 131.741 113.212C131.212 113.515 130.758 114.347 130.758 114.953Z" fill="#5172A7"/>
<path d="M127.203 116.995C127.203 117.6 127.657 117.903 128.187 117.6C128.716 117.298 129.17 116.465 129.17 115.86C129.17 115.255 128.716 114.952 128.187 115.255C127.657 115.633 127.203 116.39 127.203 116.995Z" fill="#5172A7"/>
<path d="M123.648 119.038C123.648 119.643 124.102 119.946 124.632 119.643C125.162 119.341 125.615 118.508 125.615 117.903C125.615 117.298 125.162 116.995 124.632 117.298C124.102 117.676 123.648 118.433 123.648 119.038Z" fill="#D4ECFF"/>
<path d="M120.09 121.077C120.09 121.682 120.544 121.985 121.073 121.682C121.603 121.38 122.057 120.547 122.057 119.942C122.057 119.337 121.603 119.034 121.073 119.337C120.544 119.715 120.09 120.472 120.09 121.077Z" fill="#5172A7"/>
<path d="M105.188 131.596L107.231 130.386C107.533 130.235 107.76 129.705 107.76 129.327V127.133C107.76 126.754 107.533 126.527 107.231 126.679L105.188 127.889C104.885 128.041 104.658 128.57 104.658 128.948V131.142C104.658 131.521 104.885 131.748 105.188 131.596Z" fill="#89C0ED"/>
<path d="M103.449 149.674L144.53 125.993C145.059 125.691 145.438 124.934 145.438 124.253V117.974C145.438 117.293 145.059 116.99 144.53 117.293L103.449 140.973C102.919 141.276 102.541 142.032 102.541 142.713V148.993C102.541 149.674 102.995 149.976 103.449 149.674Z" fill="#5172A7"/>
<path d="M135.981 127.734L142.109 124.178C142.563 123.875 142.941 123.194 142.941 122.514C142.941 121.908 142.563 121.606 142.109 121.833L135.981 125.388C135.527 125.691 135.149 126.372 135.149 127.053C135.073 127.734 135.527 128.036 135.981 127.734Z" fill="#D4ECFF"/>
<path d="M129.625 130.381C129.625 131.591 130.457 132.045 131.516 131.44C132.576 130.835 133.408 129.397 133.408 128.187C133.408 126.976 132.576 126.523 131.516 127.128C130.457 127.733 129.625 129.17 129.625 130.381Z" fill="#BAE0FC"/>
<path d="M122.287 134.69C122.287 135.296 122.741 135.598 123.271 135.296C123.8 134.993 124.254 134.161 124.254 133.556C124.254 132.95 123.8 132.648 123.271 132.95C122.741 133.253 122.287 134.085 122.287 134.69Z" fill="#5172A7"/>
<path d="M118.729 136.736C118.729 137.341 119.182 137.644 119.712 137.341C120.242 137.039 120.696 136.207 120.696 135.601C120.696 134.996 120.242 134.694 119.712 134.996C119.182 135.299 118.729 136.131 118.729 136.736Z" fill="#D4ECFF"/>
<path d="M115.174 138.779C115.174 139.384 115.628 139.687 116.157 139.384C116.687 139.081 117.141 138.249 117.141 137.644C117.141 137.039 116.687 136.736 116.157 137.039C115.628 137.341 115.174 138.173 115.174 138.779Z" fill="#5172A7"/>
<path d="M105.19 146.193L107.232 144.983C107.535 144.831 107.762 144.302 107.762 143.923V141.729C107.762 141.351 107.535 141.124 107.232 141.275L105.19 142.486C104.887 142.637 104.66 143.167 104.66 143.545V145.739C104.66 146.193 104.887 146.344 105.19 146.193Z" fill="#D4ECFF"/>
<path d="M127.776 177.423V68.8577L170.899 57.585L178.843 52.97C180.659 51.9108 183.837 52.0622 185.955 53.2726L193.369 57.585H216.368L209.559 162.368C209.635 163.049 209.181 163.805 208.349 164.259L165.301 196.715C163.485 197.775 160.308 197.623 158.189 196.413L129.516 179.844C128.305 179.163 127.7 178.256 127.776 177.423Z" fill="url(#paint3_radial)"/>
<path d="M182.17 52.2896C183.531 52.2896 184.893 52.6678 185.952 53.2731L193.367 57.5854H216.366V166.454C216.442 167.135 215.988 167.891 215.155 168.345L165.298 196.792C164.391 197.321 163.256 197.548 161.97 197.472L161.516 87.9233L182.17 52.2896Z" fill="#BFC5ED"/>
<path d="M164.92 196.942C163.331 197.623 161.062 197.548 159.246 196.867V86.6367H164.92V196.942Z" fill="#FAFDFF"/>
<path d="M165.375 87.9238L215.232 59.4774C217.047 58.4182 216.82 56.6025 214.702 55.392L186.029 38.8234C183.91 37.6129 180.733 37.4616 178.917 38.5208L129.06 66.9673C127.244 68.0264 127.471 69.8422 129.59 71.0527L158.263 87.6212C160.306 88.8317 163.559 88.983 165.375 87.9238Z" fill="#E9ECFE"/>
<path d="M129.516 69.0086L158.189 85.5771C160.308 86.7876 163.485 86.9389 165.301 85.8798L215.158 57.4333C215.536 57.2063 215.839 56.9037 216.066 56.6011C216.671 57.5846 216.444 58.7194 215.158 59.4003L165.376 87.9225C163.561 88.9816 160.383 88.8303 158.265 87.6198L129.591 71.0513C127.927 70.1434 127.473 68.7816 128.154 67.7224C128.381 68.252 128.911 68.6303 129.516 69.0086Z" fill="#FAFDFF"/>
<path d="M163.938 76.4232L197.151 57.2067C197.983 56.6771 197.908 55.8449 196.924 55.3153L183.458 47.5984C182.474 46.9932 180.961 46.9932 180.129 47.4471L146.916 66.6636C146.084 67.1932 146.159 68.0254 147.143 68.555L160.61 76.2718C161.593 76.8014 163.106 76.8771 163.938 76.4232Z" fill="#5172A7"/>
<path d="M181.868 58.0378L183.76 56.9029C183.911 56.8273 183.835 56.7516 183.76 56.6003L181.868 55.5411C181.717 55.4655 181.49 55.4655 181.414 55.5411L179.523 56.6759C179.372 56.7516 179.447 56.8273 179.523 56.9786L181.414 58.0378C181.566 58.0378 181.717 58.1134 181.868 58.0378Z" fill="#D4ECFF"/>
<path d="M175.437 61.7428L177.328 60.608C177.479 60.5323 177.404 60.4567 177.328 60.3054L175.437 59.2462C175.285 59.1705 175.058 59.1705 174.983 59.2462L173.091 60.381C172.94 60.4567 173.016 60.5323 173.091 60.6837L174.983 61.7428C175.134 61.7428 175.285 61.7428 175.437 61.7428Z" fill="#D4ECFF"/>
<path d="M169.007 65.3751L170.898 64.2403C171.05 64.1647 170.974 64.089 170.898 63.9377L169.007 62.8785C168.856 62.8029 168.629 62.8029 168.553 62.8785L166.662 64.0134C166.51 64.089 166.586 64.1647 166.662 64.316L168.553 65.3751C168.704 65.4508 168.931 65.4508 169.007 65.3751Z" fill="#D4ECFF"/>
<path d="M162.575 69.0866L164.467 67.9517C164.618 67.8761 164.542 67.8004 164.467 67.6491L162.575 66.5899C162.424 66.5143 162.197 66.5143 162.121 66.5899L160.23 67.7248C160.079 67.8004 160.154 67.8761 160.23 68.0274L162.121 69.0866C162.273 69.1622 162.5 69.1622 162.575 69.0866Z" fill="#D4ECFF"/>
<path d="M152.67 109.408L133.757 98.5897C132.697 97.9844 131.865 96.32 131.865 94.8826V88.1492C131.865 86.7118 132.697 86.1065 133.757 86.7118L152.67 97.5305C153.73 98.1357 154.562 99.8002 154.562 101.238V107.971C154.562 109.408 153.73 110.014 152.67 109.408Z" fill="#5172A7"/>
<path d="M146.995 102.067L145.255 101.084C145.028 100.932 144.801 100.554 144.801 100.251V98.4357C144.801 98.1331 144.952 97.9818 145.255 98.1331L146.995 99.1166C147.222 99.2679 147.449 99.6462 147.449 99.9488V101.765C147.373 102.067 147.222 102.218 146.995 102.067Z" fill="#A6D7FF"/>
<path d="M141.171 98.7395L139.431 97.756C139.204 97.6047 138.977 97.2264 138.977 96.9238V95.1081C138.977 94.8055 139.128 94.6541 139.431 94.8055L141.171 95.789C141.398 95.9403 141.625 96.3186 141.625 96.6212V98.4369C141.549 98.7395 141.398 98.8909 141.171 98.7395Z" fill="#BAE0FC"/>
<path d="M152.669 158.207L133.755 147.389C132.695 146.783 131.863 145.119 131.863 143.681V136.948C131.863 135.511 132.695 134.905 133.755 135.511L152.669 146.329C153.728 146.935 154.56 148.599 154.56 150.036V156.77C154.56 158.207 153.728 158.812 152.669 158.207Z" fill="#5172A7"/>
<path d="M146.993 150.866L145.253 149.883C145.026 149.732 144.799 149.353 144.799 149.051V147.235C144.799 146.932 144.95 146.781 145.253 146.932L146.993 147.916C147.22 148.067 147.447 148.446 147.447 148.748V150.564C147.371 150.866 147.22 151.018 146.993 150.866Z" fill="#A6D7FF"/>
<path d="M141.169 147.539L139.429 146.555C139.202 146.404 138.975 146.026 138.975 145.723V143.907C138.975 143.605 139.126 143.453 139.429 143.605L141.169 144.588C141.396 144.74 141.623 145.118 141.623 145.42V147.236C141.547 147.539 141.396 147.69 141.169 147.539Z" fill="#BAE0FC"/>
<path d="M152.665 182.644L133.751 171.826C132.692 171.22 131.859 169.556 131.859 168.118V161.385C131.859 159.948 132.692 159.342 133.751 159.948L152.665 170.766C153.724 171.372 154.556 173.036 154.556 174.473V181.207C154.556 182.569 153.724 183.249 152.665 182.644Z" fill="#5172A7"/>
<path d="M146.991 175.303L145.251 174.319C145.024 174.168 144.797 173.789 144.797 173.487V171.671C144.797 171.368 144.948 171.217 145.251 171.368L146.991 172.352C147.218 172.503 147.445 172.882 147.445 173.184V175C147.369 175.303 147.218 175.378 146.991 175.303Z" fill="#A6D7FF"/>
<path d="M141.167 171.975L139.427 170.992C139.2 170.841 138.973 170.462 138.973 170.16V168.344C138.973 168.041 139.124 167.89 139.427 168.041L141.167 169.025C141.394 169.176 141.621 169.554 141.621 169.857V171.673C141.545 171.9 141.394 172.051 141.167 171.975Z" fill="#BAE0FC"/>
<path d="M152.665 133.843L133.751 123.024C132.692 122.419 131.859 120.755 131.859 119.317V112.584C131.859 111.146 132.692 110.541 133.751 111.146L152.665 121.965C153.724 122.57 154.556 124.235 154.556 125.672V132.406C154.556 133.767 153.724 134.448 152.665 133.843Z" fill="#5172A7"/>
<path d="M146.991 126.503L145.251 125.52C145.024 125.368 144.797 124.99 144.797 124.687V122.872C144.797 122.569 144.948 122.418 145.251 122.569L146.991 123.553C147.218 123.704 147.445 124.082 147.445 124.385V126.201C147.369 126.503 147.218 126.655 146.991 126.503Z" fill="#A6D7FF"/>
<path d="M141.167 123.176L139.427 122.192C139.2 122.041 138.973 121.662 138.973 121.36V119.544C138.973 119.241 139.124 119.09 139.427 119.241L141.167 120.225C141.394 120.376 141.621 120.755 141.621 121.057V122.873C141.545 123.176 141.394 123.251 141.167 123.176Z" fill="#BAE0FC"/>
<path d="M170.22 99.5745L211.301 75.8943C211.831 75.5917 212.209 74.8352 212.209 74.1543V67.8749C212.209 67.194 211.831 66.8913 211.301 67.194L170.22 90.9498C169.691 91.2524 169.312 92.009 169.312 92.6899V98.9693C169.312 99.5745 169.766 99.8771 170.22 99.5745Z" fill="#5172A7"/>
<path d="M202.753 77.707L208.881 74.1511C209.335 73.8485 209.713 73.1676 209.713 72.4867C209.713 71.8815 209.335 71.5789 208.881 71.8058L202.753 75.3616C202.299 75.6643 201.92 76.3452 201.92 77.0261C201.845 77.6313 202.299 77.9339 202.753 77.707Z" fill="#D4ECFF"/>
<path d="M197.529 79.5253C197.529 80.1305 197.983 80.4332 198.513 80.1305C199.042 79.8279 199.496 78.9957 199.496 78.3905C199.496 77.7852 199.042 77.4826 198.513 77.7852C197.983 78.0878 197.529 78.9201 197.529 79.5253Z" fill="#5172A7"/>
<path d="M193.977 81.5683C193.977 82.1735 194.43 82.4761 194.96 82.1735C195.49 81.8709 195.944 81.0387 195.944 80.4334C195.944 79.8282 195.49 79.5256 194.96 79.8282C194.43 80.1308 193.977 80.963 193.977 81.5683Z" fill="#5172A7"/>
<path d="M190.418 83.6108C190.418 84.216 190.872 84.5186 191.402 84.216C191.931 83.9134 192.385 83.0812 192.385 82.4759C192.385 81.8707 191.931 81.5681 191.402 81.8707C190.872 82.249 190.418 83.0055 190.418 83.6108Z" fill="#D4ECFF"/>
<path d="M186.863 85.6503C186.863 86.2555 187.317 86.5582 187.847 86.2555C188.376 85.9529 188.83 85.1207 188.83 84.5155C188.83 83.9102 188.376 83.6076 187.847 83.9102C187.317 84.2885 186.863 85.0451 186.863 85.6503Z" fill="#5172A7"/>
<path d="M171.959 96.0939L174.002 94.8834C174.305 94.7321 174.532 94.2026 174.532 93.8243V91.7059C174.532 91.3276 174.305 91.1007 174.002 91.252L171.959 92.4625C171.657 92.6138 171.43 93.1434 171.43 93.5217V95.7157C171.43 96.0939 171.657 96.3209 171.959 96.0939Z" fill="#89C0ED"/>
<path d="M170.218 114.253L211.299 90.5726C211.829 90.27 212.207 89.5134 212.207 88.8325V82.6288C212.207 81.9479 211.829 81.6452 211.299 81.9479L170.218 105.628C169.689 105.931 169.311 106.687 169.311 107.368V113.648C169.311 114.253 169.764 114.555 170.218 114.253Z" fill="#5172A7"/>
<path d="M202.749 92.3134L208.877 88.7576C209.331 88.455 209.709 87.7741 209.709 87.0932C209.709 86.4879 209.331 86.1853 208.877 86.4123L202.749 89.9681C202.295 90.2707 201.917 90.9516 201.917 91.6325C201.841 92.3134 202.295 92.616 202.749 92.3134Z" fill="#D4ECFF"/>
<path d="M197.527 94.204C197.527 94.8093 197.981 95.1119 198.511 94.8093C199.04 94.5066 199.494 93.6744 199.494 93.0692C199.494 92.4639 199.04 92.1613 198.511 92.4639C197.981 92.7666 197.527 93.5231 197.527 94.204Z" fill="#BAE0FC"/>
<path d="M193.973 96.2465C193.973 96.8517 194.427 97.1544 194.956 96.8517C195.486 96.5491 195.94 95.7169 195.94 95.1117C195.94 94.5064 195.486 94.2038 194.956 94.5064C194.427 94.809 193.973 95.5656 193.973 96.2465Z" fill="#5172A7"/>
<path d="M190.418 98.289C190.418 98.8942 190.872 99.1968 191.402 98.8942C191.931 98.5916 192.385 97.7594 192.385 97.1541C192.385 96.5489 191.931 96.2463 191.402 96.5489C190.872 96.8515 190.418 97.6081 190.418 98.289Z" fill="#D4ECFF"/>
<path d="M186.861 100.332C186.861 100.937 187.315 101.24 187.845 100.937C188.374 100.635 188.828 99.8023 188.828 99.1971C188.828 98.5919 188.374 98.2892 187.845 98.5919C187.315 98.8945 186.861 99.651 186.861 100.332Z" fill="#5172A7"/>
<path d="M171.957 110.776L174 109.565C174.303 109.414 174.53 108.884 174.53 108.506V106.312C174.53 105.934 174.303 105.707 174 105.858L171.957 107.068C171.655 107.22 171.428 107.749 171.428 108.128V110.322C171.428 110.776 171.655 110.927 171.957 110.776Z" fill="#89C0ED"/>
<path d="M170.218 128.927L211.299 105.247C211.829 104.944 212.207 104.188 212.207 103.507V97.2274C212.207 96.5465 211.829 96.2439 211.299 96.5465L170.218 120.227C169.689 120.529 169.311 121.286 169.311 121.967V128.246C169.311 128.851 169.764 129.154 170.218 128.927Z" fill="#5172A7"/>
<path d="M202.749 106.987L208.877 103.431C209.331 103.129 209.709 102.372 209.709 101.767C209.709 101.162 209.331 100.859 208.877 101.086L202.749 104.642C202.295 104.945 201.917 105.701 201.917 106.306C201.841 106.987 202.295 107.29 202.749 106.987Z" fill="#D4ECFF"/>
<path d="M197.527 108.802C197.527 109.407 197.981 109.71 198.511 109.407C199.04 109.105 199.494 108.273 199.494 107.667C199.494 107.062 199.04 106.759 198.511 107.062C197.981 107.44 197.527 108.197 197.527 108.802Z" fill="#BAE0FC"/>
<path d="M193.973 110.845C193.973 111.45 194.427 111.753 194.956 111.45C195.486 111.148 195.94 110.316 195.94 109.71C195.94 109.105 195.486 108.802 194.956 109.105C194.427 109.483 193.973 110.24 193.973 110.845Z" fill="#5172A7"/>
<path d="M190.418 112.888C190.418 113.493 190.872 113.795 191.402 113.493C191.931 113.19 192.385 112.358 192.385 111.753C192.385 111.148 191.931 110.845 191.402 111.148C190.872 111.526 190.418 112.282 190.418 112.888Z" fill="#D4ECFF"/>
<path d="M186.859 115.006C186.859 115.611 187.313 115.914 187.843 115.611C188.372 115.308 188.826 114.476 188.826 113.871C188.826 113.266 188.372 112.963 187.843 113.266C187.313 113.568 186.859 114.325 186.859 115.006Z" fill="#5172A7"/>
<path d="M171.957 125.446L174 124.236C174.303 124.085 174.53 123.555 174.53 123.177V120.983C174.53 120.604 174.303 120.378 174 120.529L171.957 121.739C171.655 121.891 171.428 122.42 171.428 122.799V124.993C171.428 125.446 171.655 125.598 171.957 125.446Z" fill="#89C0ED"/>
<path d="M170.22 143.531L211.301 119.851C211.831 119.548 212.209 118.792 212.209 118.111V111.831C212.209 111.151 211.831 110.848 211.301 111.151L170.22 134.831C169.691 135.133 169.312 135.89 169.312 136.571V142.85C169.312 143.531 169.766 143.834 170.22 143.531Z" fill="#5172A7"/>
<path d="M202.753 121.591L208.881 118.035C209.335 117.733 209.713 116.976 209.713 116.371C209.713 115.766 209.335 115.463 208.881 115.69L202.753 119.246C202.299 119.549 201.92 120.229 201.92 120.91C201.845 121.591 202.299 121.894 202.753 121.591Z" fill="#D4ECFF"/>
<path d="M197.529 123.482C197.529 124.087 197.983 124.39 198.513 124.087C199.042 123.784 199.496 122.952 199.496 122.347C199.496 121.742 199.042 121.439 198.513 121.742C197.983 122.044 197.529 122.877 197.529 123.482Z" fill="#5172A7"/>
<path d="M193.977 125.525C193.977 126.13 194.43 126.433 194.96 126.13C195.49 125.827 195.944 124.995 195.944 124.39C195.944 123.785 195.49 123.482 194.96 123.785C194.43 124.087 193.977 124.92 193.977 125.525Z" fill="#5172A7"/>
<path d="M190.418 127.567C190.418 128.173 190.872 128.475 191.402 128.173C191.931 127.87 192.385 127.038 192.385 126.432C192.385 125.827 191.931 125.525 191.402 125.827C190.872 126.13 190.418 126.962 190.418 127.567Z" fill="#D4ECFF"/>
<path d="M186.863 129.607C186.863 130.212 187.317 130.515 187.847 130.212C188.376 129.909 188.83 129.077 188.83 128.472C188.83 127.867 188.376 127.564 187.847 127.867C187.317 128.169 186.863 129.002 186.863 129.607Z" fill="#5172A7"/>
<path d="M171.959 140.05L174.002 138.84C174.305 138.689 174.532 138.159 174.532 137.781V135.587C174.532 135.209 174.305 134.982 174.002 135.133L171.959 136.343C171.657 136.495 171.43 137.024 171.43 137.403V139.597C171.43 140.05 171.657 140.277 171.959 140.05Z" fill="#D4ECFF"/>
<path d="M170.218 158.205L211.299 134.525C211.829 134.222 212.207 133.466 212.207 132.785V126.505C212.207 125.824 211.829 125.522 211.299 125.824L170.218 149.504C169.689 149.807 169.311 150.564 169.311 151.245V157.524C169.311 158.205 169.764 158.508 170.218 158.205Z" fill="#5172A7"/>
<path d="M202.751 136.266L208.879 132.71C209.333 132.408 209.711 131.651 209.711 131.046C209.711 130.441 209.333 130.138 208.879 130.365L202.751 133.921C202.297 134.223 201.918 134.904 201.918 135.585C201.843 136.266 202.297 136.569 202.751 136.266Z" fill="#D4ECFF"/>
<path d="M197.529 138.16C197.529 138.765 197.983 139.067 198.513 138.765C199.042 138.462 199.496 137.63 199.496 137.025C199.496 136.419 199.042 136.117 198.513 136.42C197.983 136.722 197.529 137.479 197.529 138.16Z" fill="#5172A7"/>
<path d="M193.975 140.199C193.975 140.804 194.429 141.107 194.958 140.804C195.488 140.502 195.942 139.67 195.942 139.064C195.942 138.459 195.488 138.156 194.958 138.459C194.429 138.762 193.975 139.518 193.975 140.199Z" fill="#BAE0FC"/>
<path d="M190.418 142.242C190.418 142.847 190.872 143.149 191.402 142.847C191.931 142.544 192.385 141.712 192.385 141.107C192.385 140.502 191.931 140.199 191.402 140.502C190.872 140.804 190.418 141.561 190.418 142.242Z" fill="#D4ECFF"/>
<path d="M186.861 144.284C186.861 144.889 187.315 145.192 187.845 144.889C188.374 144.587 188.828 143.755 188.828 143.149C188.828 142.544 188.374 142.241 187.845 142.544C187.315 142.847 186.861 143.603 186.861 144.284Z" fill="#BAE0FC"/>
<path d="M171.957 154.725L174 153.514C174.303 153.363 174.53 152.833 174.53 152.455V150.261C174.53 149.883 174.303 149.656 174 149.807L171.957 151.018C171.655 151.169 171.428 151.699 171.428 152.077V154.271C171.428 154.725 171.655 154.876 171.957 154.725Z" fill="#89C0ED"/>
<path d="M170.216 172.812L211.297 149.132C211.827 148.83 212.205 148.073 212.205 147.392V141.113C212.205 140.432 211.827 140.129 211.297 140.432L170.216 164.112C169.687 164.415 169.309 165.171 169.309 165.852V172.131C169.309 172.812 169.763 173.115 170.216 172.812Z" fill="#5172A7"/>
<path d="M202.749 150.945L208.877 147.389C209.331 147.086 209.709 146.33 209.709 145.725C209.709 145.119 209.331 144.817 208.877 145.044L202.749 148.599C202.295 148.902 201.917 149.583 201.917 150.264C201.841 150.869 202.295 151.172 202.749 150.945Z" fill="#D4ECFF"/>
<path d="M197.527 152.763C197.527 153.368 197.981 153.671 198.511 153.368C199.04 153.066 199.494 152.234 199.494 151.628C199.494 151.023 199.04 150.72 198.511 151.023C197.981 151.326 197.527 152.158 197.527 152.763Z" fill="#5172A7"/>
<path d="M193.973 154.806C193.973 155.411 194.427 155.714 194.956 155.411C195.486 155.109 195.94 154.276 195.94 153.671C195.94 153.066 195.486 152.763 194.956 153.066C194.427 153.444 193.973 154.201 193.973 154.806Z" fill="#5172A7"/>
<path d="M190.416 156.849C190.416 157.454 190.87 157.756 191.4 157.454C191.929 157.151 192.383 156.319 192.383 155.714C192.383 155.108 191.929 154.806 191.4 155.108C190.87 155.487 190.416 156.243 190.416 156.849Z" fill="#D4ECFF"/>
<path d="M186.859 158.888C186.859 159.493 187.313 159.796 187.843 159.493C188.372 159.191 188.826 158.359 188.826 157.753C188.826 157.148 188.372 156.845 187.843 157.148C187.313 157.526 186.859 158.283 186.859 158.888Z" fill="#5172A7"/>
<path d="M171.957 169.407L174 168.197C174.303 168.046 174.53 167.516 174.53 167.138V164.944C174.53 164.565 174.303 164.338 174 164.49L171.957 165.7C171.655 165.852 171.428 166.381 171.428 166.759V168.953C171.428 169.332 171.655 169.559 171.957 169.407Z" fill="#89C0ED"/>
<path d="M170.22 187.485L211.301 163.805C211.831 163.502 212.209 162.745 212.209 162.064V155.785C212.209 155.104 211.831 154.802 211.301 155.104L170.22 178.784C169.691 179.087 169.312 179.843 169.312 180.524V186.804C169.312 187.485 169.766 187.787 170.22 187.485Z" fill="#5172A7"/>
<path d="M202.753 165.545L208.881 161.989C209.335 161.686 209.713 161.006 209.713 160.325C209.713 159.719 209.335 159.417 208.881 159.644L202.753 163.2C202.299 163.502 201.92 164.183 201.92 164.864C201.845 165.545 202.299 165.847 202.753 165.545Z" fill="#D4ECFF"/>
<path d="M196.395 168.192C196.395 169.402 197.227 169.856 198.286 169.251C199.345 168.646 200.177 167.208 200.177 165.998C200.177 164.787 199.345 164.334 198.286 164.939C197.227 165.544 196.395 166.981 196.395 168.192Z" fill="#BAE0FC"/>
<path d="M189.059 172.501C189.059 173.107 189.513 173.409 190.042 173.107C190.572 172.804 191.026 171.972 191.026 171.367C191.026 170.761 190.572 170.459 190.042 170.761C189.513 171.064 189.059 171.896 189.059 172.501Z" fill="#5172A7"/>
<path d="M185.5 174.547C185.5 175.153 185.954 175.455 186.484 175.153C187.013 174.85 187.467 174.018 187.467 173.412C187.467 172.807 187.013 172.505 186.484 172.807C185.954 173.11 185.5 173.942 185.5 174.547Z" fill="#D4ECFF"/>
<path d="M181.945 176.59C181.945 177.195 182.399 177.498 182.929 177.195C183.458 176.892 183.912 176.06 183.912 175.455C183.912 174.85 183.458 174.547 182.929 174.85C182.399 175.152 181.945 175.985 181.945 176.59Z" fill="#5172A7"/>
<path d="M171.959 184.004L174.002 182.794C174.305 182.642 174.532 182.113 174.532 181.734V179.54C174.532 179.162 174.305 178.935 174.002 179.086L171.959 180.297C171.657 180.448 171.43 180.978 171.43 181.356V183.55C171.43 184.004 171.657 184.155 171.959 184.004Z" fill="#D4ECFF"/>
<defs>
<filter id="filter0_f" x="117" y="139" width="120" height="79" filterUnits="userSpaceOnUse" color-interpolation-filters="sRGB">
<feFlood flood-opacity="0" result="BackgroundImageFix"/>
<feBlend mode="normal" in="SourceGraphic" in2="BackgroundImageFix" result="shape"/>
<feGaussianBlur stdDeviation="6" result="effect1_foregroundBlur"/>
</filter>
<filter id="filter1_f" x="218" y="117" width="88" height="58" filterUnits="userSpaceOnUse" color-interpolation-filters="sRGB">
<feFlood flood-opacity="0" result="BackgroundImageFix"/>
<feBlend mode="normal" in="SourceGraphic" in2="BackgroundImageFix" result="shape"/>
<feGaussianBlur stdDeviation="6" result="effect1_foregroundBlur"/>
</filter>
<filter id="filter2_f" x="49" y="102" width="120" height="79" filterUnits="userSpaceOnUse" color-interpolation-filters="sRGB">
<feFlood flood-opacity="0" result="BackgroundImageFix"/>
<feBlend mode="normal" in="SourceGraphic" in2="BackgroundImageFix" result="shape"/>
<feGaussianBlur stdDeviation="6" result="effect1_foregroundBlur"/>
</filter>
<filter id="filter3_f" x="0" y="159" width="88" height="58" filterUnits="userSpaceOnUse" color-interpolation-filters="sRGB">
<feFlood flood-opacity="0" result="BackgroundImageFix"/>
<feBlend mode="normal" in="SourceGraphic" in2="BackgroundImageFix" result="shape"/>
<feGaussianBlur stdDeviation="6" result="effect1_foregroundBlur"/>
</filter>
<filter id="filter4_f" x="71" y="209" width="88" height="58" filterUnits="userSpaceOnUse" color-interpolation-filters="sRGB">
<feFlood flood-opacity="0" result="BackgroundImageFix"/>
<feBlend mode="normal" in="SourceGraphic" in2="BackgroundImageFix" result="shape"/>
<feGaussianBlur stdDeviation="6" result="effect1_foregroundBlur"/>
</filter>
<radialGradient id="paint0_radial" cx="0" cy="0" r="1" gradientUnits="userSpaceOnUse" gradientTransform="translate(161.899 94.5758) scale(29.9056)">
<stop stop-color="#699DD1"/>
<stop offset="0.2662" stop-color="#6396CC"/>
<stop offset="0.6412" stop-color="#5184BD"/>
<stop offset="1" stop-color="#396CAA"/>
</radialGradient>
<linearGradient id="paint1_linear" x1="167.544" y1="84.9862" x2="214.388" y2="112.914" gradientUnits="userSpaceOnUse">
<stop stop-color="#D4ECFF"/>
<stop offset="0.2009" stop-color="#D0EAFE"/>
<stop offset="0.3874" stop-color="#C5E2F9"/>
<stop offset="0.5682" stop-color="#B2D6F2"/>
<stop offset="0.7444" stop-color="#98C4E7"/>
<stop offset="0.8423" stop-color="#86B8E0"/>
</linearGradient>
<radialGradient id="paint2_radial" cx="0" cy="0" r="1" gradientUnits="userSpaceOnUse" gradientTransform="translate(53.7668 33.29) scale(89.8426)">
<stop stop-color="#E4DAEC"/>
<stop offset="1" stop-color="#C0A2D6"/>
</radialGradient>
<radialGradient id="paint3_radial" cx="0" cy="0" r="1" gradientUnits="userSpaceOnUse" gradientTransform="translate(120.536 71.1025) scale(89.8426)">
<stop stop-color="#E4DAEC"/>
<stop offset="1" stop-color="#C0A2D6"/>
</radialGradient>
</defs>
</svg>
