<svg width="343" height="365" viewBox="0 0 343 365" fill="none" xmlns="http://www.w3.org/2000/svg">
<g clip-path="url(#clip0)">
<path d="M33.043 73.2734C29.8412 74.1384 26.6395 75.0033 23.5609 75.8682V98.8506C26.6395 97.9857 29.8412 97.1208 33.043 96.2558V73.2734Z" fill="#E9ECFE"/>
<path opacity="0.5" d="M54.9648 74.2617C51.5168 74.8795 48.1919 75.6209 44.7438 76.3623V93.4137C48.0687 92.6724 51.5168 91.931 54.9648 91.3132V74.2617Z" fill="#D4ECFF"/>
<path d="M78.3633 55.4805C74.7921 55.9747 71.0978 56.469 67.6497 57.0868V89.0891C71.2209 88.4713 74.7921 87.9771 78.3633 87.4828V55.4805Z" fill="#E9ECFE"/>
<path opacity="0.5" d="M102.867 35.3398C99.0497 35.587 95.3554 35.9576 91.5379 36.3283V86.1235C95.2322 85.7528 99.0497 85.3822 102.867 85.135V35.3398Z" fill="#D4ECFF"/>
<path opacity="0.5" d="M128.359 45.9648C124.419 45.9648 120.478 46.0884 116.661 46.3355V84.2688C120.601 84.1453 124.419 84.0217 128.359 83.8982V45.9648Z" fill="#D4ECFF"/>
<path d="M154.219 6.30037C150.401 6.17681 146.461 6.05325 142.52 5.92969V83.8969C146.461 83.8969 150.278 84.0204 154.219 84.2675V6.30037Z" fill="#E9ECFE"/>
<path d="M179.219 22.3635C175.524 21.9928 171.707 21.7457 168.013 21.375V85.0091C171.83 85.2562 175.524 85.6269 179.219 85.9976V22.3635Z" fill="#E9ECFE"/>
<path d="M203.107 1.48274C199.536 0.98849 195.965 0.370684 192.394 0V87.4814C195.965 87.9756 199.536 88.4699 203.107 88.9641V1.48274Z" fill="#E9ECFE"/>
<g opacity="0.11">
<path opacity="0.11" d="M85.8988 168.352C89.5931 166.128 94.2726 166.128 97.967 168.352L170.253 210.116C171.361 210.734 171.361 212.464 170.253 213.081L97.3512 255.339C94.0263 257.316 89.9626 257.316 86.6377 255.339L13.613 213.205C12.5047 212.587 12.5047 210.857 13.613 210.239L85.8988 168.352Z" fill="url(#paint0_linear)"/>
</g>
<g opacity="0.11">
<path opacity="0.11" d="M85.8988 156.243C89.5931 154.019 94.2726 154.019 97.967 156.243L170.253 198.007C171.361 198.625 171.361 200.355 170.253 200.972L97.3512 243.23C94.0263 245.207 89.9626 245.207 86.6377 243.23L13.613 201.096C12.5047 200.478 12.5047 198.748 13.613 198.131L85.8988 156.243Z" fill="url(#paint1_linear)"/>
</g>
<g opacity="0.11">
<path opacity="0.11" d="M85.8968 144.012C89.5912 141.788 94.2707 141.788 97.965 144.012L170.251 185.776C171.359 186.394 171.359 188.124 170.251 188.741L97.3493 230.999C94.0244 232.976 89.9606 232.976 86.6357 230.999L13.611 188.865C12.5027 188.247 12.5027 186.517 13.611 185.9L85.8968 144.012Z" fill="url(#paint2_linear)"/>
</g>
<g opacity="0.11">
<path opacity="0.11" d="M85.9007 131.778C89.5951 129.554 94.2746 129.554 97.9689 131.778L170.255 173.542C171.363 174.159 171.363 175.889 170.255 176.507L97.3532 218.765C94.0283 220.742 89.9645 220.742 86.6396 218.765L13.6149 176.631C12.5066 176.013 12.5066 174.283 13.6149 173.665L85.9007 131.778Z" fill="url(#paint3_linear)"/>
</g>
<g opacity="0.11">
<path opacity="0.11" d="M85.8988 117.817C89.5931 115.593 94.2726 115.593 97.9669 117.817L170.253 159.581C171.361 160.199 171.361 161.928 170.253 162.546L97.3512 204.804C94.0263 206.781 89.9625 206.781 86.6376 204.804L13.6129 162.67C12.5046 162.052 12.5046 160.322 13.6129 159.704L85.8988 117.817Z" fill="url(#paint4_linear)"/>
</g>
<path d="M91.8103 155.403L91.6872 155.774L91.564 155.526C91.564 155.526 91.0714 157.38 91.4409 158.245C91.9334 159.11 92.5492 160.222 93.5343 161.581C94.5195 162.817 95.9972 165.535 96.4898 166.029C96.8592 166.523 99.199 168.5 102.154 168.747C105.11 168.995 105.849 167.388 105.602 166.4C105.356 165.535 103.755 163.064 102.031 161.087C100.307 159.11 98.9527 156.638 98.9527 156.638L91.8103 155.403Z" fill="#160A5B"/>
<path d="M100.553 147.369C100.553 147.369 100.43 149.223 100.676 150.088C100.922 150.829 105.232 151.076 106.71 151.323C108.188 151.571 110.897 152.559 111.759 153.053C112.621 153.424 118.162 154.042 118.901 151.941C119.64 149.841 116.069 148.111 113.729 147.617C111.389 147.122 107.449 145.887 107.449 145.887L100.553 147.369Z" fill="#160A5B"/>
<path d="M85.6538 110.057C85.6538 110.057 85.5307 115.371 87.2547 122.661C88.9787 129.951 88.8556 135.017 88.8556 135.017C88.8556 135.017 87.0084 143.295 88.6093 148.856C90.2101 154.539 91.5647 156.022 91.5647 156.022C91.5647 156.022 94.7665 160.347 99.0765 156.516C99.0765 156.516 96.7368 148.732 96.3674 142.554C96.3674 142.554 98.4608 137.982 99.1997 134.028C99.1997 134.028 99.8154 140.453 100.185 143.048C100.185 143.048 99.8154 146.879 100.801 148.361C101.786 149.844 106.342 150.338 107.82 147.62C109.298 144.902 106.588 146.261 107.45 133.905C107.45 133.905 111.637 128.592 112.253 118.954C112.869 109.316 112.746 105.486 112.253 103.509C111.76 101.655 102.401 94.8594 102.401 94.8594L97.1062 101.532L85.6538 110.057Z" fill="#24126A"/>
<path d="M99.4458 136.496C99.6921 135.631 99.9384 134.643 100.062 133.778C100.062 133.778 100.677 140.203 101.047 142.798C101.047 142.798 100.677 146.628 101.662 148.111C102.278 149.099 104.372 149.594 106.219 149.223C104.248 150.212 101.539 149.594 100.8 148.482C99.8152 146.999 100.185 143.168 100.185 143.168C99.9384 141.562 99.6921 138.597 99.4458 136.496Z" fill="url(#paint5_linear)"/>
<path d="M85.6544 110.054L97.1069 101.899L102.402 95.2266C102.402 95.2266 102.525 95.3501 102.771 95.4737L97.9689 101.652L86.5164 109.807C86.5164 109.807 86.3933 115.12 88.1173 122.41C89.8413 129.7 89.7182 134.766 89.7182 134.766C89.7182 134.766 87.871 143.045 89.4719 148.605C91.0728 154.289 92.4274 155.772 92.4274 155.772C92.4274 155.772 94.3977 158.366 97.3531 157.625C94.0282 159.231 91.5654 156.019 91.5654 156.019C91.5654 156.019 90.2108 154.412 88.6099 148.852C87.009 143.168 88.8562 135.013 88.8562 135.013C88.8562 135.013 89.1025 129.947 87.2553 122.657C85.5313 115.367 85.6544 110.054 85.6544 110.054Z" fill="url(#paint6_linear)"/>
<path d="M106.342 120.928C107.82 119.074 108.682 113.391 108.682 113.391C108.682 113.391 106.342 118.21 104.618 119.569C102.894 120.928 101.416 123.77 101.17 125.623C100.924 127.477 99.1995 134.273 99.1995 134.273C99.1995 134.273 99.8152 140.698 100.185 143.292C100.185 143.292 99.8152 147.123 100.8 148.606C101.047 148.976 101.416 149.223 101.786 149.347C101.786 149.223 101.539 140.821 101.786 137.238C102.032 133.655 104.864 122.658 106.342 120.928Z" fill="#160A5B"/>
<path d="M71.6142 71.1328C71.6142 71.1328 67.5504 79.0407 67.181 79.6585C66.8115 80.2763 59.2997 89.9141 58.5609 95.4744C58.5609 95.4744 57.9452 97.5749 60.5312 99.5519C63.1172 101.405 76.1705 109.807 77.0325 109.931C77.8945 110.055 82.574 107.707 82.8203 102.517C82.8203 102.517 72.5993 97.6985 70.3827 95.3508C70.3827 95.3508 74.3233 88.6785 76.2937 86.7015C76.7862 86.2073 77.0325 85.3424 77.2788 84.2303C77.8945 79.7821 76.1705 75.4575 72.9688 72.3684L71.6142 71.1328Z" fill="#4846A5"/>
<path d="M101.662 52.5999C101.662 52.5999 107.819 54.9475 110.036 54.0826C112.129 53.3412 117.425 52.5999 120.996 50.6229C124.567 48.6459 140.206 44.5684 142.546 44.4448C142.546 44.4448 142.546 44.5684 142.177 44.6919C141.807 44.8155 140.206 44.9391 139.714 46.7925C139.221 48.6459 140.206 50.7465 140.453 50.9936C140.699 51.1171 140.822 50.4993 142.423 49.758C143.901 49.0166 144.886 49.1402 144.886 49.1402L145.502 49.8815L145.871 50.3758C145.871 50.3758 145.132 52.5999 143.162 52.7234C141.192 52.847 128.261 58.2837 127.523 58.5308C126.661 58.7779 115.947 63.4733 113.854 64.2146C111.883 64.956 110.282 65.8209 110.282 65.8209C110.282 65.8209 104.002 61.6198 103.756 61.6198C103.386 61.6198 101.662 52.5999 101.662 52.5999Z" fill="#24126A"/>
<path d="M157.816 41.8499C157.57 41.8499 154.245 42.962 154.245 42.962C154.245 42.962 155.6 43.5798 155.6 44.1976C155.723 44.8154 155.353 48.028 155.23 48.2751C155.107 48.5222 154.491 48.8929 154.245 49.0165C153.999 49.14 153.506 50.2521 153.014 50.1285C152.521 50.005 152.398 49.3872 152.398 49.3872C152.398 49.3872 152.029 49.2636 151.905 49.14C151.782 49.0165 149.442 49.2636 148.704 49.7579C147.965 50.2521 146.118 50.4992 145.502 50.2521C144.763 50.005 143.778 49.5107 143.532 49.3872C143.532 49.3872 142.793 49.5107 142.3 49.7579C141.808 50.005 140.453 50.9935 140.207 50.9935C139.96 51.117 137.128 45.3096 142.3 44.3212C142.3 44.3212 144.394 44.074 145.379 43.7034C146.364 43.2091 148.95 41.2321 149.935 41.2321C150.92 41.2321 151.905 41.4793 151.905 41.4793C151.905 41.4793 157.816 39.7494 158.309 40.3672C158.801 40.985 158.186 41.8499 157.816 41.8499ZM153.629 45.8039C152.891 45.8039 152.398 45.0625 152.398 45.0625C151.905 45.3097 151.536 44.939 151.536 44.939C151.536 45.0625 150.674 45.1861 150.674 45.1861C150.674 45.1861 150.304 45.4332 149.812 45.8039C149.319 46.1746 149.935 47.1631 149.935 47.1631C150.428 47.1631 150.92 47.0395 151.29 46.7924C151.782 46.5453 152.152 46.6688 152.398 46.5453C152.891 46.4217 153.629 45.8039 153.629 45.8039Z" fill="#FCD1C5"/>
<path d="M112.254 103.876C111.761 102.022 102.402 95.2266 102.402 95.2266L99.8159 98.5627L97.5993 107.336L85.6543 111.042C85.6543 111.042 86.27 116.973 95.9984 116.356C105.727 115.614 106.835 108.077 106.835 108.077C106.835 108.077 107.943 110.548 112.746 111.166C112.746 107.088 112.623 105.111 112.254 103.876Z" fill="#160A5B"/>
<path d="M83.4369 57.5425L81.836 61.7436C81.836 61.7436 73.9547 68.5395 71.7381 71.0107C71.7381 71.0107 75.6788 78.5479 76.4176 86.4559C76.4176 86.4559 79.9888 89.4213 81.0971 90.7805C82.2054 92.1397 84.9146 98.4413 85.7766 100.542C86.6386 102.642 84.1757 108.82 84.1757 108.82C84.1757 108.82 87.5006 114.999 92.919 114.875C98.3374 114.628 102.032 111.415 102.647 105.484C103.386 99.5533 103.14 98.812 103.14 98.812C103.14 98.812 105.603 105.979 109.297 105.979C112.992 105.979 118.779 99.6769 118.779 99.6769C118.779 99.6769 122.72 96.0936 122.351 94.4873C121.981 92.881 113.115 78.7951 112.622 76.571C112.13 74.2233 110.159 65.9447 110.159 65.9447L101.785 52.7236L96.6133 52.9708L83.4369 57.5425Z" fill="#453C9E"/>
<path d="M93.1643 113.266C98.3363 113.019 101.908 110.054 102.77 104.617C102.77 104.864 102.77 105.111 102.646 105.359C101.908 111.289 98.3363 114.502 92.918 114.749C87.4996 114.996 84.1747 108.695 84.1747 108.695C84.1747 108.695 84.2979 108.2 84.5442 107.583C85.283 108.942 88.4848 113.514 93.1643 113.266Z" fill="url(#paint7_linear)"/>
<path d="M83.437 57.5425C83.437 57.5425 83.437 60.0137 84.4222 62.6085C85.4074 65.0797 88.6091 79.1657 95.9978 83.9846L98.8301 85.838V76.9416C98.8301 76.9416 98.8301 71.3813 97.4755 67.9216C96.2441 64.4619 96.2441 60.1373 96.2441 60.1373C96.2441 60.1373 94.1506 59.5195 94.1506 59.643C94.1506 59.5195 83.437 57.5425 83.437 57.5425Z" fill="#F0F6FF"/>
<path d="M92.5493 64.0913C92.5493 64.0913 93.9039 64.5855 94.3965 63.7206C95.0122 62.8557 95.5048 61.1258 95.3817 60.3844C95.3817 60.3844 98.8297 60.508 99.5686 58.7781C100.307 56.9247 99.5686 56.4305 99.4454 55.9362C99.3223 55.3184 99.1991 53.8357 98.8297 52.8472V52.353C98.8297 52.353 99.5686 51.7352 99.1991 51.1173C98.8297 50.4995 96.9825 48.5226 96.7362 48.1519C96.49 47.7812 96.7362 45.31 95.9974 44.0744C95.2585 42.8387 93.7808 41.1089 93.7808 41.1089C93.7808 41.1089 86.3921 35.3015 80.6043 41.1089C74.8165 46.9163 83.5598 57.5425 83.5598 57.5425C83.5598 57.5425 84.2986 61.0022 85.8995 62.3614C87.5004 63.7206 92.5493 64.0913 92.5493 64.0913Z" fill="#FCD1C5"/>
<path d="M87.1302 50.0051C87.1302 49.7579 87.1302 49.6344 87.007 49.3873C86.7608 48.7694 86.3913 47.0396 88.2385 45.804C90.4551 44.1977 94.3957 42.7149 94.2726 41.1087C94.1494 39.5024 87.9922 35.4248 83.4358 37.6489C78.8795 39.7495 74.5694 45.1862 77.6481 50.9936C80.7267 56.8009 83.559 57.6659 83.559 57.6659C83.559 57.6659 84.5441 57.4187 83.6821 56.5538C82.8201 55.5653 81.3424 53.2177 82.5738 52.4763C83.8053 51.7349 86.0219 53.3412 86.2682 53.7119C86.3913 53.8355 86.5145 54.0826 86.6376 54.2061C86.7608 54.4533 87.1302 54.5768 87.3765 54.4533H87.4996C87.7459 54.3297 87.8691 53.959 87.8691 53.7119L87.3765 52.2292C87.2533 51.982 87.2533 51.7349 87.2533 51.4878L87.1302 50.0051Z" fill="#AA8383"/>
<path d="M92.3028 65.6992C92.3028 65.6992 90.7019 66.9348 89.7167 69.1589C89.7167 69.1589 91.4407 67.3055 92.4259 66.9348C92.4259 66.9348 94.3962 67.7998 94.3962 68.4176C94.3962 69.0354 94.5194 72.6186 95.0119 74.5956C95.5045 76.5726 95.3814 83.492 95.3814 83.492L96.6128 84.357L97.2285 81.3915L96.9822 74.9663L95.8739 69.1589C95.8739 69.1589 95.6277 66.9348 95.6277 66.8113C95.5045 66.5641 92.3028 65.6992 92.3028 65.6992Z" fill="#C4CCD6"/>
<path d="M92.3028 65.6972C92.3028 65.6972 94.1499 63.7202 95.1351 63.5967C96.1203 63.5967 96.6128 64.0909 96.6128 64.2145C96.6128 64.338 97.4749 67.4271 97.4749 67.4271C97.4749 67.4271 99.1989 72.8638 99.0757 79.289C98.9526 85.7141 98.7063 85.5906 98.7063 85.5906L96.3666 84.1078C96.3666 84.1078 96.9823 79.5361 95.7508 74.2229C94.5194 68.9098 95.6277 68.1684 95.012 67.5506C94.3962 67.18 92.0565 66.315 92.3028 65.6972Z" fill="#24126A"/>
<path d="M80.9733 90.7792C82.0816 92.1384 84.7908 98.44 85.6528 100.541C85.776 100.911 85.8991 101.282 85.8991 101.776C86.1454 101.9 86.2686 102.023 86.2686 102.023L87.5 100.911C87.5 100.911 86.3917 97.0808 84.7908 92.3855C83.0668 87.6902 76.417 86.5781 76.417 86.5781C76.417 86.5781 79.865 89.42 80.9733 90.7792Z" fill="#24126A"/>
<path d="M82.8205 102.517C82.8205 102.517 84.7908 99.6754 85.4065 99.3047C85.4065 99.3047 85.2834 100.046 86.3917 100.54C87.5 101.035 93.1646 103.259 93.4109 103.506C93.6572 103.753 93.4109 104.124 93.0415 104.124C93.0415 104.124 94.2729 104.494 94.7655 104.494C95.2581 104.494 95.8738 105.112 95.6275 105.606C95.2581 106.101 95.0118 106.101 95.0118 106.101C95.0118 106.101 95.1349 106.718 94.7655 106.842C94.3961 106.966 93.5341 106.966 93.5341 106.966C93.5341 106.966 93.6572 107.583 93.2878 107.83C92.7952 108.078 90.4554 108.325 90.4554 108.325C90.4554 108.325 88.6083 108.078 88.1157 108.078C87.6231 108.078 85.2834 108.695 84.2982 108.448C83.3131 108.325 79.9882 107.089 79.6187 106.966C79.1262 106.966 82.8205 102.517 82.8205 102.517Z" fill="#FCD1C5"/>
<path d="M81.4659 63.1025L81.7122 66.9329L83.6825 67.5507L82.3279 68.6628C82.3279 68.6628 87.8694 81.266 94.8887 85.22C94.8887 85.22 88.2389 82.8723 81.8353 68.7864C81.8353 68.7864 82.4511 68.045 82.6974 67.7979L81.3428 67.1801L81.4659 63.1025Z" fill="#24126A"/>
<path d="M99.4476 62.7305C99.4476 62.7305 101.91 75.5808 99.817 85.2186C99.817 85.2186 102.403 80.5233 100.063 62.7305H99.4476Z" fill="#24126A"/>
<path d="M155.6 43.9494C155.23 43.4552 154.368 42.9609 154.368 42.9609C154.368 42.9609 151.659 44.073 151.29 44.1966C151.29 44.3201 153.999 44.073 155.6 43.9494Z" fill="#E2B1A6"/>
<path d="M140.329 51.2406C140.452 51.2406 140.822 50.8699 141.314 50.6228C139.59 48.2751 141.438 44.8154 141.438 44.8154C137.62 46.2982 140.206 51.2406 140.329 51.2406Z" fill="#E2B1A6"/>
<path d="M79.4964 107.092C79.7427 107.216 81.5898 107.957 82.9444 108.328C82.9444 108.328 83.8064 104.868 83.6833 103.756C83.437 102.644 82.9444 102.273 82.9444 102.273C82.8213 102.397 82.8213 102.521 82.8213 102.521C82.8213 102.521 79.1269 106.969 79.4964 107.092Z" fill="#E2B1A6"/>
<path d="M82.8213 102.395C82.8213 102.395 83.437 104.372 82.0825 105.978C80.7279 107.585 80.6047 107.708 80.6047 107.708H79.0038C79.0038 107.708 78.1418 105.237 78.265 105.237C78.3881 105.113 82.8213 102.395 82.8213 102.395Z" fill="#4846A5"/>
<path d="M97.2286 66.4375C97.2286 66.4375 98.7063 75.2103 98.3369 78.4229C97.9674 81.6355 98.0906 85.0952 98.0906 85.0952L98.5832 85.5895L98.7063 85.7131C98.7063 85.7131 98.8294 85.7131 99.0757 79.4114C99.1989 72.9862 97.4749 67.5496 97.4749 67.5496C97.4749 67.5496 97.3517 67.0553 97.2286 66.4375Z" fill="#24126A"/>
<path d="M97.7215 157.625C98.2141 157.378 98.5835 157.007 99.0761 156.637C99.0761 156.637 96.7363 148.852 96.3669 142.674C96.3669 142.674 98.4604 138.102 99.1992 134.148C98.9529 134.89 96.6132 139.338 95.5049 143.786C94.3966 148.234 97.7215 157.625 97.7215 157.625Z" fill="#160A5B"/>
<path d="M86.8845 56.1807C86.8845 56.4278 87.6233 59.5168 88.8548 60.9996C90.2094 62.4823 91.1945 63.965 91.1945 63.965C92.0565 64.0886 92.5491 64.0886 92.5491 64.0886C92.5491 64.0886 93.9037 64.5828 94.3963 63.7179C95.012 62.853 95.5045 61.1231 95.3814 60.3817C95.3814 60.3817 90.7019 59.8875 88.8548 58.6519C87.2539 57.5398 86.8845 56.3042 86.8845 56.1807Z" fill="#E2B1A6"/>
<path d="M85.1618 99.4296C85.1618 99.4296 85.4081 99.9238 85.4081 100.047L85.5312 99.6767L85.285 99.1824C85.4081 99.0589 85.1618 99.4296 85.1618 99.4296Z" fill="#1B2B3A"/>
<path d="M98.8306 85.7144C98.8306 85.7144 102.155 96.2171 103.141 98.6883L103.017 101.16C103.017 101.16 98.9537 88.1856 98.8306 85.7144Z" fill="#24126A"/>
<path d="M101.909 89.4213C102.155 90.0391 101.786 90.6569 101.17 90.7805C100.555 90.9041 99.9389 90.6569 99.8157 90.0391C99.5695 89.4213 99.9389 88.8035 100.555 88.6799C101.17 88.4328 101.786 88.8035 101.909 89.4213Z" fill="#24126A"/>
<path d="M103.634 93.9946C103.88 94.6124 103.511 95.2302 102.895 95.3537C102.279 95.4773 101.663 95.2302 101.54 94.6124C101.294 93.9946 101.663 93.3767 102.279 93.2532C102.772 93.0061 103.388 93.3768 103.634 93.9946Z" fill="#24126A"/>
<path d="M87.1304 51.9807C87.0072 51.7336 87.0072 51.4864 87.0072 51.2393V50.0037C87.0072 49.7566 87.0072 49.633 86.8841 49.3859C86.7609 49.2623 86.7609 48.8917 86.7609 48.6445C86.7609 48.6445 81.712 52.3514 78.5102 52.4749C81.2194 56.7996 83.436 57.5409 83.436 57.5409C83.436 57.5409 84.4212 57.2938 83.5592 56.4289C82.6972 55.4404 81.2194 53.0927 82.4509 52.3514C83.6823 51.61 85.8989 53.2163 86.1452 53.587C86.2684 53.7105 86.3915 53.9577 86.5146 54.0812C86.6378 54.3284 87.0072 54.4519 87.2535 54.3284H87.3767C87.6229 54.2048 87.7461 53.8341 87.7461 53.587L87.1304 51.9807Z" fill="#936D6D"/>
<path d="M77.5252 188.763C77.5252 188.763 79.865 189.381 82.0816 189.381C84.2982 189.504 90.3322 190.74 90.2091 192.964C90.0859 195.188 86.8842 198.524 82.9436 199.018C79.0029 199.513 73.8309 198.4 71.2448 198.4C68.6588 198.524 66.9348 195.806 67.9199 193.334C68.9051 190.863 77.5252 188.763 77.5252 188.763Z" fill="#160A5B"/>
<path d="M64.2262 182.71C64.2262 182.71 63.3642 184.069 63.7336 184.934C64.103 185.799 65.2113 187.9 68.9057 185.799C72.4769 183.822 79.4961 180.857 79.4961 180.857C79.4961 180.857 83.4367 178.756 83.3136 176.161C83.0673 173.69 79.3729 174.061 79.3729 174.061L64.2262 182.71Z" fill="#160A5B"/>
<path d="M87.7461 147.123C87.7461 147.123 86.2684 163.433 82.9435 169.611C79.6186 175.913 78.7565 187.404 78.0177 189.628C77.2788 191.852 75.1853 195.065 71.7373 195.682C68.2892 196.3 67.7967 194.076 67.9198 192.593C68.043 191.234 69.0281 189.01 69.0281 187.404C69.0281 185.921 68.6587 185.18 68.6587 184.562C68.6587 184.562 64.7181 185.674 64.2255 182.708C64.2255 182.708 64.5949 181.843 64.5949 181.349C64.5949 180.855 64.2255 169.982 64.2255 168.622C64.1023 167.263 64.8412 160.22 65.9495 156.637C67.0578 153.177 66.6884 145.764 66.6884 145.764L77.7714 144.157L87.7461 147.123Z" fill="#24126A"/>
<path d="M65.8264 156.764C66.9347 153.304 66.5652 145.89 66.5652 145.89L67.5504 145.767C67.5504 146.755 67.7967 153.304 66.8115 156.516C65.7032 159.976 65.0875 167.143 65.0875 168.502C65.2107 169.861 65.5801 180.734 65.5801 181.229C65.5801 181.723 65.2106 182.588 65.2106 182.588C65.8264 185.553 69.6439 184.441 69.6439 184.441C69.6439 185.183 70.0133 185.8 70.0133 187.283C70.0133 188.766 69.0281 190.99 68.905 192.349C68.7818 193.708 69.2744 196.056 72.7225 195.438C72.8456 195.438 72.9688 195.315 72.9688 195.315C72.5993 195.438 72.1068 195.685 71.6142 195.685C68.1661 196.303 67.6735 194.079 67.7967 192.596C67.9198 191.237 68.905 189.013 68.905 187.407C68.905 185.924 68.5356 185.059 68.5356 184.441C68.5356 184.441 64.5949 185.677 64.1024 182.711C64.1024 182.711 64.4718 181.846 64.4718 181.352C64.4718 180.858 64.1024 169.985 64.1024 168.625C64.1024 167.39 64.7181 160.223 65.8264 156.764Z" fill="url(#paint8_linear)"/>
<path d="M69.891 147.001C69.891 147.001 69.891 149.595 70.9993 151.696C70.9993 151.696 70.9993 160.345 71.8613 164.793C71.8613 164.793 70.3836 173.566 69.5216 176.408C68.6596 179.25 68.7827 184.687 68.7827 184.687C68.7827 184.687 68.2902 184.81 67.6744 184.934C67.0587 184.934 66.9356 174.184 67.9207 172.207C68.9059 170.354 69.6447 161.952 69.2753 159.357C68.9059 156.762 69.029 149.472 68.5365 148.236C68.0439 147.001 69.1522 146.259 69.1522 146.259L69.891 147.001Z" fill="#160A5B"/>
<path d="M79.127 88.1855C79.127 88.1855 82.3287 90.5332 82.2055 94.4872L79.8658 93.9929C79.7427 93.9929 80.4815 89.5447 79.127 88.1855Z" fill="#160A5B"/>
<path d="M77.8945 150.582C70.629 150.83 66.5652 147.493 66.5652 147.493C66.5652 146.505 66.5652 145.764 66.5652 145.764L77.6482 144.157L87.7461 146.999C87.7461 146.999 87.4998 150.212 86.7609 154.289C84.9138 154.536 83.1897 150.088 83.1897 150.088L78.1408 150.459C78.1408 150.582 85.1601 150.335 77.8945 150.582Z" fill="#160A5B"/>
<path d="M86.2689 147.371C86.2689 147.371 70.3832 153.92 62.6251 141.564C62.3788 141.193 62.2557 140.823 62.3788 140.329L62.502 137.487C62.502 137.116 62.502 136.745 62.3788 136.375C62.1325 135.633 62.1325 134.892 62.2557 134.027C62.8714 130.814 64.4723 122.041 64.8417 119.57C65.3343 116.605 63.7334 104.743 61.1474 99.5533C58.5613 94.4873 65.2111 83.1196 65.2111 83.1196C65.2111 83.1196 66.812 80.4013 70.0138 81.3898C70.0138 81.3898 66.9352 83.4903 68.6592 85.838C70.3832 88.0621 75.4321 89.9155 75.4321 89.9155C75.4321 89.9155 84.7911 94.7344 87.8697 100.665C87.8697 100.665 88.978 103.754 89.1012 107.585C89.2243 111.539 88.7317 120.929 88.978 122.289C89.1012 123.648 89.5938 132.544 89.5938 133.038C89.3475 133.409 86.2689 147.371 86.2689 147.371Z" fill="#453C9E"/>
<path d="M68.4129 83.1195C68.1666 82.5017 68.2898 81.8839 68.4129 81.2661C68.9055 81.2661 69.2749 81.2661 69.8906 81.3897C69.8906 81.3897 69.0286 82.131 68.4129 83.1195Z" fill="url(#paint9_linear)"/>
<path d="M81.4669 148.732C81.4669 148.732 72.1079 123.279 72.4774 114.135C72.9699 105.115 86.1464 132.299 86.1464 132.299L86.2695 147.373C86.2695 147.373 83.3141 148.485 81.4669 148.732Z" fill="#24126A"/>
<path d="M62.5024 133.904C62.6255 134.275 62.6255 134.646 62.6255 135.016L62.5024 137.858C62.5024 138.229 62.6255 138.723 62.7487 139.094C70.3836 151.326 86.2692 144.901 86.2692 144.901C86.2692 144.901 88.4858 134.893 89.1016 131.68C89.1016 132.422 89.1016 133.039 89.1016 133.163C89.1016 133.534 86.023 147.496 86.023 147.496C86.023 147.496 70.1373 154.045 62.3793 141.689C62.133 141.318 62.0098 140.947 62.133 140.453L62.2561 137.611C62.2561 137.24 62.2561 136.87 62.133 136.499C61.8867 135.758 61.8867 135.016 62.0098 134.151C62.133 133.781 62.133 133.41 62.2561 132.916C62.3792 133.163 62.5024 133.534 62.5024 133.904Z" fill="url(#paint10_linear)"/>
<path d="M61.2716 97.4514C63.8576 102.517 65.4584 114.379 64.9659 117.345C64.9659 117.592 64.8427 117.963 64.8427 118.333C64.8427 114.132 63.365 104.247 61.0253 99.6755C60.2864 98.1927 60.2864 96.3393 60.6558 94.2388C60.6558 95.4744 60.779 96.4629 61.2716 97.4514Z" fill="url(#paint11_linear)"/>
<path d="M86.5155 118.706C86.146 116.606 86.0229 114.505 85.8997 112.528C85.8997 108.945 84.7914 102.89 78.3879 104.002C69.1521 105.485 73.0927 118.459 74.0779 120.683C75.063 122.907 79.1268 133.163 79.3731 133.781C79.6193 134.275 85.8997 147.125 88.2395 150.214C88.4858 150.462 88.8552 150.585 89.1015 150.338C89.9635 149.597 92.057 147.62 92.4264 146.508C92.7958 145.025 91.4412 139.465 91.4412 139.465C91.4412 139.465 87.87 125.626 87.5006 125.008C87.2543 124.267 87.008 122.042 86.5155 118.706Z" fill="#4846A5"/>
<path d="M79.0047 88.4342C79.0047 88.4342 79.7436 86.7043 81.4676 86.5808C83.1916 86.4572 84.1768 85.963 84.2999 85.3452C84.4231 84.7274 84.4231 83.986 84.9156 82.9975C85.2851 82.009 85.6545 79.7849 85.6545 79.6613C85.6545 79.6613 86.886 79.1671 87.0091 78.6729C87.1323 78.055 86.3934 76.0781 86.5165 75.9545C86.6397 75.8309 87.2554 74.5953 87.1322 73.6068C87.0091 72.6184 86.886 71.2592 86.3934 70.0236C85.9008 68.788 82.3296 61.6214 72.9706 65.3282C63.4885 69.0351 70.754 76.943 69.7689 82.1326C69.7689 82.1326 68.9069 83.2446 70.5077 85.098C71.9855 87.075 76.4187 87.4457 79.0047 88.4342Z" fill="#FCD1C5"/>
<path d="M70.384 85.2198C68.9063 83.3664 69.6451 82.2544 69.6451 82.2544C69.7683 81.513 69.7683 80.7716 69.6451 79.9067L73.3395 80.6481C73.3395 80.6481 78.7578 75.8292 78.3884 78.424C78.019 81.0188 79.3735 81.513 79.3735 81.513L78.2653 82.9957C78.019 83.3664 78.1421 83.7371 78.3884 84.2314C79.9893 86.9497 83.6836 86.0848 83.6836 86.0848C83.191 86.3319 82.4522 86.579 81.3439 86.7026C79.6198 86.8261 78.881 88.556 78.881 88.556C76.4181 87.4439 71.9849 87.0733 70.384 85.2198Z" fill="#E2B1A6"/>
<path d="M86.7611 67.4272C86.7611 67.4272 87.3769 69.4042 86.3917 70.1455C85.2834 71.0105 84.4214 71.7518 84.4214 71.7518V74.2231C84.4214 74.5937 84.2982 74.9644 84.1751 75.2115L82.8205 77.3121C82.5742 77.6828 82.4511 78.177 82.4511 78.6713V79.6597C82.4511 79.9069 82.2048 80.154 81.9585 80.2775H81.5891C81.3428 80.2775 80.9733 80.0304 80.9733 79.7833L80.8502 78.4241C80.8502 78.4241 80.1113 77.3121 78.6336 78.6713L77.279 79.2891C76.9096 79.4126 76.5401 79.7833 76.417 80.154C76.0476 81.266 75.1855 83.3666 74.5698 83.6137C73.7078 84.108 70.5061 82.3781 70.1366 81.6367C69.7672 80.8954 68.6589 75.9529 67.92 73.6052C67.3043 71.2576 67.6737 65.4502 74.5698 63.9675C81.3428 62.3612 85.776 65.3266 86.7611 67.4272Z" fill="#AA8383"/>
<path d="M69.891 81.3906C69.5216 80.6493 68.4133 75.7068 67.6744 73.3591C67.6744 73.3591 70.3836 75.2125 73.8316 75.7068C77.2797 76.201 84.1758 72.2471 84.1758 72.2471V73.9769C84.1758 74.3476 84.0526 74.7183 83.9295 74.9654L82.5749 77.066C82.3286 77.4367 82.2055 77.9309 82.2055 78.4251V79.4136C82.2055 79.6608 81.9592 79.9079 81.7129 80.0314H81.3435C81.0972 80.0314 80.7277 79.7843 80.7277 79.5372L80.6046 78.178C80.6046 78.178 79.8657 77.066 78.388 78.4251L76.4177 79.2901C76.4177 79.2901 75.1862 82.9969 74.3242 83.3676C73.5854 83.8618 70.3836 82.132 69.891 81.3906Z" fill="#936D6D"/>
<path d="M69.7681 81.6367C69.7681 81.6367 67.0589 83.243 68.4135 85.7142C69.768 88.0619 79.4965 92.3865 79.9891 93.0043C79.9891 93.0043 80.3585 89.4211 79.1271 88.309C79.1271 88.309 71.6152 86.8263 70.5069 84.9729C69.2755 82.8723 69.7681 81.6367 69.7681 81.6367Z" fill="#F0F6FF"/>
<path d="M69.7689 81.6367C69.7689 81.6367 69.2763 82.8723 70.5077 84.7258C71.3697 86.2085 75.9261 87.3205 78.0195 87.8148C78.0195 87.8148 77.2807 88.309 75.9261 90.5331C72.9706 88.9268 69.2763 86.9498 68.4143 85.5907C67.0597 83.3666 69.7689 81.6367 69.7689 81.6367Z" fill="#C4CCD6"/>
<path d="M67.9211 89.2974C67.9211 89.2974 72.2311 91.7686 74.4477 92.8806C76.5412 93.9927 78.881 95.4754 78.881 95.4754L79.743 94.6105L80.7281 96.711C80.7281 96.711 84.053 98.688 85.6539 100.418C87.2548 102.148 88.3631 104.372 88.6094 104.866C88.6094 104.866 84.4225 99.3058 81.0976 97.6995L80.2356 97.2053L79.743 95.4754L78.881 96.3404C78.881 96.5875 69.2757 90.7801 67.9211 89.2974Z" fill="#24126A"/>
<path d="M79.2501 163.434C79.3732 163.064 79.6195 162.693 79.8658 162.446L97.7217 147.371C98.2143 147.001 98.7069 147.248 98.7069 147.989L100.8 165.535C100.923 166.4 100.554 167.388 100.061 167.759L85.0379 180.857L85.5304 185.923L80.9741 183.822C80.7278 183.699 80.6047 183.451 80.6047 182.957L78.8807 164.546C79.0038 164.299 79.0038 163.805 79.2501 163.434Z" fill="url(#paint12_linear)"/>
<path d="M102.646 149.101L98.4596 147.248H98.3364C98.2133 147.248 97.967 147.248 97.8438 147.372L79.8648 162.446C79.6185 162.693 79.3722 162.94 79.2491 163.435L79.8648 163.805L83.5591 165.535L99.3216 152.067L102.646 149.101Z" fill="#453C9E"/>
<path d="M104.493 169.86L86.1448 185.923C85.6522 186.417 85.1597 186.046 85.0365 185.181L83.3125 166.771C83.1893 165.906 83.5588 164.917 84.0513 164.546L101.907 149.348C102.4 148.978 102.892 149.225 102.892 150.09L105.109 167.759C105.355 168.377 104.986 169.489 104.493 169.86Z" fill="#24126A"/>
<path d="M82.8202 184.068L81.0962 165.657C80.9731 164.793 81.3425 163.804 81.8351 163.433L99.8142 148.235C99.9373 148.112 100.06 148.112 100.184 148.112C100.06 147.988 99.8142 148.112 99.5679 148.235L81.7119 163.433C81.2194 163.804 80.8499 164.793 80.9731 165.657L82.6971 184.068C82.6971 184.686 82.9434 185.057 83.3128 185.057C83.0665 184.933 82.9434 184.562 82.8202 184.068Z" fill="#160A5B"/>
<path d="M89.4701 156.886L88.485 156.392C88.2387 156.268 88.1155 156.268 87.8692 156.268H87.7461C87.6229 156.268 87.623 156.392 87.623 156.515V156.639L90.209 157.998V157.874C90.209 157.751 90.0858 157.627 89.9627 157.504L89.8395 157.38C89.8395 157.257 89.5933 157.009 89.4701 156.886Z" fill="#160A5B"/>
<path d="M89.1006 159.235L90.332 158.123L87.746 156.393L86.5145 157.505L89.1006 159.235Z" fill="#160A5B"/>
<path d="M88.1146 157.999L87.1295 157.505C86.8832 157.381 86.76 157.381 86.5137 157.381H86.3906C86.2674 157.381 86.2674 157.505 86.2674 157.628V157.752L88.8535 159.111V158.988C88.8535 158.864 88.7304 158.741 88.6072 158.617L88.4841 158.493C88.6072 158.246 88.3609 158.123 88.1146 157.999Z" fill="url(#paint13_linear)"/>
<path d="M87.623 158.492L87.4999 157.627L87.623 157.751V158.492Z" fill="#722318"/>
<path d="M87.4989 157.627L88.8535 156.639L87.6221 157.751L87.4989 157.627Z" fill="#722318"/>
<path d="M95.1342 152.067L94.149 151.573C93.9027 151.449 93.7796 151.449 93.5333 151.449H93.4101C93.287 151.449 93.287 151.573 93.287 151.696V151.82L95.873 153.179V153.056C95.873 152.932 95.7499 152.808 95.6268 152.685L95.5036 152.561C95.5036 152.438 95.3805 152.191 95.1342 152.067Z" fill="#160A5B"/>
<path d="M94.7645 154.416L96.1191 153.304L93.41 151.574L92.1785 152.686L94.7645 154.416Z" fill="#160A5B"/>
<path d="M93.9017 153.18L92.9166 152.686C92.6703 152.563 92.5472 152.562 92.3009 152.562H92.1777C92.0546 152.562 92.0546 152.686 92.0546 152.81V152.933L94.6406 154.292V154.169C94.6406 154.045 94.5175 153.922 94.3943 153.798L94.2712 153.675C94.2712 153.427 94.0249 153.304 93.9017 153.18Z" fill="url(#paint14_linear)"/>
<path d="M93.287 153.674V152.809V152.932L93.4102 153.674H93.287Z" fill="#722318"/>
<path d="M93.286 152.808L94.5175 151.82H94.6406L93.286 152.932V152.808Z" fill="#722318"/>
<path d="M87.0081 154.046L87.3775 157.382L88.2396 156.64L87.8701 153.428C87.8701 152.933 87.9933 152.316 88.3627 152.069L92.057 148.98C92.4265 148.732 92.6728 148.856 92.7959 149.35L93.1653 152.563L94.0273 151.821L93.6579 148.609C93.5348 147.62 92.919 147.25 92.1802 147.867L88.2396 151.08C87.3776 151.698 86.885 152.933 87.0081 154.046Z" fill="#453C9E"/>
<path d="M93.2871 148.732L91.8094 148.608L87.4993 152.686L87.253 155.157L87.3762 157.258L88.3613 157.752V155.157V153.427L89.2233 152.192L90.8242 150.833C90.9474 150.709 93.2871 148.732 93.2871 148.732Z" fill="#453C9E"/>
<path d="M94.0273 152.931L93.0422 152.437L92.7959 150.089L93.7811 150.212H94.0273V152.931Z" fill="#453C9E"/>
<path d="M94.0273 147.989L93.0422 147.495L93.2885 148.113L93.6579 148.237C93.5348 148.237 94.0273 147.989 94.0273 147.989Z" fill="#453C9E"/>
<path d="M87.9925 154.538L88.3619 157.874L89.2239 157.133L88.8545 153.92C88.8545 153.426 88.9777 152.808 89.3471 152.561L93.0414 149.472C93.4108 149.225 93.6571 149.349 93.7803 149.843L94.1497 153.055L95.0117 152.314L94.6423 149.102C94.5191 148.113 93.9034 147.742 93.1646 148.36L89.2239 151.573C88.3619 152.191 87.8694 153.426 87.9925 154.538Z" fill="#160A5B"/>
<path d="M92.0556 146.259C92.0556 146.259 92.6713 149.472 92.5482 150.213C92.425 151.078 90.8241 152.561 89.9621 152.808C89.1001 153.055 89.4695 151.943 89.2232 151.325C88.977 150.584 89.1001 149.101 89.1001 149.101L92.0556 146.259Z" fill="#FCD1C5"/>
<path d="M88.9759 149.099L92.0545 146.134C92.0545 146.134 92.1776 146.752 92.3008 147.617C92.3008 147.617 91.1925 149.964 89.099 150.953C88.9759 150.211 88.9759 149.099 88.9759 149.099Z" fill="#E2B1A6"/>
<path d="M92.3008 146.508C92.3008 146.508 91.1925 149.967 88.4833 150.338L89.4685 146.508L91.8082 145.89C91.8082 145.766 92.3008 146.508 92.3008 146.508Z" fill="#4846A5"/>
<path d="M74.3216 105.856C71.7356 113.641 78.1391 125.75 79.1242 129.333C80.1094 132.916 89.8378 149.474 89.8378 149.474C89.8378 149.597 89.9609 149.597 89.9609 149.597C89.7146 149.721 89.4684 149.968 89.3452 150.091C89.0989 150.215 89.2221 150.215 88.8526 150.215C88.6064 150.215 88.4832 150.215 88.2369 149.968C86.0203 146.879 79.6168 134.152 79.3705 133.534C79.1242 132.916 75.1836 122.661 74.0753 120.437C73.3365 118.707 70.6273 110.058 74.3216 105.856Z" fill="url(#paint15_linear)"/>
<path d="M178.257 227.543L220.988 202.707L221.48 203.078L178.257 228.037L135.033 203.078L135.526 202.707L178.257 227.543Z" fill="white"/>
<g opacity="0.5">
<g opacity="0.5">
<path opacity="0.8" d="M275.517 21.1286C245.593 12.1086 227.86 46.088 245.347 78.8317C260.124 106.757 296.206 126.774 305.688 97.6131C311.229 80.438 306.673 38.3036 278.35 22.4878C285.985 26.4417 291.526 32.002 297.068 41.1455C286.6 53.9959 285.738 55.108 276.749 65.4871C266.035 40.157 265.173 38.1801 257.292 21.005C263.449 18.7809 268.867 18.9045 275.517 21.1286ZM277.611 21.9935C277.857 22.1171 278.103 22.2407 278.226 22.3642C277.98 22.2407 277.734 22.1171 277.611 21.9935ZM276.01 21.3757C275.887 21.2522 275.64 21.2522 275.517 21.1286C275.764 21.2522 275.887 21.3757 276.01 21.3757ZM276.749 21.6229C276.995 21.7464 277.241 21.87 277.488 21.87C277.241 21.87 276.995 21.7464 276.749 21.6229ZM276.749 21.6229C276.502 21.4993 276.379 21.4993 276.133 21.3757C276.379 21.4993 276.626 21.6229 276.749 21.6229Z" fill="#B897FF"/>
<path opacity="0.5" d="M343 161.494L342.877 161.742L342.754 155.934L343 155.687V161.494Z" fill="#D4ECFF"/>
<path opacity="0.5" d="M278.225 22.3644C278.225 22.3644 278.348 22.3644 278.225 22.3644C278.348 22.3644 278.225 22.3644 278.225 22.3644ZM275.515 21.2523C275.515 21.1288 275.515 21.1288 275.515 21.2523C275.515 21.1288 275.515 21.1288 275.515 21.2523ZM276.131 21.4995C276.131 21.3759 276.131 21.3759 276.131 21.4995C276.131 21.3759 276.131 21.3759 276.131 21.4995C276.131 21.3759 276.131 21.3759 276.131 21.4995C276.131 21.3759 276.131 21.3759 276.131 21.4995C276.131 21.3759 276.131 21.3759 276.131 21.4995C276.008 21.4995 276.008 21.4995 276.008 21.4995C276.131 21.3759 276.131 21.3759 276.131 21.4995Z" fill="#D4ECFF"/>
<path d="M276.748 21.623C267.019 17.5455 260 20.0167 257.291 20.8816C268.497 45.4703 269.605 48.0651 276.748 65.3637C287.707 52.5133 289.431 50.5363 297.066 41.0221C294.85 37.5624 288.323 26.5655 276.748 21.623Z" fill="#E9F5FF"/>
</g>
</g>
<path opacity="0.11" d="M152.681 178.677L80.3799 136.875C76.6784 134.655 71.9899 134.655 68.2885 136.875L-4.13633 178.554C-4.75324 178.924 -5 179.54 -5 180.033V216.657C-5 217.273 -4.75324 217.767 -4.13633 218.136L68.9054 260.309C72.2367 262.282 76.3083 262.282 79.6396 260.309L152.805 218.26C153.422 217.89 153.668 217.397 153.668 216.78V180.157C153.545 179.54 153.298 178.924 152.681 178.677Z" fill="#B898CF"/>
<g opacity="0.5">
<path opacity="0.8" d="M208.861 231.429C216.755 234.1 221.837 228.635 223.676 227.057C238.166 213.333 250.818 196.573 265.309 182.85C269.634 178.842 272.23 180.421 273.744 180.907C300.778 192.93 300.778 192.93 305.104 185.643C312.998 169.855 313.322 168.519 316.999 158.682C317.864 156.375 320.675 152.974 321.973 153.217C328.029 155.16 327.272 156.496 327.812 157.346V151.638C320.675 148.481 319.918 148.116 316.999 155.646C303.59 187.465 301.319 186.736 298.183 186.008C269.743 173.256 270.067 174.106 262.822 182.607C250.278 197.302 224.973 225.842 217.188 228.15C214.809 228.514 211.024 228.15 208.753 227.421C181.286 217.098 170.364 210.54 143.438 197.545L141.059 201.917C151.007 206.775 181.178 221.713 208.861 231.429ZM123 266.162V180.178C131.434 180.664 140.085 180.907 148.844 180.907C248.331 179.935 327.812 138.522 327.812 88V173.984C327.812 224.506 248.331 265.92 148.844 266.77C140.085 266.891 131.434 266.648 123 266.162Z" fill="#C2C7F4"/>
</g>
</g>
<defs>
<linearGradient id="paint0_linear" x1="171.113" y1="211.78" x2="12.8438" y2="211.78" gradientUnits="userSpaceOnUse">
<stop stop-color="#5761D7"/>
<stop offset="0.0725775" stop-color="#5472D8"/>
<stop offset="0.2791" stop-color="#4E9CDB"/>
<stop offset="0.4801" stop-color="#49BDDD"/>
<stop offset="0.6715" stop-color="#45D5DF"/>
<stop offset="0.8493" stop-color="#43E3E0"/>
<stop offset="1" stop-color="#42E8E0"/>
</linearGradient>
<linearGradient id="paint1_linear" x1="171.113" y1="199.564" x2="12.8438" y2="199.564" gradientUnits="userSpaceOnUse">
<stop stop-color="#5761D7"/>
<stop offset="0.0725775" stop-color="#5472D8"/>
<stop offset="0.2791" stop-color="#4E9CDB"/>
<stop offset="0.4801" stop-color="#49BDDD"/>
<stop offset="0.6715" stop-color="#45D5DF"/>
<stop offset="0.8493" stop-color="#43E3E0"/>
<stop offset="1" stop-color="#42E8E0"/>
</linearGradient>
<linearGradient id="paint2_linear" x1="171.111" y1="187.349" x2="12.8419" y2="187.349" gradientUnits="userSpaceOnUse">
<stop stop-color="#5761D7"/>
<stop offset="0.0725775" stop-color="#5472D8"/>
<stop offset="0.2791" stop-color="#4E9CDB"/>
<stop offset="0.4801" stop-color="#49BDDD"/>
<stop offset="0.6715" stop-color="#45D5DF"/>
<stop offset="0.8493" stop-color="#43E3E0"/>
<stop offset="1" stop-color="#42E8E0"/>
</linearGradient>
<linearGradient id="paint3_linear" x1="171.115" y1="175.131" x2="12.8458" y2="175.131" gradientUnits="userSpaceOnUse">
<stop stop-color="#5761D7"/>
<stop offset="0.0725775" stop-color="#5472D8"/>
<stop offset="0.2791" stop-color="#4E9CDB"/>
<stop offset="0.4801" stop-color="#49BDDD"/>
<stop offset="0.6715" stop-color="#45D5DF"/>
<stop offset="0.8493" stop-color="#43E3E0"/>
<stop offset="1" stop-color="#42E8E0"/>
</linearGradient>
<linearGradient id="paint4_linear" x1="171.113" y1="161.244" x2="12.8438" y2="161.244" gradientUnits="userSpaceOnUse">
<stop stop-color="#5761D7"/>
<stop offset="0.0725775" stop-color="#5472D8"/>
<stop offset="0.2791" stop-color="#4E9CDB"/>
<stop offset="0.4801" stop-color="#49BDDD"/>
<stop offset="0.6715" stop-color="#45D5DF"/>
<stop offset="0.8493" stop-color="#43E3E0"/>
<stop offset="1" stop-color="#42E8E0"/>
</linearGradient>
<linearGradient id="paint5_linear" x1="106.299" y1="141.799" x2="99.4468" y2="141.799" gradientUnits="userSpaceOnUse">
<stop stop-color="#5761D7"/>
<stop offset="0.0725775" stop-color="#5472D8"/>
<stop offset="0.2791" stop-color="#4E9CDB"/>
<stop offset="0.4801" stop-color="#49BDDD"/>
<stop offset="0.6715" stop-color="#45D5DF"/>
<stop offset="0.8493" stop-color="#43E3E0"/>
<stop offset="1" stop-color="#42E8E0"/>
</linearGradient>
<linearGradient id="paint6_linear" x1="102.813" y1="126.69" x2="85.6558" y2="126.69" gradientUnits="userSpaceOnUse">
<stop stop-color="#5761D7"/>
<stop offset="0.0725775" stop-color="#5472D8"/>
<stop offset="0.2791" stop-color="#4E9CDB"/>
<stop offset="0.4801" stop-color="#49BDDD"/>
<stop offset="0.6715" stop-color="#45D5DF"/>
<stop offset="0.8493" stop-color="#43E3E0"/>
<stop offset="1" stop-color="#42E8E0"/>
</linearGradient>
<linearGradient id="paint7_linear" x1="102.734" y1="109.735" x2="84.1418" y2="109.735" gradientUnits="userSpaceOnUse">
<stop stop-color="#5761D7"/>
<stop offset="0.0725775" stop-color="#5472D8"/>
<stop offset="0.2791" stop-color="#4E9CDB"/>
<stop offset="0.4801" stop-color="#49BDDD"/>
<stop offset="0.6715" stop-color="#45D5DF"/>
<stop offset="0.8493" stop-color="#43E3E0"/>
<stop offset="1" stop-color="#42E8E0"/>
</linearGradient>
<linearGradient id="paint8_linear" x1="74.6174" y1="171.334" x2="62.4237" y2="170.354" gradientUnits="userSpaceOnUse">
<stop stop-color="#5761D7"/>
<stop offset="0.582939" stop-color="#5472D8"/>
<stop offset="1" stop-color="#4E9CDB"/>
</linearGradient>
<linearGradient id="paint9_linear" x1="70.1918" y1="82.2134" x2="68.2539" y2="81.4455" gradientUnits="userSpaceOnUse">
<stop stop-color="#5761D7"/>
<stop offset="0.582939" stop-color="#5472D8"/>
<stop offset="1" stop-color="#4E9CDB"/>
</linearGradient>
<linearGradient id="paint10_linear" x1="94.154" y1="140.65" x2="68.9583" y2="122.963" gradientUnits="userSpaceOnUse">
<stop stop-color="#5761D7"/>
<stop offset="0.582939" stop-color="#5472D8"/>
<stop offset="1" stop-color="#4E9CDB"/>
</linearGradient>
<linearGradient id="paint11_linear" x1="65.9177" y1="106.553" x2="59.5418" y2="105.996" gradientUnits="userSpaceOnUse">
<stop stop-color="#5761D7"/>
<stop offset="0.582939" stop-color="#5472D8"/>
<stop offset="1" stop-color="#4E9CDB"/>
</linearGradient>
<linearGradient id="paint12_linear" x1="104.904" y1="166.991" x2="76.4121" y2="159.671" gradientUnits="userSpaceOnUse">
<stop stop-color="#5761D7"/>
<stop offset="0.582939" stop-color="#5472D8"/>
<stop offset="1" stop-color="#4E9CDB"/>
</linearGradient>
<linearGradient id="paint13_linear" x1="89.3344" y1="158.265" x2="86.8816" y2="156.603" gradientUnits="userSpaceOnUse">
<stop stop-color="#5761D7"/>
<stop offset="0.582939" stop-color="#5472D8"/>
<stop offset="1" stop-color="#4E9CDB"/>
</linearGradient>
<linearGradient id="paint14_linear" x1="95.1215" y1="153.447" x2="92.6687" y2="151.784" gradientUnits="userSpaceOnUse">
<stop stop-color="#5761D7"/>
<stop offset="0.582939" stop-color="#5472D8"/>
<stop offset="1" stop-color="#4E9CDB"/>
</linearGradient>
<linearGradient id="paint15_linear" x1="93.2217" y1="128.527" x2="69.7039" y2="124.312" gradientUnits="userSpaceOnUse">
<stop stop-color="#5761D7"/>
<stop offset="0.582939" stop-color="#5472D8"/>
<stop offset="1" stop-color="#4E9CDB"/>
</linearGradient>
<clipPath id="clip0">
<rect width="343" height="365" fill="white" transform="matrix(-1 0 0 1 343 0)"/>
</clipPath>
</defs>
</svg>
