<svg width="183" height="175" viewBox="0 0 183 175" fill="none" xmlns="http://www.w3.org/2000/svg">
<g clip-path="url(#clip0)">
<path d="M104.049 92.9938C104.42 92.9938 104.853 92.8696 105.286 92.6213L113.261 87.9654C113.447 87.9033 113.447 87.655 113.385 87.5308C113.323 87.3446 113.076 87.3446 112.952 87.4067L104.977 92.0626C104.42 92.373 103.926 92.435 103.555 92.2488C103.184 92.0626 102.998 91.5659 102.998 90.9452V89.0207C102.998 88.1516 102.689 87.4687 102.133 87.1584C101.576 86.848 100.835 86.91 100.093 87.3446L98.4234 88.3379C98.2379 88.3999 98.2379 88.6482 98.2998 88.7724C98.3616 88.9586 98.6089 88.9586 98.7325 88.8966L100.402 87.9033C100.958 87.5929 101.453 87.5308 101.824 87.7171C102.195 87.9033 102.38 88.3999 102.38 89.0207V90.9452C102.38 91.8143 102.689 92.4971 103.246 92.8075C103.493 92.9317 103.74 92.9938 104.049 92.9938Z" fill="#A8D5FF"/>
<path d="M107.141 94.794C107.512 94.794 107.945 94.6699 108.378 94.4216L116.353 89.7657C116.539 89.7036 116.539 89.4553 116.477 89.3311C116.415 89.1449 116.168 89.1449 116.044 89.207L108.069 93.8629C107.512 94.1733 107.018 94.2353 106.647 94.0491C106.276 93.8629 106.09 93.3662 106.09 92.7454V90.821C106.09 89.9519 105.781 89.269 105.225 88.9586C104.668 88.6483 103.926 88.7103 103.184 89.1449L101.515 90.1381C101.33 90.2002 101.33 90.4485 101.392 90.5727C101.453 90.7589 101.701 90.7589 101.824 90.6969L103.494 89.7036C104.05 89.3932 104.545 89.3311 104.916 89.5173C105.286 89.7036 105.472 90.2002 105.472 90.821V92.7454C105.472 93.6145 105.781 94.2974 106.338 94.6078C106.585 94.732 106.832 94.794 107.141 94.794Z" fill="#A8D5FF"/>
<path d="M110.231 96.5944C110.602 96.5944 111.035 96.4702 111.468 96.2219L119.443 91.566C119.628 91.5039 119.628 91.2556 119.567 91.1314C119.505 90.9452 119.257 90.9452 119.134 91.0073L111.158 95.6632C110.602 95.9736 110.107 96.0356 109.736 95.8494C109.366 95.6632 109.18 95.1665 109.18 94.5457V92.6213C109.18 91.7522 108.871 91.0693 108.315 90.7589C107.758 90.4485 107.016 90.5106 106.274 90.9452L104.605 91.9384C104.42 92.0005 104.42 92.2488 104.481 92.373C104.543 92.5592 104.791 92.5592 104.914 92.4971L106.583 91.5039C107.14 91.1935 107.634 91.1314 108.005 91.3177C108.376 91.5039 108.562 92.0005 108.562 92.6213V94.5457C108.562 95.4149 108.871 96.0977 109.427 96.4081C109.675 96.5323 109.984 96.5944 110.231 96.5944Z" fill="#A8D5FF"/>
<path d="M113.385 98.3961C113.756 98.3961 114.189 98.2719 114.622 98.0236L122.597 93.3677C122.783 93.3056 122.783 93.0573 122.721 92.9332C122.659 92.7469 122.412 92.7469 122.288 92.809L114.313 97.4649C113.756 97.7753 113.262 97.8374 112.891 97.6512C112.52 97.4649 112.334 96.9683 112.334 96.3475V94.4231C112.334 93.554 112.025 92.8711 111.469 92.5607C110.912 92.2503 110.17 92.3124 109.429 92.7469L107.759 93.7402C107.574 93.8023 107.574 94.0506 107.636 94.1747C107.698 94.361 107.945 94.361 108.068 94.2989L109.738 93.3056C110.294 92.9952 110.789 92.9332 111.16 93.1194C111.531 93.3056 111.716 93.8023 111.716 94.4231V96.3475C111.716 97.2166 112.025 97.8995 112.582 98.2099C112.829 98.334 113.076 98.3961 113.385 98.3961Z" fill="#A8D5FF"/>
<path d="M116.475 100.193C116.846 100.193 117.279 100.069 117.712 99.8205L125.687 95.1646C125.873 95.1025 125.873 94.8542 125.811 94.73C125.749 94.5438 125.502 94.5438 125.378 94.6059L117.403 99.2618C116.846 99.5722 116.352 99.6343 115.981 99.448C115.61 99.2618 115.424 98.7652 115.424 98.1444V96.2199C115.424 95.3508 115.115 94.668 114.559 94.3576C114.002 94.0472 113.26 94.1093 112.518 94.5438L110.849 95.5371C110.664 95.5991 110.664 95.8475 110.726 95.9716C110.787 96.1579 111.035 96.1579 111.158 96.0958L112.828 95.1025C113.384 94.7921 113.879 94.73 114.25 94.9163C114.62 95.1025 114.806 95.5991 114.806 96.2199V98.1444C114.806 99.0135 115.115 99.6963 115.671 100.007C115.919 100.131 116.166 100.193 116.475 100.193Z" fill="#A8D5FF"/>
<path d="M119.567 101.994C119.938 101.994 120.371 101.87 120.803 101.621L128.779 96.9654C128.964 96.9033 128.964 96.655 128.902 96.5308C128.841 96.3446 128.593 96.3446 128.47 96.4067L120.494 101.063C119.938 101.373 119.443 101.435 119.072 101.249C118.701 101.063 118.516 100.566 118.516 99.9452V98.0207C118.516 97.1516 118.207 96.4687 117.65 96.1584C117.094 95.848 116.352 95.91 115.61 96.3446L113.941 97.3379C113.756 97.3999 113.756 97.6482 113.817 97.7724C113.879 97.9586 114.126 97.9586 114.25 97.8966L115.919 96.9033C116.476 96.5929 116.97 96.5308 117.341 96.7171C117.712 96.9033 117.898 97.3999 117.898 98.0207V99.9452C117.898 100.814 118.207 101.497 118.763 101.808C119.011 101.932 119.32 101.994 119.567 101.994Z" fill="#A8D5FF"/>
<path d="M122.721 103.796C123.092 103.796 123.525 103.671 123.958 103.423L131.933 98.7671C132.119 98.7051 132.119 98.4567 132.057 98.3326C131.995 98.1463 131.748 98.1463 131.624 98.2084L123.649 102.864C123.092 103.175 122.598 103.237 122.227 103.051C121.856 102.864 121.67 102.368 121.67 101.747V99.8225C121.67 98.9534 121.361 98.2705 120.805 97.9601C120.248 97.6497 119.506 97.7118 118.765 98.1463L117.095 99.1396C116.91 99.2017 116.91 99.45 116.972 99.5742C117.033 99.7604 117.281 99.7604 117.404 99.6983L119.074 98.7051C119.63 98.3947 120.125 98.3326 120.496 98.5188C120.867 98.7051 121.052 99.2017 121.052 99.8225V101.747C121.052 102.616 121.361 103.299 121.918 103.609C122.165 103.733 122.412 103.796 122.721 103.796Z" fill="#A8D5FF"/>
<path d="M125.812 105.596C126.183 105.596 126.616 105.472 127.048 105.223L135.085 100.567C135.271 100.505 135.271 100.257 135.209 100.133C135.147 99.9466 134.9 99.9466 134.776 100.009L126.801 104.665C126.245 104.975 125.75 105.037 125.379 104.851C125.008 104.665 124.823 104.168 124.823 103.547V101.623C124.823 100.754 124.514 100.071 123.957 99.7604C123.401 99.45 122.659 99.5121 121.917 99.9466L120.248 100.94C120.062 101.002 120.062 101.25 120.124 101.374C120.186 101.561 120.433 101.561 120.557 101.499L122.226 100.505C122.782 100.195 123.277 100.133 123.648 100.319C124.019 100.505 124.204 101.002 124.204 101.623V103.547C124.204 104.416 124.514 105.099 125.07 105.41C125.255 105.534 125.565 105.596 125.812 105.596Z" fill="#A8D5FF"/>
<path d="M128.965 107.396C129.336 107.396 129.769 107.272 130.202 107.024L138.177 102.368C138.363 102.306 138.363 102.057 138.301 101.933C138.239 101.747 137.992 101.747 137.868 101.809L129.893 106.465C129.336 106.775 128.842 106.837 128.471 106.651C128.1 106.465 127.914 105.968 127.914 105.348V103.423C127.914 102.554 127.605 101.871 127.049 101.561C126.492 101.25 125.751 101.312 125.009 101.747L123.339 102.74C123.154 102.802 123.154 103.051 123.216 103.175C123.278 103.361 123.525 103.361 123.649 103.299L125.318 102.306C125.874 101.995 126.369 101.933 126.74 102.119C127.111 102.306 127.296 102.802 127.296 103.423V105.348C127.296 106.217 127.605 106.899 128.162 107.21C128.409 107.334 128.656 107.396 128.965 107.396Z" fill="#A8D5FF"/>
<path d="M132.055 109.196C132.426 109.196 132.859 109.072 133.292 108.824L141.267 104.168C141.453 104.106 141.453 103.858 141.391 103.733C141.329 103.547 141.082 103.547 140.958 103.609L132.983 108.265C132.426 108.576 131.932 108.638 131.561 108.451C131.19 108.265 131.004 107.769 131.004 107.148V105.223C131.004 104.354 130.695 103.671 130.139 103.361C129.582 103.051 128.84 103.113 128.099 103.547L126.429 104.54C126.244 104.603 126.244 104.851 126.306 104.975C126.367 105.161 126.615 105.161 126.738 105.099L128.408 104.106C128.964 103.796 129.459 103.733 129.83 103.92C130.201 104.106 130.386 104.603 130.386 105.223V107.148C130.386 108.017 130.695 108.7 131.252 109.01C131.499 109.134 131.746 109.196 132.055 109.196Z" fill="#A8D5FF"/>
<path d="M135.147 110.998C135.518 110.998 135.951 110.874 136.384 110.625L144.359 105.969C144.544 105.907 144.544 105.659 144.483 105.535C144.421 105.348 144.173 105.348 144.05 105.411L136.074 110.066C135.518 110.377 135.023 110.439 134.652 110.253C134.282 110.066 134.096 109.57 134.096 108.949V107.025C134.096 106.156 133.787 105.473 133.231 105.162C132.674 104.852 131.932 104.914 131.19 105.348L129.521 106.342C129.336 106.404 129.336 106.652 129.397 106.776C129.459 106.963 129.707 106.963 129.83 106.9L131.499 105.907C132.056 105.597 132.55 105.535 132.921 105.721C133.292 105.907 133.478 106.404 133.478 107.025V108.949C133.478 109.818 133.787 110.501 134.343 110.811C134.591 110.936 134.9 110.998 135.147 110.998Z" fill="#A8D5FF"/>
<path d="M138.299 112.798C138.67 112.798 139.103 112.674 139.536 112.426L147.511 107.77C147.697 107.708 147.697 107.46 147.635 107.336C147.573 107.149 147.326 107.149 147.202 107.211L139.227 111.867C138.67 112.178 138.176 112.24 137.805 112.053C137.434 111.867 137.248 111.371 137.248 110.75V108.825C137.248 107.956 136.939 107.273 136.383 106.963C135.826 106.653 135.085 106.715 134.343 107.149L132.673 108.143C132.488 108.205 132.488 108.453 132.55 108.577C132.612 108.763 132.859 108.763 132.983 108.701L134.652 107.708C135.208 107.398 135.703 107.336 136.074 107.522C136.445 107.708 136.63 108.205 136.63 108.825V110.75C136.63 111.619 136.939 112.302 137.496 112.612C137.743 112.736 137.99 112.798 138.299 112.798Z" fill="#A8D5FF"/>
<path d="M141.391 114.595C141.762 114.595 142.195 114.471 142.628 114.223L150.603 109.567C150.789 109.505 150.789 109.257 150.727 109.132C150.665 108.946 150.418 108.946 150.294 109.008L142.319 113.664C141.762 113.975 141.268 114.037 140.897 113.85C140.526 113.664 140.34 113.168 140.34 112.547V110.622C140.34 109.753 140.031 109.07 139.475 108.76C138.918 108.45 138.176 108.512 137.434 108.946L135.765 109.939C135.58 110.001 135.58 110.25 135.642 110.374C135.703 110.56 135.951 110.56 136.074 110.498L137.744 109.505C138.3 109.194 138.795 109.132 139.166 109.319C139.536 109.505 139.722 110.001 139.722 110.622V112.547C139.722 113.416 140.031 114.099 140.588 114.409C140.835 114.533 141.082 114.595 141.391 114.595Z" fill="#A8D5FF"/>
<path d="M144.483 116.396C144.854 116.396 145.287 116.272 145.72 116.023L153.695 111.367C153.88 111.305 153.88 111.057 153.818 110.933C153.757 110.747 153.509 110.747 153.386 110.809L145.41 115.465C144.854 115.775 144.359 115.837 143.988 115.651C143.617 115.465 143.432 114.968 143.432 114.347V112.361C143.432 111.491 143.123 110.809 142.566 110.498C142.01 110.188 141.268 110.25 140.526 110.684L138.857 111.678C138.672 111.74 138.672 111.988 138.733 112.112C138.795 112.298 139.042 112.298 139.166 112.236L140.835 111.243C141.392 110.933 141.886 110.871 142.257 111.057C142.628 111.243 142.814 111.74 142.814 112.361V114.285C142.814 115.154 143.123 115.837 143.679 116.147C143.927 116.334 144.236 116.396 144.483 116.396Z" fill="#A8D5FF"/>
<path d="M147.635 118.198C148.006 118.198 148.439 118.074 148.872 117.825L156.847 113.169C157.033 113.107 157.033 112.859 156.971 112.735C156.909 112.549 156.662 112.549 156.538 112.611L148.563 117.267C148.006 117.577 147.512 117.639 147.141 117.453C146.77 117.267 146.584 116.77 146.584 116.149V114.225C146.584 113.356 146.275 112.673 145.719 112.362C145.162 112.052 144.42 112.114 143.679 112.549L142.009 113.542C141.824 113.604 141.824 113.852 141.886 113.977C141.948 114.163 142.195 114.163 142.318 114.101L143.988 113.107C144.544 112.797 145.039 112.735 145.41 112.921C145.781 113.107 145.966 113.604 145.966 114.225V116.149C145.966 117.018 146.275 117.701 146.832 118.012C147.079 118.136 147.326 118.198 147.635 118.198Z" fill="#A8D5FF"/>
<path d="M150.727 119.998C151.098 119.998 151.531 119.874 151.964 119.626L159.939 114.97C160.124 114.908 160.124 114.659 160.063 114.535C160.001 114.349 159.754 114.349 159.63 114.411L151.655 119.067C151.098 119.377 150.604 119.439 150.233 119.253C149.862 119.067 149.676 118.57 149.676 117.95V116.025C149.676 115.156 149.367 114.473 148.811 114.163C148.254 113.852 147.512 113.914 146.77 114.349L145.101 115.342C144.916 115.404 144.916 115.653 144.977 115.777C145.039 115.963 145.287 115.963 145.41 115.901L147.141 114.846C147.698 114.535 148.192 114.473 148.563 114.659C148.934 114.846 149.12 115.342 149.12 115.963V117.887C149.12 118.757 149.429 119.439 149.985 119.75C150.171 119.936 150.418 119.998 150.727 119.998Z" fill="#A8D5FF"/>
<path d="M153.819 121.798C154.19 121.798 154.623 121.674 155.055 121.426L163.031 116.77C163.216 116.708 163.216 116.46 163.154 116.336C163.093 116.149 162.845 116.149 162.722 116.211L154.746 120.867C154.19 121.178 153.695 121.24 153.324 121.054C152.953 120.867 152.768 120.371 152.768 119.75V117.825C152.768 116.956 152.459 116.273 151.902 115.963C151.346 115.653 150.604 115.715 149.862 116.149L148.193 117.143C148.007 117.205 148.007 117.453 148.069 117.577C148.131 117.763 148.378 117.763 148.502 117.701L150.171 116.708C150.728 116.398 151.222 116.336 151.593 116.522C151.964 116.708 152.15 117.205 152.15 117.825V119.75C152.15 120.619 152.459 121.302 153.015 121.612C153.263 121.736 153.572 121.798 153.819 121.798Z" fill="#A8D5FF"/>
<path d="M156.971 123.599C157.342 123.599 157.775 123.475 158.208 123.226L166.183 118.57C166.369 118.508 166.369 118.26 166.307 118.136C166.245 117.95 165.998 117.95 165.874 118.012L157.899 122.668C157.342 122.978 156.848 123.04 156.477 122.854C156.106 122.668 155.92 122.171 155.92 121.55V119.626C155.92 118.757 155.611 118.074 155.055 117.763C154.498 117.453 153.756 117.515 153.015 117.95L151.345 118.943C151.16 119.005 151.16 119.253 151.222 119.377C151.283 119.564 151.531 119.564 151.654 119.502L153.324 118.508C153.88 118.198 154.375 118.136 154.746 118.322C155.117 118.508 155.302 119.005 155.302 119.626V121.55C155.302 122.419 155.611 123.102 156.168 123.413C156.415 123.537 156.662 123.599 156.971 123.599Z" fill="#A8D5FF"/>
<path d="M160.061 125.4C160.432 125.4 160.865 125.276 161.298 125.028L169.273 120.372C169.458 120.31 169.458 120.061 169.397 119.937C169.335 119.751 169.087 119.751 168.964 119.813L160.989 124.469C160.432 124.779 159.937 124.841 159.567 124.655C159.196 124.469 159.01 123.972 159.01 123.351V121.427C159.01 120.558 158.701 119.875 158.145 119.565C157.588 119.254 156.846 119.316 156.104 119.751L154.435 120.744C154.25 120.806 154.25 121.054 154.311 121.179C154.373 121.365 154.621 121.365 154.744 121.303L156.414 120.31C156.97 119.999 157.465 119.937 157.835 120.123C158.206 120.31 158.392 120.806 158.392 121.427V123.351C158.392 124.221 158.701 124.903 159.257 125.214C159.505 125.338 159.814 125.4 160.061 125.4Z" fill="#A8D5FF"/>
<path d="M163.215 127.201C163.586 127.201 164.019 127.077 164.452 126.828L172.427 122.172C172.613 122.11 172.613 121.862 172.551 121.738C172.489 121.552 172.242 121.552 172.118 121.614L164.143 126.27C163.586 126.58 163.092 126.642 162.721 126.456C162.35 126.27 162.164 125.773 162.164 125.152V123.228C162.164 122.359 161.855 121.676 161.299 121.365C160.742 121.055 160.001 121.117 159.259 121.552L157.589 122.545C157.404 122.607 157.404 122.855 157.466 122.979C157.528 123.166 157.775 123.166 157.899 123.104L159.568 122.11C160.124 121.8 160.619 121.738 160.99 121.924C161.361 122.11 161.546 122.607 161.546 123.228V125.152C161.546 126.021 161.855 126.704 162.412 127.015C162.659 127.139 162.906 127.201 163.215 127.201Z" fill="#A8D5FF"/>
<path d="M91.2524 93.1813C91.5616 93.1813 91.8088 93.1192 92.0561 92.995C92.6126 92.6846 92.9217 92.0018 92.9217 91.1327V89.2082C92.9217 88.5874 93.1072 88.0908 93.4781 87.9046C93.849 87.7183 94.3436 87.7804 94.9001 88.0908L96.5693 89.0841C96.7548 89.1461 96.9403 89.1461 97.0021 88.9599C97.0639 88.7737 97.0639 88.5874 96.8784 88.5254L95.2092 87.5321C94.4673 87.0975 93.7254 87.0355 93.169 87.3459C92.6126 87.6562 92.3034 88.3391 92.3034 89.2082V91.1327C92.3034 91.7535 92.118 92.2501 91.747 92.4363C91.3761 92.6226 90.8815 92.5605 90.3251 92.2501L82.3497 87.5942C82.1643 87.5321 81.9788 87.5321 81.917 87.7183C81.8551 87.9046 81.8551 88.0908 82.0406 88.1529L90.0159 92.8088C90.4487 93.0571 90.8815 93.1813 91.2524 93.1813Z" fill="#A8D5FF"/>
<path d="M88.1606 94.9816C88.4698 94.9816 88.717 94.9195 88.9643 94.7953C89.5208 94.4849 89.8299 93.8021 89.8299 92.9329V91.0085C89.8299 90.3877 90.0154 89.8911 90.3863 89.7049C90.7572 89.5186 91.2518 89.5807 91.8083 89.8911L93.4775 90.8843C93.663 90.9464 93.8485 90.9464 93.9103 90.7602C93.9721 90.574 93.9721 90.3877 93.7866 90.3256L92.1174 89.3324C91.3755 88.8978 90.6336 88.8358 90.0772 89.1461C89.5208 89.4565 89.2116 90.1394 89.2116 91.0085V92.9329C89.2116 93.5537 89.0262 94.0504 88.6552 94.2366C88.2843 94.4228 87.7897 94.3608 87.2333 94.0504L79.2579 89.3945C79.0724 89.3324 78.887 89.3324 78.8251 89.5186C78.7633 89.7049 78.7633 89.8911 78.9488 89.9532L86.9241 94.6091C87.3569 94.8574 87.7897 94.9816 88.1606 94.9816Z" fill="#A8D5FF"/>
<path d="M85.0708 96.7818C85.3799 96.7818 85.6272 96.7198 85.8745 96.5956C86.4309 96.2852 86.74 95.6023 86.74 94.7332V92.8088C86.74 92.188 86.9255 91.6914 87.2965 91.5051C87.6674 91.3189 88.162 91.381 88.7184 91.6914L90.3877 92.6846C90.5732 92.7467 90.7586 92.7467 90.8204 92.5605C90.8823 92.3743 90.8823 92.188 90.6968 92.1259L89.0275 91.1327C88.2857 90.6981 87.5438 90.636 86.9873 90.9464C86.4309 91.2568 86.1218 91.9397 86.1218 92.8088V94.7332C86.1218 95.354 85.9363 95.8507 85.5654 96.0369C85.1944 96.2231 84.6998 96.161 84.1434 95.8507L76.1681 91.1947C75.9826 91.1327 75.7971 91.1327 75.7353 91.3189C75.6735 91.5051 75.6735 91.6914 75.8589 91.7535L83.8343 96.4094C84.2052 96.6577 84.638 96.7818 85.0708 96.7818Z" fill="#A8D5FF"/>
<path d="M81.9165 98.5836C82.2256 98.5836 82.4729 98.5215 82.7202 98.3974C83.2766 98.087 83.5857 97.4041 83.5857 96.535V94.6106C83.5857 93.9898 83.7712 93.4931 84.1422 93.3069C84.5131 93.1207 85.0077 93.1828 85.5641 93.4931L87.2334 94.4864C87.4189 94.5485 87.6043 94.5485 87.6661 94.3622C87.728 94.176 87.728 93.9898 87.5425 93.9277L85.8732 92.9344C85.1313 92.4999 84.3895 92.4378 83.833 92.7482C83.2766 93.0586 82.9675 93.7415 82.9675 94.6106V96.535C82.9675 97.1558 82.782 97.6524 82.4111 97.8387C82.0401 98.0249 81.5455 97.9628 80.9891 97.6524L73.0138 92.9965C72.8283 92.9344 72.6428 92.9344 72.581 93.1207C72.5192 93.3069 72.5192 93.4931 72.7047 93.5552L80.68 98.2111C81.1128 98.4594 81.5455 98.5836 81.9165 98.5836Z" fill="#A8D5FF"/>
<path d="M78.8266 100.38C79.1358 100.38 79.3831 100.318 79.6304 100.194C80.1868 99.8838 80.4959 99.201 80.4959 98.3319V96.4074C80.4959 95.7866 80.6814 95.29 81.0523 95.1038C81.4233 94.9175 81.9179 94.9796 82.4743 95.29L84.1435 96.2833C84.329 96.3454 84.5145 96.3453 84.5763 96.1591C84.6381 95.9729 84.6381 95.7866 84.4527 95.7246L82.7834 94.7313C82.0415 94.2968 81.2996 94.2347 80.7432 94.5451C80.1868 94.8555 79.8777 95.5383 79.8777 96.4074V98.3319C79.8777 98.9527 79.6922 99.4493 79.3212 99.6355C78.9503 99.8218 78.4557 99.7597 77.8993 99.4493L69.9239 94.7934C69.7385 94.7313 69.553 94.7313 69.4912 94.9175C69.4293 95.1038 69.4293 95.29 69.6148 95.3521L77.5902 100.008C78.0229 100.256 78.4557 100.38 78.8266 100.38Z" fill="#A8D5FF"/>
<path d="M75.7348 102.181C76.044 102.181 76.2913 102.119 76.5386 101.995C77.095 101.685 77.4041 101.002 77.4041 100.133V98.2082C77.4041 97.5874 77.5896 97.0908 77.9605 96.9046C78.3315 96.7183 78.8261 96.7804 79.3825 97.0908L81.0517 98.0841C81.2372 98.1461 81.4227 98.1461 81.4845 97.9599C81.5463 97.7737 81.5463 97.5874 81.3609 97.5254L79.6916 96.5321C78.9497 96.0975 78.2078 96.0355 77.6514 96.3459C77.095 96.6562 76.7859 97.3391 76.7859 98.2082V100.133C76.7859 100.753 76.6004 101.25 76.2294 101.436C75.8585 101.623 75.3639 101.56 74.8075 101.25L66.8321 96.5942C66.6467 96.5321 66.4612 96.5321 66.3994 96.7183C66.3375 96.9046 66.3376 97.0908 66.523 97.1529L74.4984 101.809C74.8693 101.995 75.3021 102.181 75.7348 102.181Z" fill="#A8D5FF"/>
<path d="M72.5805 103.982C72.8897 103.982 73.137 103.92 73.3843 103.795C73.9407 103.485 74.2498 102.802 74.2498 101.933V99.9465C74.2498 99.3257 74.4353 98.8291 74.8062 98.6428C75.1772 98.4566 75.6718 98.5187 76.2282 98.8291L77.8974 99.8223C78.0829 99.8844 78.2684 99.8844 78.3302 99.6982C78.392 99.5119 78.392 99.3257 78.2066 99.2636L76.5373 98.2704C75.7954 97.8358 75.0535 97.7737 74.4971 98.0841C73.9407 98.3945 73.6316 99.0774 73.6316 99.9465V101.871C73.6316 102.492 73.4461 102.988 73.0751 103.175C72.7042 103.361 72.2096 103.299 71.6532 102.988L63.6778 98.3324C63.4924 98.2704 63.3069 98.2704 63.2451 98.4566C63.1833 98.6428 63.1832 98.8291 63.3687 98.8912L71.3441 103.547C71.7768 103.795 72.2096 103.982 72.5805 103.982Z" fill="#A8D5FF"/>
<path d="M69.4907 105.721C69.7998 105.721 70.0471 105.659 70.2944 105.535C70.8508 105.225 71.16 104.542 71.16 103.673V101.748C71.16 101.127 71.3454 100.631 71.7164 100.445C72.0873 100.258 72.5819 100.32 73.1383 100.631L74.8076 101.624C74.9931 101.686 75.1785 101.686 75.2404 101.5C75.3022 101.314 75.3022 101.127 75.1167 101.065L73.4475 100.072C72.7056 99.6376 71.9637 99.5755 71.4073 99.8859C70.8508 100.196 70.5417 100.879 70.5417 101.748V103.673C70.5417 104.293 70.3562 104.79 69.9853 104.976C69.6144 105.163 69.1198 105.101 68.5633 104.79L60.588 100.134C60.4025 100.072 60.2171 100.072 60.1552 100.258C60.0934 100.445 60.0934 100.631 60.2789 100.693L68.2542 105.349C68.687 105.597 69.1198 105.721 69.4907 105.721Z" fill="#A8D5FF"/>
<path d="M66.3364 107.522C66.6455 107.522 66.8928 107.46 67.1401 107.335C67.6965 107.025 68.0057 106.342 68.0057 105.473V103.549C68.0057 102.928 68.1911 102.431 68.5621 102.245C68.933 102.059 69.4276 102.121 69.984 102.431L71.6533 103.424C71.8388 103.486 72.0242 103.486 72.0861 103.3C72.1479 103.114 72.1479 102.928 71.9624 102.866L70.2932 101.872C69.5513 101.438 68.8094 101.376 68.253 101.686C67.6965 101.997 67.3874 102.679 67.3874 103.549V105.473C67.3874 106.094 67.202 106.59 66.831 106.777C66.4601 106.963 65.9655 106.901 65.409 106.59L57.4337 101.934C57.2482 101.872 57.0628 101.872 57.0009 102.059C56.9391 102.245 56.9391 102.431 57.1246 102.493L65.0999 107.149C65.5327 107.397 65.9655 107.522 66.3364 107.522Z" fill="#A8D5FF"/>
<path d="M63.2466 109.322C63.5557 109.322 63.803 109.26 64.0503 109.136C64.6067 108.825 64.9158 108.142 64.9158 107.273V105.349C64.9158 104.728 65.1013 104.231 65.4722 104.045C65.8432 103.859 66.3378 103.921 66.8942 104.231L68.5635 105.225C68.7489 105.287 68.9344 105.287 68.9962 105.101C69.0581 104.914 69.058 104.728 68.8726 104.666L67.2033 103.673C66.4614 103.238 65.7195 103.176 65.1631 103.486C64.6067 103.797 64.2976 104.48 64.2976 105.349V107.273C64.2976 107.894 64.1121 108.391 63.7412 108.577C63.3702 108.763 62.8756 108.701 62.3192 108.391L54.3439 103.735C54.1584 103.673 53.9729 103.673 53.9111 103.859C53.8493 104.045 53.8493 104.231 54.0347 104.294L62.0101 108.949C62.4429 109.198 62.8756 109.322 63.2466 109.322Z" fill="#A8D5FF"/>
<path d="M60.1548 111.122C60.4639 111.122 60.7112 111.06 60.9585 110.936C61.5149 110.626 61.824 109.943 61.824 109.074V107.149C61.824 106.528 62.0095 106.032 62.3804 105.845C62.7514 105.659 63.246 105.721 63.8024 106.032L65.4717 107.025C65.6571 107.087 65.8426 107.087 65.9044 106.901C65.9663 106.715 65.9662 106.528 65.7808 106.466L64.1115 105.473C63.3696 105.038 62.6277 104.976 62.0713 105.287C61.5149 105.597 61.2058 106.28 61.2058 107.149V109.074C61.2058 109.694 61.0203 110.191 60.6494 110.377C60.2784 110.563 59.7838 110.501 59.2274 110.191L51.2521 105.535C51.0666 105.473 50.8811 105.473 50.8193 105.659C50.7575 105.845 50.7575 106.032 50.9429 106.094L58.9183 110.75C59.3511 110.998 59.722 111.122 60.1548 111.122Z" fill="#A8D5FF"/>
<path d="M57.0024 112.923C57.3115 112.923 57.5588 112.861 57.8061 112.737C58.3626 112.427 58.6717 111.744 58.6717 110.875V108.95C58.6717 108.33 58.8572 107.833 59.2281 107.647C59.599 107.461 60.0936 107.523 60.6501 107.833L62.3193 108.826C62.5048 108.888 62.6903 108.888 62.7521 108.702C62.8139 108.516 62.8139 108.33 62.6284 108.268L60.9592 107.274C60.2173 106.84 59.4754 106.778 58.919 107.088C58.3626 107.398 58.0534 108.081 58.0534 108.95V110.875C58.0534 111.496 57.868 111.992 57.497 112.178C57.1261 112.365 56.6315 112.303 56.0751 111.992L48.0997 107.336C47.9142 107.274 47.7288 107.274 47.6669 107.461C47.6051 107.647 47.6051 107.833 47.7906 107.895L55.7659 112.551C56.1987 112.799 56.6315 112.923 57.0024 112.923Z" fill="#A8D5FF"/>
<path d="M53.9106 114.724C54.2198 114.724 54.4671 114.662 54.7143 114.538C55.2708 114.228 55.5799 113.545 55.5799 112.676V110.751C55.5799 110.13 55.7654 109.634 56.1363 109.448C56.5073 109.261 57.0019 109.323 57.5583 109.634L59.2275 110.627C59.413 110.689 59.5985 110.689 59.6603 110.503C59.7221 110.317 59.7221 110.13 59.5366 110.068L57.8674 109.075C57.1255 108.641 56.3836 108.578 55.8272 108.889C55.2708 109.199 54.9616 109.882 54.9616 110.751V112.676C54.9616 113.296 54.7762 113.793 54.4052 113.979C54.0343 114.166 53.5397 114.103 52.9833 113.793L45.0079 109.137C44.8225 109.075 44.637 109.075 44.5752 109.261C44.5134 109.448 44.5133 109.634 44.6988 109.696L52.6741 114.352C53.1069 114.6 53.5397 114.724 53.9106 114.724Z" fill="#A8D5FF"/>
<path d="M50.8188 116.521C51.128 116.521 51.3753 116.459 51.6226 116.335C52.179 116.024 52.4881 115.342 52.4881 114.472V112.548C52.4881 111.927 52.6736 111.431 53.0445 111.244C53.4155 111.058 53.9101 111.12 54.4665 111.431L56.1357 112.424C56.3212 112.486 56.5067 112.486 56.5685 112.3C56.6303 112.114 56.6303 111.927 56.4448 111.865L54.7756 110.872C54.0337 110.437 53.2918 110.375 52.7354 110.686C52.179 110.996 51.8698 111.679 51.8698 112.548V114.472C51.8698 115.093 51.6844 115.59 51.3134 115.776C50.9425 115.962 50.4479 115.9 49.8915 115.59L41.9161 110.934C41.7307 110.872 41.5452 110.872 41.4834 111.058C41.4215 111.244 41.4215 111.431 41.607 111.493L49.5823 116.149C49.9533 116.397 50.3861 116.521 50.8188 116.521Z" fill="#A8D5FF"/>
<path d="M47.6665 118.322C47.9756 118.322 48.2229 118.26 48.4702 118.136C49.0266 117.825 49.3358 117.142 49.3358 116.273V114.349C49.3358 113.728 49.5212 113.231 49.8922 113.045C50.2631 112.859 50.7577 112.921 51.3141 113.231L52.9834 114.225C53.1689 114.287 53.3543 114.287 53.4161 114.101C53.478 113.914 53.478 113.728 53.2925 113.666L51.6233 112.673C50.8814 112.238 50.1395 112.176 49.583 112.486C49.0266 112.797 48.7175 113.48 48.7175 114.349V116.273C48.7175 116.894 48.532 117.391 48.1611 117.577C47.7901 117.763 47.2956 117.701 46.7391 117.391L38.7638 112.735C38.5783 112.673 38.3929 112.673 38.331 112.859C38.2692 113.045 38.2692 113.231 38.4547 113.294L46.43 117.949C46.8628 118.198 47.2956 118.322 47.6665 118.322Z" fill="#A8D5FF"/>
<path d="M44.5747 120.124C44.8838 120.124 45.1311 120.062 45.3784 119.937C45.9348 119.627 46.244 118.944 46.244 118.075V116.151C46.244 115.53 46.4294 115.033 46.8004 114.847C47.1713 114.661 47.6659 114.723 48.2223 115.033L49.8916 116.026C50.0771 116.089 50.2625 116.089 50.3244 115.902C50.3862 115.716 50.3862 115.53 50.2007 115.468L48.5315 114.474C47.7896 114.04 47.0477 113.978 46.4912 114.288C45.9348 114.599 45.6257 115.281 45.6257 116.151V118.075C45.6257 118.696 45.4402 119.192 45.0693 119.379C44.6983 119.565 44.2038 119.503 43.6473 119.192L35.672 114.537C35.4865 114.474 35.3011 114.474 35.2392 114.661C35.1774 114.847 35.1774 115.033 35.3629 115.095L43.3382 119.751C43.771 119.999 44.2038 120.124 44.5747 120.124Z" fill="#A8D5FF"/>
<path d="M41.4829 121.924C41.792 121.924 42.0393 121.862 42.2866 121.738C42.843 121.427 43.1522 120.744 43.1522 119.875V117.951C43.1522 117.33 43.3376 116.833 43.7086 116.647C44.0795 116.461 44.5741 116.523 45.1305 116.833L46.7998 117.827C46.9853 117.889 47.1707 117.889 47.2326 117.703C47.2944 117.516 47.2944 117.33 47.1089 117.268L45.4397 116.275C44.6978 115.84 43.9559 115.778 43.3994 116.089C42.843 116.399 42.5339 117.082 42.5339 117.951V119.875C42.5339 120.496 42.3484 120.993 41.9775 121.179C41.6065 121.365 41.112 121.303 40.5555 120.993L32.5802 116.337C32.3947 116.275 32.2092 116.275 32.1474 116.461C32.0856 116.647 32.0856 116.833 32.2711 116.896L40.2464 121.551C40.6174 121.8 41.0501 121.924 41.4829 121.924Z" fill="#A8D5FF"/>
<path d="M38.3305 123.724C38.6397 123.724 38.887 123.662 39.1343 123.538C39.6907 123.228 39.9998 122.545 39.9998 121.676V119.751C39.9998 119.13 40.1853 118.634 40.5562 118.448C40.9272 118.261 41.4218 118.323 41.9782 118.634L43.6474 119.627C43.8329 119.689 44.0184 119.689 44.0802 119.503C44.142 119.317 44.142 119.13 43.9566 119.068L42.2873 118.075C41.5454 117.641 40.8035 117.578 40.2471 117.889C39.6907 118.199 39.3816 118.882 39.3816 119.751V121.676C39.3816 122.296 39.1961 122.793 38.8251 122.979C38.4542 123.166 37.9596 123.103 37.4032 122.793L29.4278 118.137C29.2424 118.075 29.0569 118.075 28.9951 118.261C28.9332 118.448 28.9333 118.634 29.1187 118.696L37.0941 123.352C37.5268 123.6 37.9596 123.724 38.3305 123.724Z" fill="#A8D5FF"/>
<path d="M35.2387 125.525C35.5479 125.525 35.7952 125.462 36.0425 125.338C36.5989 125.028 36.908 124.345 36.908 123.476V121.551C36.908 120.931 37.0935 120.434 37.4644 120.248C37.8354 120.062 38.33 120.124 38.8864 120.434L40.5556 121.427C40.7411 121.489 40.9266 121.489 40.9884 121.303C41.0502 121.117 41.0502 120.931 40.8648 120.869L39.1955 119.875C38.4536 119.441 37.7117 119.379 37.1553 119.689C36.5989 120 36.2898 120.682 36.2898 121.551V123.476C36.2898 124.097 36.1043 124.593 35.7333 124.78C35.3624 124.966 34.8678 124.904 34.3114 124.593L26.336 119.937C26.1506 119.875 25.9651 119.875 25.9033 120.062C25.8414 120.248 25.8414 120.434 26.0269 120.496L34.0023 125.152C34.435 125.4 34.8678 125.525 35.2387 125.525Z" fill="#A8D5FF"/>
<path d="M32.147 127.326C32.4561 127.326 32.7034 127.264 32.9507 127.14C33.5071 126.829 33.8162 126.146 33.8162 125.277V123.353C33.8162 122.732 34.0017 122.235 34.3726 122.049C34.7436 121.863 35.2382 121.925 35.7946 122.235L37.4638 123.229C37.6493 123.291 37.8348 123.291 37.8966 123.104C37.9584 122.918 37.9584 122.732 37.773 122.67L36.1037 121.677C35.3618 121.242 34.6199 121.18 34.0635 121.49C33.5071 121.801 33.198 122.484 33.198 123.353V125.277C33.198 125.898 33.0125 126.395 32.6416 126.581C32.2706 126.767 31.776 126.705 31.2196 126.395L23.2443 121.739C23.0588 121.677 22.8733 121.677 22.8115 121.863C22.7497 122.049 22.7497 122.235 22.9351 122.297L30.9105 126.953C31.2814 127.202 31.7142 127.326 32.147 127.326Z" fill="#A8D5FF"/>
<path d="M36.1044 123.597V130.736L97.6196 166.369L159.135 130.736V123.597H36.1044Z" fill="url(#paint0_linear)"/>
<path d="M97.6196 159.23L159.135 123.597L97.6196 87.9019L36.1044 123.597L97.6196 159.23Z" fill="#DDDAFF"/>
<path d="M97.6196 158.423L158.393 123.163L159.135 123.597L97.6196 159.23L36.1044 123.597L36.8463 123.163L97.6196 158.423Z" fill="white"/>
<path d="M97.6185 151.037L144.914 123.598L97.6185 96.1597L50.3229 123.598L97.6185 151.037Z" fill="#0F054C"/>
<path opacity="0.5" d="M97.6185 151.037L144.914 123.598L97.6185 96.1597L50.3229 123.598L97.6185 151.037Z" fill="url(#paint1_linear)"/>
<path opacity="0.5" d="M97.6191 89.269L50.3235 116.646V123.599L97.6191 96.1598V89.269Z" fill="url(#paint2_linear)"/>
<path opacity="0.5" d="M97.6184 96.1598L144.914 123.599V116.646L97.6184 89.269V96.1598Z" fill="url(#paint3_linear)"/>
<path opacity="0.5" d="M97.6185 144.085L144.914 116.646L97.6185 89.269L50.3229 116.646L97.6185 144.085Z" fill="url(#paint4_linear)"/>
<path opacity="0.5" d="M97.6189 127.632L116.537 116.644L97.6189 105.718L78.7006 116.644L97.6189 127.632Z" fill="#C68FEF"/>
<path opacity="0.5" d="M97.6189 106.712L79.5662 117.141L78.7006 116.644L97.6189 105.718L116.537 116.644L115.672 117.141L97.6189 106.712Z" fill="#C3B0DC"/>
<path opacity="0.5" d="M97.6172 144.083V151.036L50.3216 123.597V116.644L97.6172 144.083Z" fill="url(#paint5_linear)"/>
<path opacity="0.5" d="M144.914 116.644V123.597L97.6184 151.036V144.083L144.914 116.644Z" fill="#AC8FD7"/>
<path d="M82.1643 174.998C82.2261 174.998 82.2879 174.998 82.3497 174.936L90.3251 170.28C91.8089 169.411 92.9217 167.424 92.9217 165.748V163.824C92.9217 162.396 93.9109 160.596 95.2092 159.851L96.8784 158.858C97.0639 158.795 97.0639 158.547 97.0021 158.423C96.9403 158.237 96.693 158.237 96.5693 158.299L94.9001 159.292C93.4163 160.161 92.3034 162.148 92.3034 163.824V165.748C92.3034 167.176 91.3143 168.976 90.0159 169.721L82.0406 174.377C81.8551 174.439 81.8551 174.688 81.917 174.812C81.9788 174.936 82.0406 174.998 82.1643 174.998Z" fill="#A8D5FF"/>
<path d="M79.0744 173.201C79.1362 173.201 79.198 173.201 79.2599 173.139L87.2352 168.483C88.719 167.614 89.8318 165.628 89.8318 163.951V162.027C89.8318 160.599 90.821 158.799 92.1193 158.054L93.7886 157.061C93.9741 156.999 93.9741 156.75 93.9122 156.626C93.8504 156.44 93.6031 156.44 93.4795 156.502L91.8102 157.495C90.3264 158.364 89.2136 160.351 89.2136 162.027V163.951C89.2136 165.379 88.2244 167.18 86.9261 167.924L78.9507 172.58C78.7653 172.642 78.7653 172.891 78.8271 173.015C78.8271 173.139 78.9507 173.201 79.0744 173.201Z" fill="#A8D5FF"/>
<path d="M75.9806 171.4C76.0425 171.4 76.1043 171.4 76.1661 171.338L84.1415 166.682C85.6253 165.813 86.7381 163.827 86.7381 162.151V160.226C86.7381 158.798 87.7273 156.998 89.0256 156.253L90.6948 155.26C90.8803 155.198 90.8803 154.95 90.8185 154.825C90.7567 154.639 90.5094 154.639 90.3857 154.701L88.7165 155.694C87.2327 156.564 86.1198 158.55 86.1198 160.226V162.151C86.1198 163.578 85.1307 165.379 83.8323 166.124L75.857 170.78C75.6715 170.842 75.6715 171.09 75.7333 171.214C75.7333 171.338 75.857 171.4 75.9806 171.4Z" fill="#A8D5FF"/>
<path d="M72.8283 169.599C72.8901 169.599 72.952 169.599 73.0138 169.537L80.9891 164.881C82.4729 164.012 83.5857 162.025 83.5857 160.349V158.425C83.5857 156.997 84.5749 155.197 85.8732 154.452L87.5425 153.459C87.728 153.397 87.728 153.148 87.6661 153.024C87.6043 152.838 87.357 152.838 87.2334 152.9L85.5641 153.893C84.0803 154.762 82.9675 156.749 82.9675 158.425V160.349C82.9675 161.777 81.9783 163.577 80.68 164.322L72.7047 168.978C72.5192 169.04 72.5192 169.289 72.581 169.413C72.6428 169.537 72.7047 169.599 72.8283 169.599Z" fill="#A8D5FF"/>
<path d="M69.7365 167.799C69.7983 167.799 69.8602 167.799 69.922 167.737L77.8973 163.081C79.3811 162.212 80.4939 160.225 80.4939 158.549V156.625C80.4939 155.197 81.4831 153.397 82.7814 152.652L84.4507 151.658C84.6362 151.596 84.6362 151.348 84.5744 151.224C84.5125 151.038 84.2652 151.038 84.1416 151.1L82.4723 152.093C80.9885 152.962 79.8757 154.949 79.8757 156.625V158.549C79.8757 159.977 78.8865 161.777 77.5882 162.522L69.6129 167.178C69.4274 167.24 69.4274 167.488 69.4892 167.613C69.4892 167.737 69.6129 167.799 69.7365 167.799Z" fill="#A8D5FF"/>
<path d="M66.6467 165.999C66.7085 165.999 66.7703 165.999 66.8321 165.936L74.8075 161.281C76.2913 160.411 77.4041 158.425 77.4041 156.749V154.824C77.4041 153.397 78.3933 151.596 79.6916 150.851L81.3609 149.858C81.5463 149.796 81.5463 149.548 81.4845 149.423C81.4227 149.237 81.1754 149.237 81.0517 149.299L79.3825 150.293C77.8987 151.162 76.7859 153.148 76.7859 154.824V156.749C76.7859 158.177 75.7967 159.977 74.4984 160.722L66.523 165.378C66.3376 165.44 66.3375 165.688 66.3994 165.812C66.3994 165.936 66.523 165.999 66.6467 165.999Z" fill="#A8D5FF"/>
<path d="M63.4924 164.198C63.5542 164.198 63.616 164.198 63.6778 164.136L71.6532 159.48C73.137 158.611 74.2498 156.625 74.2498 154.948V153.024C74.2498 151.596 75.239 149.796 76.5373 149.051L78.2066 148.058C78.392 147.996 78.392 147.747 78.3302 147.623C78.2684 147.437 78.0211 147.437 77.8974 147.499L76.2282 148.492C74.7444 149.361 73.6316 151.348 73.6316 153.024V154.948C73.6316 156.376 72.6424 158.177 71.3441 158.922L63.3687 163.577C63.1832 163.64 63.1833 163.888 63.2451 164.012C63.3069 164.136 63.3687 164.198 63.4924 164.198Z" fill="#A8D5FF"/>
<path d="M60.4025 162.396C60.4644 162.396 60.5262 162.396 60.588 162.334L68.5633 157.678C70.0471 156.809 71.16 154.823 71.16 153.147V151.222C71.16 149.794 72.1492 147.994 73.4475 147.249L75.1167 146.256C75.3022 146.194 75.3022 145.946 75.2404 145.821C75.1785 145.635 74.9312 145.635 74.8076 145.697L73.1383 146.691C71.6546 147.56 70.5417 149.546 70.5417 151.222V153.147C70.5417 154.575 69.5525 156.375 68.2542 157.12L60.2789 161.776C60.0934 161.838 60.0934 162.086 60.1552 162.21C60.1552 162.334 60.2789 162.396 60.4025 162.396Z" fill="#A8D5FF"/>
<path d="M57.2502 160.596C57.312 160.596 57.3738 160.596 57.4357 160.534L65.411 155.878C66.8948 155.009 68.0076 153.022 68.0076 151.346V149.422C68.0076 147.994 68.9968 146.193 70.2951 145.448L71.9644 144.455C72.1498 144.393 72.1499 144.145 72.088 144.021C72.0262 143.834 71.7789 143.834 71.6552 143.897L69.986 144.89C68.5022 145.759 67.3894 147.745 67.3894 149.422V151.346C67.3894 152.774 66.4002 154.574 65.1019 155.319L57.1265 159.975C56.9411 160.037 56.9411 160.285 57.0029 160.409C57.0647 160.534 57.1884 160.596 57.2502 160.596Z" fill="#A8D5FF"/>
<path d="M54.1584 158.799C54.2202 158.799 54.282 158.799 54.3439 158.737L62.3192 154.081C63.803 153.212 64.9158 151.225 64.9158 149.549V147.625C64.9158 146.197 65.905 144.397 67.2033 143.652L68.8726 142.658C69.058 142.596 69.0581 142.348 68.9962 142.224C68.9344 142.038 68.6871 142.038 68.5635 142.1L66.8942 143.093C65.4104 143.962 64.2976 145.949 64.2976 147.625V149.549C64.2976 150.977 63.3084 152.777 62.0101 153.522L54.0347 158.178C53.8493 158.24 53.8493 158.488 53.9111 158.613C53.9111 158.737 54.0347 158.799 54.1584 158.799Z" fill="#A8D5FF"/>
<path d="M51.0666 156.935C51.1284 156.935 51.1902 156.935 51.2521 156.873L59.2274 152.217C60.7112 151.348 61.824 149.361 61.824 147.685V145.761C61.824 144.333 62.8132 142.533 64.1115 141.788L65.7808 140.795C65.9662 140.732 65.9663 140.484 65.9044 140.36C65.8426 140.174 65.5953 140.174 65.4717 140.236L63.8024 141.229C62.3186 142.098 61.2058 144.085 61.2058 145.761V147.685C61.2058 149.113 60.2166 150.913 58.9183 151.658L50.9429 156.314C50.7575 156.376 50.7575 156.625 50.8193 156.749C50.8193 156.935 50.9429 156.935 51.0666 156.935Z" fill="#A8D5FF"/>
<path d="M47.9142 155.135C47.9761 155.135 48.0379 155.135 48.0997 155.073L56.0751 150.417C57.5588 149.548 58.6717 147.561 58.6717 145.885V144.023C58.6717 142.595 59.6609 140.794 60.9592 140.05L62.6284 139.056C62.8139 138.994 62.8139 138.746 62.7521 138.622C62.6903 138.435 62.443 138.435 62.3193 138.498L60.6501 139.491C59.1663 140.36 58.0534 142.346 58.0534 144.023V145.947C58.0534 147.375 57.0642 149.175 55.7659 149.92L47.7906 154.576C47.6051 154.638 47.6051 154.886 47.6669 155.011C47.7288 155.135 47.8524 155.135 47.9142 155.135Z" fill="#A8D5FF"/>
<path d="M44.8225 153.334C44.8843 153.334 44.9461 153.334 45.0079 153.272L52.9833 148.616C54.4671 147.747 55.5799 145.761 55.5799 144.085V142.16C55.5799 140.732 56.5691 138.932 57.8674 138.187L59.5366 137.194C59.7221 137.132 59.7221 136.884 59.6603 136.759C59.5985 136.573 59.3512 136.573 59.2275 136.635L57.5583 137.629C56.0745 138.498 54.9616 140.484 54.9616 142.16V144.085C54.9616 145.513 53.9725 147.313 52.6741 148.058L44.6988 152.714C44.5133 152.776 44.5134 153.024 44.5752 153.148C44.5752 153.272 44.6988 153.334 44.8225 153.334Z" fill="#A8D5FF"/>
<path d="M41.7307 151.534C41.7925 151.534 41.8543 151.534 41.9161 151.472L49.8915 146.816C51.3753 145.947 52.4881 143.961 52.4881 142.284V140.36C52.4881 138.932 53.4773 137.132 54.7756 136.387L56.4448 135.394C56.6303 135.332 56.6303 135.083 56.5685 134.959C56.5067 134.773 56.2594 134.773 56.1357 134.835L54.4665 135.828C52.9827 136.697 51.8698 138.684 51.8698 140.36V142.284C51.8698 143.712 50.8807 145.513 49.5823 146.257L41.607 150.913C41.4215 150.975 41.4215 151.224 41.4834 151.348C41.4834 151.472 41.607 151.534 41.7307 151.534Z" fill="#A8D5FF"/>
<path d="M38.5783 149.732C38.6402 149.732 38.702 149.732 38.7638 149.67L46.7391 145.014C48.2229 144.145 49.3358 142.159 49.3358 140.483V138.558C49.3358 137.13 50.3249 135.33 51.6233 134.585L53.2925 133.592C53.478 133.53 53.478 133.282 53.4161 133.157C53.3543 132.971 53.107 132.971 52.9834 133.033L51.3141 134.026C49.8303 134.896 48.7175 136.882 48.7175 138.558V140.483C48.7175 141.91 47.7283 143.711 46.43 144.456L38.4547 149.112C38.2692 149.174 38.2692 149.422 38.331 149.546C38.3929 149.67 38.4547 149.732 38.5783 149.732Z" fill="#A8D5FF"/>
<path d="M35.4865 147.932C35.5483 147.932 35.6102 147.932 35.672 147.87L43.6473 143.214C45.1311 142.345 46.244 140.358 46.244 138.682V136.757C46.244 135.33 47.2331 133.529 48.5315 132.784L50.2007 131.791C50.3862 131.729 50.3862 131.481 50.3244 131.357C50.2625 131.17 50.0152 131.17 49.8916 131.232L48.2223 132.226C46.7385 133.095 45.6257 135.081 45.6257 136.757V138.682C45.6257 140.11 44.6365 141.91 43.3382 142.655L35.3629 147.311C35.1774 147.373 35.1774 147.621 35.2392 147.745C35.2392 147.87 35.3629 147.932 35.4865 147.932Z" fill="#A8D5FF"/>
<path d="M32.3947 146.135C32.4565 146.135 32.5184 146.135 32.5802 146.073L40.5555 141.417C42.0393 140.548 43.1522 138.561 43.1522 136.885V134.961C43.1522 133.533 44.1413 131.732 45.4397 130.988L47.1089 129.994C47.2944 129.932 47.2944 129.684 47.2326 129.56C47.1707 129.373 46.9234 129.373 46.7998 129.436L45.1305 130.429C43.6467 131.298 42.5339 133.284 42.5339 134.961V136.885C42.5339 138.313 41.5447 140.113 40.2464 140.858L32.2711 145.514C32.0856 145.576 32.0856 145.824 32.1474 145.949C32.1474 146.073 32.2711 146.135 32.3947 146.135Z" fill="#A8D5FF"/>
<path d="M29.2424 144.333C29.3042 144.333 29.366 144.333 29.4278 144.271L37.4032 139.615C38.887 138.746 39.9998 136.759 39.9998 135.083V133.159C39.9998 131.731 40.989 129.931 42.2873 129.186L43.9566 128.193C44.142 128.13 44.142 127.882 44.0802 127.758C44.0184 127.572 43.7711 127.572 43.6474 127.634L41.9782 128.627C40.4944 129.496 39.3816 131.483 39.3816 133.159V135.083C39.3816 136.511 38.3924 138.311 37.0941 139.056L29.1187 143.712C28.9333 143.774 28.9332 144.023 28.9951 144.147C29.0569 144.271 29.1187 144.333 29.2424 144.333Z" fill="#A8D5FF"/>
<path d="M26.1506 142.533C26.2124 142.533 26.2742 142.533 26.336 142.471L34.3114 137.815C35.7952 136.946 36.908 134.959 36.908 133.283V131.359C36.908 129.931 37.8972 128.13 39.1955 127.385L40.8648 126.392C41.0502 126.33 41.0502 126.082 40.9884 125.958C40.9266 125.771 40.6793 125.771 40.5556 125.834L38.8864 126.827C37.4026 127.696 36.2898 129.682 36.2898 131.359V133.283C36.2898 134.711 35.3006 136.511 34.0023 137.256L26.0269 141.912C25.8414 141.974 25.8414 142.222 25.9033 142.346C25.9033 142.471 26.0269 142.533 26.1506 142.533Z" fill="#A8D5FF"/>
<path d="M22.9982 140.732C23.0601 140.732 23.1219 140.732 23.1837 140.67L31.159 136.014C32.6428 135.145 33.7557 133.159 33.7557 131.483V129.558C33.7557 128.13 34.7449 126.33 36.0432 125.585L37.7124 124.592C37.8979 124.53 37.8979 124.282 37.8361 124.157C37.7742 123.971 37.527 123.971 37.4033 124.033L35.734 125.026C34.2503 125.896 33.1374 127.882 33.1374 129.558V131.483C33.1374 132.91 32.1482 134.711 30.8499 135.456L22.8746 140.112C22.6891 140.174 22.6891 140.422 22.7509 140.546C22.8127 140.67 22.9364 140.732 22.9982 140.732Z" fill="#A8D5FF"/>
<path d="M113.261 174.998C113.385 174.998 113.509 174.936 113.57 174.812C113.632 174.626 113.632 174.439 113.447 174.377L105.471 169.721C104.235 168.976 103.184 167.238 103.184 165.748V163.824C103.184 162.148 102.071 160.161 100.587 159.292L98.9181 158.299C98.7326 158.237 98.5471 158.237 98.4853 158.423C98.4235 158.609 98.4235 158.795 98.609 158.858L100.278 159.851C101.515 160.596 102.566 162.334 102.566 163.824V165.748C102.566 167.424 103.679 169.411 105.162 170.28L113.138 174.936C113.2 174.936 113.261 174.998 113.261 174.998Z" fill="#A8D5FF"/>
<path d="M116.416 173.201C116.539 173.201 116.663 173.139 116.725 173.015C116.787 172.829 116.787 172.642 116.601 172.58L108.626 167.924C107.389 167.18 106.338 165.441 106.338 163.951V162.027C106.338 160.351 105.225 158.364 103.742 157.495L102.072 156.502C101.887 156.44 101.701 156.44 101.64 156.626C101.578 156.812 101.578 156.999 101.763 157.061L103.433 158.054C104.669 158.799 105.72 160.537 105.72 162.027V163.951C105.72 165.628 106.833 167.614 108.317 168.483L116.292 173.139C116.292 173.139 116.354 173.201 116.416 173.201Z" fill="#A8D5FF"/>
<path d="M119.505 171.4C119.629 171.4 119.753 171.338 119.815 171.214C119.876 171.028 119.876 170.842 119.691 170.78L111.716 166.124C110.479 165.379 109.428 163.641 109.428 162.151V160.226C109.428 158.55 108.315 156.564 106.831 155.694L105.162 154.701C104.977 154.639 104.791 154.639 104.729 154.825C104.668 155.012 104.668 155.198 104.853 155.26L106.522 156.253C107.759 156.998 108.81 158.736 108.81 160.226V162.151C108.81 163.827 109.923 165.813 111.406 166.682L119.382 171.338C119.382 171.338 119.444 171.4 119.505 171.4Z" fill="#A8D5FF"/>
<path d="M122.658 169.599C122.781 169.599 122.905 169.537 122.967 169.413C123.029 169.227 123.029 169.04 122.843 168.978L114.868 164.322C113.631 163.577 112.58 161.839 112.58 160.349V158.425C112.58 156.749 111.468 154.762 109.984 153.893L108.315 152.9C108.129 152.838 107.944 152.838 107.882 153.024C107.82 153.21 107.82 153.397 108.005 153.459L109.675 154.452C110.911 155.197 111.962 156.935 111.962 158.425V160.349C111.962 162.025 113.075 164.012 114.559 164.881L122.534 169.537C122.534 169.537 122.596 169.599 122.658 169.599Z" fill="#A8D5FF"/>
<path d="M125.75 167.799C125.873 167.799 125.997 167.737 126.059 167.613C126.121 167.426 126.121 167.24 125.935 167.178L117.96 162.522C116.723 161.777 115.672 160.039 115.672 158.549V156.625C115.672 154.949 114.559 152.962 113.076 152.093L111.406 151.1C111.221 151.038 111.035 151.038 110.974 151.224C110.912 151.41 110.912 151.596 111.097 151.658L112.767 152.652C114.003 153.397 115.054 155.135 115.054 156.625V158.549C115.054 160.225 116.167 162.212 117.651 163.081L125.626 167.737C125.626 167.737 125.688 167.799 125.75 167.799Z" fill="#A8D5FF"/>
<path d="M128.841 165.999C128.965 165.999 129.089 165.936 129.151 165.812C129.212 165.626 129.212 165.44 129.027 165.378L121.052 160.722C119.815 159.977 118.764 158.239 118.764 156.749V154.824C118.764 153.148 117.651 151.162 116.167 150.293L114.498 149.299C114.313 149.237 114.127 149.237 114.065 149.423C114.004 149.61 114.004 149.796 114.189 149.858L115.858 150.851C117.095 151.596 118.146 153.334 118.146 154.824V156.749C118.146 158.425 119.259 160.411 120.742 161.281L128.718 165.936C128.718 165.936 128.78 165.999 128.841 165.999Z" fill="#A8D5FF"/>
<path d="M131.994 164.198C132.117 164.198 132.241 164.136 132.303 164.012C132.365 163.826 132.365 163.64 132.179 163.577L124.204 158.922C122.967 158.177 121.916 156.438 121.916 154.948V153.024C121.916 151.348 120.804 149.361 119.32 148.492L117.651 147.499C117.465 147.437 117.28 147.437 117.218 147.623C117.156 147.809 117.156 147.996 117.341 148.058L119.011 149.051C120.247 149.796 121.298 151.534 121.298 153.024V154.948C121.298 156.625 122.411 158.611 123.895 159.48L131.87 164.136C131.87 164.136 131.932 164.198 131.994 164.198Z" fill="#A8D5FF"/>
<path d="M135.086 162.396C135.209 162.396 135.333 162.334 135.395 162.21C135.456 162.024 135.456 161.838 135.271 161.776L127.296 157.12C126.059 156.375 125.008 154.637 125.008 153.147V151.222C125.008 149.546 123.895 147.56 122.412 146.691L120.742 145.697C120.557 145.635 120.371 145.635 120.31 145.821C120.248 146.008 120.248 146.194 120.433 146.256L122.102 147.249C123.339 147.994 124.39 149.732 124.39 151.222V153.147C124.39 154.823 125.503 156.809 126.987 157.678L134.962 162.334C134.962 162.334 135.024 162.396 135.086 162.396Z" fill="#A8D5FF"/>
<path d="M138.177 160.596C138.301 160.596 138.425 160.534 138.486 160.409C138.548 160.223 138.548 160.037 138.363 159.975L130.387 155.319C129.151 154.574 128.1 152.836 128.1 151.346V149.422C128.1 147.745 126.987 145.759 125.503 144.89L123.834 143.897C123.649 143.834 123.463 143.834 123.401 144.021C123.339 144.207 123.34 144.393 123.525 144.455L125.194 145.448C126.431 146.193 127.482 147.932 127.482 149.422V151.346C127.482 153.022 128.595 155.009 130.078 155.878L138.054 160.534C138.116 160.534 138.116 160.596 138.177 160.596Z" fill="#A8D5FF"/>
<path d="M141.33 158.799C141.453 158.799 141.577 158.737 141.639 158.613C141.701 158.426 141.701 158.24 141.515 158.178L133.54 153.522C132.303 152.777 131.252 151.039 131.252 149.549V147.625C131.252 145.949 130.139 143.962 128.656 143.093L126.986 142.1C126.801 142.038 126.615 142.038 126.554 142.224C126.492 142.41 126.492 142.596 126.677 142.658L128.347 143.652C129.583 144.397 130.634 146.135 130.634 147.625V149.549C130.634 151.225 131.747 153.212 133.231 154.081L141.206 158.737C141.206 158.737 141.268 158.799 141.33 158.799Z" fill="#A8D5FF"/>
<path d="M144.421 156.935C144.545 156.935 144.669 156.873 144.731 156.749C144.792 156.563 144.792 156.376 144.607 156.314L136.632 151.658C135.395 150.913 134.344 149.175 134.344 147.685V145.761C134.344 144.085 133.231 142.098 131.747 141.229L130.078 140.236C129.893 140.174 129.707 140.174 129.645 140.36C129.584 140.546 129.584 140.732 129.769 140.795L131.438 141.788C132.675 142.533 133.726 144.271 133.726 145.761V147.685C133.726 149.361 134.839 151.348 136.322 152.217L144.298 156.873C144.298 156.935 144.36 156.935 144.421 156.935Z" fill="#A8D5FF"/>
<path d="M147.511 155.135C147.635 155.135 147.759 155.073 147.82 154.948C147.882 154.762 147.882 154.576 147.697 154.514L139.721 149.858C138.485 149.113 137.434 147.375 137.434 145.885V144.023C137.434 142.346 136.321 140.36 134.837 139.491L133.168 138.498C132.983 138.435 132.797 138.435 132.735 138.622C132.673 138.808 132.673 138.994 132.859 139.056L134.528 140.05C135.765 140.794 136.816 142.533 136.816 144.023V145.947C136.816 147.623 137.929 149.61 139.412 150.479L147.388 155.135C147.45 155.135 147.449 155.135 147.511 155.135Z" fill="#A8D5FF"/>
<path d="M150.666 153.334C150.789 153.334 150.913 153.272 150.975 153.148C151.037 152.962 151.037 152.776 150.851 152.714L142.876 148.058C141.639 147.313 140.588 145.575 140.588 144.085V142.16C140.588 140.484 139.475 138.498 137.992 137.629L136.322 136.635C136.137 136.573 135.951 136.573 135.89 136.759C135.828 136.946 135.828 137.132 136.013 137.194L137.683 138.187C138.919 138.932 139.97 140.67 139.97 142.16V144.085C139.97 145.761 141.083 147.747 142.567 148.616L150.48 153.334C150.542 153.334 150.604 153.334 150.666 153.334Z" fill="#A8D5FF"/>
<path d="M153.755 151.534C153.879 151.534 154.003 151.472 154.065 151.348C154.126 151.162 154.126 150.975 153.941 150.913L145.966 146.257C144.729 145.513 143.678 143.774 143.678 142.284V140.36C143.678 138.684 142.565 136.697 141.081 135.828L139.412 134.835C139.227 134.773 139.041 134.773 138.979 134.959C138.918 135.145 138.918 135.332 139.103 135.394L140.772 136.387C142.009 137.132 143.06 138.87 143.06 140.36V142.284C143.06 143.961 144.173 145.947 145.656 146.816L153.632 151.472C153.632 151.534 153.694 151.534 153.755 151.534Z" fill="#A8D5FF"/>
<path d="M156.847 149.732C156.971 149.732 157.095 149.67 157.156 149.546C157.218 149.36 157.218 149.174 157.033 149.112L149.057 144.456C147.821 143.711 146.77 141.973 146.77 140.483V138.558C146.77 136.882 145.657 134.896 144.173 134.026L142.504 133.033C142.319 132.971 142.133 132.971 142.071 133.157C142.009 133.344 142.009 133.53 142.195 133.592L143.864 134.585C145.101 135.33 146.152 137.068 146.152 138.558V140.483C146.152 142.159 147.264 144.145 148.748 145.014L156.724 149.67C156.785 149.732 156.847 149.732 156.847 149.732Z" fill="#A8D5FF"/>
<path d="M160.002 147.932C160.125 147.932 160.249 147.87 160.311 147.745C160.373 147.559 160.373 147.373 160.187 147.311L152.212 142.655C150.975 141.91 149.924 140.172 149.924 138.682V136.757C149.924 135.081 148.811 133.095 147.328 132.226L145.658 131.232C145.473 131.17 145.287 131.17 145.226 131.357C145.164 131.543 145.164 131.729 145.349 131.791L147.018 132.784C148.255 133.529 149.306 135.268 149.306 136.757V138.682C149.306 140.358 150.419 142.345 151.903 143.214L159.878 147.87C159.878 147.932 159.94 147.932 160.002 147.932Z" fill="#A8D5FF"/>
<path d="M163.091 146.135C163.215 146.135 163.339 146.073 163.401 145.949C163.462 145.762 163.462 145.576 163.277 145.514L155.302 140.858C154.065 140.113 153.014 138.375 153.014 136.885V134.961C153.014 133.284 151.901 131.298 150.417 130.429L148.748 129.436C148.563 129.373 148.377 129.373 148.315 129.56C148.254 129.746 148.254 129.932 148.439 129.994L150.108 130.988C151.345 131.732 152.396 133.471 152.396 134.961V136.885C152.396 138.561 153.509 140.548 154.992 141.417L162.968 146.073C162.968 146.135 163.03 146.135 163.091 146.135Z" fill="#A8D5FF"/>
<path d="M166.246 144.333C166.369 144.333 166.493 144.271 166.555 144.147C166.617 143.961 166.617 143.774 166.431 143.712L158.456 139.056C157.219 138.311 156.168 136.573 156.168 135.083V133.159C156.168 131.483 155.055 129.496 153.572 128.627L151.902 127.634C151.717 127.572 151.532 127.572 151.47 127.758C151.408 127.944 151.408 128.13 151.593 128.193L153.263 129.186C154.499 129.931 155.55 131.669 155.55 133.159V135.083C155.55 136.759 156.663 138.746 158.147 139.615L166.122 144.271C166.122 144.333 166.184 144.333 166.246 144.333Z" fill="#A8D5FF"/>
<path d="M169.336 142.533C169.459 142.533 169.583 142.471 169.645 142.346C169.706 142.16 169.706 141.974 169.521 141.912L161.546 137.256C160.309 136.511 159.258 134.773 159.258 133.283V131.359C159.258 129.682 158.145 127.696 156.662 126.827L154.992 125.834C154.807 125.771 154.621 125.771 154.56 125.958C154.498 126.144 154.498 126.33 154.683 126.392L156.352 127.385C157.589 128.13 158.64 129.869 158.64 131.359V133.283C158.64 134.959 159.753 136.946 161.237 137.815L169.212 142.471C169.212 142.533 169.274 142.533 169.336 142.533Z" fill="#A8D5FF"/>
<path d="M172.427 140.732C172.551 140.732 172.675 140.67 172.736 140.546C172.798 140.36 172.798 140.174 172.613 140.112L164.637 135.456C163.401 134.711 162.35 132.973 162.35 131.483V129.558C162.35 127.882 161.237 125.896 159.753 125.026L158.084 124.033C157.899 123.971 157.713 123.971 157.651 124.157C157.59 124.344 157.59 124.53 157.775 124.592L159.444 125.585C160.681 126.33 161.732 128.068 161.732 129.558V131.483C161.732 133.159 162.845 135.145 164.328 136.014L172.304 140.67C172.304 140.732 172.366 140.732 172.427 140.732Z" fill="#A8D5FF"/>
<g opacity="0.3">
<path opacity="0.8" d="M39.8153 25.0798C39.2589 28.2458 36.9714 36.0677 27.3886 41.5306C13.7872 47.8627 4.38995 56.1191 1.23692 65.3689C0.989616 65.9897 0.680504 66.7967 0.433205 67.3554C0.124084 66.7967 0.124081 66.7967 0.0622559 65.4309V49.9113C0.0622559 40.7857 0.556847 38.7992 1.23692 36.2539C4.38995 27.0042 13.7872 18.6856 27.3886 12.4157C38.2078 8.8772 40.8663 19.0581 39.8153 25.0798Z" fill="#8C8FFB"/>
<path opacity="0.8" d="M139.539 6.3939C125.133 2.23462 108.07 -0.124374 89.8936 -0.000216181C87.4824 -0.000216181 85.1331 0.0618626 82.7838 0.18602C66.8331 1.67591 61.1453 18.5613 70.7899 26.0108C75.1794 29.4251 80.5581 29.363 82.7838 29.363C85.1331 29.2389 87.4824 29.1768 89.8936 29.1768C108.07 29.0526 125.133 31.4116 139.539 35.5709C154.067 39.1094 154.933 24.2726 149.863 15.2091C148.132 12.1672 144.979 8.1321 139.539 6.3939Z" fill="#8C8FFB"/>
<path opacity="0.3" d="M183 72.3234C182.629 67.7296 182.32 64.0669 177.621 57.6728C167.729 43.0222 169.77 26.0126 175.21 26.8196C176.076 26.9438 177.003 27.875 177.621 28.4958C180.96 32.8413 182.815 37.4972 183 42.3393C183 42.5877 183 42.836 183 43.0843V72.3234Z" fill="#868CE9"/>
</g>
<path d="M64.2698 69.1564L67.4219 70.4375L56.5659 97.3695L53.4138 96.0884L64.2698 69.1564Z" fill="#DBD9FA"/>
<path d="M124.078 67.1263C118.273 67.1263 113.568 62.4014 113.568 56.5729C113.568 50.7444 118.273 46.0195 124.078 46.0195C129.882 46.0195 134.588 50.7444 134.588 56.5729C134.588 62.4014 129.882 67.1263 124.078 67.1263Z" fill="url(#paint6_linear)"/>
<path d="M69.6102 72.2178C69.6102 92.7658 81.7896 109.403 96.8129 109.403C111.836 109.403 124.016 92.7658 124.016 72.2178C124.016 51.6697 111.836 45.5239 96.8129 45.5239C81.7896 45.5239 69.6102 51.6697 69.6102 72.2178Z" fill="url(#paint7_radial)"/>
<path d="M69.6102 72.2178C69.6102 92.7658 81.7896 109.403 96.8129 109.403C111.836 109.403 124.016 92.7658 124.016 72.2178C124.016 51.6697 111.836 45.5239 96.8129 45.5239C81.7896 45.5239 69.6102 51.6697 69.6102 72.2178Z" fill="url(#paint8_linear)"/>
<path d="M96.8121 67.3152C86.5687 67.3152 78.2648 62.5069 78.2648 56.5756C78.2648 50.6442 86.5687 45.8359 96.8121 45.8359C107.055 45.8359 115.359 50.6442 115.359 56.5756C115.359 62.5069 107.055 67.3152 96.8121 67.3152Z" fill="#5172A7"/>
<path d="M109.981 51.8576C102.747 47.6362 90.9387 47.6362 83.7052 51.8576C80.7377 53.5958 78.9448 55.7685 78.4502 58.0654C77.7083 54.8374 79.4393 51.4851 83.7052 49.002C90.9387 44.7806 102.747 44.7806 109.981 49.002C114.246 51.4851 115.978 54.8374 115.236 58.0654C114.741 55.7685 112.948 53.5958 109.981 51.8576Z" fill="#C0BBF0"/>
<path d="M118.267 30.9974L114.928 25.162C112.95 23.1134 111.342 20.382 110.6 17.6505L107.2 11.753L112.084 8.95948C112.27 8.83532 112.393 8.77324 112.579 8.64908C114.001 7.96622 115.794 8.15245 117.834 9.33195C122.162 11.8151 125.686 17.9609 125.686 22.9272C125.686 25.4103 124.82 27.2106 123.398 28.0176L118.267 30.9974Z" fill="#5172A7"/>
<path d="M107.279 24.5176C104.223 19.2029 104.215 13.4632 107.261 11.6975C110.306 9.9318 115.253 12.8088 118.309 18.1235C121.364 23.4382 121.373 29.178 118.327 30.9436C115.282 32.7093 110.335 29.8323 107.279 24.5176Z" fill="#BCBEFF"/>
<path d="M95.7624 58.7467C80.4314 58.7467 68.0033 46.2674 68.0033 30.8734C68.0033 15.4793 80.4314 3 95.7624 3C111.093 3 123.521 15.4793 123.521 30.8734C123.521 46.2674 111.093 58.7467 95.7624 58.7467Z" fill="url(#paint9_radial)"/>
<path d="M95.7624 58.7467C80.4314 58.7467 68.0033 46.2674 68.0033 30.8734C68.0033 15.4793 80.4314 3 95.7624 3C111.093 3 123.521 15.4793 123.521 30.8734C123.521 46.2674 111.093 58.7467 95.7624 58.7467Z" fill="url(#paint10_linear)"/>
<path d="M80.2451 49.7435L76.9066 43.9081C74.9282 41.8595 73.3208 39.1281 72.5789 36.3966L69.1786 30.4991L74.0627 27.7056C74.2482 27.5814 74.3718 27.5193 74.5573 27.3952C75.9793 26.7123 77.7722 26.8985 79.8124 28.078C84.1401 30.5612 87.6641 36.707 87.6641 41.6733C87.6641 44.1564 86.7985 45.9567 85.3766 46.7638L80.2451 49.7435Z" fill="url(#paint11_radial)"/>
<path d="M69.2324 43.2832C66.1765 37.9686 66.1681 32.2288 69.2138 30.4631C72.2594 28.6974 77.2057 31.5745 80.2616 36.8891C83.3176 42.2038 83.3259 47.9436 80.2803 49.7093C77.2347 51.4749 72.2884 48.5979 69.2324 43.2832Z" fill="#FAF6FD"/>
<path d="M82.2228 44.6567C82.2228 39.6283 78.6988 33.5446 74.3711 31.0614C72.8873 30.1923 71.4654 29.8819 70.2907 30.0061C71.5272 29.6957 73.0728 30.0061 74.7421 30.9993C79.0698 33.4825 82.5938 39.6283 82.5938 44.5946C82.5938 47.8847 81.11 49.8713 78.8225 50.1817C80.8627 49.7471 82.2228 47.7606 82.2228 44.6567Z" fill="white"/>
<path d="M70.7873 42.3844C68.6021 38.584 68.6044 34.4747 70.7925 33.2062C72.9806 31.9376 76.526 33.9901 78.7112 37.7906C80.8965 41.591 80.8941 45.7002 78.706 46.9688C76.5179 48.2373 72.9726 46.1848 70.7873 42.3844Z" fill="#5172A7"/>
<path d="M71.5279 32.9219C70.9715 33.6047 70.6005 34.6601 70.6005 35.9637C70.6005 39.5643 73.1353 43.9098 76.2265 45.7101C77.4012 46.393 78.514 46.5792 79.4414 46.393C78.4522 47.5725 76.7211 47.7587 74.7428 46.6413C71.6515 44.841 69.1167 40.4955 69.1167 36.8949C69.1167 34.6601 70.0441 33.2323 71.5279 32.9219Z" fill="#C4BFE2"/>
<path d="M107.648 49.2984C104.054 47.7964 103.237 41.5239 105.822 35.2884C108.407 29.053 113.415 25.2158 117.009 26.7178C120.602 28.2199 121.42 34.4923 118.835 40.7278C116.25 46.9632 111.241 50.8004 107.648 49.2984Z" fill="#5172A7"/>
<path d="M108.003 39.3141C108.251 41.3006 109.734 41.9214 111.342 40.7419C112.949 39.5003 114 36.893 113.753 34.9065C113.506 32.9199 112.022 32.2992 110.415 33.4787C108.869 34.7202 107.756 37.3275 108.003 39.3141Z" fill="#A783DB"/>
<path d="M111.526 47.1366C115.915 43.7844 118.883 36.6453 118.141 31.1203C117.832 28.8855 116.966 27.2714 115.791 26.4023C118.079 26.5886 119.81 28.5751 120.243 31.9274C120.923 37.3903 117.955 44.5914 113.628 47.9437C111.031 49.9302 108.558 50.1164 106.765 48.8128C108.187 48.9369 109.856 48.4403 111.526 47.1366Z" fill="#C4BFE2"/>
<path d="M113.257 47.7591C117.646 44.4069 120.614 37.2678 119.872 31.7428C119.563 29.1976 118.512 27.4594 117.028 26.6523C118.697 27.3352 119.934 29.1355 120.243 31.867C120.923 37.3299 117.955 44.531 113.628 47.8833C111.278 49.6836 108.991 49.9939 107.322 49.1248C108.929 49.8077 111.031 49.4352 113.257 47.7591Z" fill="#A8D5FF"/>
<path d="M65.9 80.349C60.0954 80.349 55.3899 75.624 55.3899 69.7956C55.3899 63.9671 60.0954 59.2422 65.9 59.2422C71.7046 59.2422 76.4102 63.9671 76.4102 69.7956C76.4102 75.624 71.7046 80.349 65.9 80.349Z" fill="url(#paint12_radial)"/>
<path d="M65.9 80.349C60.0954 80.349 55.3899 75.624 55.3899 69.7956C55.3899 63.9671 60.0954 59.2422 65.9 59.2422C71.7046 59.2422 76.4102 63.9671 76.4102 69.7956C76.4102 75.624 71.7046 80.349 65.9 80.349Z" fill="url(#paint13_radial)"/>
<path d="M49.0862 104.87C49.7044 109.898 54.0939 119.396 58.1125 118.961C62.1311 118.465 64.1713 108.16 63.6149 103.131C62.9966 98.1029 59.2872 94.4403 55.2686 94.8748C51.25 95.3715 48.4679 99.8411 49.0862 104.87Z" fill="url(#paint14_radial)"/>
<path d="M49.0862 104.87C49.7044 109.898 54.0939 119.396 58.1125 118.961C62.1311 118.465 64.1713 108.16 63.6149 103.131C62.9966 98.1029 59.2872 94.4403 55.2686 94.8748C51.25 95.3715 48.4679 99.8411 49.0862 104.87Z" fill="url(#paint15_radial)"/>
<path d="M151.961 72.4662C152.579 72.4662 153.135 72.1558 153.444 71.535C153.877 70.728 153.568 69.6727 152.703 69.2381L130.94 57.8156C130.137 57.3811 129.086 57.6915 128.653 58.5606C128.22 59.3676 128.529 60.4229 129.395 60.8575L151.157 72.28C151.404 72.4041 151.652 72.4662 151.961 72.4662Z" fill="#DDDBFB"/>
<path d="M151.529 78.8602C155.98 81.2813 166.243 83.2057 168.16 79.6672C170.076 76.1287 162.966 68.431 158.515 66.0099C154.064 63.5888 148.932 64.4579 147.016 68.0585C145.099 71.5349 147.139 76.3771 151.529 78.8602Z" fill="url(#paint16_radial)"/>
<path d="M151.529 78.8602C155.98 81.2813 166.243 83.2057 168.16 79.6672C170.076 76.1287 162.966 68.431 158.515 66.0099C154.064 63.5888 148.932 64.4579 147.016 68.0585C145.099 71.5349 147.139 76.3771 151.529 78.8602Z" fill="url(#paint17_radial)"/>
<g opacity="0.5">
<g opacity="0.5">
<path opacity="0.8" d="M172.366 80.8264C173.046 86.1652 175.767 89.3312 178.672 85.3582C182.382 80.2677 182.753 75.2393 183 72.2595V43.0825C183 47.6143 181.516 52.0219 178.672 56.1811C172.552 66.4241 171.81 76.4809 172.366 80.8264Z" fill="#585DFF"/>
<path opacity="0.8" d="M86.1833 86.167C88.4708 86.2291 90.7583 86.2291 93.1077 86.2291C111.346 86.1049 128.286 83.4355 142.382 78.9659C156.478 75.1791 157.343 90.0159 152.397 99.1415C148.873 105.66 144.175 107.46 142.382 108.143C128.286 112.613 111.346 115.282 93.1077 115.406C90.7583 115.406 88.4708 115.406 86.1833 115.344C69.6144 114.102 65.2867 98.1482 73.0148 90.6988C75.1786 88.5881 79.1972 86.1049 86.1833 86.167Z" fill="#5459FE"/>
<path opacity="0.5" d="M0.0617218 62.949C0.123547 75.551 0.865433 77.8479 1.7928 80.7656C5.68773 89.9532 15.7651 98.0856 29.7992 104.169C42.1023 107.832 45.5645 94.9816 40.4949 85.4215C37.0945 78.9032 31.7776 76.1097 29.7992 75.0543C15.7033 68.9706 5.62591 60.8383 1.7928 51.6506C1.48368 51.0299 1.11274 50.2228 0.741795 49.6641C0.618145 49.6641 0.494499 49.6641 0.432674 49.6021C0.185375 50.2849 0.123547 50.5332 0.0617218 54.0096V62.949Z" fill="#868CE9"/>
</g>
</g>
</g>
<defs>
<linearGradient id="paint0_linear" x1="189.551" y1="144.971" x2="31.9057" y2="144.971" gradientUnits="userSpaceOnUse">
<stop stop-color="#9B69DC"/>
<stop offset="0.1645" stop-color="#865EDA"/>
<stop offset="0.4051" stop-color="#A372E2"/>
<stop offset="0.6924" stop-color="#C5AEE3"/>
<stop offset="1" stop-color="#D1BCFF"/>
</linearGradient>
<linearGradient id="paint1_linear" x1="144.936" y1="123.583" x2="50.3132" y2="123.583" gradientUnits="userSpaceOnUse">
<stop stop-color="#9BC9FF"/>
<stop offset="0.9274" stop-color="#5472D8"/>
<stop offset="1" stop-color="#5761D7"/>
</linearGradient>
<linearGradient id="paint2_linear" x1="97.626" y1="106.411" x2="50.3139" y2="106.411" gradientUnits="userSpaceOnUse">
<stop stop-color="#42E8E0"/>
<stop offset="0.1507" stop-color="#43E3E0"/>
<stop offset="0.3285" stop-color="#45D5DF"/>
<stop offset="0.5199" stop-color="#49BDDD"/>
<stop offset="0.7209" stop-color="#4E9CDB"/>
<stop offset="0.9274" stop-color="#5472D8"/>
<stop offset="1" stop-color="#5761D7"/>
</linearGradient>
<linearGradient id="paint3_linear" x1="144.936" y1="106.41" x2="97.6239" y2="106.41" gradientUnits="userSpaceOnUse">
<stop stop-color="#A380BE"/>
<stop offset="0.9274" stop-color="#5472D8"/>
<stop offset="1" stop-color="#5761D7"/>
</linearGradient>
<linearGradient id="paint4_linear" x1="144.936" y1="116.666" x2="50.3132" y2="116.666" gradientUnits="userSpaceOnUse">
<stop stop-color="#EBDAF9"/>
<stop offset="1" stop-color="#B871EC"/>
</linearGradient>
<linearGradient id="paint5_linear" x1="97.6226" y1="133.837" x2="50.3119" y2="133.837" gradientUnits="userSpaceOnUse">
<stop stop-color="#CBAEE1"/>
<stop offset="1" stop-color="#8189E3"/>
</linearGradient>
<linearGradient id="paint6_linear" x1="124.078" y1="46.0195" x2="134.999" y2="62.5" gradientUnits="userSpaceOnUse">
<stop stop-color="#D7D4FA"/>
<stop offset="1" stop-color="#FBFBFB"/>
</linearGradient>
<radialGradient id="paint7_radial" cx="0" cy="0" r="1" gradientUnits="userSpaceOnUse" gradientTransform="translate(80.779 66.6631) rotate(180) scale(46.7683 63.926)">
<stop stop-color="#C0BFF6"/>
<stop offset="1" stop-color="#393091"/>
</radialGradient>
<linearGradient id="paint8_linear" x1="92.999" y1="120.5" x2="83.999" y2="30.0005" gradientUnits="userSpaceOnUse">
<stop stop-color="#E7E2F6"/>
<stop offset="0.421471" stop-color="#F6F6FF"/>
<stop offset="1" stop-color="#C5C1F7"/>
</linearGradient>
<radialGradient id="paint9_radial" cx="0" cy="0" r="1" gradientUnits="userSpaceOnUse" gradientTransform="translate(78.4355 26.7539) rotate(180) scale(46.9117 47.1047)">
<stop stop-color="#C0BFF6"/>
<stop offset="1" stop-color="#393091"/>
</radialGradient>
<linearGradient id="paint10_linear" x1="152.499" y1="14" x2="60.499" y2="61.5" gradientUnits="userSpaceOnUse">
<stop stop-color="#E4E2EF"/>
<stop offset="0.589166" stop-color="#FDFCFE"/>
<stop offset="1" stop-color="#A29ED4"/>
</linearGradient>
<radialGradient id="paint11_radial" cx="0" cy="0" r="1" gradientUnits="userSpaceOnUse" gradientTransform="translate(78.8117 26.251) rotate(180) scale(22.2787 22.3703)">
<stop stop-color="white"/>
<stop offset="1" stop-color="#AAA4E2"/>
</radialGradient>
<radialGradient id="paint12_radial" cx="0" cy="0" r="1" gradientUnits="userSpaceOnUse" gradientTransform="translate(59.6254 62.8682) rotate(168.758) scale(21.9934 22.0771)">
<stop stop-color="#C0BFF6"/>
<stop offset="1" stop-color="#393091"/>
</radialGradient>
<radialGradient id="paint13_radial" cx="0" cy="0" r="1" gradientUnits="userSpaceOnUse" gradientTransform="translate(67.4094 71.5473) rotate(105.069) scale(12.7433 10.9016)">
<stop stop-color="#FBF7FE"/>
<stop offset="1" stop-color="#EDEAFF"/>
</radialGradient>
<radialGradient id="paint14_radial" cx="0" cy="0" r="1" gradientUnits="userSpaceOnUse" gradientTransform="translate(46.3257 96.4804) rotate(173.169) scale(18.6951 30.9194)">
<stop stop-color="#C0BFF6"/>
<stop offset="1" stop-color="#393091"/>
</radialGradient>
<radialGradient id="paint15_radial" cx="0" cy="0" r="1" gradientUnits="userSpaceOnUse" gradientTransform="translate(66.7007 137.315) rotate(-135.13) scale(32.2655 32.8352)">
<stop stop-color="#FAFAFC"/>
<stop offset="1" stop-color="#D9D6FA"/>
</radialGradient>
<radialGradient id="paint16_radial" cx="0" cy="0" r="1" gradientUnits="userSpaceOnUse" gradientTransform="translate(138.541 66.269) rotate(118.63) scale(18.7534 30.8241)">
<stop stop-color="#C0BFF6"/>
<stop offset="1" stop-color="#393091"/>
</radialGradient>
<radialGradient id="paint17_radial" cx="0" cy="0" r="1" gradientUnits="userSpaceOnUse" gradientTransform="translate(130.5 67.5) rotate(21.1398) scale(40.2057 31.2333)">
<stop stop-color="#D3D1F6"/>
<stop offset="1" stop-color="#FBFBFD"/>
</radialGradient>
<clipPath id="clip0">
<rect width="183" height="175" fill="white" transform="matrix(-1 0 0 1 183 0)"/>
</clipPath>
</defs>
</svg>
