<svg width="123" height="56" viewBox="0 0 123 56" fill="none" xmlns="http://www.w3.org/2000/svg">
<rect width="123" height="56" fill="#FDFDFD"/>
<g clip-path="url(#clip0_3882_2415)">
<path d="M114.992 40.3457H41.7383V52.9828H114.992V40.3457Z" fill="#0070BA"/>
<path d="M37.1659 9.57369C36.0508 4.65328 33.25 0.654906 32.8768 0C31.1648 2.58924 29.8235 5.40733 28.8923 8.3716C27.7545 12.2845 27.416 16.388 27.8972 20.4357C28.2616 23.0936 28.9443 25.6976 29.9302 28.1911C30.7116 30.0711 31.6999 31.8574 32.8768 33.5165C34.0949 31.9224 36.9043 27.1743 37.775 20.9656C38.2682 17.5144 38.2897 14.4941 37.1659 9.57369ZM32.8768 32.3144C31.9135 30.4333 31.405 28.3505 31.3928 26.235C31.3912 24.1309 31.9069 22.0589 32.894 20.203C33.7877 21.9928 34.2796 23.9577 34.3351 25.9593C34.3949 28.1678 33.893 30.3551 32.8768 32.3144ZM36.8443 17.9237C36.828 19.6175 36.6484 21.3058 36.3081 22.9648C36.3802 20.5608 36.1758 18.1565 35.6991 15.7996C35.2316 13.5548 33.9105 9.79774 32.8554 8.04414C31.8775 9.69433 30.6808 12.943 30.0503 15.7608C29.5923 18.1485 29.3739 20.5764 29.3984 23.0079C29.0134 20.688 28.8569 18.3356 28.9309 15.9849C29.0485 13.831 29.3892 11.6954 29.9474 9.61247C30.6524 7.1854 31.6234 4.84444 32.8425 2.63255C34.0947 4.80431 35.0839 7.11864 35.7891 9.5263C36.5284 12.2624 36.8836 15.0889 36.8443 17.9237Z" fill="#0070BA"/>
<path d="M34.7599 34.6626H26.2546V40.3973V40.3715C26.716 39.8302 27.2838 39.3906 27.9223 39.0803C28.5609 38.77 29.2564 38.5956 29.9652 38.5681C30.6741 38.5406 31.3809 38.6605 32.0414 38.9205C32.7019 39.1804 33.3017 39.5747 33.8033 40.0786C34.3049 40.5824 34.6974 41.185 34.9561 41.8485C35.2149 42.512 35.3343 43.222 35.307 43.9341C35.2796 44.6461 35.106 45.3448 34.797 45.9863C34.4881 46.6277 34.0505 47.1981 33.5117 47.6616L33.486 47.6874L33.456 47.7176C32.2602 48.9103 30.7901 49.7885 29.1759 50.2744C27.5617 50.7603 25.8531 50.839 24.2014 50.5034C22.5497 50.1679 21.0059 49.4285 19.7065 48.3506C18.4071 47.2728 17.3922 45.8898 16.7517 44.3241C16.1113 42.7583 15.8649 41.0581 16.0345 39.3739C16.2041 37.6897 16.7844 36.0735 17.724 34.6683C18.6636 33.2631 19.9336 32.1123 21.4215 31.3177C22.9095 30.5231 24.5695 30.1092 26.2546 30.1127V16.3252C23.2267 16.3241 20.2462 17.0795 17.5813 18.5236C14.9164 19.9676 12.651 22.0549 10.9891 24.5974C9.3271 27.1398 8.32081 30.0577 8.06083 33.088C7.80084 36.1184 8.29533 39.1662 9.49975 41.9568C10.7042 44.7474 12.5807 47.1933 14.9603 49.074C17.3399 50.9548 20.1479 52.2114 23.1313 52.7307C26.1147 53.25 29.1798 53.0157 32.0506 52.0488C34.9214 51.0819 37.5077 49.4128 39.5765 47.192V34.6626H34.7599Z" fill="#0070BA"/>
<path d="M41.7383 16.3296H48.6995V18.6045H45.3883V34.6583H41.7383V16.3296Z" fill="#0070BA"/>
<path d="M52.6369 27.7732L53.2631 18.6045H53.4647L54.0909 27.7732H52.6369ZM48.6008 34.667H52.1779L52.5168 29.7939H54.2324L54.5712 34.667H58.1441L56.2354 16.3296H50.5009L48.6008 34.667Z" fill="#0070BA"/>
<path d="M62.9349 28.2429V31.6898C62.9296 31.7679 62.9404 31.8462 62.9668 31.9198C62.9932 31.9934 63.0345 32.0607 63.0881 32.1174C63.1418 32.1741 63.2065 32.219 63.2784 32.2493C63.3502 32.2795 63.4275 32.2944 63.5054 32.293C63.5827 32.2919 63.6591 32.2754 63.73 32.2443C63.8009 32.2133 63.865 32.1684 63.9184 32.1123C63.9719 32.0561 64.0138 31.9899 64.0415 31.9174C64.0693 31.8448 64.0824 31.7675 64.0801 31.6898V27.4329C64.0801 26.8556 63.9772 26.2265 62.6218 26.2265H61.1378V24.2101H62.6733C63.7155 24.2101 64.0801 23.9774 64.0801 22.8486V19.2078C64.0824 19.1301 64.0693 19.0528 64.0415 18.9803C64.0138 18.9077 63.9719 18.8415 63.9184 18.7853C63.865 18.7292 63.8009 18.6843 63.73 18.6533C63.6591 18.6223 63.5827 18.6057 63.5054 18.6046C63.4275 18.6032 63.3502 18.6181 63.2784 18.6484C63.2065 18.6786 63.1418 18.7235 63.0881 18.7802C63.0345 18.8369 62.9932 18.9042 62.9668 18.9778C62.9404 19.0515 62.9296 19.1298 62.9349 19.2078V22.1937H59.2849V19.6085C59.2849 18.3159 59.4436 16.334 61.9956 16.334H64.998C67.5714 16.334 67.7087 18.3246 67.7087 19.6085V22.5427C67.7087 24.5289 66.3276 25.0804 65.2339 25.0287V25.2097C67.683 25.158 67.7087 27.0451 67.7087 27.6957V31.3882C67.7087 32.6808 67.5543 34.6627 64.998 34.6627H61.9956C59.4222 34.6627 59.2849 32.6722 59.2849 31.3882V28.2429H62.9349Z" fill="#0070BA"/>
<path d="M69.6475 16.3296H78.097V34.6583H74.447V18.6045H73.2975V34.6583H69.6475V16.3296Z" fill="#0070BA"/>
<path d="M83.8742 26.4117V18.6045H84.346C84.7364 18.6045 85.0237 18.9449 85.0237 19.5179V25.494C85.0237 26.0713 84.7364 26.4117 84.346 26.4117H83.8742ZM80.2285 34.6583H83.8742V28.4367H85.9587C88.5322 28.4367 88.6694 26.4462 88.6694 25.1622V19.6041C88.6694 18.3115 88.515 16.3296 85.9587 16.3296H80.2285V34.6583Z" fill="#0070BA"/>
<path d="M95.2405 31.694C95.2422 31.7716 95.2287 31.8487 95.2007 31.9209C95.1728 31.9932 95.1309 32.0592 95.0776 32.1152C95.0242 32.1713 94.9603 32.2162 94.8897 32.2474C94.819 32.2786 94.7429 32.2956 94.6658 32.2972C94.5879 32.2986 94.5106 32.2837 94.4388 32.2535C94.3669 32.2233 94.3022 32.1784 94.2485 32.1216C94.1949 32.0649 94.1536 31.9976 94.1272 31.924C94.1008 31.8504 94.09 31.7721 94.0953 31.694V19.1991C94.09 19.1211 94.1008 19.0427 94.1272 18.9691C94.1536 18.8955 94.1949 18.8282 94.2485 18.7715C94.3022 18.7148 94.3669 18.6699 94.4388 18.6397C94.5106 18.6094 94.5879 18.5945 94.6658 18.5959C94.7429 18.5976 94.819 18.6145 94.8897 18.6458C94.9603 18.677 95.0242 18.7219 95.0776 18.7779C95.1309 18.8339 95.1728 18.8999 95.2007 18.9722C95.2287 19.0445 95.2422 19.1216 95.2405 19.1991V31.694ZM90.4453 31.3838C90.4453 32.6764 90.5997 34.6583 93.156 34.6583H96.1798C98.7318 34.6583 98.8905 32.6678 98.8905 31.3838V19.6041C98.8905 18.3115 98.7318 16.3296 96.1798 16.3296H93.156C90.5826 16.3296 90.4453 18.3202 90.4453 19.6041V31.3838Z" fill="#0070BA"/>
<path d="M110.256 16.3296H115V34.6583H111.367V23.163H111.238L109.36 34.6583H106.439L104.547 23.163H104.415V34.6583H100.769V16.3296H105.513L107.884 29.2123L110.256 16.3296Z" fill="#0070BA"/>
<path d="M53.3617 48.98H54.5497V42.8359H56.3683V48.98H56.7586V51.996H54.9786V50.4104H51.5474V42.8359H53.3659L53.3617 48.98Z" fill="#FDFDFD"/>
<path d="M80.8203 42.8359V50.4104H79.0018V44.2707H77.8137V50.4104H75.9951V42.8359H80.8203Z" fill="#FDFDFD"/>
<path d="M105.157 47.4206V48.1272C105.157 49.8506 104.38 50.596 102.699 50.596C101.018 50.596 100.237 49.8592 100.237 48.1143V44.8096C100.237 43.6161 100.975 42.6553 102.699 42.6553C104.423 42.6553 105.157 43.6247 105.157 44.8096V45.3266H103.338V44.6415C103.334 44.5589 103.313 44.4779 103.278 44.4033C103.242 44.3286 103.192 44.2618 103.131 44.2065C103.069 44.1513 102.998 44.1088 102.92 44.0814C102.842 44.054 102.76 44.0423 102.678 44.047C102.599 44.0392 102.52 44.0478 102.446 44.0724C102.371 44.0969 102.302 44.1368 102.244 44.1895C102.185 44.2421 102.138 44.3065 102.106 44.3784C102.074 44.4503 102.056 44.5281 102.056 44.6071V48.3857C102.056 48.9587 102.3 49.1914 102.678 49.1914C103.055 49.1914 103.338 48.9803 103.338 48.4072V47.4077L105.157 47.4206Z" fill="#FDFDFD"/>
</g>
<defs>
<clipPath id="clip0_3882_2415">
<rect width="107" height="53" fill="white" transform="translate(8)"/>
</clipPath>
</defs>
</svg>
