<svg width="65" height="64" viewBox="0 0 65 64" fill="none" xmlns="http://www.w3.org/2000/svg">
<circle cx="37" cy="28" r="28" fill="#DAF3F7"/>
<path d="M5.13611 36.2276C6.94851 36.0629 10.513 35.9689 14.5904 38.0005M37.6358 56.3185C37.6358 56.3185 32.3176 55.7276 26.4085 50.4095C24.6154 48.7957 23.2788 47.217 21.0904 44.5005" stroke="#006CBD" stroke-linecap="round"/>
<path d="M42.3637 49.8187C41.1819 49.2278 37.4 48.8733 36.4546 47.4551" stroke="#006CBD"/>
<path d="M47.6817 45.0912C46.4999 44.5003 42.718 44.1457 41.7726 42.7275" stroke="#006CBD"/>
<path d="M11.6365 42.7276C12.7451 41.9107 14.3793 40.831 16.3637 39.6914" stroke="#006CBD"/>
<path d="M23.4546 55.7277C23.7875 55.3949 25.8712 51.6866 29.9546 47.4551" stroke="#006CBD"/>
<path d="M52.4093 42.1367C50.6363 43.3186 44.1363 46.2731 42.3636 51.0004C41.3661 53.6602 37.0454 56.9095 34.0909 59.2731C31.9242 59.2731 27.709 57.5004 23.4545 55.1367C18.1363 52.1822 18.136 47.4549 12.2272 42.7276C7.7823 39.1715 2.96994 38.3943 1.00024 38.5913C1.59115 38.1973 4.19115 36.7004 9.86388 33.864C10.4192 33.5864 11.013 33.3215 11.6363 33.0693M52.4093 42.1367V45.6822M52.4093 42.1367C50.4608 41.3017 46.8986 40.3494 44.1363 39.1822" stroke="#003E7C"/>
<path d="M52.4094 45.6817C49.4548 48.0454 47.0909 48.6363 43.5454 55.1363C41.1818 59.4696 37.6366 61.0454 34.6821 63.409C32.5154 63.409 27.2944 61.8775 22.8636 59.8635C16.3635 56.909 15.7727 53.3635 11.0455 48.0454C7.26364 43.7908 2.96985 42.5302 1.00015 42.7272C1.59106 42.3333 1.00029 40.9545 1 38.5908" stroke="#003E7C" stroke-linecap="round"/>
<path d="M34.0903 59.2725V62.8179" stroke="#003E7C" stroke-linecap="round"/>
<path d="M5.13647 21.455C7.30314 21.258 12.8183 21.6913 17.5456 25.0004C21.0907 27.4821 23.8478 33.3319 26.4089 35.6368C32.318 40.955 37.6362 41.5459 37.6362 41.5459" stroke="#006CBD" stroke-linecap="round"/>
<path d="M12.8184 17.9091C14.985 17.7121 18.1365 18.1454 22.8638 21.4545C28.7729 25.5908 29.757 28.0132 32.3181 30.3181C38.2272 35.6363 42.3635 35.6363 42.3635 35.6363" stroke="#006CBD" stroke-linecap="round"/>
<path d="M21.0907 15.5462C23.2574 15.3493 28.5906 18.0644 31.1359 20.8642C37.045 27.3642 39.4086 30.9097 46.4995 30.9097" stroke="#006CBD" stroke-linecap="round"/>
<path d="M11.6365 27.9545C15.3789 25.197 25.1092 19.4455 34.091 18.5" stroke="#006CBD"/>
<path d="M23.4546 40.9548C24.0455 40.3639 30.5455 29.1366 42.9546 23.2275" stroke="#006CBD"/>
<path d="M52.4093 27.3643C50.6363 28.5461 44.1363 31.5006 42.3636 36.2279C41.3661 38.8878 37.0454 42.137 34.0909 44.5006C31.9242 44.5006 27.709 42.7279 23.4545 40.3643C18.1363 37.4097 18.136 32.6824 12.2272 27.9552C7.7823 24.3991 2.96994 23.6218 1.00024 23.8188C1.59115 23.4249 4.19115 21.9279 9.86388 19.0915C15.5366 16.2552 25.2275 14.7582 29.3639 14.3643C32.9093 18.5006 38.8184 21.4552 41.1821 22.637C43.073 23.5824 49.6518 26.1824 52.4093 27.3643ZM52.4093 27.3643V30.9097" stroke="#003E7C"/>
<path d="M52.4094 30.9102C49.4548 33.2739 47.0909 33.8648 43.5454 40.3648C41.1818 44.6981 37.6366 46.2739 34.6821 48.6375C32.5154 48.6375 27.2944 47.106 22.8636 45.0921C16.3635 42.1375 15.7727 38.5921 11.0455 33.2739C7.26364 29.0193 2.96985 27.7587 1.00015 27.9557C1.59106 27.5618 1.00029 26.183 1 23.8193" stroke="#003E7C" stroke-linecap="round"/>
<path d="M34.0903 44.5V48.0455" stroke="#003E7C" stroke-linecap="round"/>
<path d="M27 23.2285V29.1376" stroke="#003E7C" stroke-linecap="round"/>
<path d="M35.2722 30.3193V36.2284" stroke="#003E7C" stroke-linecap="round"/>
<path d="M43.5458 20.8643V26.7733" stroke="#003E7C" stroke-linecap="round"/>
<path d="M28.8634 29.7278C28.8634 30.0247 28.7041 30.3315 28.3711 30.5813C28.0379 30.8312 27.5547 31.0005 26.9997 31.0005C26.4448 31.0005 25.9616 30.8312 25.6284 30.5813C25.2954 30.3315 25.1361 30.0247 25.1361 29.7278C25.1361 29.4309 25.2954 29.1241 25.6284 28.8743C25.9616 28.6244 26.4448 28.4551 26.9997 28.4551C27.5547 28.4551 28.0379 28.6244 28.3711 28.8743C28.7041 29.1241 28.8634 29.4309 28.8634 29.7278Z" stroke="#003E7C"/>
<path d="M37.1369 36.8186C37.1369 37.1155 36.9777 37.4224 36.6446 37.6721C36.3115 37.922 35.8283 38.0914 35.2733 38.0914C34.7183 38.0914 34.2351 37.922 33.902 37.6721C33.5689 37.4224 33.4097 37.1155 33.4097 36.8186C33.4097 36.5218 33.5689 36.2149 33.902 35.9651C34.2351 35.7152 34.7183 35.5459 35.2733 35.5459C35.8283 35.5459 36.3115 35.7152 36.6446 35.9651C36.9777 36.2149 37.1369 36.5218 37.1369 36.8186Z" stroke="#003E7C"/>
<path d="M45.4092 27.3645C45.4092 27.6614 45.2499 27.9683 44.9169 28.218C44.5837 28.4679 44.1005 28.6373 43.5455 28.6373C42.9905 28.6373 42.5074 28.4679 42.1742 28.218C41.8412 27.9683 41.6819 27.6614 41.6819 27.3645C41.6819 27.0677 41.8412 26.7608 42.1742 26.511C42.5074 26.2611 42.9905 26.0918 43.5455 26.0918C44.1005 26.0918 44.5837 26.2611 44.9169 26.511C45.2499 26.7608 45.4092 27.0677 45.4092 27.3645Z" stroke="#003E7C"/>
</svg>
