<svg width="64" height="64" viewBox="0 0 64 64" fill="none" xmlns="http://www.w3.org/2000/svg">
<circle cx="36" cy="28" r="28" fill="#DAF3F7"/>
<path d="M18.2939 17.3181V12.5908H22.4303V17.3181M18.2939 17.3181H15.3394V23.2272H25.3848V17.3181H22.4303M18.2939 17.3181H22.4303" stroke="#003E7C"/>
<path d="M18.2939 23.2275V26.773M18.2939 26.773H22.4303M18.2939 26.773H15.3394V43.3184H22.9273M22.4303 26.773V23.2275M22.4303 26.773H24.7939V29" stroke="#003E7C"/>
<path d="M21.5 34.4541H15.3397M15.3397 38.5905H21.5M15.3397 36.2268H13.3186M18.2943 43.3177V53.9541M18.2943 53.9541H22.4306M18.2943 53.9541H15.3397V59.2723M22.4306 53.9541V43.3177M22.4306 53.9541H24.7943V59.2723M15.3397 59.2723H12.9761V62.8177H27.7488V59.2723H24.7943M15.3397 59.2723H24.7943" stroke="#003E7C"/>
<path d="M2.5 62.3184C2.22386 62.3184 2 62.5422 2 62.8184C2 63.0945 2.22386 63.3184 2.5 63.3184V62.3184ZM42.5217 63.3184C42.7978 63.3184 43.0217 63.0945 43.0217 62.8184C43.0217 62.5422 42.7978 62.3184 42.5217 62.3184V63.3184ZM12.9762 62.3184C12.9697 62.3184 12.9632 62.3184 12.9567 62.3184C12.9502 62.3184 12.9437 62.3184 12.9372 62.3184C12.9307 62.3184 12.9242 62.3184 12.9177 62.3184C12.9112 62.3184 12.9047 62.3184 12.8981 62.3184C12.8916 62.3184 12.8851 62.3184 12.8786 62.3184C12.8721 62.3184 12.8656 62.3184 12.859 62.3184C12.8525 62.3184 12.846 62.3184 12.8395 62.3184C12.8329 62.3184 12.8264 62.3184 12.8199 62.3184C12.8134 62.3184 12.8068 62.3184 12.8003 62.3184C12.7938 62.3184 12.7872 62.3184 12.7807 62.3184C12.7742 62.3184 12.7676 62.3184 12.7611 62.3184C12.7545 62.3184 12.748 62.3184 12.7414 62.3184C12.7349 62.3184 12.7284 62.3184 12.7218 62.3184C12.7153 62.3184 12.7087 62.3184 12.7022 62.3184C12.6956 62.3184 12.6891 62.3184 12.6825 62.3184C12.676 62.3184 12.6694 62.3184 12.6628 62.3184C12.6563 62.3184 12.6497 62.3184 12.6432 62.3184C12.6366 62.3184 12.63 62.3184 12.6235 62.3184C12.6169 62.3184 12.6103 62.3184 12.6038 62.3184C12.5972 62.3184 12.5906 62.3184 12.5841 62.3184C12.5775 62.3184 12.5709 62.3184 12.5643 62.3184C12.5578 62.3184 12.5512 62.3184 12.5446 62.3184C12.538 62.3184 12.5315 62.3184 12.5249 62.3184C12.5183 62.3184 12.5117 62.3184 12.5051 62.3184C12.4985 62.3184 12.4919 62.3184 12.4854 62.3184C12.4788 62.3184 12.4722 62.3184 12.4656 62.3184C12.459 62.3184 12.4524 62.3184 12.4458 62.3184C12.4392 62.3184 12.4326 62.3184 12.426 62.3184C12.4194 62.3184 12.4128 62.3184 12.4062 62.3184C12.3996 62.3184 12.393 62.3184 12.3864 62.3184C12.3798 62.3184 12.3732 62.3184 12.3666 62.3184C12.36 62.3184 12.3534 62.3184 12.3467 62.3184C12.3401 62.3184 12.3335 62.3184 12.3269 62.3184C12.3203 62.3184 12.3137 62.3184 12.3071 62.3184C12.3004 62.3184 12.2938 62.3184 12.2872 62.3184C12.2806 62.3184 12.2739 62.3184 12.2673 62.3184C12.2607 62.3184 12.2541 62.3184 12.2474 62.3184C12.2408 62.3184 12.2342 62.3184 12.2275 62.3184C12.2209 62.3184 12.2143 62.3184 12.2076 62.3184C12.201 62.3184 12.1944 62.3184 12.1877 62.3184C12.1811 62.3184 12.1745 62.3184 12.1678 62.3184C12.1612 62.3184 12.1545 62.3184 12.1479 62.3184C12.1412 62.3184 12.1346 62.3184 12.128 62.3184C12.1213 62.3184 12.1147 62.3184 12.108 62.3184C12.1014 62.3184 12.0947 62.3184 12.088 62.3184C12.0814 62.3184 12.0747 62.3184 12.0681 62.3184C12.0614 62.3184 12.0548 62.3184 12.0481 62.3184C12.0414 62.3184 12.0348 62.3184 12.0281 62.3184C12.0215 62.3184 12.0148 62.3184 12.0081 62.3184C12.0015 62.3184 11.9948 62.3184 11.9881 62.3184C11.9815 62.3184 11.9748 62.3184 11.9681 62.3184C11.9614 62.3184 11.9548 62.3184 11.9481 62.3184C11.9414 62.3184 11.9347 62.3184 11.9281 62.3184C11.9214 62.3184 11.9147 62.3184 11.908 62.3184C11.9013 62.3184 11.8947 62.3184 11.888 62.3184C11.8813 62.3184 11.8746 62.3184 11.8679 62.3184C11.8612 62.3184 11.8545 62.3184 11.8479 62.3184C11.8412 62.3184 11.8345 62.3184 11.8278 62.3184C11.8211 62.3184 11.8144 62.3184 11.8077 62.3184C11.801 62.3184 11.7943 62.3184 11.7876 62.3184C11.7809 62.3184 11.7742 62.3184 11.7675 62.3184C11.7608 62.3184 11.7541 62.3184 11.7474 62.3184C11.7407 62.3184 11.734 62.3184 11.7273 62.3184C11.7206 62.3184 11.7139 62.3184 11.7071 62.3184C11.7004 62.3184 11.6937 62.3184 11.687 62.3184C11.6803 62.3184 11.6736 62.3184 11.6669 62.3184C11.6602 62.3184 11.6534 62.3184 11.6467 62.3184C11.64 62.3184 11.6333 62.3184 11.6266 62.3184C11.6198 62.3184 11.6131 62.3184 11.6064 62.3184C11.5997 62.3184 11.5929 62.3184 11.5862 62.3184C11.5795 62.3184 11.5728 62.3184 11.566 62.3184C11.5593 62.3184 11.5526 62.3184 11.5458 62.3184C11.5391 62.3184 11.5324 62.3184 11.5256 62.3184C11.5189 62.3184 11.5122 62.3184 11.5054 62.3184C11.4987 62.3184 11.492 62.3184 11.4852 62.3184C11.4785 62.3184 11.4717 62.3184 11.465 62.3184C11.4582 62.3184 11.4515 62.3184 11.4448 62.3184C11.438 62.3184 11.4313 62.3184 11.4245 62.3184C11.4178 62.3184 11.411 62.3184 11.4043 62.3184C11.3975 62.3184 11.3908 62.3184 11.384 62.3184C11.3773 62.3184 11.3705 62.3184 11.3637 62.3184C11.357 62.3184 11.3502 62.3184 11.3435 62.3184C11.3367 62.3184 11.33 62.3184 11.3232 62.3184C11.3164 62.3184 11.3097 62.3184 11.3029 62.3184C11.2961 62.3184 11.2894 62.3184 11.2826 62.3184C11.2758 62.3184 11.2691 62.3184 11.2623 62.3184C11.2555 62.3184 11.2488 62.3184 11.242 62.3184C11.2352 62.3184 11.2285 62.3184 11.2217 62.3184C11.2149 62.3184 11.2081 62.3184 11.2014 62.3184C11.1946 62.3184 11.1878 62.3184 11.181 62.3184C11.1742 62.3184 11.1675 62.3184 11.1607 62.3184C11.1539 62.3184 11.1471 62.3184 11.1403 62.3184C11.1336 62.3184 11.1268 62.3184 11.12 62.3184C11.1132 62.3184 11.1064 62.3184 11.0996 62.3184C11.0928 62.3184 11.0861 62.3184 11.0793 62.3184C11.0725 62.3184 11.0657 62.3184 11.0589 62.3184C11.0521 62.3184 11.0453 62.3184 11.0385 62.3184C11.0317 62.3184 11.0249 62.3184 11.0181 62.3184C11.0113 62.3184 11.0045 62.3184 10.9977 62.3184C10.9909 62.3184 10.9841 62.3184 10.9773 62.3184C10.9705 62.3184 10.9637 62.3184 10.9569 62.3184C10.9501 62.3184 10.9433 62.3184 10.9365 62.3184C10.9297 62.3184 10.9229 62.3184 10.9161 62.3184C10.9093 62.3184 10.9024 62.3184 10.8956 62.3184C10.8888 62.3184 10.882 62.3184 10.8752 62.3184C10.8684 62.3184 10.8616 62.3184 10.8548 62.3184C10.8479 62.3184 10.8411 62.3184 10.8343 62.3184C10.8275 62.3184 10.8207 62.3184 10.8138 62.3184C10.807 62.3184 10.8002 62.3184 10.7934 62.3184C10.7866 62.3184 10.7797 62.3184 10.7729 62.3184C10.7661 62.3184 10.7593 62.3184 10.7524 62.3184C10.7456 62.3184 10.7388 62.3184 10.732 62.3184C10.7251 62.3184 10.7183 62.3184 10.7115 62.3184C10.7046 62.3184 10.6978 62.3184 10.691 62.3184C10.6841 62.3184 10.6773 62.3184 10.6705 62.3184C10.6636 62.3184 10.6568 62.3184 10.65 62.3184C10.6431 62.3184 10.6363 62.3184 10.6294 62.3184C10.6226 62.3184 10.6158 62.3184 10.6089 62.3184C10.6021 62.3184 10.5952 62.3184 10.5884 62.3184C10.5816 62.3184 10.5747 62.3184 10.5679 62.3184C10.561 62.3184 10.5542 62.3184 10.5473 62.3184C10.5405 62.3184 10.5336 62.3184 10.5268 62.3184C10.5199 62.3184 10.5131 62.3184 10.5062 62.3184C10.4994 62.3184 10.4925 62.3184 10.4857 62.3184C10.4788 62.3184 10.472 62.3184 10.4651 62.3184C10.4583 62.3184 10.4514 62.3184 10.4446 62.3184C10.4377 62.3184 10.4308 62.3184 10.424 62.3184C10.4171 62.3184 10.4103 62.3184 10.4034 62.3184C10.3965 62.3184 10.3897 62.3184 10.3828 62.3184C10.376 62.3184 10.3691 62.3184 10.3622 62.3184C10.3554 62.3184 10.3485 62.3184 10.3416 62.3184C10.3348 62.3184 10.3279 62.3184 10.321 62.3184C10.3142 62.3184 10.3073 62.3184 10.3004 62.3184C10.2935 62.3184 10.2867 62.3184 10.2798 62.3184C10.2729 62.3184 10.2661 62.3184 10.2592 62.3184C10.2523 62.3184 10.2454 62.3184 10.2386 62.3184C10.2317 62.3184 10.2248 62.3184 10.2179 62.3184C10.2111 62.3184 10.2042 62.3184 10.1973 62.3184C10.1904 62.3184 10.1835 62.3184 10.1767 62.3184C10.1698 62.3184 10.1629 62.3184 10.156 62.3184C10.1491 62.3184 10.1423 62.3184 10.1354 62.3184C10.1285 62.3184 10.1216 62.3184 10.1147 62.3184C10.1078 62.3184 10.1009 62.3184 10.0941 62.3184C10.0872 62.3184 10.0803 62.3184 10.0734 62.3184C10.0665 62.3184 10.0596 62.3184 10.0527 62.3184C10.0458 62.3184 10.0389 62.3184 10.0321 62.3184C10.0252 62.3184 10.0183 62.3184 10.0114 62.3184C10.0045 62.3184 9.99759 62.3184 9.99069 62.3184C9.9838 62.3184 9.9769 62.3184 9.97 62.3184C9.96311 62.3184 9.95621 62.3184 9.94931 62.3184C9.94241 62.3184 9.93551 62.3184 9.92861 62.3184C9.92171 62.3184 9.91481 62.3184 9.90791 62.3184C9.90101 62.3184 9.89411 62.3184 9.88721 62.3184C9.8803 62.3184 9.8734 62.3184 9.86649 62.3184C9.85959 62.3184 9.85268 62.3184 9.84578 62.3184C9.83887 62.3184 9.83196 62.3184 9.82506 62.3184C9.81815 62.3184 9.81124 62.3184 9.80433 62.3184C9.79742 62.3184 9.79051 62.3184 9.7836 62.3184C9.77669 62.3184 9.76978 62.3184 9.76287 62.3184C9.75596 62.3184 9.74905 62.3184 9.74213 62.3184C9.73522 62.3184 9.72831 62.3184 9.72139 62.3184C9.71448 62.3184 9.70756 62.3184 9.70064 62.3184C9.69373 62.3184 9.68681 62.3184 9.67989 62.3184C9.67298 62.3184 9.66606 62.3184 9.65914 62.3184C9.65222 62.3184 9.6453 62.3184 9.63838 62.3184C9.63146 62.3184 9.62454 62.3184 9.61762 62.3184C9.6107 62.3184 9.60378 62.3184 9.59685 62.3184C9.58993 62.3184 9.58301 62.3184 9.57608 62.3184C9.56916 62.3184 9.56223 62.3184 9.55531 62.3184C9.54838 62.3184 9.54146 62.3184 9.53453 62.3184C9.5276 62.3184 9.52068 62.3184 9.51375 62.3184C9.50682 62.3184 9.49989 62.3184 9.49296 62.3184C9.48603 62.3184 9.4791 62.3184 9.47217 62.3184C9.46524 62.3184 9.45831 62.3184 9.45138 62.3184C9.44445 62.3184 9.43752 62.3184 9.43058 62.3184C9.42365 62.3184 9.41672 62.3184 9.40978 62.3184C9.40285 62.3184 9.39592 62.3184 9.38898 62.3184C9.38205 62.3184 9.37511 62.3184 9.36817 62.3184C9.36124 62.3184 9.3543 62.3184 9.34736 62.3184C9.34043 62.3184 9.33349 62.3184 9.32655 62.3184C9.31961 62.3184 9.31267 62.3184 9.30573 62.3184C9.29879 62.3184 9.29185 62.3184 9.28491 62.3184C9.27797 62.3184 9.27103 62.3184 9.26409 62.3184C9.25715 62.3184 9.2502 62.3184 9.24326 62.3184C9.23632 62.3184 9.22937 62.3184 9.22243 62.3184C9.21549 62.3184 9.20854 62.3184 9.2016 62.3184C9.19465 62.3184 9.18771 62.3184 9.18076 62.3184C9.17382 62.3184 9.16687 62.3184 9.15992 62.3184C9.15297 62.3184 9.14603 62.3184 9.13908 62.3184C9.13213 62.3184 9.12518 62.3184 9.11823 62.3184C9.11128 62.3184 9.10434 62.3184 9.09739 62.3184C9.09044 62.3184 9.08349 62.3184 9.07653 62.3184C9.06958 62.3184 9.06263 62.3184 9.05568 62.3184C9.04873 62.3184 9.04178 62.3184 9.03482 62.3184C9.02787 62.3184 9.02092 62.3184 9.01396 62.3184C9.00701 62.3184 9.00006 62.3184 8.9931 62.3184C8.98615 62.3184 8.97919 62.3184 8.97224 62.3184C8.96528 62.3184 8.95833 62.3184 8.95137 62.3184C8.94441 62.3184 8.93746 62.3184 8.9305 62.3184C8.92354 62.3184 8.91658 62.3184 8.90963 62.3184C8.90267 62.3184 8.89571 62.3184 8.88875 62.3184C8.88179 62.3184 8.87483 62.3184 8.86787 62.3184C8.86091 62.3184 8.85395 62.3184 8.84699 62.3184C8.84003 62.3184 8.83307 62.3184 8.82611 62.3184C8.81915 62.3184 8.81219 62.3184 8.80523 62.3184C8.79827 62.3184 8.7913 62.3184 8.78434 62.3184C8.77738 62.3184 8.77042 62.3184 8.76345 62.3184C8.75649 62.3184 8.74953 62.3184 8.74256 62.3184C8.7356 62.3184 8.72863 62.3184 8.72167 62.3184C8.7147 62.3184 8.70774 62.3184 8.70077 62.3184C8.69381 62.3184 8.68684 62.3184 8.67988 62.3184C8.67291 62.3184 8.66594 62.3184 8.65898 62.3184C8.65201 62.3184 8.64504 62.3184 8.63808 62.3184C8.63111 62.3184 8.62414 62.3184 8.61717 62.3184C8.6102 62.3184 8.60324 62.3184 8.59627 62.3184C8.5893 62.3184 8.58233 62.3184 8.57536 62.3184C8.56839 62.3184 8.56142 62.3184 8.55445 62.3184C8.54748 62.3184 8.54051 62.3184 8.53354 62.3184C8.52657 62.3184 8.5196 62.3184 8.51263 62.3184C8.50566 62.3184 8.49869 62.3184 8.49172 62.3184C8.48474 62.3184 8.47777 62.3184 8.4708 62.3184C8.46383 62.3184 8.45686 62.3184 8.44988 62.3184C8.44291 62.3184 8.43594 62.3184 8.42897 62.3184C8.42199 62.3184 8.41502 62.3184 8.40805 62.3184C8.40107 62.3184 8.3941 62.3184 8.38713 62.3184C8.38015 62.3184 8.37318 62.3184 8.3662 62.3184C8.35923 62.3184 8.35225 62.3184 8.34528 62.3184C8.3383 62.3184 8.33133 62.3184 8.32435 62.3184C8.31738 62.3184 8.3104 62.3184 8.30343 62.3184C8.29645 62.3184 8.28948 62.3184 8.2825 62.3184C8.27552 62.3184 8.26855 62.3184 8.26157 62.3184C8.2546 62.3184 8.24762 62.3184 8.24064 62.3184C8.23367 62.3184 8.22669 62.3184 8.21971 62.3184C8.21273 62.3184 8.20576 62.3184 8.19878 62.3184C8.1918 62.3184 8.18482 62.3184 8.17785 62.3184C8.17087 62.3184 8.16389 62.3184 8.15691 62.3184C8.14994 62.3184 8.14296 62.3184 8.13598 62.3184C8.129 62.3184 8.12202 62.3184 8.11504 62.3184C8.10807 62.3184 8.10109 62.3184 8.09411 62.3184C8.08713 62.3184 8.08015 62.3184 8.07317 62.3184C8.06619 62.3184 8.05921 62.3184 8.05223 62.3184C8.04525 62.3184 8.03827 62.3184 8.03129 62.3184C8.02432 62.3184 8.01734 62.3184 8.01036 62.3184C8.00338 62.3184 7.9964 62.3184 7.98942 62.3184C7.98244 62.3184 7.97546 62.3184 7.96848 62.3184C7.9615 62.3184 7.95452 62.3184 7.94754 62.3184C7.94056 62.3184 7.93358 62.3184 7.9266 62.3184C7.91961 62.3184 7.91263 62.3184 7.90565 62.3184C7.89867 62.3184 7.89169 62.3184 7.88471 62.3184C7.87773 62.3184 7.87075 62.3184 7.86377 62.3184C7.85679 62.3184 7.84981 62.3184 7.84283 62.3184C7.83585 62.3184 7.82887 62.3184 7.82189 62.3184C7.8149 62.3184 7.80792 62.3184 7.80094 62.3184C7.79396 62.3184 7.78698 62.3184 7.78 62.3184C7.77302 62.3184 7.76604 62.3184 7.75906 62.3184C7.75208 62.3184 7.7451 62.3184 7.73811 62.3184C7.73113 62.3184 7.72415 62.3184 7.71717 62.3184C7.71019 62.3184 7.70321 62.3184 7.69623 62.3184C7.68925 62.3184 7.68227 62.3184 7.67529 62.3184C7.6683 62.3184 7.66132 62.3184 7.65434 62.3184C7.64736 62.3184 7.64038 62.3184 7.6334 62.3184C7.62642 62.3184 7.61944 62.3184 7.61246 62.3184C7.60548 62.3184 7.5985 62.3184 7.59152 62.3184C7.58454 62.3184 7.57756 62.3184 7.57057 62.3184C7.56359 62.3184 7.55661 62.3184 7.54963 62.3184C7.54265 62.3184 7.53567 62.3184 7.52869 62.3184C7.52171 62.3184 7.51473 62.3184 7.50775 62.3184C7.50077 62.3184 7.49379 62.3184 7.48681 62.3184C7.47983 62.3184 7.47285 62.3184 7.46587 62.3184C7.45889 62.3184 7.45191 62.3184 7.44493 62.3184C7.43795 62.3184 7.43097 62.3184 7.424 62.3184C7.41702 62.3184 7.41004 62.3184 7.40306 62.3184C7.39608 62.3184 7.3891 62.3184 7.38212 62.3184C7.37514 62.3184 7.36816 62.3184 7.36119 62.3184C7.35421 62.3184 7.34723 62.3184 7.34025 62.3184C7.33327 62.3184 7.32629 62.3184 7.31931 62.3184C7.31234 62.3184 7.30536 62.3184 7.29838 62.3184C7.2914 62.3184 7.28443 62.3184 7.27745 62.3184C7.27047 62.3184 7.26349 62.3184 7.25652 62.3184C7.24954 62.3184 7.24256 62.3184 7.23559 62.3184C7.22861 62.3184 7.22163 62.3184 7.21466 62.3184C7.20768 62.3184 7.2007 62.3184 7.19373 62.3184C7.18675 62.3184 7.17978 62.3184 7.1728 62.3184C7.16582 62.3184 7.15885 62.3184 7.15187 62.3184C7.1449 62.3184 7.13792 62.3184 7.13095 62.3184C7.12397 62.3184 7.117 62.3184 7.11003 62.3184C7.10305 62.3184 7.09608 62.3184 7.0891 62.3184C7.08213 62.3184 7.07516 62.3184 7.06818 62.3184C7.06121 62.3184 7.05424 62.3184 7.04726 62.3184C7.04029 62.3184 7.03332 62.3184 7.02634 62.3184C7.01937 62.3184 7.0124 62.3184 7.00543 62.3184C6.99846 62.3184 6.99148 62.3184 6.98451 62.3184C6.97754 62.3184 6.97057 62.3184 6.9636 62.3184C6.95663 62.3184 6.94966 62.3184 6.94269 62.3184C6.93572 62.3184 6.92875 62.3184 6.92178 62.3184C6.91481 62.3184 6.90784 62.3184 6.90087 62.3184C6.8939 62.3184 6.88693 62.3184 6.87996 62.3184C6.87299 62.3184 6.86602 62.3184 6.85906 62.3184C6.85209 62.3184 6.84512 62.3184 6.83815 62.3184C6.83119 62.3184 6.82422 62.3184 6.81725 62.3184C6.81029 62.3184 6.80332 62.3184 6.79635 62.3184C6.78939 62.3184 6.78242 62.3184 6.77546 62.3184C6.76849 62.3184 6.76153 62.3184 6.75456 62.3184C6.7476 62.3184 6.74063 62.3184 6.73367 62.3184C6.7267 62.3184 6.71974 62.3184 6.71278 62.3184C6.70581 62.3184 6.69885 62.3184 6.69189 62.3184C6.68493 62.3184 6.67796 62.3184 6.671 62.3184C6.66404 62.3184 6.65708 62.3184 6.65012 62.3184C6.64316 62.3184 6.63619 62.3184 6.62923 62.3184C6.62227 62.3184 6.61531 62.3184 6.60835 62.3184C6.60139 62.3184 6.59444 62.3184 6.58748 62.3184C6.58052 62.3184 6.57356 62.3184 6.5666 62.3184C6.55964 62.3184 6.55269 62.3184 6.54573 62.3184C6.53877 62.3184 6.53182 62.3184 6.52486 62.3184C6.5179 62.3184 6.51095 62.3184 6.50399 62.3184C6.49704 62.3184 6.49008 62.3184 6.48313 62.3184C6.47617 62.3184 6.46922 62.3184 6.46226 62.3184C6.45531 62.3184 6.44836 62.3184 6.44141 62.3184C6.43445 62.3184 6.4275 62.3184 6.42055 62.3184C6.4136 62.3184 6.40665 62.3184 6.39969 62.3184C6.39274 62.3184 6.38579 62.3184 6.37884 62.3184C6.37189 62.3184 6.36494 62.3184 6.35799 62.3184C6.35105 62.3184 6.3441 62.3184 6.33715 62.3184C6.3302 62.3184 6.32325 62.3184 6.31631 62.3184C6.30936 62.3184 6.30241 62.3184 6.29547 62.3184C6.28852 62.3184 6.28158 62.3184 6.27463 62.3184C6.26769 62.3184 6.26074 62.3184 6.2538 62.3184C6.24685 62.3184 6.23991 62.3184 6.23297 62.3184C6.22602 62.3184 6.21908 62.3184 6.21214 62.3184C6.2052 62.3184 6.19826 62.3184 6.19132 62.3184C6.18438 62.3184 6.17744 62.3184 6.1705 62.3184C6.16356 62.3184 6.15662 62.3184 6.14968 62.3184C6.14274 62.3184 6.1358 62.3184 6.12887 62.3184C6.12193 62.3184 6.11499 62.3184 6.10805 62.3184C6.10112 62.3184 6.09418 62.3184 6.08725 62.3184C6.08031 62.3184 6.07338 62.3184 6.06644 62.3184C6.05951 62.3184 6.05258 62.3184 6.04564 62.3184C6.03871 62.3184 6.03178 62.3184 6.02485 62.3184C6.01792 62.3184 6.01098 62.3184 6.00405 62.3184C5.99712 62.3184 5.99019 62.3184 5.98327 62.3184C5.97634 62.3184 5.96941 62.3184 5.96248 62.3184C5.95555 62.3184 5.94862 62.3184 5.9417 62.3184C5.93477 62.3184 5.92785 62.3184 5.92092 62.3184C5.91399 62.3184 5.90707 62.3184 5.90015 62.3184C5.89322 62.3184 5.8863 62.3184 5.87938 62.3184C5.87245 62.3184 5.86553 62.3184 5.85861 62.3184C5.85169 62.3184 5.84477 62.3184 5.83785 62.3184C5.83093 62.3184 5.82401 62.3184 5.81709 62.3184C5.81017 62.3184 5.80325 62.3184 5.79633 62.3184C5.78942 62.3184 5.7825 62.3184 5.77558 62.3184C5.76867 62.3184 5.76175 62.3184 5.75484 62.3184C5.74792 62.3184 5.74101 62.3184 5.7341 62.3184C5.72718 62.3184 5.72027 62.3184 5.71336 62.3184C5.70645 62.3184 5.69954 62.3184 5.69262 62.3184C5.68571 62.3184 5.6788 62.3184 5.6719 62.3184C5.66499 62.3184 5.65808 62.3184 5.65117 62.3184C5.64426 62.3184 5.63736 62.3184 5.63045 62.3184C5.62354 62.3184 5.61664 62.3184 5.60974 62.3184C5.60283 62.3184 5.59593 62.3184 5.58902 62.3184C5.58212 62.3184 5.57522 62.3184 5.56832 62.3184C5.56142 62.3184 5.55451 62.3184 5.54761 62.3184C5.54071 62.3184 5.53382 62.3184 5.52692 62.3184C5.52002 62.3184 5.51312 62.3184 5.50622 62.3184C5.49933 62.3184 5.49243 62.3184 5.48554 62.3184C5.47864 62.3184 5.47175 62.3184 5.46485 62.3184C5.45796 62.3184 5.45107 62.3184 5.44417 62.3184C5.43728 62.3184 5.43039 62.3184 5.4235 62.3184C5.41661 62.3184 5.40972 62.3184 5.40283 62.3184C5.39594 62.3184 5.38905 62.3184 5.38217 62.3184C5.37528 62.3184 5.36839 62.3184 5.36151 62.3184C5.35462 62.3184 5.34774 62.3184 5.34085 62.3184C5.33397 62.3184 5.32709 62.3184 5.32021 62.3184C5.31332 62.3184 5.30644 62.3184 5.29956 62.3184C5.29268 62.3184 5.2858 62.3184 5.27892 62.3184C5.27204 62.3184 5.26517 62.3184 5.25829 62.3184C5.25141 62.3184 5.24454 62.3184 5.23766 62.3184C5.23079 62.3184 5.22391 62.3184 5.21704 62.3184C5.21017 62.3184 5.20329 62.3184 5.19642 62.3184C5.18955 62.3184 5.18268 62.3184 5.17581 62.3184C5.16894 62.3184 5.16207 62.3184 5.1552 62.3184C5.14833 62.3184 5.14147 62.3184 5.1346 62.3184C5.12774 62.3184 5.12087 62.3184 5.11401 62.3184C5.10714 62.3184 5.10028 62.3184 5.09342 62.3184C5.08655 62.3184 5.07969 62.3184 5.07283 62.3184C5.06597 62.3184 5.05911 62.3184 5.05225 62.3184C5.04539 62.3184 5.03854 62.3184 5.03168 62.3184C5.02482 62.3184 5.01797 62.3184 5.01111 62.3184C5.00426 62.3184 4.9974 62.3184 4.99055 62.3184C4.9837 62.3184 4.97684 62.3184 4.96999 62.3184C4.96314 62.3184 4.95629 62.3184 4.94944 62.3184C4.94259 62.3184 4.93575 62.3184 4.9289 62.3184C4.92205 62.3184 4.91521 62.3184 4.90836 62.3184C4.90152 62.3184 4.89467 62.3184 4.88783 62.3184C4.88099 62.3184 4.87414 62.3184 4.8673 62.3184C4.86046 62.3184 4.85362 62.3184 4.84678 62.3184C4.83994 62.3184 4.83311 62.3184 4.82627 62.3184C4.81943 62.3184 4.8126 62.3184 4.80576 62.3184C4.79893 62.3184 4.79209 62.3184 4.78526 62.3184C4.77843 62.3184 4.7716 62.3184 4.76476 62.3184C4.75793 62.3184 4.7511 62.3184 4.74428 62.3184C4.73745 62.3184 4.73062 62.3184 4.72379 62.3184C4.71697 62.3184 4.71014 62.3184 4.70332 62.3184C4.69649 62.3184 4.68967 62.3184 4.68285 62.3184C4.67602 62.3184 4.6692 62.3184 4.66238 62.3184C4.65556 62.3184 4.64874 62.3184 4.64193 62.3184C4.63511 62.3184 4.62829 62.3184 4.62148 62.3184C4.61466 62.3184 4.60785 62.3184 4.60103 62.3184C4.59422 62.3184 4.58741 62.3184 4.5806 62.3184C4.57378 62.3184 4.56697 62.3184 4.56017 62.3184C4.55336 62.3184 4.54655 62.3184 4.53974 62.3184C4.53293 62.3184 4.52613 62.3184 4.51932 62.3184C4.51252 62.3184 4.50572 62.3184 4.49891 62.3184C4.49211 62.3184 4.48531 62.3184 4.47851 62.3184C4.47171 62.3184 4.46491 62.3184 4.45812 62.3184C4.45132 62.3184 4.44452 62.3184 4.43773 62.3184C4.43093 62.3184 4.42414 62.3184 4.41734 62.3184C4.41055 62.3184 4.40376 62.3184 4.39697 62.3184C4.39018 62.3184 4.38339 62.3184 4.3766 62.3184C4.36981 62.3184 4.36303 62.3184 4.35624 62.3184C4.34945 62.3184 4.34267 62.3184 4.33589 62.3184C4.3291 62.3184 4.32232 62.3184 4.31554 62.3184C4.30876 62.3184 4.30198 62.3184 4.2952 62.3184C4.28842 62.3184 4.28165 62.3184 4.27487 62.3184C4.26809 62.3184 4.26132 62.3184 4.25454 62.3184C4.24777 62.3184 4.241 62.3184 4.23423 62.3184C4.22746 62.3184 4.22069 62.3184 4.21392 62.3184C4.20715 62.3184 4.20038 62.3184 4.19362 62.3184C4.18685 62.3184 4.18009 62.3184 4.17332 62.3184C4.16656 62.3184 4.1598 62.3184 4.15303 62.3184C4.14627 62.3184 4.13951 62.3184 4.13276 62.3184C4.126 62.3184 4.11924 62.3184 4.11248 62.3184C4.10573 62.3184 4.09897 62.3184 4.09222 62.3184C4.08547 62.3184 4.07871 62.3184 4.07196 62.3184C4.06521 62.3184 4.05846 62.3184 4.05171 62.3184C4.04497 62.3184 4.03822 62.3184 4.03147 62.3184C4.02473 62.3184 4.01798 62.3184 4.01124 62.3184C4.0045 62.3184 3.99776 62.3184 3.99102 62.3184C3.98428 62.3184 3.97754 62.3184 3.9708 62.3184C3.96406 62.3184 3.95733 62.3184 3.95059 62.3184C3.94386 62.3184 3.93712 62.3184 3.93039 62.3184C3.92366 62.3184 3.91693 62.3184 3.9102 62.3184C3.90347 62.3184 3.89674 62.3184 3.89001 62.3184C3.88329 62.3184 3.87656 62.3184 3.86984 62.3184C3.86311 62.3184 3.85639 62.3184 3.84967 62.3184C3.84295 62.3184 3.83623 62.3184 3.82951 62.3184C3.82279 62.3184 3.81607 62.3184 3.80936 62.3184C3.80264 62.3184 3.79593 62.3184 3.78922 62.3184C3.7825 62.3184 3.77579 62.3184 3.76908 62.3184C3.76237 62.3184 3.75566 62.3184 3.74895 62.3184C3.74225 62.3184 3.73554 62.3184 3.72884 62.3184C3.72213 62.3184 3.71543 62.3184 3.70873 62.3184C3.70203 62.3184 3.69533 62.3184 3.68863 62.3184C3.68193 62.3184 3.67523 62.3184 3.66854 62.3184C3.66184 62.3184 3.65515 62.3184 3.64845 62.3184C3.64176 62.3184 3.63507 62.3184 3.62838 62.3184C3.62169 62.3184 3.615 62.3184 3.60831 62.3184C3.60163 62.3184 3.59494 62.3184 3.58826 62.3184C3.58157 62.3184 3.57489 62.3184 3.56821 62.3184C3.56153 62.3184 3.55485 62.3184 3.54817 62.3184C3.54149 62.3184 3.53481 62.3184 3.52814 62.3184C3.52146 62.3184 3.51479 62.3184 3.50812 62.3184C3.50145 62.3184 3.49477 62.3184 3.48811 62.3184C3.48144 62.3184 3.47477 62.3184 3.4681 62.3184C3.46144 62.3184 3.45477 62.3184 3.44811 62.3184C3.44145 62.3184 3.43478 62.3184 3.42812 62.3184C3.42146 62.3184 3.41481 62.3184 3.40815 62.3184C3.40149 62.3184 3.39484 62.3184 3.38818 62.3184C3.38153 62.3184 3.37488 62.3184 3.36823 62.3184C3.36157 62.3184 3.35493 62.3184 3.34828 62.3184C3.34163 62.3184 3.33498 62.3184 3.32834 62.3184C3.3217 62.3184 3.31505 62.3184 3.30841 62.3184C3.30177 62.3184 3.29513 62.3184 3.28849 62.3184C3.28185 62.3184 3.27522 62.3184 3.26858 62.3184C3.26195 62.3184 3.25531 62.3184 3.24868 62.3184C3.24205 62.3184 3.23542 62.3184 3.22879 62.3184C3.22216 62.3184 3.21554 62.3184 3.20891 62.3184C3.20229 62.3184 3.19566 62.3184 3.18904 62.3184C3.18242 62.3184 3.1758 62.3184 3.16918 62.3184C3.16256 62.3184 3.15594 62.3184 3.14933 62.3184C3.14271 62.3184 3.1361 62.3184 3.12948 62.3184C3.12287 62.3184 3.11626 62.3184 3.10965 62.3184C3.10304 62.3184 3.09644 62.3184 3.08983 62.3184C3.08322 62.3184 3.07662 62.3184 3.07002 62.3184C3.06342 62.3184 3.05682 62.3184 3.05022 62.3184C3.04362 62.3184 3.03702 62.3184 3.03042 62.3184C3.02383 62.3184 3.01723 62.3184 3.01064 62.3184C3.00405 62.3184 2.99746 62.3184 2.99087 62.3184C2.98428 62.3184 2.97769 62.3184 2.97111 62.3184C2.96452 62.3184 2.95794 62.3184 2.95136 62.3184C2.94478 62.3184 2.9382 62.3184 2.93162 62.3184C2.92504 62.3184 2.91846 62.3184 2.91189 62.3184C2.90531 62.3184 2.89874 62.3184 2.89217 62.3184C2.88559 62.3184 2.87902 62.3184 2.87246 62.3184C2.86589 62.3184 2.85932 62.3184 2.85276 62.3184C2.84619 62.3184 2.83963 62.3184 2.83307 62.3184C2.82651 62.3184 2.81995 62.3184 2.81339 62.3184C2.80683 62.3184 2.80027 62.3184 2.79372 62.3184C2.78717 62.3184 2.78061 62.3184 2.77406 62.3184C2.76751 62.3184 2.76096 62.3184 2.75442 62.3184C2.74787 62.3184 2.74132 62.3184 2.73478 62.3184C2.72824 62.3184 2.72169 62.3184 2.71515 62.3184C2.70861 62.3184 2.70208 62.3184 2.69554 62.3184C2.689 62.3184 2.68247 62.3184 2.67594 62.3184C2.6694 62.3184 2.66287 62.3184 2.65634 62.3184C2.64982 62.3184 2.64329 62.3184 2.63676 62.3184C2.63024 62.3184 2.62371 62.3184 2.61719 62.3184C2.61067 62.3184 2.60415 62.3184 2.59763 62.3184C2.59111 62.3184 2.5846 62.3184 2.57808 62.3184C2.57157 62.3184 2.56506 62.3184 2.55855 62.3184C2.55203 62.3184 2.54553 62.3184 2.53902 62.3184C2.53251 62.3184 2.52601 62.3184 2.5195 62.3184C2.513 62.3184 2.5065 62.3184 2.5 62.3184V63.3184C2.5065 63.3184 2.513 63.3184 2.5195 63.3184C2.52601 63.3184 2.53251 63.3184 2.53902 63.3184C2.54553 63.3184 2.55203 63.3184 2.55855 63.3184C2.56506 63.3184 2.57157 63.3184 2.57808 63.3184C2.5846 63.3184 2.59111 63.3184 2.59763 63.3184C2.60415 63.3184 2.61067 63.3184 2.61719 63.3184C2.62371 63.3184 2.63024 63.3184 2.63676 63.3184C2.64329 63.3184 2.64982 63.3184 2.65634 63.3184C2.66287 63.3184 2.6694 63.3184 2.67594 63.3184C2.68247 63.3184 2.689 63.3184 2.69554 63.3184C2.70208 63.3184 2.70861 63.3184 2.71515 63.3184C2.72169 63.3184 2.72824 63.3184 2.73478 63.3184C2.74132 63.3184 2.74787 63.3184 2.75442 63.3184C2.76096 63.3184 2.76751 63.3184 2.77406 63.3184C2.78061 63.3184 2.78717 63.3184 2.79372 63.3184C2.80027 63.3184 2.80683 63.3184 2.81339 63.3184C2.81995 63.3184 2.82651 63.3184 2.83307 63.3184C2.83963 63.3184 2.84619 63.3184 2.85276 63.3184C2.85932 63.3184 2.86589 63.3184 2.87246 63.3184C2.87902 63.3184 2.88559 63.3184 2.89217 63.3184C2.89874 63.3184 2.90531 63.3184 2.91189 63.3184C2.91846 63.3184 2.92504 63.3184 2.93162 63.3184C2.9382 63.3184 2.94478 63.3184 2.95136 63.3184C2.95794 63.3184 2.96452 63.3184 2.97111 63.3184C2.97769 63.3184 2.98428 63.3184 2.99087 63.3184C2.99746 63.3184 3.00405 63.3184 3.01064 63.3184C3.01723 63.3184 3.02383 63.3184 3.03042 63.3184C3.03702 63.3184 3.04362 63.3184 3.05022 63.3184C3.05682 63.3184 3.06342 63.3184 3.07002 63.3184C3.07662 63.3184 3.08322 63.3184 3.08983 63.3184C3.09644 63.3184 3.10304 63.3184 3.10965 63.3184C3.11626 63.3184 3.12287 63.3184 3.12948 63.3184C3.1361 63.3184 3.14271 63.3184 3.14933 63.3184C3.15594 63.3184 3.16256 63.3184 3.16918 63.3184C3.1758 63.3184 3.18242 63.3184 3.18904 63.3184C3.19566 63.3184 3.20229 63.3184 3.20891 63.3184C3.21554 63.3184 3.22216 63.3184 3.22879 63.3184C3.23542 63.3184 3.24205 63.3184 3.24868 63.3184C3.25531 63.3184 3.26195 63.3184 3.26858 63.3184C3.27522 63.3184 3.28185 63.3184 3.28849 63.3184C3.29513 63.3184 3.30177 63.3184 3.30841 63.3184C3.31505 63.3184 3.3217 63.3184 3.32834 63.3184C3.33498 63.3184 3.34163 63.3184 3.34828 63.3184C3.35493 63.3184 3.36157 63.3184 3.36823 63.3184C3.37488 63.3184 3.38153 63.3184 3.38818 63.3184C3.39484 63.3184 3.40149 63.3184 3.40815 63.3184C3.41481 63.3184 3.42146 63.3184 3.42812 63.3184C3.43478 63.3184 3.44145 63.3184 3.44811 63.3184C3.45477 63.3184 3.46144 63.3184 3.4681 63.3184C3.47477 63.3184 3.48144 63.3184 3.48811 63.3184C3.49477 63.3184 3.50145 63.3184 3.50812 63.3184C3.51479 63.3184 3.52146 63.3184 3.52814 63.3184C3.53481 63.3184 3.54149 63.3184 3.54817 63.3184C3.55485 63.3184 3.56153 63.3184 3.56821 63.3184C3.57489 63.3184 3.58157 63.3184 3.58826 63.3184C3.59494 63.3184 3.60163 63.3184 3.60831 63.3184C3.615 63.3184 3.62169 63.3184 3.62838 63.3184C3.63507 63.3184 3.64176 63.3184 3.64845 63.3184C3.65515 63.3184 3.66184 63.3184 3.66854 63.3184C3.67523 63.3184 3.68193 63.3184 3.68863 63.3184C3.69533 63.3184 3.70203 63.3184 3.70873 63.3184C3.71543 63.3184 3.72213 63.3184 3.72884 63.3184C3.73554 63.3184 3.74225 63.3184 3.74895 63.3184C3.75566 63.3184 3.76237 63.3184 3.76908 63.3184C3.77579 63.3184 3.7825 63.3184 3.78922 63.3184C3.79593 63.3184 3.80264 63.3184 3.80936 63.3184C3.81607 63.3184 3.82279 63.3184 3.82951 63.3184C3.83623 63.3184 3.84295 63.3184 3.84967 63.3184C3.85639 63.3184 3.86311 63.3184 3.86984 63.3184C3.87656 63.3184 3.88329 63.3184 3.89001 63.3184C3.89674 63.3184 3.90347 63.3184 3.9102 63.3184C3.91693 63.3184 3.92366 63.3184 3.93039 63.3184C3.93712 63.3184 3.94386 63.3184 3.95059 63.3184C3.95733 63.3184 3.96406 63.3184 3.9708 63.3184C3.97754 63.3184 3.98428 63.3184 3.99102 63.3184C3.99776 63.3184 4.0045 63.3184 4.01124 63.3184C4.01798 63.3184 4.02473 63.3184 4.03147 63.3184C4.03822 63.3184 4.04497 63.3184 4.05171 63.3184C4.05846 63.3184 4.06521 63.3184 4.07196 63.3184C4.07871 63.3184 4.08547 63.3184 4.09222 63.3184C4.09897 63.3184 4.10573 63.3184 4.11248 63.3184C4.11924 63.3184 4.126 63.3184 4.13276 63.3184C4.13951 63.3184 4.14627 63.3184 4.15303 63.3184C4.1598 63.3184 4.16656 63.3184 4.17332 63.3184C4.18009 63.3184 4.18685 63.3184 4.19362 63.3184C4.20038 63.3184 4.20715 63.3184 4.21392 63.3184C4.22069 63.3184 4.22746 63.3184 4.23423 63.3184C4.241 63.3184 4.24777 63.3184 4.25454 63.3184C4.26132 63.3184 4.26809 63.3184 4.27487 63.3184C4.28165 63.3184 4.28842 63.3184 4.2952 63.3184C4.30198 63.3184 4.30876 63.3184 4.31554 63.3184C4.32232 63.3184 4.3291 63.3184 4.33589 63.3184C4.34267 63.3184 4.34945 63.3184 4.35624 63.3184C4.36303 63.3184 4.36981 63.3184 4.3766 63.3184C4.38339 63.3184 4.39018 63.3184 4.39697 63.3184C4.40376 63.3184 4.41055 63.3184 4.41734 63.3184C4.42414 63.3184 4.43093 63.3184 4.43773 63.3184C4.44452 63.3184 4.45132 63.3184 4.45812 63.3184C4.46491 63.3184 4.47171 63.3184 4.47851 63.3184C4.48531 63.3184 4.49211 63.3184 4.49891 63.3184C4.50572 63.3184 4.51252 63.3184 4.51932 63.3184C4.52613 63.3184 4.53293 63.3184 4.53974 63.3184C4.54655 63.3184 4.55336 63.3184 4.56017 63.3184C4.56697 63.3184 4.57378 63.3184 4.5806 63.3184C4.58741 63.3184 4.59422 63.3184 4.60103 63.3184C4.60785 63.3184 4.61466 63.3184 4.62148 63.3184C4.62829 63.3184 4.63511 63.3184 4.64193 63.3184C4.64874 63.3184 4.65556 63.3184 4.66238 63.3184C4.6692 63.3184 4.67602 63.3184 4.68285 63.3184C4.68967 63.3184 4.69649 63.3184 4.70332 63.3184C4.71014 63.3184 4.71697 63.3184 4.72379 63.3184C4.73062 63.3184 4.73745 63.3184 4.74428 63.3184C4.7511 63.3184 4.75793 63.3184 4.76476 63.3184C4.7716 63.3184 4.77843 63.3184 4.78526 63.3184C4.79209 63.3184 4.79893 63.3184 4.80576 63.3184C4.8126 63.3184 4.81943 63.3184 4.82627 63.3184C4.83311 63.3184 4.83994 63.3184 4.84678 63.3184C4.85362 63.3184 4.86046 63.3184 4.8673 63.3184C4.87414 63.3184 4.88099 63.3184 4.88783 63.3184C4.89467 63.3184 4.90152 63.3184 4.90836 63.3184C4.91521 63.3184 4.92205 63.3184 4.9289 63.3184C4.93575 63.3184 4.94259 63.3184 4.94944 63.3184C4.95629 63.3184 4.96314 63.3184 4.96999 63.3184C4.97684 63.3184 4.9837 63.3184 4.99055 63.3184C4.9974 63.3184 5.00426 63.3184 5.01111 63.3184C5.01797 63.3184 5.02482 63.3184 5.03168 63.3184C5.03854 63.3184 5.04539 63.3184 5.05225 63.3184C5.05911 63.3184 5.06597 63.3184 5.07283 63.3184C5.07969 63.3184 5.08655 63.3184 5.09342 63.3184C5.10028 63.3184 5.10714 63.3184 5.11401 63.3184C5.12087 63.3184 5.12774 63.3184 5.1346 63.3184C5.14147 63.3184 5.14833 63.3184 5.1552 63.3184C5.16207 63.3184 5.16894 63.3184 5.17581 63.3184C5.18268 63.3184 5.18955 63.3184 5.19642 63.3184C5.20329 63.3184 5.21017 63.3184 5.21704 63.3184C5.22391 63.3184 5.23079 63.3184 5.23766 63.3184C5.24454 63.3184 5.25141 63.3184 5.25829 63.3184C5.26517 63.3184 5.27204 63.3184 5.27892 63.3184C5.2858 63.3184 5.29268 63.3184 5.29956 63.3184C5.30644 63.3184 5.31332 63.3184 5.32021 63.3184C5.32709 63.3184 5.33397 63.3184 5.34085 63.3184C5.34774 63.3184 5.35462 63.3184 5.36151 63.3184C5.36839 63.3184 5.37528 63.3184 5.38217 63.3184C5.38905 63.3184 5.39594 63.3184 5.40283 63.3184C5.40972 63.3184 5.41661 63.3184 5.4235 63.3184C5.43039 63.3184 5.43728 63.3184 5.44417 63.3184C5.45107 63.3184 5.45796 63.3184 5.46485 63.3184C5.47175 63.3184 5.47864 63.3184 5.48554 63.3184C5.49243 63.3184 5.49933 63.3184 5.50622 63.3184C5.51312 63.3184 5.52002 63.3184 5.52692 63.3184C5.53382 63.3184 5.54071 63.3184 5.54761 63.3184C5.55451 63.3184 5.56142 63.3184 5.56832 63.3184C5.57522 63.3184 5.58212 63.3184 5.58902 63.3184C5.59593 63.3184 5.60283 63.3184 5.60974 63.3184C5.61664 63.3184 5.62354 63.3184 5.63045 63.3184C5.63736 63.3184 5.64426 63.3184 5.65117 63.3184C5.65808 63.3184 5.66499 63.3184 5.6719 63.3184C5.6788 63.3184 5.68571 63.3184 5.69262 63.3184C5.69954 63.3184 5.70645 63.3184 5.71336 63.3184C5.72027 63.3184 5.72718 63.3184 5.7341 63.3184C5.74101 63.3184 5.74792 63.3184 5.75484 63.3184C5.76175 63.3184 5.76867 63.3184 5.77558 63.3184C5.7825 63.3184 5.78942 63.3184 5.79633 63.3184C5.80325 63.3184 5.81017 63.3184 5.81709 63.3184C5.82401 63.3184 5.83093 63.3184 5.83785 63.3184C5.84477 63.3184 5.85169 63.3184 5.85861 63.3184C5.86553 63.3184 5.87245 63.3184 5.87938 63.3184C5.8863 63.3184 5.89322 63.3184 5.90015 63.3184C5.90707 63.3184 5.91399 63.3184 5.92092 63.3184C5.92785 63.3184 5.93477 63.3184 5.9417 63.3184C5.94862 63.3184 5.95555 63.3184 5.96248 63.3184C5.96941 63.3184 5.97634 63.3184 5.98327 63.3184C5.99019 63.3184 5.99712 63.3184 6.00405 63.3184C6.01098 63.3184 6.01792 63.3184 6.02485 63.3184C6.03178 63.3184 6.03871 63.3184 6.04564 63.3184C6.05258 63.3184 6.05951 63.3184 6.06644 63.3184C6.07338 63.3184 6.08031 63.3184 6.08725 63.3184C6.09418 63.3184 6.10112 63.3184 6.10805 63.3184C6.11499 63.3184 6.12193 63.3184 6.12887 63.3184C6.1358 63.3184 6.14274 63.3184 6.14968 63.3184C6.15662 63.3184 6.16356 63.3184 6.1705 63.3184C6.17744 63.3184 6.18438 63.3184 6.19132 63.3184C6.19826 63.3184 6.2052 63.3184 6.21214 63.3184C6.21908 63.3184 6.22602 63.3184 6.23297 63.3184C6.23991 63.3184 6.24685 63.3184 6.2538 63.3184C6.26074 63.3184 6.26769 63.3184 6.27463 63.3184C6.28158 63.3184 6.28852 63.3184 6.29547 63.3184C6.30241 63.3184 6.30936 63.3184 6.31631 63.3184C6.32325 63.3184 6.3302 63.3184 6.33715 63.3184C6.3441 63.3184 6.35105 63.3184 6.35799 63.3184C6.36494 63.3184 6.37189 63.3184 6.37884 63.3184C6.38579 63.3184 6.39274 63.3184 6.39969 63.3184C6.40665 63.3184 6.4136 63.3184 6.42055 63.3184C6.4275 63.3184 6.43445 63.3184 6.44141 63.3184C6.44836 63.3184 6.45531 63.3184 6.46226 63.3184C6.46922 63.3184 6.47617 63.3184 6.48313 63.3184C6.49008 63.3184 6.49704 63.3184 6.50399 63.3184C6.51095 63.3184 6.5179 63.3184 6.52486 63.3184C6.53182 63.3184 6.53877 63.3184 6.54573 63.3184C6.55269 63.3184 6.55964 63.3184 6.5666 63.3184C6.57356 63.3184 6.58052 63.3184 6.58748 63.3184C6.59444 63.3184 6.60139 63.3184 6.60835 63.3184C6.61531 63.3184 6.62227 63.3184 6.62923 63.3184C6.63619 63.3184 6.64316 63.3184 6.65012 63.3184C6.65708 63.3184 6.66404 63.3184 6.671 63.3184C6.67796 63.3184 6.68493 63.3184 6.69189 63.3184C6.69885 63.3184 6.70581 63.3184 6.71278 63.3184C6.71974 63.3184 6.7267 63.3184 6.73367 63.3184C6.74063 63.3184 6.7476 63.3184 6.75456 63.3184C6.76153 63.3184 6.76849 63.3184 6.77546 63.3184C6.78242 63.3184 6.78939 63.3184 6.79635 63.3184C6.80332 63.3184 6.81029 63.3184 6.81725 63.3184C6.82422 63.3184 6.83119 63.3184 6.83815 63.3184C6.84512 63.3184 6.85209 63.3184 6.85906 63.3184C6.86602 63.3184 6.87299 63.3184 6.87996 63.3184C6.88693 63.3184 6.8939 63.3184 6.90087 63.3184C6.90784 63.3184 6.91481 63.3184 6.92178 63.3184C6.92875 63.3184 6.93572 63.3184 6.94269 63.3184C6.94966 63.3184 6.95663 63.3184 6.9636 63.3184C6.97057 63.3184 6.97754 63.3184 6.98451 63.3184C6.99148 63.3184 6.99846 63.3184 7.00543 63.3184C7.0124 63.3184 7.01937 63.3184 7.02634 63.3184C7.03332 63.3184 7.04029 63.3184 7.04726 63.3184C7.05424 63.3184 7.06121 63.3184 7.06818 63.3184C7.07516 63.3184 7.08213 63.3184 7.0891 63.3184C7.09608 63.3184 7.10305 63.3184 7.11003 63.3184C7.117 63.3184 7.12397 63.3184 7.13095 63.3184C7.13792 63.3184 7.1449 63.3184 7.15187 63.3184C7.15885 63.3184 7.16582 63.3184 7.1728 63.3184C7.17978 63.3184 7.18675 63.3184 7.19373 63.3184C7.2007 63.3184 7.20768 63.3184 7.21466 63.3184C7.22163 63.3184 7.22861 63.3184 7.23559 63.3184C7.24256 63.3184 7.24954 63.3184 7.25652 63.3184C7.26349 63.3184 7.27047 63.3184 7.27745 63.3184C7.28443 63.3184 7.2914 63.3184 7.29838 63.3184C7.30536 63.3184 7.31234 63.3184 7.31931 63.3184C7.32629 63.3184 7.33327 63.3184 7.34025 63.3184C7.34723 63.3184 7.35421 63.3184 7.36119 63.3184C7.36816 63.3184 7.37514 63.3184 7.38212 63.3184C7.3891 63.3184 7.39608 63.3184 7.40306 63.3184C7.41004 63.3184 7.41702 63.3184 7.424 63.3184C7.43097 63.3184 7.43795 63.3184 7.44493 63.3184C7.45191 63.3184 7.45889 63.3184 7.46587 63.3184C7.47285 63.3184 7.47983 63.3184 7.48681 63.3184C7.49379 63.3184 7.50077 63.3184 7.50775 63.3184C7.51473 63.3184 7.52171 63.3184 7.52869 63.3184C7.53567 63.3184 7.54265 63.3184 7.54963 63.3184C7.55661 63.3184 7.56359 63.3184 7.57057 63.3184C7.57756 63.3184 7.58454 63.3184 7.59152 63.3184C7.5985 63.3184 7.60548 63.3184 7.61246 63.3184C7.61944 63.3184 7.62642 63.3184 7.6334 63.3184C7.64038 63.3184 7.64736 63.3184 7.65434 63.3184C7.66132 63.3184 7.6683 63.3184 7.67529 63.3184C7.68227 63.3184 7.68925 63.3184 7.69623 63.3184C7.70321 63.3184 7.71019 63.3184 7.71717 63.3184C7.72415 63.3184 7.73113 63.3184 7.73811 63.3184C7.7451 63.3184 7.75208 63.3184 7.75906 63.3184C7.76604 63.3184 7.77302 63.3184 7.78 63.3184C7.78698 63.3184 7.79396 63.3184 7.80094 63.3184C7.80792 63.3184 7.8149 63.3184 7.82189 63.3184C7.82887 63.3184 7.83585 63.3184 7.84283 63.3184C7.84981 63.3184 7.85679 63.3184 7.86377 63.3184C7.87075 63.3184 7.87773 63.3184 7.88471 63.3184C7.89169 63.3184 7.89867 63.3184 7.90565 63.3184C7.91263 63.3184 7.91961 63.3184 7.9266 63.3184C7.93358 63.3184 7.94056 63.3184 7.94754 63.3184C7.95452 63.3184 7.9615 63.3184 7.96848 63.3184C7.97546 63.3184 7.98244 63.3184 7.98942 63.3184C7.9964 63.3184 8.00338 63.3184 8.01036 63.3184C8.01734 63.3184 8.02432 63.3184 8.03129 63.3184C8.03827 63.3184 8.04525 63.3184 8.05223 63.3184C8.05921 63.3184 8.06619 63.3184 8.07317 63.3184C8.08015 63.3184 8.08713 63.3184 8.09411 63.3184C8.10109 63.3184 8.10807 63.3184 8.11504 63.3184C8.12202 63.3184 8.129 63.3184 8.13598 63.3184C8.14296 63.3184 8.14994 63.3184 8.15691 63.3184C8.16389 63.3184 8.17087 63.3184 8.17785 63.3184C8.18482 63.3184 8.1918 63.3184 8.19878 63.3184C8.20576 63.3184 8.21273 63.3184 8.21971 63.3184C8.22669 63.3184 8.23367 63.3184 8.24064 63.3184C8.24762 63.3184 8.2546 63.3184 8.26157 63.3184C8.26855 63.3184 8.27552 63.3184 8.2825 63.3184C8.28948 63.3184 8.29645 63.3184 8.30343 63.3184C8.3104 63.3184 8.31738 63.3184 8.32435 63.3184C8.33133 63.3184 8.3383 63.3184 8.34528 63.3184C8.35225 63.3184 8.35923 63.3184 8.3662 63.3184C8.37318 63.3184 8.38015 63.3184 8.38713 63.3184C8.3941 63.3184 8.40107 63.3184 8.40805 63.3184C8.41502 63.3184 8.42199 63.3184 8.42897 63.3184C8.43594 63.3184 8.44291 63.3184 8.44988 63.3184C8.45686 63.3184 8.46383 63.3184 8.4708 63.3184C8.47777 63.3184 8.48474 63.3184 8.49172 63.3184C8.49869 63.3184 8.50566 63.3184 8.51263 63.3184C8.5196 63.3184 8.52657 63.3184 8.53354 63.3184C8.54051 63.3184 8.54748 63.3184 8.55445 63.3184C8.56142 63.3184 8.56839 63.3184 8.57536 63.3184C8.58233 63.3184 8.5893 63.3184 8.59627 63.3184C8.60324 63.3184 8.6102 63.3184 8.61717 63.3184C8.62414 63.3184 8.63111 63.3184 8.63808 63.3184C8.64504 63.3184 8.65201 63.3184 8.65898 63.3184C8.66594 63.3184 8.67291 63.3184 8.67988 63.3184C8.68684 63.3184 8.69381 63.3184 8.70077 63.3184C8.70774 63.3184 8.7147 63.3184 8.72167 63.3184C8.72863 63.3184 8.7356 63.3184 8.74256 63.3184C8.74953 63.3184 8.75649 63.3184 8.76345 63.3184C8.77042 63.3184 8.77738 63.3184 8.78434 63.3184C8.7913 63.3184 8.79827 63.3184 8.80523 63.3184C8.81219 63.3184 8.81915 63.3184 8.82611 63.3184C8.83307 63.3184 8.84003 63.3184 8.84699 63.3184C8.85395 63.3184 8.86091 63.3184 8.86787 63.3184C8.87483 63.3184 8.88179 63.3184 8.88875 63.3184C8.89571 63.3184 8.90267 63.3184 8.90963 63.3184C8.91658 63.3184 8.92354 63.3184 8.9305 63.3184C8.93746 63.3184 8.94441 63.3184 8.95137 63.3184C8.95833 63.3184 8.96528 63.3184 8.97224 63.3184C8.97919 63.3184 8.98615 63.3184 8.9931 63.3184C9.00006 63.3184 9.00701 63.3184 9.01396 63.3184C9.02092 63.3184 9.02787 63.3184 9.03482 63.3184C9.04178 63.3184 9.04873 63.3184 9.05568 63.3184C9.06263 63.3184 9.06958 63.3184 9.07653 63.3184C9.08349 63.3184 9.09044 63.3184 9.09739 63.3184C9.10434 63.3184 9.11128 63.3184 9.11823 63.3184C9.12518 63.3184 9.13213 63.3184 9.13908 63.3184C9.14603 63.3184 9.15297 63.3184 9.15992 63.3184C9.16687 63.3184 9.17382 63.3184 9.18076 63.3184C9.18771 63.3184 9.19465 63.3184 9.2016 63.3184C9.20854 63.3184 9.21549 63.3184 9.22243 63.3184C9.22937 63.3184 9.23632 63.3184 9.24326 63.3184C9.2502 63.3184 9.25715 63.3184 9.26409 63.3184C9.27103 63.3184 9.27797 63.3184 9.28491 63.3184C9.29185 63.3184 9.29879 63.3184 9.30573 63.3184C9.31267 63.3184 9.31961 63.3184 9.32655 63.3184C9.33349 63.3184 9.34043 63.3184 9.34736 63.3184C9.3543 63.3184 9.36124 63.3184 9.36817 63.3184C9.37511 63.3184 9.38205 63.3184 9.38898 63.3184C9.39592 63.3184 9.40285 63.3184 9.40978 63.3184C9.41672 63.3184 9.42365 63.3184 9.43058 63.3184C9.43752 63.3184 9.44445 63.3184 9.45138 63.3184C9.45831 63.3184 9.46524 63.3184 9.47217 63.3184C9.4791 63.3184 9.48603 63.3184 9.49296 63.3184C9.49989 63.3184 9.50682 63.3184 9.51375 63.3184C9.52068 63.3184 9.5276 63.3184 9.53453 63.3184C9.54146 63.3184 9.54838 63.3184 9.55531 63.3184C9.56223 63.3184 9.56916 63.3184 9.57608 63.3184C9.58301 63.3184 9.58993 63.3184 9.59685 63.3184C9.60378 63.3184 9.6107 63.3184 9.61762 63.3184C9.62454 63.3184 9.63146 63.3184 9.63838 63.3184C9.6453 63.3184 9.65222 63.3184 9.65914 63.3184C9.66606 63.3184 9.67298 63.3184 9.67989 63.3184C9.68681 63.3184 9.69373 63.3184 9.70064 63.3184C9.70756 63.3184 9.71448 63.3184 9.72139 63.3184C9.72831 63.3184 9.73522 63.3184 9.74213 63.3184C9.74905 63.3184 9.75596 63.3184 9.76287 63.3184C9.76978 63.3184 9.77669 63.3184 9.7836 63.3184C9.79051 63.3184 9.79742 63.3184 9.80433 63.3184C9.81124 63.3184 9.81815 63.3184 9.82506 63.3184C9.83196 63.3184 9.83887 63.3184 9.84578 63.3184C9.85268 63.3184 9.85959 63.3184 9.86649 63.3184C9.8734 63.3184 9.8803 63.3184 9.88721 63.3184C9.89411 63.3184 9.90101 63.3184 9.90791 63.3184C9.91481 63.3184 9.92171 63.3184 9.92861 63.3184C9.93551 63.3184 9.94241 63.3184 9.94931 63.3184C9.95621 63.3184 9.96311 63.3184 9.97 63.3184C9.9769 63.3184 9.9838 63.3184 9.99069 63.3184C9.99759 63.3184 10.0045 63.3184 10.0114 63.3184C10.0183 63.3184 10.0252 63.3184 10.0321 63.3184C10.0389 63.3184 10.0458 63.3184 10.0527 63.3184C10.0596 63.3184 10.0665 63.3184 10.0734 63.3184C10.0803 63.3184 10.0872 63.3184 10.0941 63.3184C10.1009 63.3184 10.1078 63.3184 10.1147 63.3184C10.1216 63.3184 10.1285 63.3184 10.1354 63.3184C10.1423 63.3184 10.1491 63.3184 10.156 63.3184C10.1629 63.3184 10.1698 63.3184 10.1767 63.3184C10.1835 63.3184 10.1904 63.3184 10.1973 63.3184C10.2042 63.3184 10.2111 63.3184 10.2179 63.3184C10.2248 63.3184 10.2317 63.3184 10.2386 63.3184C10.2454 63.3184 10.2523 63.3184 10.2592 63.3184C10.2661 63.3184 10.2729 63.3184 10.2798 63.3184C10.2867 63.3184 10.2935 63.3184 10.3004 63.3184C10.3073 63.3184 10.3142 63.3184 10.321 63.3184C10.3279 63.3184 10.3348 63.3184 10.3416 63.3184C10.3485 63.3184 10.3554 63.3184 10.3622 63.3184C10.3691 63.3184 10.376 63.3184 10.3828 63.3184C10.3897 63.3184 10.3965 63.3184 10.4034 63.3184C10.4103 63.3184 10.4171 63.3184 10.424 63.3184C10.4308 63.3184 10.4377 63.3184 10.4446 63.3184C10.4514 63.3184 10.4583 63.3184 10.4651 63.3184C10.472 63.3184 10.4788 63.3184 10.4857 63.3184C10.4925 63.3184 10.4994 63.3184 10.5062 63.3184C10.5131 63.3184 10.5199 63.3184 10.5268 63.3184C10.5336 63.3184 10.5405 63.3184 10.5473 63.3184C10.5542 63.3184 10.561 63.3184 10.5679 63.3184C10.5747 63.3184 10.5816 63.3184 10.5884 63.3184C10.5952 63.3184 10.6021 63.3184 10.6089 63.3184C10.6158 63.3184 10.6226 63.3184 10.6294 63.3184C10.6363 63.3184 10.6431 63.3184 10.65 63.3184C10.6568 63.3184 10.6636 63.3184 10.6705 63.3184C10.6773 63.3184 10.6841 63.3184 10.691 63.3184C10.6978 63.3184 10.7046 63.3184 10.7115 63.3184C10.7183 63.3184 10.7251 63.3184 10.732 63.3184C10.7388 63.3184 10.7456 63.3184 10.7524 63.3184C10.7593 63.3184 10.7661 63.3184 10.7729 63.3184C10.7797 63.3184 10.7866 63.3184 10.7934 63.3184C10.8002 63.3184 10.807 63.3184 10.8138 63.3184C10.8207 63.3184 10.8275 63.3184 10.8343 63.3184C10.8411 63.3184 10.8479 63.3184 10.8548 63.3184C10.8616 63.3184 10.8684 63.3184 10.8752 63.3184C10.882 63.3184 10.8888 63.3184 10.8956 63.3184C10.9024 63.3184 10.9093 63.3184 10.9161 63.3184C10.9229 63.3184 10.9297 63.3184 10.9365 63.3184C10.9433 63.3184 10.9501 63.3184 10.9569 63.3184C10.9637 63.3184 10.9705 63.3184 10.9773 63.3184C10.9841 63.3184 10.9909 63.3184 10.9977 63.3184C11.0045 63.3184 11.0113 63.3184 11.0181 63.3184C11.0249 63.3184 11.0317 63.3184 11.0385 63.3184C11.0453 63.3184 11.0521 63.3184 11.0589 63.3184C11.0657 63.3184 11.0725 63.3184 11.0793 63.3184C11.0861 63.3184 11.0928 63.3184 11.0996 63.3184C11.1064 63.3184 11.1132 63.3184 11.12 63.3184C11.1268 63.3184 11.1336 63.3184 11.1403 63.3184C11.1471 63.3184 11.1539 63.3184 11.1607 63.3184C11.1675 63.3184 11.1742 63.3184 11.181 63.3184C11.1878 63.3184 11.1946 63.3184 11.2014 63.3184C11.2081 63.3184 11.2149 63.3184 11.2217 63.3184C11.2285 63.3184 11.2352 63.3184 11.242 63.3184C11.2488 63.3184 11.2555 63.3184 11.2623 63.3184C11.2691 63.3184 11.2758 63.3184 11.2826 63.3184C11.2894 63.3184 11.2961 63.3184 11.3029 63.3184C11.3097 63.3184 11.3164 63.3184 11.3232 63.3184C11.33 63.3184 11.3367 63.3184 11.3435 63.3184C11.3502 63.3184 11.357 63.3184 11.3637 63.3184C11.3705 63.3184 11.3773 63.3184 11.384 63.3184C11.3908 63.3184 11.3975 63.3184 11.4043 63.3184C11.411 63.3184 11.4178 63.3184 11.4245 63.3184C11.4313 63.3184 11.438 63.3184 11.4448 63.3184C11.4515 63.3184 11.4582 63.3184 11.465 63.3184C11.4717 63.3184 11.4785 63.3184 11.4852 63.3184C11.492 63.3184 11.4987 63.3184 11.5054 63.3184C11.5122 63.3184 11.5189 63.3184 11.5256 63.3184C11.5324 63.3184 11.5391 63.3184 11.5458 63.3184C11.5526 63.3184 11.5593 63.3184 11.566 63.3184C11.5728 63.3184 11.5795 63.3184 11.5862 63.3184C11.5929 63.3184 11.5997 63.3184 11.6064 63.3184C11.6131 63.3184 11.6198 63.3184 11.6266 63.3184C11.6333 63.3184 11.64 63.3184 11.6467 63.3184C11.6534 63.3184 11.6602 63.3184 11.6669 63.3184C11.6736 63.3184 11.6803 63.3184 11.687 63.3184C11.6937 63.3184 11.7004 63.3184 11.7071 63.3184C11.7139 63.3184 11.7206 63.3184 11.7273 63.3184C11.734 63.3184 11.7407 63.3184 11.7474 63.3184C11.7541 63.3184 11.7608 63.3184 11.7675 63.3184C11.7742 63.3184 11.7809 63.3184 11.7876 63.3184C11.7943 63.3184 11.801 63.3184 11.8077 63.3184C11.8144 63.3184 11.8211 63.3184 11.8278 63.3184C11.8345 63.3184 11.8412 63.3184 11.8479 63.3184C11.8545 63.3184 11.8612 63.3184 11.8679 63.3184C11.8746 63.3184 11.8813 63.3184 11.888 63.3184C11.8947 63.3184 11.9013 63.3184 11.908 63.3184C11.9147 63.3184 11.9214 63.3184 11.9281 63.3184C11.9347 63.3184 11.9414 63.3184 11.9481 63.3184C11.9548 63.3184 11.9614 63.3184 11.9681 63.3184C11.9748 63.3184 11.9815 63.3184 11.9881 63.3184C11.9948 63.3184 12.0015 63.3184 12.0081 63.3184C12.0148 63.3184 12.0215 63.3184 12.0281 63.3184C12.0348 63.3184 12.0414 63.3184 12.0481 63.3184C12.0548 63.3184 12.0614 63.3184 12.0681 63.3184C12.0747 63.3184 12.0814 63.3184 12.088 63.3184C12.0947 63.3184 12.1014 63.3184 12.108 63.3184C12.1147 63.3184 12.1213 63.3184 12.128 63.3184C12.1346 63.3184 12.1412 63.3184 12.1479 63.3184C12.1545 63.3184 12.1612 63.3184 12.1678 63.3184C12.1745 63.3184 12.1811 63.3184 12.1877 63.3184C12.1944 63.3184 12.201 63.3184 12.2076 63.3184C12.2143 63.3184 12.2209 63.3184 12.2275 63.3184C12.2342 63.3184 12.2408 63.3184 12.2474 63.3184C12.2541 63.3184 12.2607 63.3184 12.2673 63.3184C12.2739 63.3184 12.2806 63.3184 12.2872 63.3184C12.2938 63.3184 12.3004 63.3184 12.3071 63.3184C12.3137 63.3184 12.3203 63.3184 12.3269 63.3184C12.3335 63.3184 12.3401 63.3184 12.3467 63.3184C12.3534 63.3184 12.36 63.3184 12.3666 63.3184C12.3732 63.3184 12.3798 63.3184 12.3864 63.3184C12.393 63.3184 12.3996 63.3184 12.4062 63.3184C12.4128 63.3184 12.4194 63.3184 12.426 63.3184C12.4326 63.3184 12.4392 63.3184 12.4458 63.3184C12.4524 63.3184 12.459 63.3184 12.4656 63.3184C12.4722 63.3184 12.4788 63.3184 12.4854 63.3184C12.4919 63.3184 12.4985 63.3184 12.5051 63.3184C12.5117 63.3184 12.5183 63.3184 12.5249 63.3184C12.5315 63.3184 12.538 63.3184 12.5446 63.3184C12.5512 63.3184 12.5578 63.3184 12.5643 63.3184C12.5709 63.3184 12.5775 63.3184 12.5841 63.3184C12.5906 63.3184 12.5972 63.3184 12.6038 63.3184C12.6103 63.3184 12.6169 63.3184 12.6235 63.3184C12.63 63.3184 12.6366 63.3184 12.6432 63.3184C12.6497 63.3184 12.6563 63.3184 12.6628 63.3184C12.6694 63.3184 12.676 63.3184 12.6825 63.3184C12.6891 63.3184 12.6956 63.3184 12.7022 63.3184C12.7087 63.3184 12.7153 63.3184 12.7218 63.3184C12.7284 63.3184 12.7349 63.3184 12.7414 63.3184C12.748 63.3184 12.7545 63.3184 12.7611 63.3184C12.7676 63.3184 12.7742 63.3184 12.7807 63.3184C12.7872 63.3184 12.7938 63.3184 12.8003 63.3184C12.8068 63.3184 12.8134 63.3184 12.8199 63.3184C12.8264 63.3184 12.8329 63.3184 12.8395 63.3184C12.846 63.3184 12.8525 63.3184 12.859 63.3184C12.8656 63.3184 12.8721 63.3184 12.8786 63.3184C12.8851 63.3184 12.8916 63.3184 12.8981 63.3184C12.9047 63.3184 12.9112 63.3184 12.9177 63.3184C12.9242 63.3184 12.9307 63.3184 12.9372 63.3184C12.9437 63.3184 12.9502 63.3184 12.9567 63.3184C12.9632 63.3184 12.9697 63.3184 12.9762 63.3184V62.3184ZM27.749 63.3184H42.5217V62.3184H27.749V63.3184Z" fill="#003E7C"/>
<circle cx="10.3638" cy="36.8179" r="3.04545" stroke="#006CBD"/>
<path d="M10.3636 33.8633V36.8178M10.3636 36.8178L8 38.5906M10.3636 36.8178L12.7273 38.5906" stroke="#006CBD"/>
<path d="M48 6V9H50.9714" stroke="#003E7C" stroke-linecap="round"/>
<path d="M35 23H52" stroke="#003E7C" stroke-linecap="round"/>
<path d="M5.97119 52L5.97119 49L2.99976 49" stroke="#003E7C" stroke-linecap="round"/>
<path d="M4 9L6.97143 9L6.97143 6" stroke="#003E7C" stroke-linecap="round"/>
<path d="M52 19.9629L47.5 16L43 19L39 17.9629L35 19.9629" stroke="#006CBD" stroke-linecap="round" stroke-linejoin="round"/>
<path d="M24 31.8133L36.4091 28L50 31.8133V42.3733C50 52.0533 40.9886 60.12 36.4091 61C26.9545 56.8933 24.197 46.8711 24 42.3733V31.8133Z" stroke="#006CBD"/>
<path d="M28 35.6578L36.5909 33L46 35.6578V43.0178C46 49.7644 39.7614 55.3867 36.5909 56C30.0455 53.1378 28.1364 46.1526 28 43.0178V35.6578Z" stroke="#006CBD"/>
</svg>
