<svg width="65" height="64" viewBox="0 0 65 64" fill="none" xmlns="http://www.w3.org/2000/svg">
<circle cx="33" cy="28" r="28" fill="#DAF3F7"/>
<path d="M30.5 30L2 30C1.44771 30 0.999999 30.4477 0.999999 31L1 62C1 62.5523 1.44772 63 2 63L52 63C52.5523 63 53 62.5523 53 62L53 31C53 30.4477 52.5523 30 52 30L43 30" stroke="#003E7C" stroke-linecap="round"/>
<path d="M44.9252 47C37.9023 47 31.9998 47 31.9998 47M44.4881 51.4958H31.9998M49.9829 55.9916H31.9998M49.9829 47C42.9601 47 47.173 47 47.173 47" stroke="#003E7C" stroke-linecap="round"/>
<path d="M15 47V47.5H15.5H26.4898C26.2392 53.6377 21.3961 58.5 15.5 58.5C9.44471 58.5 4.5 53.3715 4.5 47C4.5 40.8048 9.17486 35.7848 15 35.5117V47Z" stroke="#003E7C"/>
<path d="M17.5 33.5107C23.4535 33.7654 28.2346 38.5465 28.4893 44.5H17.5V33.5107Z" stroke="#006CBD"/>
<path d="M4 15H12" stroke="#003E7C" stroke-linecap="round"/>
<rect x="27.5" y="19.5" width="5" height="5" rx="0.5" stroke="#003E7C" stroke-linecap="round" stroke-linejoin="round"/>
<rect x="43.5" y="11.5" width="5" height="13" rx="0.5" stroke="#003E7C" stroke-linecap="round" stroke-linejoin="round"/>
<rect x="35.5" y="14.5" width="5" height="10" rx="0.5" stroke="#003E7C" stroke-linecap="round" stroke-linejoin="round"/>
<path d="M21 20.9629L16.5 17L12 20L8 18.9629L4 20.9629" stroke="#006CBD" stroke-linecap="round" stroke-linejoin="round"/>
<path d="M32.5 42L38.6667 37.3333L41.5884 40.1176L49.2355 34M49.2355 34V38M49.2355 34H45.5" stroke="#006CBD" stroke-linecap="round" stroke-linejoin="round"/>
<rect x="1.5" y="11.5" width="22" height="13" rx="0.5" stroke="#003E7C" stroke-linecap="round"/>
</svg>
