<svg width="65" height="64" viewBox="0 0 65 64" fill="none" xmlns="http://www.w3.org/2000/svg">
<circle cx="33" cy="28" r="28" fill="#DAF3F7"/>
<path d="M38.6381 18V11H1V63H38.6381V54.5M42.6 56H52.5048M42.6 59.5H52.5048M42.6 63H52.5048" stroke="#003E7C" stroke-linecap="round"/>
<path d="M34.671 38.5V39H35.171H51.0063C50.7447 47.6094 43.7508 54.5 35.171 54.5C26.4257 54.5 19.3281 47.3411 19.3281 38.5C19.3281 29.828 26.1568 22.7745 34.671 22.5078V38.5Z" stroke="#003E7C"/>
<path d="M37.1572 20.5078C45.5072 20.7693 52.236 27.5584 52.4925 36H37.1572V20.5078Z" stroke="#006CBD"/>
<path d="M4.96191 15H22.7905M4.96191 20H17.3429" stroke="#003E7C" stroke-linecap="round"/>
<path d="M10.4048 31C10.4048 32.3852 9.29378 33.5 7.93334 33.5C6.57291 33.5 5.46191 32.3852 5.46191 31C5.46191 29.6148 6.57291 28.5 7.93334 28.5C9.29378 28.5 10.4048 29.6148 10.4048 31Z" stroke="#003E7C"/>
<path d="M11.4004 49V52H14.3718" stroke="#003E7C" stroke-linecap="round"/>
<path d="M7.93359 58.5L7.93359 55.5L4.96217 55.5" stroke="#003E7C" stroke-linecap="round"/>
<path d="M4.96191 52L7.93334 52L7.93334 49" stroke="#003E7C" stroke-linecap="round"/>
<path d="M14.3711 55.5L11.3997 55.5L11.3997 58.5" stroke="#003E7C" stroke-linecap="round"/>
</svg>
