<svg width="65" height="64" viewBox="0 0 65 64" fill="none" xmlns="http://www.w3.org/2000/svg">
<circle cx="33" cy="28" r="28" fill="#DAF3F7"/>
<path d="M38.6381 21.5V18H1V63H38.6381V57.5" stroke="#003E7C" stroke-linecap="round"/>
<path d="M13 29H23" stroke="#003E7C" stroke-linecap="round"/>
<path d="M13 38H23" stroke="#003E7C" stroke-linecap="round"/>
<path d="M13 44H23" stroke="#003E7C" stroke-linecap="round"/>
<path d="M13 53H23" stroke="#003E7C" stroke-linecap="round"/>
<path d="M13 31H19" stroke="#003E7C" stroke-linecap="round"/>
<path d="M13 40H19" stroke="#003E7C" stroke-linecap="round"/>
<path d="M13 46H19" stroke="#003E7C" stroke-linecap="round"/>
<path d="M13 55H19" stroke="#003E7C" stroke-linecap="round"/>
<path d="M13 57H17" stroke="#003E7C" stroke-linecap="round"/>
<circle cx="7" cy="30" r="2.5" stroke="#003E7C"/>
<circle cx="7" cy="55" r="2.5" stroke="#003E7C"/>
<circle cx="7" cy="39" r="1.5" stroke="#003E7C"/>
<circle cx="7" cy="45" r="1.5" stroke="#003E7C"/>
<path d="M7 32.5V38" stroke="#003E7C"/>
<path d="M7 40V44" stroke="#003E7C"/>
<path d="M7 46V52.5" stroke="#003E7C"/>
<path d="M5 22H22.8286" stroke="#003E7C" stroke-linecap="round"/>
<rect x="28.5" y="30.5" width="23" height="22" rx="0.5" stroke="#003E7C" stroke-linecap="round" stroke-linejoin="round"/>
<rect x="32.9746" y="28" width="1.00364" height="4.18182" rx="0.501818" fill="#003E7C"/>
<rect x="34.7202" y="28" width="1.00364" height="4.18182" rx="0.501818" fill="#003E7C"/>
<rect x="44.3198" y="28" width="1.00364" height="4.18182" rx="0.501818" fill="#003E7C"/>
<rect x="46.022" y="28" width="1.00364" height="4.18182" rx="0.501818" fill="#003E7C"/>
<rect x="36" y="35" width="1" height="7" rx="0.5" transform="rotate(-90 36 35)" fill="#006CBD"/>
<rect x="39" y="41" width="1" height="7" rx="0.5" transform="rotate(-90 39 41)" fill="#006CBD"/>
<rect x="30" y="44" width="1" height="4" rx="0.5" transform="rotate(-90 30 44)" fill="#006CBD"/>
<circle cx="30.5" cy="46.5" r="0.5" fill="#003E7C"/>
<circle cx="36.5" cy="46.5" r="0.5" fill="#003E7C"/>
<circle cx="33.5" cy="46.5" r="0.5" fill="#003E7C"/>
<circle cx="39.5" cy="46.5" r="0.5" fill="#003E7C"/>
<circle cx="42.5" cy="46.5" r="0.5" fill="#003E7C"/>
<circle cx="45.5" cy="46.5" r="0.5" fill="#003E7C"/>
<circle cx="30.5" cy="40.5" r="0.5" fill="#003E7C"/>
<circle cx="36.5" cy="40.5" r="0.5" fill="#003E7C"/>
<circle cx="33.5" cy="40.5" r="0.5" fill="#003E7C"/>
<circle cx="42.5" cy="40.5" r="0.5" fill="#003E7C"/>
<circle cx="45.5" cy="40.5" r="0.5" fill="#003E7C"/>
<circle cx="39.5" cy="40.5" r="0.5" fill="#003E7C"/>
<circle cx="48.5" cy="40.5" r="0.5" fill="#003E7C"/>
<circle cx="30.5" cy="43.5" r="0.5" fill="#003E7C"/>
<circle cx="36.5" cy="43.5" r="0.5" fill="#003E7C"/>
<circle cx="33.5" cy="43.5" r="0.5" fill="#003E7C"/>
<circle cx="42.5" cy="43.5" r="0.5" fill="#003E7C"/>
<circle cx="45.5" cy="43.5" r="0.5" fill="#003E7C"/>
<circle cx="39.5" cy="43.5" r="0.5" fill="#003E7C"/>
<circle cx="48.5" cy="43.5" r="0.5" fill="#003E7C"/>
<circle cx="30.5" cy="37.5" r="0.5" fill="#003E7C"/>
<circle cx="36.5" cy="37.5" r="0.5" fill="#003E7C"/>
<circle cx="33.5" cy="37.5" r="0.5" fill="#003E7C"/>
<circle cx="42.5" cy="37.5" r="0.5" fill="#003E7C"/>
<circle cx="45.5" cy="37.5" r="0.5" fill="#003E7C"/>
<circle cx="39.5" cy="37.5" r="0.5" fill="#003E7C"/>
<circle cx="48.5" cy="37.5" r="0.5" fill="#003E7C"/>
<circle cx="36.5" cy="34.5" r="0.5" fill="#003E7C"/>
<circle cx="42.5" cy="34.5" r="0.5" fill="#003E7C"/>
<circle cx="45.5" cy="34.5" r="0.5" fill="#003E7C"/>
<circle cx="39.5" cy="34.5" r="0.5" fill="#003E7C"/>
<circle cx="48.5" cy="34.5" r="0.5" fill="#003E7C"/>
</svg>
