<svg width="65" height="64" viewBox="0 0 65 64" fill="none" xmlns="http://www.w3.org/2000/svg">
<circle cx="36.5558" cy="28.4444" r="28.4444" fill="#DAF3F7"/>
<path d="M14.5305 34.3662H9.99152V25.2882L14.5305 23.7752L11.5045 19.2362L19.0695 11.6712L23.6085 14.6972L25.1215 10.1582H34.1996L35.7126 14.6972L40.2516 11.6712L46.3036 17.7232L43.2776 22.2622L49.3296 23.7752V32.8532L43.2776 34.3662L47.8166 40.4183L40.2516 46.4703L35.7126 43.4443L34.1996 49.4963H25.1215L23.6085 46.4703" stroke="#003E7C" stroke-linecap="round" stroke-linejoin="round"/>
<path d="M32.4705 36.5729C35.1106 35.4719 36.9663 32.8662 36.9663 29.8271C36.9663 25.7923 33.6955 22.5215 29.6607 22.5215C26.6216 22.5215 24.0159 24.3772 22.9149 27.0173" stroke="#003E7C"/>
<path d="M48.7674 53.9922C41.7446 53.9922 35.8421 53.9922 35.8421 53.9922M48.3304 58.488H35.8421M53.8252 62.9837H35.8421M53.8252 53.9922C46.8024 53.9922 51.0153 53.9922 51.0153 53.9922" stroke="#003E7C" stroke-linecap="round"/>
<path d="M18.5707 41.1733L17.2642 42.3328M15.911 43.6778L6.48565 53.1853M4.71255 54.8086L3.49938 56.1072M29.8625 32.9644C30.4846 34.804 30.5408 38.6172 28.0427 41.1733C26.4562 42.7966 23.1901 43.3531 21.6036 42.7966L6.48565 57.5448C5.52134 58.256 3.21943 59.2516 1.7263 57.5448C0.233172 55.8381 1.38412 53.9273 2.14624 53.1853L16.7043 38.7153C16.5021 36.891 16.9981 32.5806 18.5707 31.1556C20.1571 29.718 22.2568 28.6048 26.4563 29.7179L22.5834 33.6136L22.1971 36.7316L25.7097 37.1848L29.8625 32.9644Z" stroke="#006CBD"/>
</svg>
