<svg width="64" height="63" viewBox="0 0 64 63" fill="none" xmlns="http://www.w3.org/2000/svg">
<circle cx="36" cy="28" r="28" fill="#DAF3F7"/>
<path d="M1 17.5C1 17.2239 1.22386 17 1.5 17H47.5C47.7761 17 48 17.2239 48 17.5C48 17.7761 47.7761 18 47.5 18H1.5C1.22386 18 1 17.7761 1 17.5Z" fill="#003E7C"/>
<path d="M48 58H2C1.44772 58 1 57.5523 1 57V13C1 12.4477 1.44772 12 2 12H47C47.5523 12 48 12.4477 48 13V34" stroke="#003E7C" stroke-linecap="round"/>
<path d="M32 15C32 14.4477 32.4477 14 33 14C33.5523 14 34 14.4477 34 15C34 15.5523 33.5523 16 33 16C32.4477 16 32 15.5523 32 15Z" fill="#003E7C"/>
<path d="M28 15C28 14.4477 28.4477 14 29 14C29.5523 14 30 14.4477 30 15C30 15.5523 29.5523 16 29 16C28.4477 16 28 15.5523 28 15Z" fill="#003E7C"/>
<path d="M36 15C36 14.4477 36.4477 14 37 14C37.5523 14 38 14.4477 38 15C38 15.5523 37.5523 16 37 16C36.4477 16 36 15.5523 36 15Z" fill="#003E7C"/>
<path d="M11.5455 26.4541V29.7268H15.0909M8.81818 26.4541V29.7268H5M5 32.4541H8.81818V35.9996H5M20 35.9996H18.6364V32.4541H20M5 40H10.5455V42.4545H5V46M12 45.5H15.9091C15.9091 43.0582 15.9091 40 15.9091 40H20V49H15.9091V53.5M11.5455 32.4541V35.9996H15.9091V32.4541H11.5455Z" stroke="#003E7C" stroke-linecap="round" stroke-linejoin="round"/>
<circle cx="17.2729" cy="24.5458" r="1.40909" stroke="#006CBD" stroke-linecap="round" stroke-linejoin="round"/>
<path d="M14 24.5455C14 27 17.2727 29.7273 17.2727 29.7273C17.2727 29.7273 20.5455 27 20.5455 24.5455C20.5455 22.0909 18.9091 21 17.2727 21C15.3636 21 14 22.3636 14 24.5455Z" stroke="#006CBD" stroke-linecap="round" stroke-linejoin="round"/>
<circle cx="26" cy="27" r="1.5" stroke="#003E7C"/>
<circle cx="33" cy="31" r="1.5" stroke="#003E7C"/>
<path d="M27.5 28L31.5 30.5M34.5 30.5L38.5 27" stroke="#003E7C"/>
<circle cx="39.5" cy="25.5" r="2" stroke="#003E7C"/>
<path d="M12 49H5V53H12V49Z" stroke="#003E7C" stroke-linecap="round" stroke-linejoin="round"/>
<path d="M25 37.5C24.7239 37.5 24.5 37.7239 24.5 38C24.5 38.2761 24.7239 38.5 25 38.5V37.5ZM33.5 38.5C33.7761 38.5 34 38.2761 34 38C34 37.7239 33.7761 37.5 33.5 37.5V38.5ZM25 43C24.7239 43 24.5 43.2239 24.5 43.5C24.5 43.7761 24.7239 44 25 44V43ZM30.5 44C30.7761 44 31 43.7761 31 43.5C31 43.2239 30.7761 43 30.5 43V44ZM25 38.5H33.5V37.5H25V38.5ZM25 44H30.5V43H25V44Z" fill="#003E7C"/>
<circle cx="42" cy="46" r="8.5" stroke="#006CBD"/>
<circle cx="42" cy="46" r="3.5" stroke="#006CBD"/>
<path d="M49 46C49 42.134 45.866 39 42 39" stroke="#006CBD" stroke-linecap="round"/>
</svg>
 