<svg width="65" height="64" viewBox="0 0 65 64" fill="none" xmlns="http://www.w3.org/2000/svg">
<circle cx="33" cy="28" r="28" fill="#DAF3F7"/>
<path d="M30.5 30L2 30C1.44771 30 0.999999 30.4477 0.999999 31L1 62C1 62.5523 1.44772 63 2 63L52 63C52.5523 63 53 62.5523 53 62L53 31C53 30.4477 52.5523 30 52 30L43 30" stroke="#003E7C" stroke-linecap="round"/>
<path d="M4 15H12" stroke="#003E7C" stroke-linecap="round"/>
<path d="M1 43L6.53007 37.8649C7.34119 37.1118 8.6098 37.1606 9.36058 37.974L12.5881 41.4704C13.3586 42.3051 14.6687 42.3313 15.4719 41.5281L19.0858 37.9142C19.8668 37.1332 21.1332 37.1332 21.9142 37.9142L25.5281 41.5281C26.3313 42.3313 27.6414 42.3051 28.4119 41.4704L33 36.5" stroke="#003E7C" stroke-linecap="round"/>
<path d="M1 53.5L6.53007 48.3649C7.34119 47.6118 8.6098 47.6606 9.36058 48.474L12.5881 51.9704C13.3586 52.8051 14.6687 52.8313 15.4719 52.0281L19.0858 48.4142C19.8668 47.6332 21.1332 47.6332 21.9142 48.4142L25.5281 52.0281C26.3313 52.8313 27.6414 52.8051 28.4119 51.9704L33 47" stroke="#003E7C" stroke-linecap="round"/>
<path d="M40.5 36.5L45.9652 41.5748C46.8012 42.3511 48.116 42.272 48.8529 41.4011L53 36.5" stroke="#003E7C" stroke-linecap="round"/>
<path d="M40.5 47L45.9652 52.0748C46.8012 52.8511 48.116 52.772 48.8529 51.9011L53 47" stroke="#003E7C" stroke-linecap="round"/>
<path d="M33.5 27.5V50L37 53.5L40 50V27.5" stroke="#006CBD" stroke-linecap="round" stroke-linejoin="bevel"/>
<path d="M4 40L1 53" stroke="#003E7C"/>
<path d="M8 37L5 50" stroke="#003E7C"/>
<path d="M11 40L9 48.5" stroke="#003E7C"/>
<path d="M14 42L12 51.5" stroke="#003E7C"/>
<path d="M18 39L15 52.5" stroke="#003E7C"/>
<path d="M21.5 37.5L19.5 48" stroke="#003E7C"/>
<path d="M24 40L23 49.5" stroke="#003E7C"/>
<path d="M27 42L26 52.5" stroke="#003E7C"/>
<path d="M30.5 39L30 50" stroke="#003E7C"/>
<path d="M43 39V49.5" stroke="#003E7C"/>
<path d="M47 42V52.5" stroke="#003E7C"/>
<path d="M50 40V50.5" stroke="#003E7C"/>
<rect x="27.5" y="19.5" width="5" height="5" rx="0.5" stroke="#003E7C" stroke-linecap="round" stroke-linejoin="round"/>
<rect x="43.5" y="11.5" width="5" height="13" rx="0.5" stroke="#003E7C" stroke-linecap="round" stroke-linejoin="round"/>
<rect x="35.5" y="14.5" width="5" height="10" rx="0.5" stroke="#003E7C" stroke-linecap="round" stroke-linejoin="round"/>
<path d="M21 20.9629L16.5 17L12 20L8 18.9629L4 20.9629" stroke="#006CBD" stroke-linecap="round" stroke-linejoin="round"/>
<rect x="1.5" y="11.5" width="22" height="13" rx="0.5" stroke="#003E7C" stroke-linecap="round"/>
<path d="M3 36C3 35.4477 3.44772 35 4 35C4.55228 35 5 35.4477 5 36C5 36.5523 4.55228 37 4 37C3.44772 37 3 36.5523 3 36Z" fill="#003E7C"/>
<path d="M14 37C14 36.4477 14.4477 36 15 36C15.5523 36 16 36.4477 16 37C16 37.5523 15.5523 38 15 38C14.4477 38 14 37.5523 14 37Z" fill="#003E7C"/>
<path d="M20 33C20 32.4477 20.4477 32 21 32C21.5523 32 22 32.4477 22 33C22 33.5523 21.5523 34 21 34C20.4477 34 20 33.5523 20 33Z" fill="#003E7C"/>
<path d="M29 34C29 33.4477 29.4477 33 30 33C30.5523 33 31 33.4477 31 34C31 34.5523 30.5523 35 30 35C29.4477 35 29 34.5523 29 34Z" fill="#003E7C"/>
<path d="M24 37C24 36.4477 24.4477 36 25 36C25.5523 36 26 36.4477 26 37C26 37.5523 25.5523 38 25 38C24.4477 38 24 37.5523 24 37Z" fill="#003E7C"/>
<path d="M43 34C43 33.4477 43.4477 33 44 33C44.5523 33 45 33.4477 45 34C45 34.5523 44.5523 35 44 35C43.4477 35 43 34.5523 43 34Z" fill="#003E7C"/>
<path d="M47 38C47 37.4477 47.4477 37 48 37C48.5523 37 49 37.4477 49 38C49 38.5523 48.5523 39 48 39C47.4477 39 47 38.5523 47 38Z" fill="#003E7C"/>
<path d="M49 33C49 32.4477 49.4477 32 50 32C50.5523 32 51 32.4477 51 33C51 33.5523 50.5523 34 50 34C49.4477 34 49 33.5523 49 33Z" fill="#003E7C"/>
<path d="M9 33C9 32.4477 9.44772 32 10 32C10.5523 32 11 32.4477 11 33C11 33.5523 10.5523 34 10 34C9.44772 34 9 33.5523 9 33Z" fill="#003E7C"/>
</svg>
