<svg width="64" height="63" viewBox="0 0 64 63" fill="none" xmlns="http://www.w3.org/2000/svg">
<circle cx="36" cy="28" r="28" fill="#DAF3F7"/>
<rect x="4" y="17" width="12" height="1" rx="0.5" fill="#003E7C"/>
<rect x="26" y="17" width="6" height="1" rx="0.5" fill="#003E7C"/>
<rect x="21" y="26" width="11" height="1" rx="0.5" fill="#003E7C"/>
<rect x="21" y="29" width="11" height="1" rx="0.5" fill="#003E7C"/>
<rect x="40" y="25" width="6" height="1" rx="0.5" fill="#003E7C"/>
<rect x="40" y="28" width="2" height="1" rx="0.5" fill="#003E7C"/>
<rect x="4" y="20" width="12" height="1" rx="0.5" fill="#003E7C"/>
<path d="M10 35V35.5H10.5H16.4826C16.2461 38.8862 13.6272 41.5 10.5 41.5C7.22054 41.5 4.5 38.6254 4.5 35C4.5 31.5606 6.94858 28.7969 10 28.5224V35Z" stroke="#003E7C"/>
<path d="M12.5 27.5189C15.6912 27.7617 18.2383 30.3088 18.4811 33.5H12.5V27.5189Z" stroke="#006CBD"/>
<rect x="4" y="23" width="28" height="1" rx="0.5" fill="#003E7C"/>
<path d="M34.5 25.5V13C34.5 12.4477 34.0523 12 33.5 12L2 12C1.44772 12 1 12.4477 1 13V57C1 57.5523 1.44771 58 2 58H33.5C34.0523 58 34.5 57.5523 34.5 57V53.5" stroke="#003E7C" stroke-linecap="round"/>
<path d="M9 53C9 52.4477 9.44772 52 10 52C10.5523 52 11 52.4477 11 53C11 53.5523 10.5523 54 10 54C9.44772 54 9 53.5523 9 53Z" fill="#003E7C"/>
<path d="M5 53C5 52.4477 5.44772 52 6 52C6.55228 52 7 52.4477 7 53C7 53.5523 6.55228 54 6 54C5.44772 54 5 53.5523 5 53Z" fill="#003E7C"/>
<path d="M13 53C13 52.4477 13.4477 52 14 52C14.5523 52 15 52.4477 15 53C15 53.5523 14.5523 54 14 54C13.4477 54 13 53.5523 13 53Z" fill="#003E7C"/>
<path d="M27 35V34.5C26.7239 34.5 26.5 34.7239 26.5 35H27ZM52 35H52.5C52.5 34.7239 52.2761 34.5 52 34.5V35ZM39.1737 42.8839L39.4455 42.4642L39.1737 42.8839ZM26.5 35V50H27.5V35H26.5ZM28 51.5H51V50.5H28V51.5ZM52.5 50V35H51.5V50H52.5ZM52 34.5H27V35.5H52V34.5ZM40.5536 43.2898L52.2788 35.4151L51.7212 34.5849L39.996 42.4596L40.5536 43.2898ZM39.4455 42.4642L27.2718 34.5803L26.7282 35.4197L38.9019 43.3036L39.4455 42.4642ZM39.996 42.4596C39.83 42.5712 39.6134 42.573 39.4455 42.4642L38.9019 43.3036C39.4056 43.6298 40.0553 43.6244 40.5536 43.2898L39.996 42.4596ZM51 51.5C51.8284 51.5 52.5 50.8284 52.5 50H51.5C51.5 50.2761 51.2761 50.5 51 50.5V51.5ZM26.5 50C26.5 50.8284 27.1716 51.5 28 51.5V50.5C27.7239 50.5 27.5 50.2761 27.5 50H26.5Z" fill="#006CBD"/>
<path d="M5 48L10 45.5L15 48L18.5 44.5" stroke="#003E7C"/>
<path d="M38.5 32V22H48.5V32H38.5Z" stroke="#003E7C" stroke-linecap="round" stroke-linejoin="round"/>
<rect x="39" y="18" width="9" height="1" rx="0.5" fill="#003E7C"/>
<rect x="39" y="14" width="9" height="1" rx="0.5" fill="#003E7C"/>
<rect x="39" y="16" width="5" height="1" rx="0.5" fill="#003E7C"/>
</svg>
