<svg width="64" height="64" viewBox="0 0 64 64" fill="none" xmlns="http://www.w3.org/2000/svg">
<circle cx="36" cy="28" r="28" fill="#DAF3F7"/>
<path d="M23.2941 17.3181V12.5908H27.4305V17.3181M23.2941 17.3181H20.3396V23.2272H30.3851V17.3181H27.4305M23.2941 17.3181H27.4305" stroke="#003E7C"/>
<path d="M23.2941 23.2275V26.773M23.2941 26.773H27.4305M23.2941 26.773H20.3396V43.3184H29.7941V38.5912H38.0669V34.4548H29.7941V26.773H27.4305M27.4305 26.773V23.2275" stroke="#003E7C"/>
<path d="M29.794 34.4541H20.3395M20.3395 38.5905H29.794M38.0667 36.2268H42.2031M20.3395 36.2268H18.3183M23.294 43.3177V53.9541M23.294 53.9541H27.4304M23.294 53.9541H20.3395V59.2723M27.4304 53.9541V43.3177M27.4304 53.9541H29.794V59.2723M20.3395 59.2723H17.9758V62.8177H32.7486V59.2723H29.794M20.3395 59.2723H29.794" stroke="#003E7C"/>
<path d="M27.1824 48.6367H29.546" stroke="#003E7C"/>
<path d="M42.5459 33.2725L42.5459 39.1816" stroke="#006CBD" stroke-linecap="round"/>
<path d="M9.45508 62.3184C9.17894 62.3184 8.95508 62.5422 8.95508 62.8184C8.95508 63.0945 9.17894 63.3184 9.45508 63.3184V62.3184ZM47.5217 63.3184C47.7978 63.3184 48.0217 63.0945 48.0217 62.8184C48.0217 62.5422 47.7978 62.3184 47.5217 62.3184V63.3184ZM17.9762 62.3184C17.9697 62.3184 17.9632 62.3184 17.9567 62.3184C17.9503 62.3184 17.9438 62.3184 17.9373 62.3184C17.9308 62.3184 17.9244 62.3184 17.9179 62.3184C17.9114 62.3184 17.905 62.3184 17.8985 62.3184C17.892 62.3184 17.8856 62.3184 17.8792 62.3184C17.8727 62.3184 17.8663 62.3184 17.8598 62.3184C17.8534 62.3184 17.847 62.3184 17.8406 62.3184C17.8341 62.3184 17.8277 62.3184 17.8213 62.3184C17.8149 62.3184 17.8085 62.3184 17.8021 62.3184C17.7957 62.3184 17.7893 62.3184 17.7829 62.3184C17.7765 62.3184 17.7701 62.3184 17.7637 62.3184C17.7574 62.3184 17.751 62.3184 17.7446 62.3184C17.7383 62.3184 17.7319 62.3184 17.7255 62.3184C17.7192 62.3184 17.7128 62.3184 17.7065 62.3184C17.7001 62.3184 17.6938 62.3184 17.6874 62.3184C17.6811 62.3184 17.6748 62.3184 17.6684 62.3184C17.6621 62.3184 17.6558 62.3184 17.6495 62.3184C17.6432 62.3184 17.6369 62.3184 17.6306 62.3184C17.6242 62.3184 17.6179 62.3184 17.6117 62.3184C17.6054 62.3184 17.5991 62.3184 17.5928 62.3184C17.5865 62.3184 17.5802 62.3184 17.5739 62.3184C17.5677 62.3184 17.5614 62.3184 17.5551 62.3184C17.5489 62.3184 17.5426 62.3184 17.5364 62.3184C17.5301 62.3184 17.5238 62.3184 17.5176 62.3184C17.5114 62.3184 17.5051 62.3184 17.4989 62.3184C17.4927 62.3184 17.4864 62.3184 17.4802 62.3184C17.474 62.3184 17.4678 62.3184 17.4615 62.3184C17.4553 62.3184 17.4491 62.3184 17.4429 62.3184C17.4367 62.3184 17.4305 62.3184 17.4243 62.3184C17.4181 62.3184 17.4119 62.3184 17.4057 62.3184C17.3996 62.3184 17.3934 62.3184 17.3872 62.3184C17.381 62.3184 17.3749 62.3184 17.3687 62.3184C17.3625 62.3184 17.3564 62.3184 17.3502 62.3184C17.3441 62.3184 17.3379 62.3184 17.3318 62.3184C17.3256 62.3184 17.3195 62.3184 17.3133 62.3184C17.3072 62.3184 17.3011 62.3184 17.295 62.3184C17.2888 62.3184 17.2827 62.3184 17.2766 62.3184C17.2705 62.3184 17.2644 62.3184 17.2583 62.3184C17.2521 62.3184 17.246 62.3184 17.2399 62.3184C17.2339 62.3184 17.2278 62.3184 17.2217 62.3184C17.2156 62.3184 17.2095 62.3184 17.2034 62.3184C17.1973 62.3184 17.1913 62.3184 17.1852 62.3184C17.1791 62.3184 17.1731 62.3184 17.167 62.3184C17.1609 62.3184 17.1549 62.3184 17.1488 62.3184C17.1428 62.3184 17.1367 62.3184 17.1307 62.3184C17.1247 62.3184 17.1186 62.3184 17.1126 62.3184C17.1066 62.3184 17.1005 62.3184 17.0945 62.3184C17.0885 62.3184 17.0825 62.3184 17.0764 62.3184C17.0704 62.3184 17.0644 62.3184 17.0584 62.3184C17.0524 62.3184 17.0464 62.3184 17.0404 62.3184C17.0344 62.3184 17.0284 62.3184 17.0224 62.3184C17.0165 62.3184 17.0105 62.3184 17.0045 62.3184C16.9985 62.3184 16.9925 62.3184 16.9866 62.3184C16.9806 62.3184 16.9746 62.3184 16.9687 62.3184C16.9627 62.3184 16.9568 62.3184 16.9508 62.3184C16.9449 62.3184 16.9389 62.3184 16.933 62.3184C16.927 62.3184 16.9211 62.3184 16.9151 62.3184C16.9092 62.3184 16.9033 62.3184 16.8974 62.3184C16.8914 62.3184 16.8855 62.3184 16.8796 62.3184C16.8737 62.3184 16.8678 62.3184 16.8619 62.3184C16.8559 62.3184 16.85 62.3184 16.8441 62.3184C16.8382 62.3184 16.8323 62.3184 16.8265 62.3184C16.8206 62.3184 16.8147 62.3184 16.8088 62.3184C16.8029 62.3184 16.797 62.3184 16.7912 62.3184C16.7853 62.3184 16.7794 62.3184 16.7735 62.3184C16.7677 62.3184 16.7618 62.3184 16.756 62.3184C16.7501 62.3184 16.7442 62.3184 16.7384 62.3184C16.7325 62.3184 16.7267 62.3184 16.7209 62.3184C16.715 62.3184 16.7092 62.3184 16.7033 62.3184C16.6975 62.3184 16.6917 62.3184 16.6859 62.3184C16.68 62.3184 16.6742 62.3184 16.6684 62.3184C16.6626 62.3184 16.6568 62.3184 16.651 62.3184C16.6451 62.3184 16.6393 62.3184 16.6335 62.3184C16.6277 62.3184 16.6219 62.3184 16.6161 62.3184C16.6104 62.3184 16.6046 62.3184 16.5988 62.3184C16.593 62.3184 16.5872 62.3184 16.5814 62.3184C16.5757 62.3184 16.5699 62.3184 16.5641 62.3184C16.5583 62.3184 16.5526 62.3184 16.5468 62.3184C16.5411 62.3184 16.5353 62.3184 16.5295 62.3184C16.5238 62.3184 16.518 62.3184 16.5123 62.3184C16.5065 62.3184 16.5008 62.3184 16.4951 62.3184C16.4893 62.3184 16.4836 62.3184 16.4779 62.3184C16.4721 62.3184 16.4664 62.3184 16.4607 62.3184C16.4549 62.3184 16.4492 62.3184 16.4435 62.3184C16.4378 62.3184 16.4321 62.3184 16.4264 62.3184C16.4207 62.3184 16.415 62.3184 16.4093 62.3184C16.4036 62.3184 16.3979 62.3184 16.3922 62.3184C16.3865 62.3184 16.3808 62.3184 16.3751 62.3184C16.3694 62.3184 16.3637 62.3184 16.358 62.3184C16.3524 62.3184 16.3467 62.3184 16.341 62.3184C16.3353 62.3184 16.3297 62.3184 16.324 62.3184C16.3183 62.3184 16.3127 62.3184 16.307 62.3184C16.3014 62.3184 16.2957 62.3184 16.2901 62.3184C16.2844 62.3184 16.2788 62.3184 16.2731 62.3184C16.2675 62.3184 16.2618 62.3184 16.2562 62.3184C16.2506 62.3184 16.2449 62.3184 16.2393 62.3184C16.2337 62.3184 16.2281 62.3184 16.2224 62.3184C16.2168 62.3184 16.2112 62.3184 16.2056 62.3184C16.2 62.3184 16.1943 62.3184 16.1887 62.3184C16.1831 62.3184 16.1775 62.3184 16.1719 62.3184C16.1663 62.3184 16.1607 62.3184 16.1551 62.3184C16.1495 62.3184 16.1439 62.3184 16.1384 62.3184C16.1328 62.3184 16.1272 62.3184 16.1216 62.3184C16.116 62.3184 16.1104 62.3184 16.1049 62.3184C16.0993 62.3184 16.0937 62.3184 16.0881 62.3184C16.0826 62.3184 16.077 62.3184 16.0715 62.3184C16.0659 62.3184 16.0603 62.3184 16.0548 62.3184C16.0492 62.3184 16.0437 62.3184 16.0381 62.3184C16.0326 62.3184 16.027 62.3184 16.0215 62.3184C16.0159 62.3184 16.0104 62.3184 16.0049 62.3184C15.9993 62.3184 15.9938 62.3184 15.9883 62.3184C15.9827 62.3184 15.9772 62.3184 15.9717 62.3184C15.9662 62.3184 15.9606 62.3184 15.9551 62.3184C15.9496 62.3184 15.9441 62.3184 15.9386 62.3184C15.9331 62.3184 15.9276 62.3184 15.9221 62.3184C15.9166 62.3184 15.9111 62.3184 15.9056 62.3184C15.9001 62.3184 15.8946 62.3184 15.8891 62.3184C15.8836 62.3184 15.8781 62.3184 15.8726 62.3184C15.8671 62.3184 15.8616 62.3184 15.8561 62.3184C15.8507 62.3184 15.8452 62.3184 15.8397 62.3184C15.8342 62.3184 15.8288 62.3184 15.8233 62.3184C15.8178 62.3184 15.8124 62.3184 15.8069 62.3184C15.8014 62.3184 15.796 62.3184 15.7905 62.3184C15.7851 62.3184 15.7796 62.3184 15.7742 62.3184C15.7687 62.3184 15.7633 62.3184 15.7578 62.3184C15.7524 62.3184 15.7469 62.3184 15.7415 62.3184C15.736 62.3184 15.7306 62.3184 15.7252 62.3184C15.7197 62.3184 15.7143 62.3184 15.7089 62.3184C15.7035 62.3184 15.698 62.3184 15.6926 62.3184C15.6872 62.3184 15.6818 62.3184 15.6763 62.3184C15.6709 62.3184 15.6655 62.3184 15.6601 62.3184C15.6547 62.3184 15.6493 62.3184 15.6439 62.3184C15.6385 62.3184 15.6331 62.3184 15.6277 62.3184C15.6223 62.3184 15.6169 62.3184 15.6115 62.3184C15.6061 62.3184 15.6007 62.3184 15.5953 62.3184C15.5899 62.3184 15.5845 62.3184 15.5791 62.3184C15.5737 62.3184 15.5683 62.3184 15.563 62.3184C15.5576 62.3184 15.5522 62.3184 15.5468 62.3184C15.5415 62.3184 15.5361 62.3184 15.5307 62.3184C15.5253 62.3184 15.52 62.3184 15.5146 62.3184C15.5092 62.3184 15.5039 62.3184 15.4985 62.3184C15.4932 62.3184 15.4878 62.3184 15.4825 62.3184C15.4771 62.3184 15.4717 62.3184 15.4664 62.3184C15.461 62.3184 15.4557 62.3184 15.4504 62.3184C15.445 62.3184 15.4397 62.3184 15.4343 62.3184C15.429 62.3184 15.4237 62.3184 15.4183 62.3184C15.413 62.3184 15.4076 62.3184 15.4023 62.3184C15.397 62.3184 15.3917 62.3184 15.3863 62.3184C15.381 62.3184 15.3757 62.3184 15.3704 62.3184C15.365 62.3184 15.3597 62.3184 15.3544 62.3184C15.3491 62.3184 15.3438 62.3184 15.3385 62.3184C15.3332 62.3184 15.3278 62.3184 15.3225 62.3184C15.3172 62.3184 15.3119 62.3184 15.3066 62.3184C15.3013 62.3184 15.296 62.3184 15.2907 62.3184C15.2854 62.3184 15.2801 62.3184 15.2748 62.3184C15.2695 62.3184 15.2642 62.3184 15.259 62.3184C15.2537 62.3184 15.2484 62.3184 15.2431 62.3184C15.2378 62.3184 15.2325 62.3184 15.2272 62.3184C15.222 62.3184 15.2167 62.3184 15.2114 62.3184C15.2061 62.3184 15.2009 62.3184 15.1956 62.3184C15.1903 62.3184 15.185 62.3184 15.1798 62.3184C15.1745 62.3184 15.1692 62.3184 15.164 62.3184C15.1587 62.3184 15.1534 62.3184 15.1482 62.3184C15.1429 62.3184 15.1377 62.3184 15.1324 62.3184C15.1272 62.3184 15.1219 62.3184 15.1166 62.3184C15.1114 62.3184 15.1061 62.3184 15.1009 62.3184C15.0956 62.3184 15.0904 62.3184 15.0852 62.3184C15.0799 62.3184 15.0747 62.3184 15.0694 62.3184C15.0642 62.3184 15.059 62.3184 15.0537 62.3184C15.0485 62.3184 15.0432 62.3184 15.038 62.3184C15.0328 62.3184 15.0275 62.3184 15.0223 62.3184C15.0171 62.3184 15.0119 62.3184 15.0066 62.3184C15.0014 62.3184 14.9962 62.3184 14.991 62.3184C14.9857 62.3184 14.9805 62.3184 14.9753 62.3184C14.9701 62.3184 14.9649 62.3184 14.9597 62.3184C14.9544 62.3184 14.9492 62.3184 14.944 62.3184C14.9388 62.3184 14.9336 62.3184 14.9284 62.3184C14.9232 62.3184 14.918 62.3184 14.9128 62.3184C14.9076 62.3184 14.9024 62.3184 14.8972 62.3184C14.892 62.3184 14.8868 62.3184 14.8816 62.3184C14.8764 62.3184 14.8712 62.3184 14.866 62.3184C14.8608 62.3184 14.8556 62.3184 14.8504 62.3184C14.8452 62.3184 14.84 62.3184 14.8348 62.3184C14.8296 62.3184 14.8245 62.3184 14.8193 62.3184C14.8141 62.3184 14.8089 62.3184 14.8037 62.3184C14.7985 62.3184 14.7934 62.3184 14.7882 62.3184C14.783 62.3184 14.7778 62.3184 14.7727 62.3184C14.7675 62.3184 14.7623 62.3184 14.7571 62.3184C14.752 62.3184 14.7468 62.3184 14.7416 62.3184C14.7365 62.3184 14.7313 62.3184 14.7261 62.3184C14.7209 62.3184 14.7158 62.3184 14.7106 62.3184C14.7055 62.3184 14.7003 62.3184 14.6951 62.3184C14.69 62.3184 14.6848 62.3184 14.6797 62.3184C14.6745 62.3184 14.6693 62.3184 14.6642 62.3184C14.659 62.3184 14.6539 62.3184 14.6487 62.3184C14.6436 62.3184 14.6384 62.3184 14.6333 62.3184C14.6281 62.3184 14.623 62.3184 14.6178 62.3184C14.6127 62.3184 14.6075 62.3184 14.6024 62.3184C14.5972 62.3184 14.5921 62.3184 14.587 62.3184C14.5818 62.3184 14.5767 62.3184 14.5715 62.3184C14.5664 62.3184 14.5612 62.3184 14.5561 62.3184C14.551 62.3184 14.5458 62.3184 14.5407 62.3184C14.5356 62.3184 14.5304 62.3184 14.5253 62.3184C14.5202 62.3184 14.515 62.3184 14.5099 62.3184C14.5048 62.3184 14.4996 62.3184 14.4945 62.3184C14.4894 62.3184 14.4843 62.3184 14.4791 62.3184C14.474 62.3184 14.4689 62.3184 14.4638 62.3184C14.4586 62.3184 14.4535 62.3184 14.4484 62.3184C14.4433 62.3184 14.4381 62.3184 14.433 62.3184C14.4279 62.3184 14.4228 62.3184 14.4177 62.3184C14.4126 62.3184 14.4074 62.3184 14.4023 62.3184C14.3972 62.3184 14.3921 62.3184 14.387 62.3184C14.3819 62.3184 14.3767 62.3184 14.3716 62.3184C14.3665 62.3184 14.3614 62.3184 14.3563 62.3184C14.3512 62.3184 14.3461 62.3184 14.341 62.3184C14.3359 62.3184 14.3308 62.3184 14.3257 62.3184C14.3205 62.3184 14.3154 62.3184 14.3103 62.3184C14.3052 62.3184 14.3001 62.3184 14.295 62.3184C14.2899 62.3184 14.2848 62.3184 14.2797 62.3184C14.2746 62.3184 14.2695 62.3184 14.2644 62.3184C14.2593 62.3184 14.2542 62.3184 14.2491 62.3184C14.244 62.3184 14.2389 62.3184 14.2338 62.3184C14.2287 62.3184 14.2236 62.3184 14.2185 62.3184C14.2134 62.3184 14.2083 62.3184 14.2033 62.3184C14.1982 62.3184 14.1931 62.3184 14.188 62.3184C14.1829 62.3184 14.1778 62.3184 14.1727 62.3184C14.1676 62.3184 14.1625 62.3184 14.1574 62.3184C14.1523 62.3184 14.1472 62.3184 14.1422 62.3184C14.1371 62.3184 14.132 62.3184 14.1269 62.3184C14.1218 62.3184 14.1167 62.3184 14.1116 62.3184C14.1065 62.3184 14.1015 62.3184 14.0964 62.3184C14.0913 62.3184 14.0862 62.3184 14.0811 62.3184C14.076 62.3184 14.071 62.3184 14.0659 62.3184C14.0608 62.3184 14.0557 62.3184 14.0506 62.3184C14.0455 62.3184 14.0405 62.3184 14.0354 62.3184C14.0303 62.3184 14.0252 62.3184 14.0201 62.3184C14.0151 62.3184 14.01 62.3184 14.0049 62.3184C13.9998 62.3184 13.9947 62.3184 13.9897 62.3184C13.9846 62.3184 13.9795 62.3184 13.9744 62.3184C13.9693 62.3184 13.9643 62.3184 13.9592 62.3184C13.9541 62.3184 13.949 62.3184 13.944 62.3184C13.9389 62.3184 13.9338 62.3184 13.9287 62.3184C13.9236 62.3184 13.9186 62.3184 13.9135 62.3184C13.9084 62.3184 13.9033 62.3184 13.8983 62.3184C13.8932 62.3184 13.8881 62.3184 13.883 62.3184C13.878 62.3184 13.8729 62.3184 13.8678 62.3184C13.8628 62.3184 13.8577 62.3184 13.8526 62.3184C13.8475 62.3184 13.8425 62.3184 13.8374 62.3184C13.8323 62.3184 13.8272 62.3184 13.8222 62.3184C13.8171 62.3184 13.812 62.3184 13.8069 62.3184C13.8019 62.3184 13.7968 62.3184 13.7917 62.3184C13.7867 62.3184 13.7816 62.3184 13.7765 62.3184C13.7714 62.3184 13.7664 62.3184 13.7613 62.3184C13.7562 62.3184 13.7512 62.3184 13.7461 62.3184C13.741 62.3184 13.7359 62.3184 13.7309 62.3184C13.7258 62.3184 13.7207 62.3184 13.7157 62.3184C13.7106 62.3184 13.7055 62.3184 13.7004 62.3184C13.6954 62.3184 13.6903 62.3184 13.6852 62.3184C13.6802 62.3184 13.6751 62.3184 13.67 62.3184C13.6649 62.3184 13.6599 62.3184 13.6548 62.3184C13.6497 62.3184 13.6446 62.3184 13.6396 62.3184C13.6345 62.3184 13.6294 62.3184 13.6244 62.3184C13.6193 62.3184 13.6142 62.3184 13.6091 62.3184C13.6041 62.3184 13.599 62.3184 13.5939 62.3184C13.5888 62.3184 13.5838 62.3184 13.5787 62.3184C13.5736 62.3184 13.5686 62.3184 13.5635 62.3184C13.5584 62.3184 13.5533 62.3184 13.5483 62.3184C13.5432 62.3184 13.5381 62.3184 13.533 62.3184C13.528 62.3184 13.5229 62.3184 13.5178 62.3184C13.5127 62.3184 13.5077 62.3184 13.5026 62.3184C13.4975 62.3184 13.4924 62.3184 13.4874 62.3184C13.4823 62.3184 13.4772 62.3184 13.4721 62.3184C13.467 62.3184 13.462 62.3184 13.4569 62.3184C13.4518 62.3184 13.4467 62.3184 13.4417 62.3184C13.4366 62.3184 13.4315 62.3184 13.4264 62.3184C13.4213 62.3184 13.4163 62.3184 13.4112 62.3184C13.4061 62.3184 13.401 62.3184 13.3959 62.3184C13.3909 62.3184 13.3858 62.3184 13.3807 62.3184C13.3756 62.3184 13.3705 62.3184 13.3654 62.3184C13.3604 62.3184 13.3553 62.3184 13.3502 62.3184C13.3451 62.3184 13.34 62.3184 13.3349 62.3184C13.3298 62.3184 13.3248 62.3184 13.3197 62.3184C13.3146 62.3184 13.3095 62.3184 13.3044 62.3184C13.2993 62.3184 13.2942 62.3184 13.2892 62.3184C13.2841 62.3184 13.279 62.3184 13.2739 62.3184C13.2688 62.3184 13.2637 62.3184 13.2586 62.3184C13.2535 62.3184 13.2484 62.3184 13.2433 62.3184C13.2382 62.3184 13.2331 62.3184 13.2281 62.3184C13.223 62.3184 13.2179 62.3184 13.2128 62.3184C13.2077 62.3184 13.2026 62.3184 13.1975 62.3184C13.1924 62.3184 13.1873 62.3184 13.1822 62.3184C13.1771 62.3184 13.172 62.3184 13.1669 62.3184C13.1618 62.3184 13.1567 62.3184 13.1516 62.3184C13.1465 62.3184 13.1414 62.3184 13.1363 62.3184C13.1312 62.3184 13.1261 62.3184 13.121 62.3184C13.1159 62.3184 13.1108 62.3184 13.1057 62.3184C13.1005 62.3184 13.0954 62.3184 13.0903 62.3184C13.0852 62.3184 13.0801 62.3184 13.075 62.3184C13.0699 62.3184 13.0648 62.3184 13.0597 62.3184C13.0546 62.3184 13.0494 62.3184 13.0443 62.3184C13.0392 62.3184 13.0341 62.3184 13.029 62.3184C13.0239 62.3184 13.0188 62.3184 13.0136 62.3184C13.0085 62.3184 13.0034 62.3184 12.9983 62.3184C12.9932 62.3184 12.988 62.3184 12.9829 62.3184C12.9778 62.3184 12.9727 62.3184 12.9675 62.3184C12.9624 62.3184 12.9573 62.3184 12.9522 62.3184C12.947 62.3184 12.9419 62.3184 12.9368 62.3184C12.9317 62.3184 12.9265 62.3184 12.9214 62.3184C12.9163 62.3184 12.9111 62.3184 12.906 62.3184C12.9009 62.3184 12.8957 62.3184 12.8906 62.3184C12.8855 62.3184 12.8803 62.3184 12.8752 62.3184C12.8701 62.3184 12.8649 62.3184 12.8598 62.3184C12.8546 62.3184 12.8495 62.3184 12.8444 62.3184C12.8392 62.3184 12.8341 62.3184 12.8289 62.3184C12.8238 62.3184 12.8186 62.3184 12.8135 62.3184C12.8083 62.3184 12.8032 62.3184 12.798 62.3184C12.7929 62.3184 12.7877 62.3184 12.7826 62.3184C12.7774 62.3184 12.7723 62.3184 12.7671 62.3184C12.762 62.3184 12.7568 62.3184 12.7517 62.3184C12.7465 62.3184 12.7413 62.3184 12.7362 62.3184C12.731 62.3184 12.7259 62.3184 12.7207 62.3184C12.7155 62.3184 12.7104 62.3184 12.7052 62.3184C12.7 62.3184 12.6949 62.3184 12.6897 62.3184C12.6845 62.3184 12.6793 62.3184 12.6742 62.3184C12.669 62.3184 12.6638 62.3184 12.6587 62.3184C12.6535 62.3184 12.6483 62.3184 12.6431 62.3184C12.6379 62.3184 12.6328 62.3184 12.6276 62.3184C12.6224 62.3184 12.6172 62.3184 12.612 62.3184C12.6068 62.3184 12.6017 62.3184 12.5965 62.3184C12.5913 62.3184 12.5861 62.3184 12.5809 62.3184C12.5757 62.3184 12.5705 62.3184 12.5653 62.3184C12.5601 62.3184 12.5549 62.3184 12.5497 62.3184C12.5445 62.3184 12.5393 62.3184 12.5341 62.3184C12.5289 62.3184 12.5237 62.3184 12.5185 62.3184C12.5133 62.3184 12.5081 62.3184 12.5029 62.3184C12.4977 62.3184 12.4925 62.3184 12.4873 62.3184C12.4821 62.3184 12.4769 62.3184 12.4716 62.3184C12.4664 62.3184 12.4612 62.3184 12.456 62.3184C12.4508 62.3184 12.4456 62.3184 12.4403 62.3184C12.4351 62.3184 12.4299 62.3184 12.4247 62.3184C12.4194 62.3184 12.4142 62.3184 12.409 62.3184C12.4038 62.3184 12.3985 62.3184 12.3933 62.3184C12.3881 62.3184 12.3828 62.3184 12.3776 62.3184C12.3724 62.3184 12.3671 62.3184 12.3619 62.3184C12.3566 62.3184 12.3514 62.3184 12.3461 62.3184C12.3409 62.3184 12.3357 62.3184 12.3304 62.3184C12.3252 62.3184 12.3199 62.3184 12.3147 62.3184C12.3094 62.3184 12.3042 62.3184 12.2989 62.3184C12.2936 62.3184 12.2884 62.3184 12.2831 62.3184C12.2779 62.3184 12.2726 62.3184 12.2673 62.3184C12.2621 62.3184 12.2568 62.3184 12.2515 62.3184C12.2463 62.3184 12.241 62.3184 12.2357 62.3184C12.2305 62.3184 12.2252 62.3184 12.2199 62.3184C12.2146 62.3184 12.2093 62.3184 12.2041 62.3184C12.1988 62.3184 12.1935 62.3184 12.1882 62.3184C12.1829 62.3184 12.1776 62.3184 12.1724 62.3184C12.1671 62.3184 12.1618 62.3184 12.1565 62.3184C12.1512 62.3184 12.1459 62.3184 12.1406 62.3184C12.1353 62.3184 12.13 62.3184 12.1247 62.3184C12.1194 62.3184 12.1141 62.3184 12.1088 62.3184C12.1035 62.3184 12.0982 62.3184 12.0928 62.3184C12.0875 62.3184 12.0822 62.3184 12.0769 62.3184C12.0716 62.3184 12.0663 62.3184 12.0609 62.3184C12.0556 62.3184 12.0503 62.3184 12.045 62.3184C12.0396 62.3184 12.0343 62.3184 12.029 62.3184C12.0237 62.3184 12.0183 62.3184 12.013 62.3184C12.0077 62.3184 12.0023 62.3184 11.997 62.3184C11.9916 62.3184 11.9863 62.3184 11.981 62.3184C11.9756 62.3184 11.9703 62.3184 11.9649 62.3184C11.9596 62.3184 11.9542 62.3184 11.9489 62.3184C11.9435 62.3184 11.9381 62.3184 11.9328 62.3184C11.9274 62.3184 11.9221 62.3184 11.9167 62.3184C11.9113 62.3184 11.906 62.3184 11.9006 62.3184C11.8952 62.3184 11.8898 62.3184 11.8845 62.3184C11.8791 62.3184 11.8737 62.3184 11.8683 62.3184C11.863 62.3184 11.8576 62.3184 11.8522 62.3184C11.8468 62.3184 11.8414 62.3184 11.836 62.3184C11.8306 62.3184 11.8252 62.3184 11.8198 62.3184C11.8145 62.3184 11.8091 62.3184 11.8037 62.3184C11.7983 62.3184 11.7928 62.3184 11.7874 62.3184C11.782 62.3184 11.7766 62.3184 11.7712 62.3184C11.7658 62.3184 11.7604 62.3184 11.755 62.3184C11.7495 62.3184 11.7441 62.3184 11.7387 62.3184C11.7333 62.3184 11.7279 62.3184 11.7224 62.3184C11.717 62.3184 11.7116 62.3184 11.7061 62.3184C11.7007 62.3184 11.6953 62.3184 11.6898 62.3184C11.6844 62.3184 11.6789 62.3184 11.6735 62.3184C11.668 62.3184 11.6626 62.3184 11.6571 62.3184C11.6517 62.3184 11.6462 62.3184 11.6408 62.3184C11.6353 62.3184 11.6299 62.3184 11.6244 62.3184C11.6189 62.3184 11.6135 62.3184 11.608 62.3184C11.6025 62.3184 11.5971 62.3184 11.5916 62.3184C11.5861 62.3184 11.5806 62.3184 11.5752 62.3184C11.5697 62.3184 11.5642 62.3184 11.5587 62.3184C11.5532 62.3184 11.5477 62.3184 11.5422 62.3184C11.5367 62.3184 11.5313 62.3184 11.5258 62.3184C11.5203 62.3184 11.5148 62.3184 11.5092 62.3184C11.5037 62.3184 11.4982 62.3184 11.4927 62.3184C11.4872 62.3184 11.4817 62.3184 11.4762 62.3184C11.4707 62.3184 11.4651 62.3184 11.4596 62.3184C11.4541 62.3184 11.4486 62.3184 11.443 62.3184C11.4375 62.3184 11.432 62.3184 11.4264 62.3184C11.4209 62.3184 11.4154 62.3184 11.4098 62.3184C11.4043 62.3184 11.3987 62.3184 11.3932 62.3184C11.3876 62.3184 11.3821 62.3184 11.3765 62.3184C11.371 62.3184 11.3654 62.3184 11.3599 62.3184C11.3543 62.3184 11.3487 62.3184 11.3432 62.3184C11.3376 62.3184 11.332 62.3184 11.3264 62.3184C11.3209 62.3184 11.3153 62.3184 11.3097 62.3184C11.3041 62.3184 11.2985 62.3184 11.293 62.3184C11.2874 62.3184 11.2818 62.3184 11.2762 62.3184C11.2706 62.3184 11.265 62.3184 11.2594 62.3184C11.2538 62.3184 11.2482 62.3184 11.2426 62.3184C11.237 62.3184 11.2313 62.3184 11.2257 62.3184C11.2201 62.3184 11.2145 62.3184 11.2089 62.3184C11.2033 62.3184 11.1976 62.3184 11.192 62.3184C11.1864 62.3184 11.1807 62.3184 11.1751 62.3184C11.1695 62.3184 11.1638 62.3184 11.1582 62.3184C11.1525 62.3184 11.1469 62.3184 11.1412 62.3184C11.1356 62.3184 11.1299 62.3184 11.1243 62.3184C11.1186 62.3184 11.113 62.3184 11.1073 62.3184C11.1016 62.3184 11.096 62.3184 11.0903 62.3184C11.0846 62.3184 11.0789 62.3184 11.0733 62.3184C11.0676 62.3184 11.0619 62.3184 11.0562 62.3184C11.0505 62.3184 11.0448 62.3184 11.0391 62.3184C11.0334 62.3184 11.0277 62.3184 11.022 62.3184C11.0163 62.3184 11.0106 62.3184 11.0049 62.3184C10.9992 62.3184 10.9935 62.3184 10.9878 62.3184C10.9821 62.3184 10.9764 62.3184 10.9706 62.3184C10.9649 62.3184 10.9592 62.3184 10.9535 62.3184C10.9477 62.3184 10.942 62.3184 10.9362 62.3184C10.9305 62.3184 10.9248 62.3184 10.919 62.3184C10.9133 62.3184 10.9075 62.3184 10.9018 62.3184C10.896 62.3184 10.8903 62.3184 10.8845 62.3184C10.8787 62.3184 10.873 62.3184 10.8672 62.3184C10.8614 62.3184 10.8557 62.3184 10.8499 62.3184C10.8441 62.3184 10.8383 62.3184 10.8325 62.3184C10.8267 62.3184 10.821 62.3184 10.8152 62.3184C10.8094 62.3184 10.8036 62.3184 10.7978 62.3184C10.792 62.3184 10.7862 62.3184 10.7804 62.3184C10.7745 62.3184 10.7687 62.3184 10.7629 62.3184C10.7571 62.3184 10.7513 62.3184 10.7455 62.3184C10.7396 62.3184 10.7338 62.3184 10.728 62.3184C10.7221 62.3184 10.7163 62.3184 10.7104 62.3184C10.7046 62.3184 10.6988 62.3184 10.6929 62.3184C10.6871 62.3184 10.6812 62.3184 10.6754 62.3184C10.6695 62.3184 10.6636 62.3184 10.6578 62.3184C10.6519 62.3184 10.646 62.3184 10.6402 62.3184C10.6343 62.3184 10.6284 62.3184 10.6225 62.3184C10.6166 62.3184 10.6107 62.3184 10.6049 62.3184C10.599 62.3184 10.5931 62.3184 10.5872 62.3184C10.5813 62.3184 10.5754 62.3184 10.5695 62.3184C10.5635 62.3184 10.5576 62.3184 10.5517 62.3184C10.5458 62.3184 10.5399 62.3184 10.5339 62.3184C10.528 62.3184 10.5221 62.3184 10.5162 62.3184C10.5102 62.3184 10.5043 62.3184 10.4983 62.3184C10.4924 62.3184 10.4865 62.3184 10.4805 62.3184C10.4745 62.3184 10.4686 62.3184 10.4626 62.3184C10.4567 62.3184 10.4507 62.3184 10.4447 62.3184C10.4388 62.3184 10.4328 62.3184 10.4268 62.3184C10.4208 62.3184 10.4149 62.3184 10.4089 62.3184C10.4029 62.3184 10.3969 62.3184 10.3909 62.3184C10.3849 62.3184 10.3789 62.3184 10.3729 62.3184C10.3669 62.3184 10.3609 62.3184 10.3549 62.3184C10.3488 62.3184 10.3428 62.3184 10.3368 62.3184C10.3308 62.3184 10.3248 62.3184 10.3187 62.3184C10.3127 62.3184 10.3066 62.3184 10.3006 62.3184C10.2946 62.3184 10.2885 62.3184 10.2825 62.3184C10.2764 62.3184 10.2704 62.3184 10.2643 62.3184C10.2582 62.3184 10.2522 62.3184 10.2461 62.3184C10.24 62.3184 10.234 62.3184 10.2279 62.3184C10.2218 62.3184 10.2157 62.3184 10.2096 62.3184C10.2035 62.3184 10.1975 62.3184 10.1914 62.3184C10.1853 62.3184 10.1792 62.3184 10.1731 62.3184C10.1669 62.3184 10.1608 62.3184 10.1547 62.3184C10.1486 62.3184 10.1425 62.3184 10.1364 62.3184C10.1302 62.3184 10.1241 62.3184 10.118 62.3184C10.1118 62.3184 10.1057 62.3184 10.0995 62.3184C10.0934 62.3184 10.0872 62.3184 10.0811 62.3184C10.0749 62.3184 10.0688 62.3184 10.0626 62.3184C10.0564 62.3184 10.0503 62.3184 10.0441 62.3184C10.0379 62.3184 10.0317 62.3184 10.0256 62.3184C10.0194 62.3184 10.0132 62.3184 10.007 62.3184C10.0008 62.3184 9.9946 62.3184 9.98839 62.3184C9.98219 62.3184 9.97598 62.3184 9.96977 62.3184C9.96355 62.3184 9.95733 62.3184 9.95111 62.3184C9.94488 62.3184 9.93865 62.3184 9.93242 62.3184C9.92619 62.3184 9.91995 62.3184 9.9137 62.3184C9.90746 62.3184 9.90121 62.3184 9.89495 62.3184C9.8887 62.3184 9.88244 62.3184 9.87618 62.3184C9.86991 62.3184 9.86364 62.3184 9.85737 62.3184C9.85109 62.3184 9.84481 62.3184 9.83853 62.3184C9.83224 62.3184 9.82595 62.3184 9.81966 62.3184C9.81336 62.3184 9.80706 62.3184 9.80075 62.3184C9.79445 62.3184 9.78814 62.3184 9.78182 62.3184C9.77551 62.3184 9.76918 62.3184 9.76286 62.3184C9.75653 62.3184 9.7502 62.3184 9.74386 62.3184C9.73753 62.3184 9.73118 62.3184 9.72484 62.3184C9.71849 62.3184 9.71213 62.3184 9.70578 62.3184C9.69942 62.3184 9.69306 62.3184 9.68669 62.3184C9.68032 62.3184 9.67394 62.3184 9.66756 62.3184C9.66118 62.3184 9.6548 62.3184 9.64841 62.3184C9.64202 62.3184 9.63562 62.3184 9.62922 62.3184C9.62282 62.3184 9.61642 62.3184 9.61001 62.3184C9.60359 62.3184 9.59718 62.3184 9.59075 62.3184C9.58433 62.3184 9.5779 62.3184 9.57147 62.3184C9.56504 62.3184 9.5586 62.3184 9.55215 62.3184C9.54571 62.3184 9.53926 62.3184 9.53281 62.3184C9.52635 62.3184 9.51989 62.3184 9.51342 62.3184C9.50696 62.3184 9.50049 62.3184 9.49401 62.3184C9.48753 62.3184 9.48105 62.3184 9.47456 62.3184C9.46807 62.3184 9.46158 62.3184 9.45508 62.3184V63.3184C9.46158 63.3184 9.46807 63.3184 9.47456 63.3184C9.48105 63.3184 9.48753 63.3184 9.49401 63.3184C9.50049 63.3184 9.50696 63.3184 9.51342 63.3184C9.51989 63.3184 9.52635 63.3184 9.53281 63.3184C9.53926 63.3184 9.54571 63.3184 9.55215 63.3184C9.5586 63.3184 9.56504 63.3184 9.57147 63.3184C9.5779 63.3184 9.58433 63.3184 9.59075 63.3184C9.59718 63.3184 9.60359 63.3184 9.61001 63.3184C9.61642 63.3184 9.62282 63.3184 9.62922 63.3184C9.63562 63.3184 9.64202 63.3184 9.64841 63.3184C9.6548 63.3184 9.66118 63.3184 9.66756 63.3184C9.67394 63.3184 9.68032 63.3184 9.68669 63.3184C9.69306 63.3184 9.69942 63.3184 9.70578 63.3184C9.71213 63.3184 9.71849 63.3184 9.72484 63.3184C9.73118 63.3184 9.73753 63.3184 9.74386 63.3184C9.7502 63.3184 9.75653 63.3184 9.76286 63.3184C9.76918 63.3184 9.77551 63.3184 9.78182 63.3184C9.78814 63.3184 9.79445 63.3184 9.80075 63.3184C9.80706 63.3184 9.81336 63.3184 9.81966 63.3184C9.82595 63.3184 9.83224 63.3184 9.83853 63.3184C9.84481 63.3184 9.85109 63.3184 9.85737 63.3184C9.86364 63.3184 9.86991 63.3184 9.87618 63.3184C9.88244 63.3184 9.8887 63.3184 9.89495 63.3184C9.90121 63.3184 9.90746 63.3184 9.9137 63.3184C9.91995 63.3184 9.92619 63.3184 9.93242 63.3184C9.93865 63.3184 9.94488 63.3184 9.95111 63.3184C9.95733 63.3184 9.96355 63.3184 9.96977 63.3184C9.97598 63.3184 9.98219 63.3184 9.98839 63.3184C9.9946 63.3184 10.0008 63.3184 10.007 63.3184C10.0132 63.3184 10.0194 63.3184 10.0256 63.3184C10.0317 63.3184 10.0379 63.3184 10.0441 63.3184C10.0503 63.3184 10.0564 63.3184 10.0626 63.3184C10.0688 63.3184 10.0749 63.3184 10.0811 63.3184C10.0872 63.3184 10.0934 63.3184 10.0995 63.3184C10.1057 63.3184 10.1118 63.3184 10.118 63.3184C10.1241 63.3184 10.1302 63.3184 10.1364 63.3184C10.1425 63.3184 10.1486 63.3184 10.1547 63.3184C10.1608 63.3184 10.1669 63.3184 10.1731 63.3184C10.1792 63.3184 10.1853 63.3184 10.1914 63.3184C10.1975 63.3184 10.2035 63.3184 10.2096 63.3184C10.2157 63.3184 10.2218 63.3184 10.2279 63.3184C10.234 63.3184 10.24 63.3184 10.2461 63.3184C10.2522 63.3184 10.2582 63.3184 10.2643 63.3184C10.2704 63.3184 10.2764 63.3184 10.2825 63.3184C10.2885 63.3184 10.2946 63.3184 10.3006 63.3184C10.3066 63.3184 10.3127 63.3184 10.3187 63.3184C10.3248 63.3184 10.3308 63.3184 10.3368 63.3184C10.3428 63.3184 10.3488 63.3184 10.3549 63.3184C10.3609 63.3184 10.3669 63.3184 10.3729 63.3184C10.3789 63.3184 10.3849 63.3184 10.3909 63.3184C10.3969 63.3184 10.4029 63.3184 10.4089 63.3184C10.4149 63.3184 10.4208 63.3184 10.4268 63.3184C10.4328 63.3184 10.4388 63.3184 10.4447 63.3184C10.4507 63.3184 10.4567 63.3184 10.4626 63.3184C10.4686 63.3184 10.4745 63.3184 10.4805 63.3184C10.4865 63.3184 10.4924 63.3184 10.4983 63.3184C10.5043 63.3184 10.5102 63.3184 10.5162 63.3184C10.5221 63.3184 10.528 63.3184 10.5339 63.3184C10.5399 63.3184 10.5458 63.3184 10.5517 63.3184C10.5576 63.3184 10.5635 63.3184 10.5695 63.3184C10.5754 63.3184 10.5813 63.3184 10.5872 63.3184C10.5931 63.3184 10.599 63.3184 10.6049 63.3184C10.6107 63.3184 10.6166 63.3184 10.6225 63.3184C10.6284 63.3184 10.6343 63.3184 10.6402 63.3184C10.646 63.3184 10.6519 63.3184 10.6578 63.3184C10.6636 63.3184 10.6695 63.3184 10.6754 63.3184C10.6812 63.3184 10.6871 63.3184 10.6929 63.3184C10.6988 63.3184 10.7046 63.3184 10.7104 63.3184C10.7163 63.3184 10.7221 63.3184 10.728 63.3184C10.7338 63.3184 10.7396 63.3184 10.7455 63.3184C10.7513 63.3184 10.7571 63.3184 10.7629 63.3184C10.7687 63.3184 10.7745 63.3184 10.7804 63.3184C10.7862 63.3184 10.792 63.3184 10.7978 63.3184C10.8036 63.3184 10.8094 63.3184 10.8152 63.3184C10.821 63.3184 10.8267 63.3184 10.8325 63.3184C10.8383 63.3184 10.8441 63.3184 10.8499 63.3184C10.8557 63.3184 10.8614 63.3184 10.8672 63.3184C10.873 63.3184 10.8787 63.3184 10.8845 63.3184C10.8903 63.3184 10.896 63.3184 10.9018 63.3184C10.9075 63.3184 10.9133 63.3184 10.919 63.3184C10.9248 63.3184 10.9305 63.3184 10.9362 63.3184C10.942 63.3184 10.9477 63.3184 10.9535 63.3184C10.9592 63.3184 10.9649 63.3184 10.9706 63.3184C10.9764 63.3184 10.9821 63.3184 10.9878 63.3184C10.9935 63.3184 10.9992 63.3184 11.0049 63.3184C11.0106 63.3184 11.0163 63.3184 11.022 63.3184C11.0277 63.3184 11.0334 63.3184 11.0391 63.3184C11.0448 63.3184 11.0505 63.3184 11.0562 63.3184C11.0619 63.3184 11.0676 63.3184 11.0733 63.3184C11.0789 63.3184 11.0846 63.3184 11.0903 63.3184C11.096 63.3184 11.1016 63.3184 11.1073 63.3184C11.113 63.3184 11.1186 63.3184 11.1243 63.3184C11.1299 63.3184 11.1356 63.3184 11.1412 63.3184C11.1469 63.3184 11.1525 63.3184 11.1582 63.3184C11.1638 63.3184 11.1695 63.3184 11.1751 63.3184C11.1807 63.3184 11.1864 63.3184 11.192 63.3184C11.1976 63.3184 11.2033 63.3184 11.2089 63.3184C11.2145 63.3184 11.2201 63.3184 11.2257 63.3184C11.2313 63.3184 11.237 63.3184 11.2426 63.3184C11.2482 63.3184 11.2538 63.3184 11.2594 63.3184C11.265 63.3184 11.2706 63.3184 11.2762 63.3184C11.2818 63.3184 11.2874 63.3184 11.293 63.3184C11.2985 63.3184 11.3041 63.3184 11.3097 63.3184C11.3153 63.3184 11.3209 63.3184 11.3264 63.3184C11.332 63.3184 11.3376 63.3184 11.3432 63.3184C11.3487 63.3184 11.3543 63.3184 11.3599 63.3184C11.3654 63.3184 11.371 63.3184 11.3765 63.3184C11.3821 63.3184 11.3876 63.3184 11.3932 63.3184C11.3987 63.3184 11.4043 63.3184 11.4098 63.3184C11.4154 63.3184 11.4209 63.3184 11.4264 63.3184C11.432 63.3184 11.4375 63.3184 11.443 63.3184C11.4486 63.3184 11.4541 63.3184 11.4596 63.3184C11.4651 63.3184 11.4707 63.3184 11.4762 63.3184C11.4817 63.3184 11.4872 63.3184 11.4927 63.3184C11.4982 63.3184 11.5037 63.3184 11.5092 63.3184C11.5148 63.3184 11.5203 63.3184 11.5258 63.3184C11.5313 63.3184 11.5367 63.3184 11.5422 63.3184C11.5477 63.3184 11.5532 63.3184 11.5587 63.3184C11.5642 63.3184 11.5697 63.3184 11.5752 63.3184C11.5806 63.3184 11.5861 63.3184 11.5916 63.3184C11.5971 63.3184 11.6025 63.3184 11.608 63.3184C11.6135 63.3184 11.6189 63.3184 11.6244 63.3184C11.6299 63.3184 11.6353 63.3184 11.6408 63.3184C11.6462 63.3184 11.6517 63.3184 11.6571 63.3184C11.6626 63.3184 11.668 63.3184 11.6735 63.3184C11.6789 63.3184 11.6844 63.3184 11.6898 63.3184C11.6953 63.3184 11.7007 63.3184 11.7061 63.3184C11.7116 63.3184 11.717 63.3184 11.7224 63.3184C11.7279 63.3184 11.7333 63.3184 11.7387 63.3184C11.7441 63.3184 11.7495 63.3184 11.755 63.3184C11.7604 63.3184 11.7658 63.3184 11.7712 63.3184C11.7766 63.3184 11.782 63.3184 11.7874 63.3184C11.7928 63.3184 11.7983 63.3184 11.8037 63.3184C11.8091 63.3184 11.8145 63.3184 11.8198 63.3184C11.8252 63.3184 11.8306 63.3184 11.836 63.3184C11.8414 63.3184 11.8468 63.3184 11.8522 63.3184C11.8576 63.3184 11.863 63.3184 11.8683 63.3184C11.8737 63.3184 11.8791 63.3184 11.8845 63.3184C11.8898 63.3184 11.8952 63.3184 11.9006 63.3184C11.906 63.3184 11.9113 63.3184 11.9167 63.3184C11.9221 63.3184 11.9274 63.3184 11.9328 63.3184C11.9381 63.3184 11.9435 63.3184 11.9489 63.3184C11.9542 63.3184 11.9596 63.3184 11.9649 63.3184C11.9703 63.3184 11.9756 63.3184 11.981 63.3184C11.9863 63.3184 11.9916 63.3184 11.997 63.3184C12.0023 63.3184 12.0077 63.3184 12.013 63.3184C12.0183 63.3184 12.0237 63.3184 12.029 63.3184C12.0343 63.3184 12.0396 63.3184 12.045 63.3184C12.0503 63.3184 12.0556 63.3184 12.0609 63.3184C12.0663 63.3184 12.0716 63.3184 12.0769 63.3184C12.0822 63.3184 12.0875 63.3184 12.0928 63.3184C12.0982 63.3184 12.1035 63.3184 12.1088 63.3184C12.1141 63.3184 12.1194 63.3184 12.1247 63.3184C12.13 63.3184 12.1353 63.3184 12.1406 63.3184C12.1459 63.3184 12.1512 63.3184 12.1565 63.3184C12.1618 63.3184 12.1671 63.3184 12.1724 63.3184C12.1776 63.3184 12.1829 63.3184 12.1882 63.3184C12.1935 63.3184 12.1988 63.3184 12.2041 63.3184C12.2093 63.3184 12.2146 63.3184 12.2199 63.3184C12.2252 63.3184 12.2305 63.3184 12.2357 63.3184C12.241 63.3184 12.2463 63.3184 12.2515 63.3184C12.2568 63.3184 12.2621 63.3184 12.2673 63.3184C12.2726 63.3184 12.2779 63.3184 12.2831 63.3184C12.2884 63.3184 12.2936 63.3184 12.2989 63.3184C12.3042 63.3184 12.3094 63.3184 12.3147 63.3184C12.3199 63.3184 12.3252 63.3184 12.3304 63.3184C12.3357 63.3184 12.3409 63.3184 12.3461 63.3184C12.3514 63.3184 12.3566 63.3184 12.3619 63.3184C12.3671 63.3184 12.3724 63.3184 12.3776 63.3184C12.3828 63.3184 12.3881 63.3184 12.3933 63.3184C12.3985 63.3184 12.4038 63.3184 12.409 63.3184C12.4142 63.3184 12.4194 63.3184 12.4247 63.3184C12.4299 63.3184 12.4351 63.3184 12.4403 63.3184C12.4456 63.3184 12.4508 63.3184 12.456 63.3184C12.4612 63.3184 12.4664 63.3184 12.4716 63.3184C12.4769 63.3184 12.4821 63.3184 12.4873 63.3184C12.4925 63.3184 12.4977 63.3184 12.5029 63.3184C12.5081 63.3184 12.5133 63.3184 12.5185 63.3184C12.5237 63.3184 12.5289 63.3184 12.5341 63.3184C12.5393 63.3184 12.5445 63.3184 12.5497 63.3184C12.5549 63.3184 12.5601 63.3184 12.5653 63.3184C12.5705 63.3184 12.5757 63.3184 12.5809 63.3184C12.5861 63.3184 12.5913 63.3184 12.5965 63.3184C12.6017 63.3184 12.6068 63.3184 12.612 63.3184C12.6172 63.3184 12.6224 63.3184 12.6276 63.3184C12.6328 63.3184 12.6379 63.3184 12.6431 63.3184C12.6483 63.3184 12.6535 63.3184 12.6587 63.3184C12.6638 63.3184 12.669 63.3184 12.6742 63.3184C12.6793 63.3184 12.6845 63.3184 12.6897 63.3184C12.6949 63.3184 12.7 63.3184 12.7052 63.3184C12.7104 63.3184 12.7155 63.3184 12.7207 63.3184C12.7259 63.3184 12.731 63.3184 12.7362 63.3184C12.7413 63.3184 12.7465 63.3184 12.7517 63.3184C12.7568 63.3184 12.762 63.3184 12.7671 63.3184C12.7723 63.3184 12.7774 63.3184 12.7826 63.3184C12.7877 63.3184 12.7929 63.3184 12.798 63.3184C12.8032 63.3184 12.8083 63.3184 12.8135 63.3184C12.8186 63.3184 12.8238 63.3184 12.8289 63.3184C12.8341 63.3184 12.8392 63.3184 12.8444 63.3184C12.8495 63.3184 12.8546 63.3184 12.8598 63.3184C12.8649 63.3184 12.8701 63.3184 12.8752 63.3184C12.8803 63.3184 12.8855 63.3184 12.8906 63.3184C12.8957 63.3184 12.9009 63.3184 12.906 63.3184C12.9111 63.3184 12.9163 63.3184 12.9214 63.3184C12.9265 63.3184 12.9317 63.3184 12.9368 63.3184C12.9419 63.3184 12.947 63.3184 12.9522 63.3184C12.9573 63.3184 12.9624 63.3184 12.9675 63.3184C12.9727 63.3184 12.9778 63.3184 12.9829 63.3184C12.988 63.3184 12.9932 63.3184 12.9983 63.3184C13.0034 63.3184 13.0085 63.3184 13.0136 63.3184C13.0188 63.3184 13.0239 63.3184 13.029 63.3184C13.0341 63.3184 13.0392 63.3184 13.0443 63.3184C13.0494 63.3184 13.0546 63.3184 13.0597 63.3184C13.0648 63.3184 13.0699 63.3184 13.075 63.3184C13.0801 63.3184 13.0852 63.3184 13.0903 63.3184C13.0954 63.3184 13.1005 63.3184 13.1057 63.3184C13.1108 63.3184 13.1159 63.3184 13.121 63.3184C13.1261 63.3184 13.1312 63.3184 13.1363 63.3184C13.1414 63.3184 13.1465 63.3184 13.1516 63.3184C13.1567 63.3184 13.1618 63.3184 13.1669 63.3184C13.172 63.3184 13.1771 63.3184 13.1822 63.3184C13.1873 63.3184 13.1924 63.3184 13.1975 63.3184C13.2026 63.3184 13.2077 63.3184 13.2128 63.3184C13.2179 63.3184 13.223 63.3184 13.2281 63.3184C13.2331 63.3184 13.2382 63.3184 13.2433 63.3184C13.2484 63.3184 13.2535 63.3184 13.2586 63.3184C13.2637 63.3184 13.2688 63.3184 13.2739 63.3184C13.279 63.3184 13.2841 63.3184 13.2892 63.3184C13.2942 63.3184 13.2993 63.3184 13.3044 63.3184C13.3095 63.3184 13.3146 63.3184 13.3197 63.3184C13.3248 63.3184 13.3298 63.3184 13.3349 63.3184C13.34 63.3184 13.3451 63.3184 13.3502 63.3184C13.3553 63.3184 13.3604 63.3184 13.3654 63.3184C13.3705 63.3184 13.3756 63.3184 13.3807 63.3184C13.3858 63.3184 13.3909 63.3184 13.3959 63.3184C13.401 63.3184 13.4061 63.3184 13.4112 63.3184C13.4163 63.3184 13.4213 63.3184 13.4264 63.3184C13.4315 63.3184 13.4366 63.3184 13.4417 63.3184C13.4467 63.3184 13.4518 63.3184 13.4569 63.3184C13.462 63.3184 13.467 63.3184 13.4721 63.3184C13.4772 63.3184 13.4823 63.3184 13.4874 63.3184C13.4924 63.3184 13.4975 63.3184 13.5026 63.3184C13.5077 63.3184 13.5127 63.3184 13.5178 63.3184C13.5229 63.3184 13.528 63.3184 13.533 63.3184C13.5381 63.3184 13.5432 63.3184 13.5483 63.3184C13.5533 63.3184 13.5584 63.3184 13.5635 63.3184C13.5686 63.3184 13.5736 63.3184 13.5787 63.3184C13.5838 63.3184 13.5888 63.3184 13.5939 63.3184C13.599 63.3184 13.6041 63.3184 13.6091 63.3184C13.6142 63.3184 13.6193 63.3184 13.6244 63.3184C13.6294 63.3184 13.6345 63.3184 13.6396 63.3184C13.6446 63.3184 13.6497 63.3184 13.6548 63.3184C13.6599 63.3184 13.6649 63.3184 13.67 63.3184C13.6751 63.3184 13.6802 63.3184 13.6852 63.3184C13.6903 63.3184 13.6954 63.3184 13.7004 63.3184C13.7055 63.3184 13.7106 63.3184 13.7157 63.3184C13.7207 63.3184 13.7258 63.3184 13.7309 63.3184C13.7359 63.3184 13.741 63.3184 13.7461 63.3184C13.7512 63.3184 13.7562 63.3184 13.7613 63.3184C13.7664 63.3184 13.7714 63.3184 13.7765 63.3184C13.7816 63.3184 13.7867 63.3184 13.7917 63.3184C13.7968 63.3184 13.8019 63.3184 13.8069 63.3184C13.812 63.3184 13.8171 63.3184 13.8222 63.3184C13.8272 63.3184 13.8323 63.3184 13.8374 63.3184C13.8425 63.3184 13.8475 63.3184 13.8526 63.3184C13.8577 63.3184 13.8628 63.3184 13.8678 63.3184C13.8729 63.3184 13.878 63.3184 13.883 63.3184C13.8881 63.3184 13.8932 63.3184 13.8983 63.3184C13.9033 63.3184 13.9084 63.3184 13.9135 63.3184C13.9186 63.3184 13.9236 63.3184 13.9287 63.3184C13.9338 63.3184 13.9389 63.3184 13.944 63.3184C13.949 63.3184 13.9541 63.3184 13.9592 63.3184C13.9643 63.3184 13.9693 63.3184 13.9744 63.3184C13.9795 63.3184 13.9846 63.3184 13.9897 63.3184C13.9947 63.3184 13.9998 63.3184 14.0049 63.3184C14.01 63.3184 14.0151 63.3184 14.0201 63.3184C14.0252 63.3184 14.0303 63.3184 14.0354 63.3184C14.0405 63.3184 14.0455 63.3184 14.0506 63.3184C14.0557 63.3184 14.0608 63.3184 14.0659 63.3184C14.071 63.3184 14.076 63.3184 14.0811 63.3184C14.0862 63.3184 14.0913 63.3184 14.0964 63.3184C14.1015 63.3184 14.1065 63.3184 14.1116 63.3184C14.1167 63.3184 14.1218 63.3184 14.1269 63.3184C14.132 63.3184 14.1371 63.3184 14.1422 63.3184C14.1472 63.3184 14.1523 63.3184 14.1574 63.3184C14.1625 63.3184 14.1676 63.3184 14.1727 63.3184C14.1778 63.3184 14.1829 63.3184 14.188 63.3184C14.1931 63.3184 14.1982 63.3184 14.2033 63.3184C14.2083 63.3184 14.2134 63.3184 14.2185 63.3184C14.2236 63.3184 14.2287 63.3184 14.2338 63.3184C14.2389 63.3184 14.244 63.3184 14.2491 63.3184C14.2542 63.3184 14.2593 63.3184 14.2644 63.3184C14.2695 63.3184 14.2746 63.3184 14.2797 63.3184C14.2848 63.3184 14.2899 63.3184 14.295 63.3184C14.3001 63.3184 14.3052 63.3184 14.3103 63.3184C14.3154 63.3184 14.3205 63.3184 14.3257 63.3184C14.3308 63.3184 14.3359 63.3184 14.341 63.3184C14.3461 63.3184 14.3512 63.3184 14.3563 63.3184C14.3614 63.3184 14.3665 63.3184 14.3716 63.3184C14.3767 63.3184 14.3819 63.3184 14.387 63.3184C14.3921 63.3184 14.3972 63.3184 14.4023 63.3184C14.4074 63.3184 14.4126 63.3184 14.4177 63.3184C14.4228 63.3184 14.4279 63.3184 14.433 63.3184C14.4381 63.3184 14.4433 63.3184 14.4484 63.3184C14.4535 63.3184 14.4586 63.3184 14.4638 63.3184C14.4689 63.3184 14.474 63.3184 14.4791 63.3184C14.4843 63.3184 14.4894 63.3184 14.4945 63.3184C14.4996 63.3184 14.5048 63.3184 14.5099 63.3184C14.515 63.3184 14.5202 63.3184 14.5253 63.3184C14.5304 63.3184 14.5356 63.3184 14.5407 63.3184C14.5458 63.3184 14.551 63.3184 14.5561 63.3184C14.5612 63.3184 14.5664 63.3184 14.5715 63.3184C14.5767 63.3184 14.5818 63.3184 14.587 63.3184C14.5921 63.3184 14.5972 63.3184 14.6024 63.3184C14.6075 63.3184 14.6127 63.3184 14.6178 63.3184C14.623 63.3184 14.6281 63.3184 14.6333 63.3184C14.6384 63.3184 14.6436 63.3184 14.6487 63.3184C14.6539 63.3184 14.659 63.3184 14.6642 63.3184C14.6693 63.3184 14.6745 63.3184 14.6797 63.3184C14.6848 63.3184 14.69 63.3184 14.6951 63.3184C14.7003 63.3184 14.7055 63.3184 14.7106 63.3184C14.7158 63.3184 14.7209 63.3184 14.7261 63.3184C14.7313 63.3184 14.7365 63.3184 14.7416 63.3184C14.7468 63.3184 14.752 63.3184 14.7571 63.3184C14.7623 63.3184 14.7675 63.3184 14.7727 63.3184C14.7778 63.3184 14.783 63.3184 14.7882 63.3184C14.7934 63.3184 14.7985 63.3184 14.8037 63.3184C14.8089 63.3184 14.8141 63.3184 14.8193 63.3184C14.8245 63.3184 14.8296 63.3184 14.8348 63.3184C14.84 63.3184 14.8452 63.3184 14.8504 63.3184C14.8556 63.3184 14.8608 63.3184 14.866 63.3184C14.8712 63.3184 14.8764 63.3184 14.8816 63.3184C14.8868 63.3184 14.892 63.3184 14.8972 63.3184C14.9024 63.3184 14.9076 63.3184 14.9128 63.3184C14.918 63.3184 14.9232 63.3184 14.9284 63.3184C14.9336 63.3184 14.9388 63.3184 14.944 63.3184C14.9492 63.3184 14.9544 63.3184 14.9597 63.3184C14.9649 63.3184 14.9701 63.3184 14.9753 63.3184C14.9805 63.3184 14.9857 63.3184 14.991 63.3184C14.9962 63.3184 15.0014 63.3184 15.0066 63.3184C15.0119 63.3184 15.0171 63.3184 15.0223 63.3184C15.0275 63.3184 15.0328 63.3184 15.038 63.3184C15.0432 63.3184 15.0485 63.3184 15.0537 63.3184C15.059 63.3184 15.0642 63.3184 15.0694 63.3184C15.0747 63.3184 15.0799 63.3184 15.0852 63.3184C15.0904 63.3184 15.0956 63.3184 15.1009 63.3184C15.1061 63.3184 15.1114 63.3184 15.1166 63.3184C15.1219 63.3184 15.1272 63.3184 15.1324 63.3184C15.1377 63.3184 15.1429 63.3184 15.1482 63.3184C15.1534 63.3184 15.1587 63.3184 15.164 63.3184C15.1692 63.3184 15.1745 63.3184 15.1798 63.3184C15.185 63.3184 15.1903 63.3184 15.1956 63.3184C15.2009 63.3184 15.2061 63.3184 15.2114 63.3184C15.2167 63.3184 15.222 63.3184 15.2272 63.3184C15.2325 63.3184 15.2378 63.3184 15.2431 63.3184C15.2484 63.3184 15.2537 63.3184 15.259 63.3184C15.2642 63.3184 15.2695 63.3184 15.2748 63.3184C15.2801 63.3184 15.2854 63.3184 15.2907 63.3184C15.296 63.3184 15.3013 63.3184 15.3066 63.3184C15.3119 63.3184 15.3172 63.3184 15.3225 63.3184C15.3278 63.3184 15.3332 63.3184 15.3385 63.3184C15.3438 63.3184 15.3491 63.3184 15.3544 63.3184C15.3597 63.3184 15.365 63.3184 15.3704 63.3184C15.3757 63.3184 15.381 63.3184 15.3863 63.3184C15.3917 63.3184 15.397 63.3184 15.4023 63.3184C15.4076 63.3184 15.413 63.3184 15.4183 63.3184C15.4237 63.3184 15.429 63.3184 15.4343 63.3184C15.4397 63.3184 15.445 63.3184 15.4504 63.3184C15.4557 63.3184 15.461 63.3184 15.4664 63.3184C15.4717 63.3184 15.4771 63.3184 15.4825 63.3184C15.4878 63.3184 15.4932 63.3184 15.4985 63.3184C15.5039 63.3184 15.5092 63.3184 15.5146 63.3184C15.52 63.3184 15.5253 63.3184 15.5307 63.3184C15.5361 63.3184 15.5415 63.3184 15.5468 63.3184C15.5522 63.3184 15.5576 63.3184 15.563 63.3184C15.5683 63.3184 15.5737 63.3184 15.5791 63.3184C15.5845 63.3184 15.5899 63.3184 15.5953 63.3184C15.6007 63.3184 15.6061 63.3184 15.6115 63.3184C15.6169 63.3184 15.6223 63.3184 15.6277 63.3184C15.6331 63.3184 15.6385 63.3184 15.6439 63.3184C15.6493 63.3184 15.6547 63.3184 15.6601 63.3184C15.6655 63.3184 15.6709 63.3184 15.6763 63.3184C15.6818 63.3184 15.6872 63.3184 15.6926 63.3184C15.698 63.3184 15.7035 63.3184 15.7089 63.3184C15.7143 63.3184 15.7197 63.3184 15.7252 63.3184C15.7306 63.3184 15.736 63.3184 15.7415 63.3184C15.7469 63.3184 15.7524 63.3184 15.7578 63.3184C15.7633 63.3184 15.7687 63.3184 15.7742 63.3184C15.7796 63.3184 15.7851 63.3184 15.7905 63.3184C15.796 63.3184 15.8014 63.3184 15.8069 63.3184C15.8124 63.3184 15.8178 63.3184 15.8233 63.3184C15.8288 63.3184 15.8342 63.3184 15.8397 63.3184C15.8452 63.3184 15.8507 63.3184 15.8561 63.3184C15.8616 63.3184 15.8671 63.3184 15.8726 63.3184C15.8781 63.3184 15.8836 63.3184 15.8891 63.3184C15.8946 63.3184 15.9001 63.3184 15.9056 63.3184C15.9111 63.3184 15.9166 63.3184 15.9221 63.3184C15.9276 63.3184 15.9331 63.3184 15.9386 63.3184C15.9441 63.3184 15.9496 63.3184 15.9551 63.3184C15.9606 63.3184 15.9662 63.3184 15.9717 63.3184C15.9772 63.3184 15.9827 63.3184 15.9883 63.3184C15.9938 63.3184 15.9993 63.3184 16.0049 63.3184C16.0104 63.3184 16.0159 63.3184 16.0215 63.3184C16.027 63.3184 16.0326 63.3184 16.0381 63.3184C16.0437 63.3184 16.0492 63.3184 16.0548 63.3184C16.0603 63.3184 16.0659 63.3184 16.0715 63.3184C16.077 63.3184 16.0826 63.3184 16.0881 63.3184C16.0937 63.3184 16.0993 63.3184 16.1049 63.3184C16.1104 63.3184 16.116 63.3184 16.1216 63.3184C16.1272 63.3184 16.1328 63.3184 16.1384 63.3184C16.1439 63.3184 16.1495 63.3184 16.1551 63.3184C16.1607 63.3184 16.1663 63.3184 16.1719 63.3184C16.1775 63.3184 16.1831 63.3184 16.1887 63.3184C16.1943 63.3184 16.2 63.3184 16.2056 63.3184C16.2112 63.3184 16.2168 63.3184 16.2224 63.3184C16.2281 63.3184 16.2337 63.3184 16.2393 63.3184C16.2449 63.3184 16.2506 63.3184 16.2562 63.3184C16.2618 63.3184 16.2675 63.3184 16.2731 63.3184C16.2788 63.3184 16.2844 63.3184 16.2901 63.3184C16.2957 63.3184 16.3014 63.3184 16.307 63.3184C16.3127 63.3184 16.3183 63.3184 16.324 63.3184C16.3297 63.3184 16.3353 63.3184 16.341 63.3184C16.3467 63.3184 16.3524 63.3184 16.358 63.3184C16.3637 63.3184 16.3694 63.3184 16.3751 63.3184C16.3808 63.3184 16.3865 63.3184 16.3922 63.3184C16.3979 63.3184 16.4036 63.3184 16.4093 63.3184C16.415 63.3184 16.4207 63.3184 16.4264 63.3184C16.4321 63.3184 16.4378 63.3184 16.4435 63.3184C16.4492 63.3184 16.4549 63.3184 16.4607 63.3184C16.4664 63.3184 16.4721 63.3184 16.4779 63.3184C16.4836 63.3184 16.4893 63.3184 16.4951 63.3184C16.5008 63.3184 16.5065 63.3184 16.5123 63.3184C16.518 63.3184 16.5238 63.3184 16.5295 63.3184C16.5353 63.3184 16.5411 63.3184 16.5468 63.3184C16.5526 63.3184 16.5583 63.3184 16.5641 63.3184C16.5699 63.3184 16.5757 63.3184 16.5814 63.3184C16.5872 63.3184 16.593 63.3184 16.5988 63.3184C16.6046 63.3184 16.6104 63.3184 16.6161 63.3184C16.6219 63.3184 16.6277 63.3184 16.6335 63.3184C16.6393 63.3184 16.6451 63.3184 16.651 63.3184C16.6568 63.3184 16.6626 63.3184 16.6684 63.3184C16.6742 63.3184 16.68 63.3184 16.6859 63.3184C16.6917 63.3184 16.6975 63.3184 16.7033 63.3184C16.7092 63.3184 16.715 63.3184 16.7209 63.3184C16.7267 63.3184 16.7325 63.3184 16.7384 63.3184C16.7442 63.3184 16.7501 63.3184 16.756 63.3184C16.7618 63.3184 16.7677 63.3184 16.7735 63.3184C16.7794 63.3184 16.7853 63.3184 16.7912 63.3184C16.797 63.3184 16.8029 63.3184 16.8088 63.3184C16.8147 63.3184 16.8206 63.3184 16.8265 63.3184C16.8323 63.3184 16.8382 63.3184 16.8441 63.3184C16.85 63.3184 16.8559 63.3184 16.8619 63.3184C16.8678 63.3184 16.8737 63.3184 16.8796 63.3184C16.8855 63.3184 16.8914 63.3184 16.8974 63.3184C16.9033 63.3184 16.9092 63.3184 16.9151 63.3184C16.9211 63.3184 16.927 63.3184 16.933 63.3184C16.9389 63.3184 16.9449 63.3184 16.9508 63.3184C16.9568 63.3184 16.9627 63.3184 16.9687 63.3184C16.9746 63.3184 16.9806 63.3184 16.9866 63.3184C16.9925 63.3184 16.9985 63.3184 17.0045 63.3184C17.0105 63.3184 17.0165 63.3184 17.0224 63.3184C17.0284 63.3184 17.0344 63.3184 17.0404 63.3184C17.0464 63.3184 17.0524 63.3184 17.0584 63.3184C17.0644 63.3184 17.0704 63.3184 17.0764 63.3184C17.0825 63.3184 17.0885 63.3184 17.0945 63.3184C17.1005 63.3184 17.1066 63.3184 17.1126 63.3184C17.1186 63.3184 17.1247 63.3184 17.1307 63.3184C17.1367 63.3184 17.1428 63.3184 17.1488 63.3184C17.1549 63.3184 17.1609 63.3184 17.167 63.3184C17.1731 63.3184 17.1791 63.3184 17.1852 63.3184C17.1913 63.3184 17.1973 63.3184 17.2034 63.3184C17.2095 63.3184 17.2156 63.3184 17.2217 63.3184C17.2278 63.3184 17.2339 63.3184 17.2399 63.3184C17.246 63.3184 17.2521 63.3184 17.2583 63.3184C17.2644 63.3184 17.2705 63.3184 17.2766 63.3184C17.2827 63.3184 17.2888 63.3184 17.295 63.3184C17.3011 63.3184 17.3072 63.3184 17.3133 63.3184C17.3195 63.3184 17.3256 63.3184 17.3318 63.3184C17.3379 63.3184 17.3441 63.3184 17.3502 63.3184C17.3564 63.3184 17.3625 63.3184 17.3687 63.3184C17.3749 63.3184 17.381 63.3184 17.3872 63.3184C17.3934 63.3184 17.3996 63.3184 17.4057 63.3184C17.4119 63.3184 17.4181 63.3184 17.4243 63.3184C17.4305 63.3184 17.4367 63.3184 17.4429 63.3184C17.4491 63.3184 17.4553 63.3184 17.4615 63.3184C17.4678 63.3184 17.474 63.3184 17.4802 63.3184C17.4864 63.3184 17.4927 63.3184 17.4989 63.3184C17.5051 63.3184 17.5114 63.3184 17.5176 63.3184C17.5238 63.3184 17.5301 63.3184 17.5364 63.3184C17.5426 63.3184 17.5489 63.3184 17.5551 63.3184C17.5614 63.3184 17.5677 63.3184 17.5739 63.3184C17.5802 63.3184 17.5865 63.3184 17.5928 63.3184C17.5991 63.3184 17.6054 63.3184 17.6117 63.3184C17.6179 63.3184 17.6242 63.3184 17.6306 63.3184C17.6369 63.3184 17.6432 63.3184 17.6495 63.3184C17.6558 63.3184 17.6621 63.3184 17.6684 63.3184C17.6748 63.3184 17.6811 63.3184 17.6874 63.3184C17.6938 63.3184 17.7001 63.3184 17.7065 63.3184C17.7128 63.3184 17.7192 63.3184 17.7255 63.3184C17.7319 63.3184 17.7383 63.3184 17.7446 63.3184C17.751 63.3184 17.7574 63.3184 17.7637 63.3184C17.7701 63.3184 17.7765 63.3184 17.7829 63.3184C17.7893 63.3184 17.7957 63.3184 17.8021 63.3184C17.8085 63.3184 17.8149 63.3184 17.8213 63.3184C17.8277 63.3184 17.8341 63.3184 17.8406 63.3184C17.847 63.3184 17.8534 63.3184 17.8598 63.3184C17.8663 63.3184 17.8727 63.3184 17.8792 63.3184C17.8856 63.3184 17.892 63.3184 17.8985 63.3184C17.905 63.3184 17.9114 63.3184 17.9179 63.3184C17.9244 63.3184 17.9308 63.3184 17.9373 63.3184C17.9438 63.3184 17.9503 63.3184 17.9567 63.3184C17.9632 63.3184 17.9697 63.3184 17.9762 63.3184V62.3184ZM32.749 63.3184H47.5217V62.3184H32.749V63.3184Z" fill="#003E7C"/>
<circle cx="15.3636" cy="36.8179" r="3.04545" stroke="#006CBD"/>
<circle cx="31.909" cy="48.6363" r="3.04545" stroke="#006CBD"/>
<path d="M15.3636 33.8633V36.8178M15.3636 36.8178L13 38.5906M15.3636 36.8178L17.7273 38.5906" stroke="#006CBD"/>
<path d="M31.909 45.6816V48.6362M31.909 48.6362L29.5454 50.4089M31.909 48.6362L34.2727 50.4089" stroke="#006CBD"/>
</svg>
 