<svg width="124" height="208" viewBox="0 0 124 208" fill="none" xmlns="http://www.w3.org/2000/svg">
<path d="M114.332 37.7046C109.941 18.3263 98.9132 2.57925 97.4439 0C90.7026 10.1973 85.4212 21.296 81.7544 32.9703C77.2743 48.3806 75.9415 64.5419 77.8363 80.4828C79.2713 90.9507 81.9591 101.206 85.8415 111.027C88.918 118.431 92.8097 125.466 97.4439 132C102.24 125.722 113.302 107.022 116.731 82.57C118.673 68.978 118.757 57.0829 114.332 37.7046ZM97.4439 127.266C93.6505 119.857 91.6485 111.654 91.6004 103.323C91.5942 95.0358 93.6246 86.8756 97.5114 79.5665C101.03 86.6153 102.967 94.354 103.186 102.237C103.421 110.935 101.445 119.549 97.4439 127.266V127.266ZM113.066 70.59C113.002 77.2608 112.295 83.9097 110.955 90.4435C111.239 80.9758 110.434 71.5068 108.557 62.2244C106.716 53.3837 101.514 38.587 97.3594 31.6807C93.5088 38.1797 88.7969 50.9742 86.3143 62.0717C84.5108 71.4754 83.6508 81.0371 83.7473 90.6132C82.2316 81.4766 81.615 72.2122 81.9064 62.9541C82.3696 54.4715 83.711 46.0605 85.909 37.8573C88.6851 28.2987 92.5084 19.0791 97.3088 10.3679C102.239 18.9211 106.134 28.0357 108.911 37.5179C111.822 48.2938 113.22 59.4254 113.066 70.59V70.59Z" fill="#2177C6"/>
<path d="M105.089 136H71.6961V158.517V158.415C73.5077 156.29 75.7369 154.564 78.244 153.346C80.751 152.127 83.4817 151.443 86.2647 151.335C89.0477 151.227 91.8228 151.698 94.4159 152.718C97.0091 153.739 99.3642 155.287 101.334 157.265C103.303 159.244 104.844 161.61 105.86 164.215C106.876 166.82 107.345 169.608 107.237 172.404C107.13 175.2 106.448 177.943 105.235 180.461C104.022 182.98 102.304 185.22 100.189 187.039L100.088 187.141L99.9698 187.259C95.2749 191.942 89.5032 195.39 83.1656 197.298C76.828 199.206 70.1199 199.515 63.6351 198.198C57.1503 196.88 51.0889 193.977 45.9872 189.745C40.8856 185.513 36.9011 180.083 34.3865 173.935C31.8719 167.787 30.9047 161.111 31.5705 154.499C32.2363 147.886 34.5146 141.54 38.2037 136.023C41.8928 130.505 46.879 125.986 52.7208 122.867C58.5627 119.747 65.0801 118.122 71.6961 118.135V64C59.8083 63.9956 48.1061 66.9619 37.6435 72.6318C27.1809 78.3017 18.2865 86.4971 11.7614 96.4799C5.23628 106.463 1.28544 117.919 0.264705 129.818C-0.756033 141.716 1.18539 153.683 5.91412 164.64C10.6428 175.597 18.0104 185.201 27.3531 192.585C36.6958 199.97 47.7202 204.904 59.4335 206.943C71.1467 208.982 83.1809 208.062 94.4521 204.265C105.723 200.469 115.877 193.916 124 185.195V136H105.089Z" fill="#2177C6"/>
</svg>
